%TF.GenerationSoftware,KiCad,Pcbnew,(7.0.0-0)*%
%TF.CreationDate,2023-08-12T01:46:22+02:00*%
%TF.ProjectId,door_bell,646f6f72-5f62-4656-9c6c-2e6b69636164,rev?*%
%TF.SameCoordinates,Original*%
%TF.FileFunction,Legend,Top*%
%TF.FilePolarity,Positive*%
%FSLAX46Y46*%
G04 Gerber Fmt 4.6, Leading zero omitted, Abs format (unit mm)*
G04 Created by KiCad (PCBNEW (7.0.0-0)) date 2023-08-12 01:46:22*
%MOMM*%
%LPD*%
G01*
G04 APERTURE LIST*
%ADD10C,0.153000*%
%ADD11C,0.120000*%
%ADD12C,0.100000*%
%ADD13C,0.150000*%
G04 APERTURE END LIST*
D10*
X171413619Y-95757904D02*
X171413619Y-95186476D01*
X171413619Y-95472190D02*
X172413619Y-95472190D01*
X172413619Y-95472190D02*
X172270761Y-95376952D01*
X172270761Y-95376952D02*
X172175523Y-95281714D01*
X172175523Y-95281714D02*
X172127904Y-95186476D01*
X172413619Y-96376952D02*
X172413619Y-96472190D01*
X172413619Y-96472190D02*
X172366000Y-96567428D01*
X172366000Y-96567428D02*
X172318380Y-96615047D01*
X172318380Y-96615047D02*
X172223142Y-96662666D01*
X172223142Y-96662666D02*
X172032666Y-96710285D01*
X172032666Y-96710285D02*
X171794571Y-96710285D01*
X171794571Y-96710285D02*
X171604095Y-96662666D01*
X171604095Y-96662666D02*
X171508857Y-96615047D01*
X171508857Y-96615047D02*
X171461238Y-96567428D01*
X171461238Y-96567428D02*
X171413619Y-96472190D01*
X171413619Y-96472190D02*
X171413619Y-96376952D01*
X171413619Y-96376952D02*
X171461238Y-96281714D01*
X171461238Y-96281714D02*
X171508857Y-96234095D01*
X171508857Y-96234095D02*
X171604095Y-96186476D01*
X171604095Y-96186476D02*
X171794571Y-96138857D01*
X171794571Y-96138857D02*
X172032666Y-96138857D01*
X172032666Y-96138857D02*
X172223142Y-96186476D01*
X172223142Y-96186476D02*
X172318380Y-96234095D01*
X172318380Y-96234095D02*
X172366000Y-96281714D01*
X172366000Y-96281714D02*
X172413619Y-96376952D01*
X172413619Y-96996000D02*
X171413619Y-97329333D01*
X171413619Y-97329333D02*
X172413619Y-97662666D01*
X171699333Y-97948381D02*
X171699333Y-98424571D01*
X171413619Y-97853143D02*
X172413619Y-98186476D01*
X172413619Y-98186476D02*
X171413619Y-98519809D01*
X171508857Y-99424571D02*
X171461238Y-99376952D01*
X171461238Y-99376952D02*
X171413619Y-99234095D01*
X171413619Y-99234095D02*
X171413619Y-99138857D01*
X171413619Y-99138857D02*
X171461238Y-98996000D01*
X171461238Y-98996000D02*
X171556476Y-98900762D01*
X171556476Y-98900762D02*
X171651714Y-98853143D01*
X171651714Y-98853143D02*
X171842190Y-98805524D01*
X171842190Y-98805524D02*
X171985047Y-98805524D01*
X171985047Y-98805524D02*
X172175523Y-98853143D01*
X172175523Y-98853143D02*
X172270761Y-98900762D01*
X172270761Y-98900762D02*
X172366000Y-98996000D01*
X172366000Y-98996000D02*
X172413619Y-99138857D01*
X172413619Y-99138857D02*
X172413619Y-99234095D01*
X172413619Y-99234095D02*
X172366000Y-99376952D01*
X172366000Y-99376952D02*
X172318380Y-99424571D01*
X171413619Y-74215523D02*
X171889809Y-73882190D01*
X171413619Y-73644095D02*
X172413619Y-73644095D01*
X172413619Y-73644095D02*
X172413619Y-74025047D01*
X172413619Y-74025047D02*
X172366000Y-74120285D01*
X172366000Y-74120285D02*
X172318380Y-74167904D01*
X172318380Y-74167904D02*
X172223142Y-74215523D01*
X172223142Y-74215523D02*
X172080285Y-74215523D01*
X172080285Y-74215523D02*
X171985047Y-74167904D01*
X171985047Y-74167904D02*
X171937428Y-74120285D01*
X171937428Y-74120285D02*
X171889809Y-74025047D01*
X171889809Y-74025047D02*
X171889809Y-73644095D01*
X172318380Y-74596476D02*
X172366000Y-74644095D01*
X172366000Y-74644095D02*
X172413619Y-74739333D01*
X172413619Y-74739333D02*
X172413619Y-74977428D01*
X172413619Y-74977428D02*
X172366000Y-75072666D01*
X172366000Y-75072666D02*
X172318380Y-75120285D01*
X172318380Y-75120285D02*
X172223142Y-75167904D01*
X172223142Y-75167904D02*
X172127904Y-75167904D01*
X172127904Y-75167904D02*
X171985047Y-75120285D01*
X171985047Y-75120285D02*
X171413619Y-74548857D01*
X171413619Y-74548857D02*
X171413619Y-75167904D01*
X119376723Y-89012580D02*
X119043390Y-88536390D01*
X118805295Y-89012580D02*
X118805295Y-88012580D01*
X118805295Y-88012580D02*
X119186247Y-88012580D01*
X119186247Y-88012580D02*
X119281485Y-88060200D01*
X119281485Y-88060200D02*
X119329104Y-88107819D01*
X119329104Y-88107819D02*
X119376723Y-88203057D01*
X119376723Y-88203057D02*
X119376723Y-88345914D01*
X119376723Y-88345914D02*
X119329104Y-88441152D01*
X119329104Y-88441152D02*
X119281485Y-88488771D01*
X119281485Y-88488771D02*
X119186247Y-88536390D01*
X119186247Y-88536390D02*
X118805295Y-88536390D01*
X119805295Y-88488771D02*
X120138628Y-88488771D01*
X120281485Y-89012580D02*
X119805295Y-89012580D01*
X119805295Y-89012580D02*
X119805295Y-88012580D01*
X119805295Y-88012580D02*
X120281485Y-88012580D01*
X120662438Y-88964961D02*
X120805295Y-89012580D01*
X120805295Y-89012580D02*
X121043390Y-89012580D01*
X121043390Y-89012580D02*
X121138628Y-88964961D01*
X121138628Y-88964961D02*
X121186247Y-88917342D01*
X121186247Y-88917342D02*
X121233866Y-88822104D01*
X121233866Y-88822104D02*
X121233866Y-88726866D01*
X121233866Y-88726866D02*
X121186247Y-88631628D01*
X121186247Y-88631628D02*
X121138628Y-88584009D01*
X121138628Y-88584009D02*
X121043390Y-88536390D01*
X121043390Y-88536390D02*
X120852914Y-88488771D01*
X120852914Y-88488771D02*
X120757676Y-88441152D01*
X120757676Y-88441152D02*
X120710057Y-88393533D01*
X120710057Y-88393533D02*
X120662438Y-88298295D01*
X120662438Y-88298295D02*
X120662438Y-88203057D01*
X120662438Y-88203057D02*
X120710057Y-88107819D01*
X120710057Y-88107819D02*
X120757676Y-88060200D01*
X120757676Y-88060200D02*
X120852914Y-88012580D01*
X120852914Y-88012580D02*
X121091009Y-88012580D01*
X121091009Y-88012580D02*
X121233866Y-88060200D01*
X121662438Y-88488771D02*
X121995771Y-88488771D01*
X122138628Y-89012580D02*
X121662438Y-89012580D01*
X121662438Y-89012580D02*
X121662438Y-88012580D01*
X121662438Y-88012580D02*
X122138628Y-88012580D01*
X122424343Y-88012580D02*
X122995771Y-88012580D01*
X122710057Y-89012580D02*
X122710057Y-88012580D01*
X134578095Y-58151428D02*
X135340000Y-58151428D01*
X134959047Y-58532380D02*
X134959047Y-57770476D01*
X172366000Y-66547904D02*
X172413619Y-66452666D01*
X172413619Y-66452666D02*
X172413619Y-66309809D01*
X172413619Y-66309809D02*
X172366000Y-66166952D01*
X172366000Y-66166952D02*
X172270761Y-66071714D01*
X172270761Y-66071714D02*
X172175523Y-66024095D01*
X172175523Y-66024095D02*
X171985047Y-65976476D01*
X171985047Y-65976476D02*
X171842190Y-65976476D01*
X171842190Y-65976476D02*
X171651714Y-66024095D01*
X171651714Y-66024095D02*
X171556476Y-66071714D01*
X171556476Y-66071714D02*
X171461238Y-66166952D01*
X171461238Y-66166952D02*
X171413619Y-66309809D01*
X171413619Y-66309809D02*
X171413619Y-66405047D01*
X171413619Y-66405047D02*
X171461238Y-66547904D01*
X171461238Y-66547904D02*
X171508857Y-66595523D01*
X171508857Y-66595523D02*
X171842190Y-66595523D01*
X171842190Y-66595523D02*
X171842190Y-66405047D01*
X171413619Y-67024095D02*
X172413619Y-67024095D01*
X172413619Y-67024095D02*
X171413619Y-67595523D01*
X171413619Y-67595523D02*
X172413619Y-67595523D01*
X171413619Y-68071714D02*
X172413619Y-68071714D01*
X172413619Y-68071714D02*
X172413619Y-68309809D01*
X172413619Y-68309809D02*
X172366000Y-68452666D01*
X172366000Y-68452666D02*
X172270761Y-68547904D01*
X172270761Y-68547904D02*
X172175523Y-68595523D01*
X172175523Y-68595523D02*
X171985047Y-68643142D01*
X171985047Y-68643142D02*
X171842190Y-68643142D01*
X171842190Y-68643142D02*
X171651714Y-68595523D01*
X171651714Y-68595523D02*
X171556476Y-68547904D01*
X171556476Y-68547904D02*
X171461238Y-68452666D01*
X171461238Y-68452666D02*
X171413619Y-68309809D01*
X171413619Y-68309809D02*
X171413619Y-68071714D01*
X171461238Y-84010476D02*
X171413619Y-84153333D01*
X171413619Y-84153333D02*
X171413619Y-84391428D01*
X171413619Y-84391428D02*
X171461238Y-84486666D01*
X171461238Y-84486666D02*
X171508857Y-84534285D01*
X171508857Y-84534285D02*
X171604095Y-84581904D01*
X171604095Y-84581904D02*
X171699333Y-84581904D01*
X171699333Y-84581904D02*
X171794571Y-84534285D01*
X171794571Y-84534285D02*
X171842190Y-84486666D01*
X171842190Y-84486666D02*
X171889809Y-84391428D01*
X171889809Y-84391428D02*
X171937428Y-84200952D01*
X171937428Y-84200952D02*
X171985047Y-84105714D01*
X171985047Y-84105714D02*
X172032666Y-84058095D01*
X172032666Y-84058095D02*
X172127904Y-84010476D01*
X172127904Y-84010476D02*
X172223142Y-84010476D01*
X172223142Y-84010476D02*
X172318380Y-84058095D01*
X172318380Y-84058095D02*
X172366000Y-84105714D01*
X172366000Y-84105714D02*
X172413619Y-84200952D01*
X172413619Y-84200952D02*
X172413619Y-84439047D01*
X172413619Y-84439047D02*
X172366000Y-84581904D01*
X172318380Y-84962857D02*
X172366000Y-85010476D01*
X172366000Y-85010476D02*
X172413619Y-85105714D01*
X172413619Y-85105714D02*
X172413619Y-85343809D01*
X172413619Y-85343809D02*
X172366000Y-85439047D01*
X172366000Y-85439047D02*
X172318380Y-85486666D01*
X172318380Y-85486666D02*
X172223142Y-85534285D01*
X172223142Y-85534285D02*
X172127904Y-85534285D01*
X172127904Y-85534285D02*
X171985047Y-85486666D01*
X171985047Y-85486666D02*
X171413619Y-84915238D01*
X171413619Y-84915238D02*
X171413619Y-85534285D01*
X139382476Y-57138761D02*
X139525333Y-57186380D01*
X139525333Y-57186380D02*
X139763428Y-57186380D01*
X139763428Y-57186380D02*
X139858666Y-57138761D01*
X139858666Y-57138761D02*
X139906285Y-57091142D01*
X139906285Y-57091142D02*
X139953904Y-56995904D01*
X139953904Y-56995904D02*
X139953904Y-56900666D01*
X139953904Y-56900666D02*
X139906285Y-56805428D01*
X139906285Y-56805428D02*
X139858666Y-56757809D01*
X139858666Y-56757809D02*
X139763428Y-56710190D01*
X139763428Y-56710190D02*
X139572952Y-56662571D01*
X139572952Y-56662571D02*
X139477714Y-56614952D01*
X139477714Y-56614952D02*
X139430095Y-56567333D01*
X139430095Y-56567333D02*
X139382476Y-56472095D01*
X139382476Y-56472095D02*
X139382476Y-56376857D01*
X139382476Y-56376857D02*
X139430095Y-56281619D01*
X139430095Y-56281619D02*
X139477714Y-56234000D01*
X139477714Y-56234000D02*
X139572952Y-56186380D01*
X139572952Y-56186380D02*
X139811047Y-56186380D01*
X139811047Y-56186380D02*
X139953904Y-56234000D01*
X140287238Y-56186380D02*
X140525333Y-57186380D01*
X140525333Y-57186380D02*
X140715809Y-56472095D01*
X140715809Y-56472095D02*
X140906285Y-57186380D01*
X140906285Y-57186380D02*
X141144381Y-56186380D01*
X141525333Y-57186380D02*
X141525333Y-56186380D01*
X141858666Y-56186380D02*
X142430094Y-56186380D01*
X142144380Y-57186380D02*
X142144380Y-56186380D01*
X143334856Y-57091142D02*
X143287237Y-57138761D01*
X143287237Y-57138761D02*
X143144380Y-57186380D01*
X143144380Y-57186380D02*
X143049142Y-57186380D01*
X143049142Y-57186380D02*
X142906285Y-57138761D01*
X142906285Y-57138761D02*
X142811047Y-57043523D01*
X142811047Y-57043523D02*
X142763428Y-56948285D01*
X142763428Y-56948285D02*
X142715809Y-56757809D01*
X142715809Y-56757809D02*
X142715809Y-56614952D01*
X142715809Y-56614952D02*
X142763428Y-56424476D01*
X142763428Y-56424476D02*
X142811047Y-56329238D01*
X142811047Y-56329238D02*
X142906285Y-56234000D01*
X142906285Y-56234000D02*
X143049142Y-56186380D01*
X143049142Y-56186380D02*
X143144380Y-56186380D01*
X143144380Y-56186380D02*
X143287237Y-56234000D01*
X143287237Y-56234000D02*
X143334856Y-56281619D01*
X143763428Y-57186380D02*
X143763428Y-56186380D01*
X143763428Y-56662571D02*
X144334856Y-56662571D01*
X144334856Y-57186380D02*
X144334856Y-56186380D01*
X137588523Y-58488142D02*
X137540904Y-58535761D01*
X137540904Y-58535761D02*
X137398047Y-58583380D01*
X137398047Y-58583380D02*
X137302809Y-58583380D01*
X137302809Y-58583380D02*
X137159952Y-58535761D01*
X137159952Y-58535761D02*
X137064714Y-58440523D01*
X137064714Y-58440523D02*
X137017095Y-58345285D01*
X137017095Y-58345285D02*
X136969476Y-58154809D01*
X136969476Y-58154809D02*
X136969476Y-58011952D01*
X136969476Y-58011952D02*
X137017095Y-57821476D01*
X137017095Y-57821476D02*
X137064714Y-57726238D01*
X137064714Y-57726238D02*
X137159952Y-57631000D01*
X137159952Y-57631000D02*
X137302809Y-57583380D01*
X137302809Y-57583380D02*
X137398047Y-57583380D01*
X137398047Y-57583380D02*
X137540904Y-57631000D01*
X137540904Y-57631000D02*
X137588523Y-57678619D01*
X138207571Y-57583380D02*
X138398047Y-57583380D01*
X138398047Y-57583380D02*
X138493285Y-57631000D01*
X138493285Y-57631000D02*
X138588523Y-57726238D01*
X138588523Y-57726238D02*
X138636142Y-57916714D01*
X138636142Y-57916714D02*
X138636142Y-58250047D01*
X138636142Y-58250047D02*
X138588523Y-58440523D01*
X138588523Y-58440523D02*
X138493285Y-58535761D01*
X138493285Y-58535761D02*
X138398047Y-58583380D01*
X138398047Y-58583380D02*
X138207571Y-58583380D01*
X138207571Y-58583380D02*
X138112333Y-58535761D01*
X138112333Y-58535761D02*
X138017095Y-58440523D01*
X138017095Y-58440523D02*
X137969476Y-58250047D01*
X137969476Y-58250047D02*
X137969476Y-57916714D01*
X137969476Y-57916714D02*
X138017095Y-57726238D01*
X138017095Y-57726238D02*
X138112333Y-57631000D01*
X138112333Y-57631000D02*
X138207571Y-57583380D01*
X139064714Y-58583380D02*
X139064714Y-57583380D01*
X139064714Y-57583380D02*
X139398047Y-58297666D01*
X139398047Y-58297666D02*
X139731380Y-57583380D01*
X139731380Y-57583380D02*
X139731380Y-58583380D01*
X129857476Y-57138761D02*
X130000333Y-57186380D01*
X130000333Y-57186380D02*
X130238428Y-57186380D01*
X130238428Y-57186380D02*
X130333666Y-57138761D01*
X130333666Y-57138761D02*
X130381285Y-57091142D01*
X130381285Y-57091142D02*
X130428904Y-56995904D01*
X130428904Y-56995904D02*
X130428904Y-56900666D01*
X130428904Y-56900666D02*
X130381285Y-56805428D01*
X130381285Y-56805428D02*
X130333666Y-56757809D01*
X130333666Y-56757809D02*
X130238428Y-56710190D01*
X130238428Y-56710190D02*
X130047952Y-56662571D01*
X130047952Y-56662571D02*
X129952714Y-56614952D01*
X129952714Y-56614952D02*
X129905095Y-56567333D01*
X129905095Y-56567333D02*
X129857476Y-56472095D01*
X129857476Y-56472095D02*
X129857476Y-56376857D01*
X129857476Y-56376857D02*
X129905095Y-56281619D01*
X129905095Y-56281619D02*
X129952714Y-56234000D01*
X129952714Y-56234000D02*
X130047952Y-56186380D01*
X130047952Y-56186380D02*
X130286047Y-56186380D01*
X130286047Y-56186380D02*
X130428904Y-56234000D01*
X130857476Y-57186380D02*
X130857476Y-56186380D01*
X130857476Y-56186380D02*
X131238428Y-56186380D01*
X131238428Y-56186380D02*
X131333666Y-56234000D01*
X131333666Y-56234000D02*
X131381285Y-56281619D01*
X131381285Y-56281619D02*
X131428904Y-56376857D01*
X131428904Y-56376857D02*
X131428904Y-56519714D01*
X131428904Y-56519714D02*
X131381285Y-56614952D01*
X131381285Y-56614952D02*
X131333666Y-56662571D01*
X131333666Y-56662571D02*
X131238428Y-56710190D01*
X131238428Y-56710190D02*
X130857476Y-56710190D01*
X131857476Y-56662571D02*
X132190809Y-56662571D01*
X132333666Y-57186380D02*
X131857476Y-57186380D01*
X131857476Y-57186380D02*
X131857476Y-56186380D01*
X131857476Y-56186380D02*
X132333666Y-56186380D01*
X132714619Y-56900666D02*
X133190809Y-56900666D01*
X132619381Y-57186380D02*
X132952714Y-56186380D01*
X132952714Y-56186380D02*
X133286047Y-57186380D01*
X133619381Y-57186380D02*
X133619381Y-56186380D01*
X134190809Y-57186380D02*
X133762238Y-56614952D01*
X134190809Y-56186380D02*
X133619381Y-56757809D01*
X134619381Y-56662571D02*
X134952714Y-56662571D01*
X135095571Y-57186380D02*
X134619381Y-57186380D01*
X134619381Y-57186380D02*
X134619381Y-56186380D01*
X134619381Y-56186380D02*
X135095571Y-56186380D01*
X136095571Y-57186380D02*
X135762238Y-56710190D01*
X135524143Y-57186380D02*
X135524143Y-56186380D01*
X135524143Y-56186380D02*
X135905095Y-56186380D01*
X135905095Y-56186380D02*
X136000333Y-56234000D01*
X136000333Y-56234000D02*
X136047952Y-56281619D01*
X136047952Y-56281619D02*
X136095571Y-56376857D01*
X136095571Y-56376857D02*
X136095571Y-56519714D01*
X136095571Y-56519714D02*
X136047952Y-56614952D01*
X136047952Y-56614952D02*
X136000333Y-56662571D01*
X136000333Y-56662571D02*
X135905095Y-56710190D01*
X135905095Y-56710190D02*
X135524143Y-56710190D01*
X172366000Y-70611904D02*
X172413619Y-70516666D01*
X172413619Y-70516666D02*
X172413619Y-70373809D01*
X172413619Y-70373809D02*
X172366000Y-70230952D01*
X172366000Y-70230952D02*
X172270761Y-70135714D01*
X172270761Y-70135714D02*
X172175523Y-70088095D01*
X172175523Y-70088095D02*
X171985047Y-70040476D01*
X171985047Y-70040476D02*
X171842190Y-70040476D01*
X171842190Y-70040476D02*
X171651714Y-70088095D01*
X171651714Y-70088095D02*
X171556476Y-70135714D01*
X171556476Y-70135714D02*
X171461238Y-70230952D01*
X171461238Y-70230952D02*
X171413619Y-70373809D01*
X171413619Y-70373809D02*
X171413619Y-70469047D01*
X171413619Y-70469047D02*
X171461238Y-70611904D01*
X171461238Y-70611904D02*
X171508857Y-70659523D01*
X171508857Y-70659523D02*
X171842190Y-70659523D01*
X171842190Y-70659523D02*
X171842190Y-70469047D01*
X172318380Y-71040476D02*
X172366000Y-71088095D01*
X172366000Y-71088095D02*
X172413619Y-71183333D01*
X172413619Y-71183333D02*
X172413619Y-71421428D01*
X172413619Y-71421428D02*
X172366000Y-71516666D01*
X172366000Y-71516666D02*
X172318380Y-71564285D01*
X172318380Y-71564285D02*
X172223142Y-71611904D01*
X172223142Y-71611904D02*
X172127904Y-71611904D01*
X172127904Y-71611904D02*
X171985047Y-71564285D01*
X171985047Y-71564285D02*
X171413619Y-70992857D01*
X171413619Y-70992857D02*
X171413619Y-71611904D01*
X171413619Y-81327523D02*
X171889809Y-80994190D01*
X171413619Y-80756095D02*
X172413619Y-80756095D01*
X172413619Y-80756095D02*
X172413619Y-81137047D01*
X172413619Y-81137047D02*
X172366000Y-81232285D01*
X172366000Y-81232285D02*
X172318380Y-81279904D01*
X172318380Y-81279904D02*
X172223142Y-81327523D01*
X172223142Y-81327523D02*
X172080285Y-81327523D01*
X172080285Y-81327523D02*
X171985047Y-81279904D01*
X171985047Y-81279904D02*
X171937428Y-81232285D01*
X171937428Y-81232285D02*
X171889809Y-81137047D01*
X171889809Y-81137047D02*
X171889809Y-80756095D01*
X171413619Y-82279904D02*
X171413619Y-81708476D01*
X171413619Y-81994190D02*
X172413619Y-81994190D01*
X172413619Y-81994190D02*
X172270761Y-81898952D01*
X172270761Y-81898952D02*
X172175523Y-81803714D01*
X172175523Y-81803714D02*
X172127904Y-81708476D01*
X119519628Y-97556571D02*
X119662485Y-97604190D01*
X119662485Y-97604190D02*
X119710104Y-97651809D01*
X119710104Y-97651809D02*
X119757723Y-97747047D01*
X119757723Y-97747047D02*
X119757723Y-97889904D01*
X119757723Y-97889904D02*
X119710104Y-97985142D01*
X119710104Y-97985142D02*
X119662485Y-98032761D01*
X119662485Y-98032761D02*
X119567247Y-98080380D01*
X119567247Y-98080380D02*
X119186295Y-98080380D01*
X119186295Y-98080380D02*
X119186295Y-97080380D01*
X119186295Y-97080380D02*
X119519628Y-97080380D01*
X119519628Y-97080380D02*
X119614866Y-97128000D01*
X119614866Y-97128000D02*
X119662485Y-97175619D01*
X119662485Y-97175619D02*
X119710104Y-97270857D01*
X119710104Y-97270857D02*
X119710104Y-97366095D01*
X119710104Y-97366095D02*
X119662485Y-97461333D01*
X119662485Y-97461333D02*
X119614866Y-97508952D01*
X119614866Y-97508952D02*
X119519628Y-97556571D01*
X119519628Y-97556571D02*
X119186295Y-97556571D01*
X120376771Y-97080380D02*
X120567247Y-97080380D01*
X120567247Y-97080380D02*
X120662485Y-97128000D01*
X120662485Y-97128000D02*
X120757723Y-97223238D01*
X120757723Y-97223238D02*
X120805342Y-97413714D01*
X120805342Y-97413714D02*
X120805342Y-97747047D01*
X120805342Y-97747047D02*
X120757723Y-97937523D01*
X120757723Y-97937523D02*
X120662485Y-98032761D01*
X120662485Y-98032761D02*
X120567247Y-98080380D01*
X120567247Y-98080380D02*
X120376771Y-98080380D01*
X120376771Y-98080380D02*
X120281533Y-98032761D01*
X120281533Y-98032761D02*
X120186295Y-97937523D01*
X120186295Y-97937523D02*
X120138676Y-97747047D01*
X120138676Y-97747047D02*
X120138676Y-97413714D01*
X120138676Y-97413714D02*
X120186295Y-97223238D01*
X120186295Y-97223238D02*
X120281533Y-97128000D01*
X120281533Y-97128000D02*
X120376771Y-97080380D01*
X121424390Y-97080380D02*
X121614866Y-97080380D01*
X121614866Y-97080380D02*
X121710104Y-97128000D01*
X121710104Y-97128000D02*
X121805342Y-97223238D01*
X121805342Y-97223238D02*
X121852961Y-97413714D01*
X121852961Y-97413714D02*
X121852961Y-97747047D01*
X121852961Y-97747047D02*
X121805342Y-97937523D01*
X121805342Y-97937523D02*
X121710104Y-98032761D01*
X121710104Y-98032761D02*
X121614866Y-98080380D01*
X121614866Y-98080380D02*
X121424390Y-98080380D01*
X121424390Y-98080380D02*
X121329152Y-98032761D01*
X121329152Y-98032761D02*
X121233914Y-97937523D01*
X121233914Y-97937523D02*
X121186295Y-97747047D01*
X121186295Y-97747047D02*
X121186295Y-97413714D01*
X121186295Y-97413714D02*
X121233914Y-97223238D01*
X121233914Y-97223238D02*
X121329152Y-97128000D01*
X121329152Y-97128000D02*
X121424390Y-97080380D01*
X122138676Y-97080380D02*
X122710104Y-97080380D01*
X122424390Y-98080380D02*
X122424390Y-97080380D01*
X172366000Y-77469904D02*
X172413619Y-77374666D01*
X172413619Y-77374666D02*
X172413619Y-77231809D01*
X172413619Y-77231809D02*
X172366000Y-77088952D01*
X172366000Y-77088952D02*
X172270761Y-76993714D01*
X172270761Y-76993714D02*
X172175523Y-76946095D01*
X172175523Y-76946095D02*
X171985047Y-76898476D01*
X171985047Y-76898476D02*
X171842190Y-76898476D01*
X171842190Y-76898476D02*
X171651714Y-76946095D01*
X171651714Y-76946095D02*
X171556476Y-76993714D01*
X171556476Y-76993714D02*
X171461238Y-77088952D01*
X171461238Y-77088952D02*
X171413619Y-77231809D01*
X171413619Y-77231809D02*
X171413619Y-77327047D01*
X171413619Y-77327047D02*
X171461238Y-77469904D01*
X171461238Y-77469904D02*
X171508857Y-77517523D01*
X171508857Y-77517523D02*
X171842190Y-77517523D01*
X171842190Y-77517523D02*
X171842190Y-77327047D01*
X171413619Y-78469904D02*
X171413619Y-77898476D01*
X171413619Y-78184190D02*
X172413619Y-78184190D01*
X172413619Y-78184190D02*
X172270761Y-78088952D01*
X172270761Y-78088952D02*
X172175523Y-77993714D01*
X172175523Y-77993714D02*
X172127904Y-77898476D01*
X144510095Y-58583380D02*
X144510095Y-57583380D01*
X144510095Y-57583380D02*
X145081523Y-58583380D01*
X145081523Y-58583380D02*
X145081523Y-57583380D01*
X145748190Y-57583380D02*
X145938666Y-57583380D01*
X145938666Y-57583380D02*
X146033904Y-57631000D01*
X146033904Y-57631000D02*
X146129142Y-57726238D01*
X146129142Y-57726238D02*
X146176761Y-57916714D01*
X146176761Y-57916714D02*
X146176761Y-58250047D01*
X146176761Y-58250047D02*
X146129142Y-58440523D01*
X146129142Y-58440523D02*
X146033904Y-58535761D01*
X146033904Y-58535761D02*
X145938666Y-58583380D01*
X145938666Y-58583380D02*
X145748190Y-58583380D01*
X145748190Y-58583380D02*
X145652952Y-58535761D01*
X145652952Y-58535761D02*
X145557714Y-58440523D01*
X145557714Y-58440523D02*
X145510095Y-58250047D01*
X145510095Y-58250047D02*
X145510095Y-57916714D01*
X145510095Y-57916714D02*
X145557714Y-57726238D01*
X145557714Y-57726238D02*
X145652952Y-57631000D01*
X145652952Y-57631000D02*
X145748190Y-57583380D01*
X149404380Y-94503904D02*
X150213904Y-94503904D01*
X150213904Y-94503904D02*
X150309142Y-94456285D01*
X150309142Y-94456285D02*
X150356761Y-94408666D01*
X150356761Y-94408666D02*
X150404380Y-94313428D01*
X150404380Y-94313428D02*
X150404380Y-94122952D01*
X150404380Y-94122952D02*
X150356761Y-94027714D01*
X150356761Y-94027714D02*
X150309142Y-93980095D01*
X150309142Y-93980095D02*
X150213904Y-93932476D01*
X150213904Y-93932476D02*
X149404380Y-93932476D01*
X150118666Y-93503904D02*
X150118666Y-93027714D01*
X150404380Y-93599142D02*
X149404380Y-93265809D01*
X149404380Y-93265809D02*
X150404380Y-92932476D01*
X150404380Y-92027714D02*
X149928190Y-92361047D01*
X150404380Y-92599142D02*
X149404380Y-92599142D01*
X149404380Y-92599142D02*
X149404380Y-92218190D01*
X149404380Y-92218190D02*
X149452000Y-92122952D01*
X149452000Y-92122952D02*
X149499619Y-92075333D01*
X149499619Y-92075333D02*
X149594857Y-92027714D01*
X149594857Y-92027714D02*
X149737714Y-92027714D01*
X149737714Y-92027714D02*
X149832952Y-92075333D01*
X149832952Y-92075333D02*
X149880571Y-92122952D01*
X149880571Y-92122952D02*
X149928190Y-92218190D01*
X149928190Y-92218190D02*
X149928190Y-92599142D01*
X149404380Y-91741999D02*
X149404380Y-91170571D01*
X150404380Y-91456285D02*
X149404380Y-91456285D01*
X171461238Y-87566476D02*
X171413619Y-87709333D01*
X171413619Y-87709333D02*
X171413619Y-87947428D01*
X171413619Y-87947428D02*
X171461238Y-88042666D01*
X171461238Y-88042666D02*
X171508857Y-88090285D01*
X171508857Y-88090285D02*
X171604095Y-88137904D01*
X171604095Y-88137904D02*
X171699333Y-88137904D01*
X171699333Y-88137904D02*
X171794571Y-88090285D01*
X171794571Y-88090285D02*
X171842190Y-88042666D01*
X171842190Y-88042666D02*
X171889809Y-87947428D01*
X171889809Y-87947428D02*
X171937428Y-87756952D01*
X171937428Y-87756952D02*
X171985047Y-87661714D01*
X171985047Y-87661714D02*
X172032666Y-87614095D01*
X172032666Y-87614095D02*
X172127904Y-87566476D01*
X172127904Y-87566476D02*
X172223142Y-87566476D01*
X172223142Y-87566476D02*
X172318380Y-87614095D01*
X172318380Y-87614095D02*
X172366000Y-87661714D01*
X172366000Y-87661714D02*
X172413619Y-87756952D01*
X172413619Y-87756952D02*
X172413619Y-87995047D01*
X172413619Y-87995047D02*
X172366000Y-88137904D01*
X171413619Y-89090285D02*
X171413619Y-88518857D01*
X171413619Y-88804571D02*
X172413619Y-88804571D01*
X172413619Y-88804571D02*
X172270761Y-88709333D01*
X172270761Y-88709333D02*
X172175523Y-88614095D01*
X172175523Y-88614095D02*
X172127904Y-88518857D01*
X130898095Y-58221428D02*
X131660000Y-58221428D01*
X141081095Y-58583380D02*
X141081095Y-57583380D01*
X141081095Y-57583380D02*
X141652523Y-58583380D01*
X141652523Y-58583380D02*
X141652523Y-57583380D01*
X142700142Y-58488142D02*
X142652523Y-58535761D01*
X142652523Y-58535761D02*
X142509666Y-58583380D01*
X142509666Y-58583380D02*
X142414428Y-58583380D01*
X142414428Y-58583380D02*
X142271571Y-58535761D01*
X142271571Y-58535761D02*
X142176333Y-58440523D01*
X142176333Y-58440523D02*
X142128714Y-58345285D01*
X142128714Y-58345285D02*
X142081095Y-58154809D01*
X142081095Y-58154809D02*
X142081095Y-58011952D01*
X142081095Y-58011952D02*
X142128714Y-57821476D01*
X142128714Y-57821476D02*
X142176333Y-57726238D01*
X142176333Y-57726238D02*
X142271571Y-57631000D01*
X142271571Y-57631000D02*
X142414428Y-57583380D01*
X142414428Y-57583380D02*
X142509666Y-57583380D01*
X142509666Y-57583380D02*
X142652523Y-57631000D01*
X142652523Y-57631000D02*
X142700142Y-57678619D01*
X172413619Y-90820857D02*
X172413619Y-91439904D01*
X172413619Y-91439904D02*
X172032666Y-91106571D01*
X172032666Y-91106571D02*
X172032666Y-91249428D01*
X172032666Y-91249428D02*
X171985047Y-91344666D01*
X171985047Y-91344666D02*
X171937428Y-91392285D01*
X171937428Y-91392285D02*
X171842190Y-91439904D01*
X171842190Y-91439904D02*
X171604095Y-91439904D01*
X171604095Y-91439904D02*
X171508857Y-91392285D01*
X171508857Y-91392285D02*
X171461238Y-91344666D01*
X171461238Y-91344666D02*
X171413619Y-91249428D01*
X171413619Y-91249428D02*
X171413619Y-90963714D01*
X171413619Y-90963714D02*
X171461238Y-90868476D01*
X171461238Y-90868476D02*
X171508857Y-90820857D01*
X172413619Y-91725619D02*
X171413619Y-92058952D01*
X171413619Y-92058952D02*
X172413619Y-92392285D01*
X172413619Y-92630381D02*
X172413619Y-93249428D01*
X172413619Y-93249428D02*
X172032666Y-92916095D01*
X172032666Y-92916095D02*
X172032666Y-93058952D01*
X172032666Y-93058952D02*
X171985047Y-93154190D01*
X171985047Y-93154190D02*
X171937428Y-93201809D01*
X171937428Y-93201809D02*
X171842190Y-93249428D01*
X171842190Y-93249428D02*
X171604095Y-93249428D01*
X171604095Y-93249428D02*
X171508857Y-93201809D01*
X171508857Y-93201809D02*
X171461238Y-93154190D01*
X171461238Y-93154190D02*
X171413619Y-93058952D01*
X171413619Y-93058952D02*
X171413619Y-92773238D01*
X171413619Y-92773238D02*
X171461238Y-92678000D01*
X171461238Y-92678000D02*
X171508857Y-92630381D01*
%TO.C,U3*%
X157353095Y-81042380D02*
X157353095Y-81851904D01*
X157353095Y-81851904D02*
X157400714Y-81947142D01*
X157400714Y-81947142D02*
X157448333Y-81994761D01*
X157448333Y-81994761D02*
X157543571Y-82042380D01*
X157543571Y-82042380D02*
X157734047Y-82042380D01*
X157734047Y-82042380D02*
X157829285Y-81994761D01*
X157829285Y-81994761D02*
X157876904Y-81947142D01*
X157876904Y-81947142D02*
X157924523Y-81851904D01*
X157924523Y-81851904D02*
X157924523Y-81042380D01*
X158305476Y-81042380D02*
X158924523Y-81042380D01*
X158924523Y-81042380D02*
X158591190Y-81423333D01*
X158591190Y-81423333D02*
X158734047Y-81423333D01*
X158734047Y-81423333D02*
X158829285Y-81470952D01*
X158829285Y-81470952D02*
X158876904Y-81518571D01*
X158876904Y-81518571D02*
X158924523Y-81613809D01*
X158924523Y-81613809D02*
X158924523Y-81851904D01*
X158924523Y-81851904D02*
X158876904Y-81947142D01*
X158876904Y-81947142D02*
X158829285Y-81994761D01*
X158829285Y-81994761D02*
X158734047Y-82042380D01*
X158734047Y-82042380D02*
X158448333Y-82042380D01*
X158448333Y-82042380D02*
X158353095Y-81994761D01*
X158353095Y-81994761D02*
X158305476Y-81947142D01*
%TO.C,U1*%
X157353095Y-70868380D02*
X157353095Y-71677904D01*
X157353095Y-71677904D02*
X157400714Y-71773142D01*
X157400714Y-71773142D02*
X157448333Y-71820761D01*
X157448333Y-71820761D02*
X157543571Y-71868380D01*
X157543571Y-71868380D02*
X157734047Y-71868380D01*
X157734047Y-71868380D02*
X157829285Y-71820761D01*
X157829285Y-71820761D02*
X157876904Y-71773142D01*
X157876904Y-71773142D02*
X157924523Y-71677904D01*
X157924523Y-71677904D02*
X157924523Y-70868380D01*
X158924523Y-71868380D02*
X158353095Y-71868380D01*
X158638809Y-71868380D02*
X158638809Y-70868380D01*
X158638809Y-70868380D02*
X158543571Y-71011238D01*
X158543571Y-71011238D02*
X158448333Y-71106476D01*
X158448333Y-71106476D02*
X158353095Y-71154095D01*
%TO.C,C22*%
X149860456Y-105588342D02*
X149824742Y-105635961D01*
X149824742Y-105635961D02*
X149717599Y-105683580D01*
X149717599Y-105683580D02*
X149646171Y-105683580D01*
X149646171Y-105683580D02*
X149539028Y-105635961D01*
X149539028Y-105635961D02*
X149467599Y-105540723D01*
X149467599Y-105540723D02*
X149431885Y-105445485D01*
X149431885Y-105445485D02*
X149396171Y-105255009D01*
X149396171Y-105255009D02*
X149396171Y-105112152D01*
X149396171Y-105112152D02*
X149431885Y-104921676D01*
X149431885Y-104921676D02*
X149467599Y-104826438D01*
X149467599Y-104826438D02*
X149539028Y-104731200D01*
X149539028Y-104731200D02*
X149646171Y-104683580D01*
X149646171Y-104683580D02*
X149717599Y-104683580D01*
X149717599Y-104683580D02*
X149824742Y-104731200D01*
X149824742Y-104731200D02*
X149860456Y-104778819D01*
X150146171Y-104778819D02*
X150181885Y-104731200D01*
X150181885Y-104731200D02*
X150253314Y-104683580D01*
X150253314Y-104683580D02*
X150431885Y-104683580D01*
X150431885Y-104683580D02*
X150503314Y-104731200D01*
X150503314Y-104731200D02*
X150539028Y-104778819D01*
X150539028Y-104778819D02*
X150574742Y-104874057D01*
X150574742Y-104874057D02*
X150574742Y-104969295D01*
X150574742Y-104969295D02*
X150539028Y-105112152D01*
X150539028Y-105112152D02*
X150110456Y-105683580D01*
X150110456Y-105683580D02*
X150574742Y-105683580D01*
X150860457Y-104778819D02*
X150896171Y-104731200D01*
X150896171Y-104731200D02*
X150967600Y-104683580D01*
X150967600Y-104683580D02*
X151146171Y-104683580D01*
X151146171Y-104683580D02*
X151217600Y-104731200D01*
X151217600Y-104731200D02*
X151253314Y-104778819D01*
X151253314Y-104778819D02*
X151289028Y-104874057D01*
X151289028Y-104874057D02*
X151289028Y-104969295D01*
X151289028Y-104969295D02*
X151253314Y-105112152D01*
X151253314Y-105112152D02*
X150824742Y-105683580D01*
X150824742Y-105683580D02*
X151289028Y-105683580D01*
%TO.C,C21*%
X147625256Y-105588342D02*
X147589542Y-105635961D01*
X147589542Y-105635961D02*
X147482399Y-105683580D01*
X147482399Y-105683580D02*
X147410971Y-105683580D01*
X147410971Y-105683580D02*
X147303828Y-105635961D01*
X147303828Y-105635961D02*
X147232399Y-105540723D01*
X147232399Y-105540723D02*
X147196685Y-105445485D01*
X147196685Y-105445485D02*
X147160971Y-105255009D01*
X147160971Y-105255009D02*
X147160971Y-105112152D01*
X147160971Y-105112152D02*
X147196685Y-104921676D01*
X147196685Y-104921676D02*
X147232399Y-104826438D01*
X147232399Y-104826438D02*
X147303828Y-104731200D01*
X147303828Y-104731200D02*
X147410971Y-104683580D01*
X147410971Y-104683580D02*
X147482399Y-104683580D01*
X147482399Y-104683580D02*
X147589542Y-104731200D01*
X147589542Y-104731200D02*
X147625256Y-104778819D01*
X147910971Y-104778819D02*
X147946685Y-104731200D01*
X147946685Y-104731200D02*
X148018114Y-104683580D01*
X148018114Y-104683580D02*
X148196685Y-104683580D01*
X148196685Y-104683580D02*
X148268114Y-104731200D01*
X148268114Y-104731200D02*
X148303828Y-104778819D01*
X148303828Y-104778819D02*
X148339542Y-104874057D01*
X148339542Y-104874057D02*
X148339542Y-104969295D01*
X148339542Y-104969295D02*
X148303828Y-105112152D01*
X148303828Y-105112152D02*
X147875256Y-105683580D01*
X147875256Y-105683580D02*
X148339542Y-105683580D01*
X149053828Y-105683580D02*
X148625257Y-105683580D01*
X148839542Y-105683580D02*
X148839542Y-104683580D01*
X148839542Y-104683580D02*
X148768114Y-104826438D01*
X148768114Y-104826438D02*
X148696685Y-104921676D01*
X148696685Y-104921676D02*
X148625257Y-104969295D01*
%TO.C,R25*%
X161276380Y-89034857D02*
X160800190Y-89368190D01*
X161276380Y-89606285D02*
X160276380Y-89606285D01*
X160276380Y-89606285D02*
X160276380Y-89225333D01*
X160276380Y-89225333D02*
X160324000Y-89130095D01*
X160324000Y-89130095D02*
X160371619Y-89082476D01*
X160371619Y-89082476D02*
X160466857Y-89034857D01*
X160466857Y-89034857D02*
X160609714Y-89034857D01*
X160609714Y-89034857D02*
X160704952Y-89082476D01*
X160704952Y-89082476D02*
X160752571Y-89130095D01*
X160752571Y-89130095D02*
X160800190Y-89225333D01*
X160800190Y-89225333D02*
X160800190Y-89606285D01*
X160371619Y-88653904D02*
X160324000Y-88606285D01*
X160324000Y-88606285D02*
X160276380Y-88511047D01*
X160276380Y-88511047D02*
X160276380Y-88272952D01*
X160276380Y-88272952D02*
X160324000Y-88177714D01*
X160324000Y-88177714D02*
X160371619Y-88130095D01*
X160371619Y-88130095D02*
X160466857Y-88082476D01*
X160466857Y-88082476D02*
X160562095Y-88082476D01*
X160562095Y-88082476D02*
X160704952Y-88130095D01*
X160704952Y-88130095D02*
X161276380Y-88701523D01*
X161276380Y-88701523D02*
X161276380Y-88082476D01*
X160276380Y-87177714D02*
X160276380Y-87653904D01*
X160276380Y-87653904D02*
X160752571Y-87701523D01*
X160752571Y-87701523D02*
X160704952Y-87653904D01*
X160704952Y-87653904D02*
X160657333Y-87558666D01*
X160657333Y-87558666D02*
X160657333Y-87320571D01*
X160657333Y-87320571D02*
X160704952Y-87225333D01*
X160704952Y-87225333D02*
X160752571Y-87177714D01*
X160752571Y-87177714D02*
X160847809Y-87130095D01*
X160847809Y-87130095D02*
X161085904Y-87130095D01*
X161085904Y-87130095D02*
X161181142Y-87177714D01*
X161181142Y-87177714D02*
X161228761Y-87225333D01*
X161228761Y-87225333D02*
X161276380Y-87320571D01*
X161276380Y-87320571D02*
X161276380Y-87558666D01*
X161276380Y-87558666D02*
X161228761Y-87653904D01*
X161228761Y-87653904D02*
X161181142Y-87701523D01*
%TO.C,J5*%
X130626980Y-105015933D02*
X131341266Y-105015933D01*
X131341266Y-105015933D02*
X131484123Y-105063552D01*
X131484123Y-105063552D02*
X131579361Y-105158790D01*
X131579361Y-105158790D02*
X131626980Y-105301647D01*
X131626980Y-105301647D02*
X131626980Y-105396885D01*
X130626980Y-104063552D02*
X130626980Y-104539742D01*
X130626980Y-104539742D02*
X131103171Y-104587361D01*
X131103171Y-104587361D02*
X131055552Y-104539742D01*
X131055552Y-104539742D02*
X131007933Y-104444504D01*
X131007933Y-104444504D02*
X131007933Y-104206409D01*
X131007933Y-104206409D02*
X131055552Y-104111171D01*
X131055552Y-104111171D02*
X131103171Y-104063552D01*
X131103171Y-104063552D02*
X131198409Y-104015933D01*
X131198409Y-104015933D02*
X131436504Y-104015933D01*
X131436504Y-104015933D02*
X131531742Y-104063552D01*
X131531742Y-104063552D02*
X131579361Y-104111171D01*
X131579361Y-104111171D02*
X131626980Y-104206409D01*
X131626980Y-104206409D02*
X131626980Y-104444504D01*
X131626980Y-104444504D02*
X131579361Y-104539742D01*
X131579361Y-104539742D02*
X131531742Y-104587361D01*
%TO.C,F1*%
X160550266Y-117013771D02*
X160216933Y-117013771D01*
X160216933Y-117537580D02*
X160216933Y-116537580D01*
X160216933Y-116537580D02*
X160693123Y-116537580D01*
X161597885Y-117537580D02*
X161026457Y-117537580D01*
X161312171Y-117537580D02*
X161312171Y-116537580D01*
X161312171Y-116537580D02*
X161216933Y-116680438D01*
X161216933Y-116680438D02*
X161121695Y-116775676D01*
X161121695Y-116775676D02*
X161026457Y-116823295D01*
%TO.C,R21*%
X142773856Y-101840380D02*
X142523856Y-101364190D01*
X142345285Y-101840380D02*
X142345285Y-100840380D01*
X142345285Y-100840380D02*
X142630999Y-100840380D01*
X142630999Y-100840380D02*
X142702428Y-100888000D01*
X142702428Y-100888000D02*
X142738142Y-100935619D01*
X142738142Y-100935619D02*
X142773856Y-101030857D01*
X142773856Y-101030857D02*
X142773856Y-101173714D01*
X142773856Y-101173714D02*
X142738142Y-101268952D01*
X142738142Y-101268952D02*
X142702428Y-101316571D01*
X142702428Y-101316571D02*
X142630999Y-101364190D01*
X142630999Y-101364190D02*
X142345285Y-101364190D01*
X143059571Y-100935619D02*
X143095285Y-100888000D01*
X143095285Y-100888000D02*
X143166714Y-100840380D01*
X143166714Y-100840380D02*
X143345285Y-100840380D01*
X143345285Y-100840380D02*
X143416714Y-100888000D01*
X143416714Y-100888000D02*
X143452428Y-100935619D01*
X143452428Y-100935619D02*
X143488142Y-101030857D01*
X143488142Y-101030857D02*
X143488142Y-101126095D01*
X143488142Y-101126095D02*
X143452428Y-101268952D01*
X143452428Y-101268952D02*
X143023856Y-101840380D01*
X143023856Y-101840380D02*
X143488142Y-101840380D01*
X144202428Y-101840380D02*
X143773857Y-101840380D01*
X143988142Y-101840380D02*
X143988142Y-100840380D01*
X143988142Y-100840380D02*
X143916714Y-100983238D01*
X143916714Y-100983238D02*
X143845285Y-101078476D01*
X143845285Y-101078476D02*
X143773857Y-101126095D01*
%TO.C,R14*%
X123938380Y-114180857D02*
X123462190Y-114514190D01*
X123938380Y-114752285D02*
X122938380Y-114752285D01*
X122938380Y-114752285D02*
X122938380Y-114371333D01*
X122938380Y-114371333D02*
X122986000Y-114276095D01*
X122986000Y-114276095D02*
X123033619Y-114228476D01*
X123033619Y-114228476D02*
X123128857Y-114180857D01*
X123128857Y-114180857D02*
X123271714Y-114180857D01*
X123271714Y-114180857D02*
X123366952Y-114228476D01*
X123366952Y-114228476D02*
X123414571Y-114276095D01*
X123414571Y-114276095D02*
X123462190Y-114371333D01*
X123462190Y-114371333D02*
X123462190Y-114752285D01*
X123938380Y-113228476D02*
X123938380Y-113799904D01*
X123938380Y-113514190D02*
X122938380Y-113514190D01*
X122938380Y-113514190D02*
X123081238Y-113609428D01*
X123081238Y-113609428D02*
X123176476Y-113704666D01*
X123176476Y-113704666D02*
X123224095Y-113799904D01*
X123271714Y-112371333D02*
X123938380Y-112371333D01*
X122890761Y-112609428D02*
X123605047Y-112847523D01*
X123605047Y-112847523D02*
X123605047Y-112228476D01*
%TO.C,J4*%
X147494666Y-88731380D02*
X147494666Y-89445666D01*
X147494666Y-89445666D02*
X147447047Y-89588523D01*
X147447047Y-89588523D02*
X147351809Y-89683761D01*
X147351809Y-89683761D02*
X147208952Y-89731380D01*
X147208952Y-89731380D02*
X147113714Y-89731380D01*
X148399428Y-89064714D02*
X148399428Y-89731380D01*
X148161333Y-88683761D02*
X147923238Y-89398047D01*
X147923238Y-89398047D02*
X148542285Y-89398047D01*
%TO.C,D1*%
X157630905Y-89648380D02*
X157630905Y-88648380D01*
X157630905Y-88648380D02*
X157869000Y-88648380D01*
X157869000Y-88648380D02*
X158011857Y-88696000D01*
X158011857Y-88696000D02*
X158107095Y-88791238D01*
X158107095Y-88791238D02*
X158154714Y-88886476D01*
X158154714Y-88886476D02*
X158202333Y-89076952D01*
X158202333Y-89076952D02*
X158202333Y-89219809D01*
X158202333Y-89219809D02*
X158154714Y-89410285D01*
X158154714Y-89410285D02*
X158107095Y-89505523D01*
X158107095Y-89505523D02*
X158011857Y-89600761D01*
X158011857Y-89600761D02*
X157869000Y-89648380D01*
X157869000Y-89648380D02*
X157630905Y-89648380D01*
X159154714Y-89648380D02*
X158583286Y-89648380D01*
X158869000Y-89648380D02*
X158869000Y-88648380D01*
X158869000Y-88648380D02*
X158773762Y-88791238D01*
X158773762Y-88791238D02*
X158678524Y-88886476D01*
X158678524Y-88886476D02*
X158583286Y-88934095D01*
%TO.C,R13*%
X133121856Y-101840380D02*
X132871856Y-101364190D01*
X132693285Y-101840380D02*
X132693285Y-100840380D01*
X132693285Y-100840380D02*
X132978999Y-100840380D01*
X132978999Y-100840380D02*
X133050428Y-100888000D01*
X133050428Y-100888000D02*
X133086142Y-100935619D01*
X133086142Y-100935619D02*
X133121856Y-101030857D01*
X133121856Y-101030857D02*
X133121856Y-101173714D01*
X133121856Y-101173714D02*
X133086142Y-101268952D01*
X133086142Y-101268952D02*
X133050428Y-101316571D01*
X133050428Y-101316571D02*
X132978999Y-101364190D01*
X132978999Y-101364190D02*
X132693285Y-101364190D01*
X133836142Y-101840380D02*
X133407571Y-101840380D01*
X133621856Y-101840380D02*
X133621856Y-100840380D01*
X133621856Y-100840380D02*
X133550428Y-100983238D01*
X133550428Y-100983238D02*
X133478999Y-101078476D01*
X133478999Y-101078476D02*
X133407571Y-101126095D01*
X134086142Y-100840380D02*
X134550428Y-100840380D01*
X134550428Y-100840380D02*
X134300428Y-101221333D01*
X134300428Y-101221333D02*
X134407571Y-101221333D01*
X134407571Y-101221333D02*
X134479000Y-101268952D01*
X134479000Y-101268952D02*
X134514714Y-101316571D01*
X134514714Y-101316571D02*
X134550428Y-101411809D01*
X134550428Y-101411809D02*
X134550428Y-101649904D01*
X134550428Y-101649904D02*
X134514714Y-101745142D01*
X134514714Y-101745142D02*
X134479000Y-101792761D01*
X134479000Y-101792761D02*
X134407571Y-101840380D01*
X134407571Y-101840380D02*
X134193285Y-101840380D01*
X134193285Y-101840380D02*
X134121857Y-101792761D01*
X134121857Y-101792761D02*
X134086142Y-101745142D01*
%TO.C,R26*%
X161276380Y-77477857D02*
X160800190Y-77811190D01*
X161276380Y-78049285D02*
X160276380Y-78049285D01*
X160276380Y-78049285D02*
X160276380Y-77668333D01*
X160276380Y-77668333D02*
X160324000Y-77573095D01*
X160324000Y-77573095D02*
X160371619Y-77525476D01*
X160371619Y-77525476D02*
X160466857Y-77477857D01*
X160466857Y-77477857D02*
X160609714Y-77477857D01*
X160609714Y-77477857D02*
X160704952Y-77525476D01*
X160704952Y-77525476D02*
X160752571Y-77573095D01*
X160752571Y-77573095D02*
X160800190Y-77668333D01*
X160800190Y-77668333D02*
X160800190Y-78049285D01*
X160371619Y-77096904D02*
X160324000Y-77049285D01*
X160324000Y-77049285D02*
X160276380Y-76954047D01*
X160276380Y-76954047D02*
X160276380Y-76715952D01*
X160276380Y-76715952D02*
X160324000Y-76620714D01*
X160324000Y-76620714D02*
X160371619Y-76573095D01*
X160371619Y-76573095D02*
X160466857Y-76525476D01*
X160466857Y-76525476D02*
X160562095Y-76525476D01*
X160562095Y-76525476D02*
X160704952Y-76573095D01*
X160704952Y-76573095D02*
X161276380Y-77144523D01*
X161276380Y-77144523D02*
X161276380Y-76525476D01*
X160276380Y-75668333D02*
X160276380Y-75858809D01*
X160276380Y-75858809D02*
X160324000Y-75954047D01*
X160324000Y-75954047D02*
X160371619Y-76001666D01*
X160371619Y-76001666D02*
X160514476Y-76096904D01*
X160514476Y-76096904D02*
X160704952Y-76144523D01*
X160704952Y-76144523D02*
X161085904Y-76144523D01*
X161085904Y-76144523D02*
X161181142Y-76096904D01*
X161181142Y-76096904D02*
X161228761Y-76049285D01*
X161228761Y-76049285D02*
X161276380Y-75954047D01*
X161276380Y-75954047D02*
X161276380Y-75763571D01*
X161276380Y-75763571D02*
X161228761Y-75668333D01*
X161228761Y-75668333D02*
X161181142Y-75620714D01*
X161181142Y-75620714D02*
X161085904Y-75573095D01*
X161085904Y-75573095D02*
X160847809Y-75573095D01*
X160847809Y-75573095D02*
X160752571Y-75620714D01*
X160752571Y-75620714D02*
X160704952Y-75668333D01*
X160704952Y-75668333D02*
X160657333Y-75763571D01*
X160657333Y-75763571D02*
X160657333Y-75954047D01*
X160657333Y-75954047D02*
X160704952Y-76049285D01*
X160704952Y-76049285D02*
X160752571Y-76096904D01*
X160752571Y-76096904D02*
X160847809Y-76144523D01*
%TO.C,R12*%
X123938380Y-109227857D02*
X123462190Y-109561190D01*
X123938380Y-109799285D02*
X122938380Y-109799285D01*
X122938380Y-109799285D02*
X122938380Y-109418333D01*
X122938380Y-109418333D02*
X122986000Y-109323095D01*
X122986000Y-109323095D02*
X123033619Y-109275476D01*
X123033619Y-109275476D02*
X123128857Y-109227857D01*
X123128857Y-109227857D02*
X123271714Y-109227857D01*
X123271714Y-109227857D02*
X123366952Y-109275476D01*
X123366952Y-109275476D02*
X123414571Y-109323095D01*
X123414571Y-109323095D02*
X123462190Y-109418333D01*
X123462190Y-109418333D02*
X123462190Y-109799285D01*
X123938380Y-108275476D02*
X123938380Y-108846904D01*
X123938380Y-108561190D02*
X122938380Y-108561190D01*
X122938380Y-108561190D02*
X123081238Y-108656428D01*
X123081238Y-108656428D02*
X123176476Y-108751666D01*
X123176476Y-108751666D02*
X123224095Y-108846904D01*
X123033619Y-107894523D02*
X122986000Y-107846904D01*
X122986000Y-107846904D02*
X122938380Y-107751666D01*
X122938380Y-107751666D02*
X122938380Y-107513571D01*
X122938380Y-107513571D02*
X122986000Y-107418333D01*
X122986000Y-107418333D02*
X123033619Y-107370714D01*
X123033619Y-107370714D02*
X123128857Y-107323095D01*
X123128857Y-107323095D02*
X123224095Y-107323095D01*
X123224095Y-107323095D02*
X123366952Y-107370714D01*
X123366952Y-107370714D02*
X123938380Y-107942142D01*
X123938380Y-107942142D02*
X123938380Y-107323095D01*
%TO.C,C9*%
X130955142Y-82568166D02*
X131002761Y-82615785D01*
X131002761Y-82615785D02*
X131050380Y-82758642D01*
X131050380Y-82758642D02*
X131050380Y-82853880D01*
X131050380Y-82853880D02*
X131002761Y-82996737D01*
X131002761Y-82996737D02*
X130907523Y-83091975D01*
X130907523Y-83091975D02*
X130812285Y-83139594D01*
X130812285Y-83139594D02*
X130621809Y-83187213D01*
X130621809Y-83187213D02*
X130478952Y-83187213D01*
X130478952Y-83187213D02*
X130288476Y-83139594D01*
X130288476Y-83139594D02*
X130193238Y-83091975D01*
X130193238Y-83091975D02*
X130098000Y-82996737D01*
X130098000Y-82996737D02*
X130050380Y-82853880D01*
X130050380Y-82853880D02*
X130050380Y-82758642D01*
X130050380Y-82758642D02*
X130098000Y-82615785D01*
X130098000Y-82615785D02*
X130145619Y-82568166D01*
X131050380Y-82091975D02*
X131050380Y-81901499D01*
X131050380Y-81901499D02*
X131002761Y-81806261D01*
X131002761Y-81806261D02*
X130955142Y-81758642D01*
X130955142Y-81758642D02*
X130812285Y-81663404D01*
X130812285Y-81663404D02*
X130621809Y-81615785D01*
X130621809Y-81615785D02*
X130240857Y-81615785D01*
X130240857Y-81615785D02*
X130145619Y-81663404D01*
X130145619Y-81663404D02*
X130098000Y-81711023D01*
X130098000Y-81711023D02*
X130050380Y-81806261D01*
X130050380Y-81806261D02*
X130050380Y-81996737D01*
X130050380Y-81996737D02*
X130098000Y-82091975D01*
X130098000Y-82091975D02*
X130145619Y-82139594D01*
X130145619Y-82139594D02*
X130240857Y-82187213D01*
X130240857Y-82187213D02*
X130478952Y-82187213D01*
X130478952Y-82187213D02*
X130574190Y-82139594D01*
X130574190Y-82139594D02*
X130621809Y-82091975D01*
X130621809Y-82091975D02*
X130669428Y-81996737D01*
X130669428Y-81996737D02*
X130669428Y-81806261D01*
X130669428Y-81806261D02*
X130621809Y-81711023D01*
X130621809Y-81711023D02*
X130574190Y-81663404D01*
X130574190Y-81663404D02*
X130478952Y-81615785D01*
%TO.C,J1*%
X161292380Y-94948333D02*
X162006666Y-94948333D01*
X162006666Y-94948333D02*
X162149523Y-94995952D01*
X162149523Y-94995952D02*
X162244761Y-95091190D01*
X162244761Y-95091190D02*
X162292380Y-95234047D01*
X162292380Y-95234047D02*
X162292380Y-95329285D01*
X162292380Y-93948333D02*
X162292380Y-94519761D01*
X162292380Y-94234047D02*
X161292380Y-94234047D01*
X161292380Y-94234047D02*
X161435238Y-94329285D01*
X161435238Y-94329285D02*
X161530476Y-94424523D01*
X161530476Y-94424523D02*
X161578095Y-94519761D01*
%TO.C,R18*%
X135534856Y-101840380D02*
X135284856Y-101364190D01*
X135106285Y-101840380D02*
X135106285Y-100840380D01*
X135106285Y-100840380D02*
X135391999Y-100840380D01*
X135391999Y-100840380D02*
X135463428Y-100888000D01*
X135463428Y-100888000D02*
X135499142Y-100935619D01*
X135499142Y-100935619D02*
X135534856Y-101030857D01*
X135534856Y-101030857D02*
X135534856Y-101173714D01*
X135534856Y-101173714D02*
X135499142Y-101268952D01*
X135499142Y-101268952D02*
X135463428Y-101316571D01*
X135463428Y-101316571D02*
X135391999Y-101364190D01*
X135391999Y-101364190D02*
X135106285Y-101364190D01*
X136249142Y-101840380D02*
X135820571Y-101840380D01*
X136034856Y-101840380D02*
X136034856Y-100840380D01*
X136034856Y-100840380D02*
X135963428Y-100983238D01*
X135963428Y-100983238D02*
X135891999Y-101078476D01*
X135891999Y-101078476D02*
X135820571Y-101126095D01*
X136677714Y-101268952D02*
X136606285Y-101221333D01*
X136606285Y-101221333D02*
X136570571Y-101173714D01*
X136570571Y-101173714D02*
X136534857Y-101078476D01*
X136534857Y-101078476D02*
X136534857Y-101030857D01*
X136534857Y-101030857D02*
X136570571Y-100935619D01*
X136570571Y-100935619D02*
X136606285Y-100888000D01*
X136606285Y-100888000D02*
X136677714Y-100840380D01*
X136677714Y-100840380D02*
X136820571Y-100840380D01*
X136820571Y-100840380D02*
X136892000Y-100888000D01*
X136892000Y-100888000D02*
X136927714Y-100935619D01*
X136927714Y-100935619D02*
X136963428Y-101030857D01*
X136963428Y-101030857D02*
X136963428Y-101078476D01*
X136963428Y-101078476D02*
X136927714Y-101173714D01*
X136927714Y-101173714D02*
X136892000Y-101221333D01*
X136892000Y-101221333D02*
X136820571Y-101268952D01*
X136820571Y-101268952D02*
X136677714Y-101268952D01*
X136677714Y-101268952D02*
X136606285Y-101316571D01*
X136606285Y-101316571D02*
X136570571Y-101364190D01*
X136570571Y-101364190D02*
X136534857Y-101459428D01*
X136534857Y-101459428D02*
X136534857Y-101649904D01*
X136534857Y-101649904D02*
X136570571Y-101745142D01*
X136570571Y-101745142D02*
X136606285Y-101792761D01*
X136606285Y-101792761D02*
X136677714Y-101840380D01*
X136677714Y-101840380D02*
X136820571Y-101840380D01*
X136820571Y-101840380D02*
X136892000Y-101792761D01*
X136892000Y-101792761D02*
X136927714Y-101745142D01*
X136927714Y-101745142D02*
X136963428Y-101649904D01*
X136963428Y-101649904D02*
X136963428Y-101459428D01*
X136963428Y-101459428D02*
X136927714Y-101364190D01*
X136927714Y-101364190D02*
X136892000Y-101316571D01*
X136892000Y-101316571D02*
X136820571Y-101268952D01*
%TO.C,C2*%
X169886333Y-103802542D02*
X169838714Y-103850161D01*
X169838714Y-103850161D02*
X169695857Y-103897780D01*
X169695857Y-103897780D02*
X169600619Y-103897780D01*
X169600619Y-103897780D02*
X169457762Y-103850161D01*
X169457762Y-103850161D02*
X169362524Y-103754923D01*
X169362524Y-103754923D02*
X169314905Y-103659685D01*
X169314905Y-103659685D02*
X169267286Y-103469209D01*
X169267286Y-103469209D02*
X169267286Y-103326352D01*
X169267286Y-103326352D02*
X169314905Y-103135876D01*
X169314905Y-103135876D02*
X169362524Y-103040638D01*
X169362524Y-103040638D02*
X169457762Y-102945400D01*
X169457762Y-102945400D02*
X169600619Y-102897780D01*
X169600619Y-102897780D02*
X169695857Y-102897780D01*
X169695857Y-102897780D02*
X169838714Y-102945400D01*
X169838714Y-102945400D02*
X169886333Y-102993019D01*
X170267286Y-102993019D02*
X170314905Y-102945400D01*
X170314905Y-102945400D02*
X170410143Y-102897780D01*
X170410143Y-102897780D02*
X170648238Y-102897780D01*
X170648238Y-102897780D02*
X170743476Y-102945400D01*
X170743476Y-102945400D02*
X170791095Y-102993019D01*
X170791095Y-102993019D02*
X170838714Y-103088257D01*
X170838714Y-103088257D02*
X170838714Y-103183495D01*
X170838714Y-103183495D02*
X170791095Y-103326352D01*
X170791095Y-103326352D02*
X170219667Y-103897780D01*
X170219667Y-103897780D02*
X170838714Y-103897780D01*
%TO.C,U4*%
X159180095Y-57660380D02*
X159180095Y-58469904D01*
X159180095Y-58469904D02*
X159227714Y-58565142D01*
X159227714Y-58565142D02*
X159275333Y-58612761D01*
X159275333Y-58612761D02*
X159370571Y-58660380D01*
X159370571Y-58660380D02*
X159561047Y-58660380D01*
X159561047Y-58660380D02*
X159656285Y-58612761D01*
X159656285Y-58612761D02*
X159703904Y-58565142D01*
X159703904Y-58565142D02*
X159751523Y-58469904D01*
X159751523Y-58469904D02*
X159751523Y-57660380D01*
X160656285Y-57993714D02*
X160656285Y-58660380D01*
X160418190Y-57612761D02*
X160180095Y-58327047D01*
X160180095Y-58327047D02*
X160799142Y-58327047D01*
%TO.C,SW2*%
X114004667Y-102336761D02*
X114147524Y-102384380D01*
X114147524Y-102384380D02*
X114385619Y-102384380D01*
X114385619Y-102384380D02*
X114480857Y-102336761D01*
X114480857Y-102336761D02*
X114528476Y-102289142D01*
X114528476Y-102289142D02*
X114576095Y-102193904D01*
X114576095Y-102193904D02*
X114576095Y-102098666D01*
X114576095Y-102098666D02*
X114528476Y-102003428D01*
X114528476Y-102003428D02*
X114480857Y-101955809D01*
X114480857Y-101955809D02*
X114385619Y-101908190D01*
X114385619Y-101908190D02*
X114195143Y-101860571D01*
X114195143Y-101860571D02*
X114099905Y-101812952D01*
X114099905Y-101812952D02*
X114052286Y-101765333D01*
X114052286Y-101765333D02*
X114004667Y-101670095D01*
X114004667Y-101670095D02*
X114004667Y-101574857D01*
X114004667Y-101574857D02*
X114052286Y-101479619D01*
X114052286Y-101479619D02*
X114099905Y-101432000D01*
X114099905Y-101432000D02*
X114195143Y-101384380D01*
X114195143Y-101384380D02*
X114433238Y-101384380D01*
X114433238Y-101384380D02*
X114576095Y-101432000D01*
X114909429Y-101384380D02*
X115147524Y-102384380D01*
X115147524Y-102384380D02*
X115338000Y-101670095D01*
X115338000Y-101670095D02*
X115528476Y-102384380D01*
X115528476Y-102384380D02*
X115766572Y-101384380D01*
X116099905Y-101479619D02*
X116147524Y-101432000D01*
X116147524Y-101432000D02*
X116242762Y-101384380D01*
X116242762Y-101384380D02*
X116480857Y-101384380D01*
X116480857Y-101384380D02*
X116576095Y-101432000D01*
X116576095Y-101432000D02*
X116623714Y-101479619D01*
X116623714Y-101479619D02*
X116671333Y-101574857D01*
X116671333Y-101574857D02*
X116671333Y-101670095D01*
X116671333Y-101670095D02*
X116623714Y-101812952D01*
X116623714Y-101812952D02*
X116052286Y-102384380D01*
X116052286Y-102384380D02*
X116671333Y-102384380D01*
%TO.C,C5*%
X167219333Y-102507142D02*
X167171714Y-102554761D01*
X167171714Y-102554761D02*
X167028857Y-102602380D01*
X167028857Y-102602380D02*
X166933619Y-102602380D01*
X166933619Y-102602380D02*
X166790762Y-102554761D01*
X166790762Y-102554761D02*
X166695524Y-102459523D01*
X166695524Y-102459523D02*
X166647905Y-102364285D01*
X166647905Y-102364285D02*
X166600286Y-102173809D01*
X166600286Y-102173809D02*
X166600286Y-102030952D01*
X166600286Y-102030952D02*
X166647905Y-101840476D01*
X166647905Y-101840476D02*
X166695524Y-101745238D01*
X166695524Y-101745238D02*
X166790762Y-101650000D01*
X166790762Y-101650000D02*
X166933619Y-101602380D01*
X166933619Y-101602380D02*
X167028857Y-101602380D01*
X167028857Y-101602380D02*
X167171714Y-101650000D01*
X167171714Y-101650000D02*
X167219333Y-101697619D01*
X168124095Y-101602380D02*
X167647905Y-101602380D01*
X167647905Y-101602380D02*
X167600286Y-102078571D01*
X167600286Y-102078571D02*
X167647905Y-102030952D01*
X167647905Y-102030952D02*
X167743143Y-101983333D01*
X167743143Y-101983333D02*
X167981238Y-101983333D01*
X167981238Y-101983333D02*
X168076476Y-102030952D01*
X168076476Y-102030952D02*
X168124095Y-102078571D01*
X168124095Y-102078571D02*
X168171714Y-102173809D01*
X168171714Y-102173809D02*
X168171714Y-102411904D01*
X168171714Y-102411904D02*
X168124095Y-102507142D01*
X168124095Y-102507142D02*
X168076476Y-102554761D01*
X168076476Y-102554761D02*
X167981238Y-102602380D01*
X167981238Y-102602380D02*
X167743143Y-102602380D01*
X167743143Y-102602380D02*
X167647905Y-102554761D01*
X167647905Y-102554761D02*
X167600286Y-102507142D01*
%TO.C,C1*%
X157567333Y-80155142D02*
X157519714Y-80202761D01*
X157519714Y-80202761D02*
X157376857Y-80250380D01*
X157376857Y-80250380D02*
X157281619Y-80250380D01*
X157281619Y-80250380D02*
X157138762Y-80202761D01*
X157138762Y-80202761D02*
X157043524Y-80107523D01*
X157043524Y-80107523D02*
X156995905Y-80012285D01*
X156995905Y-80012285D02*
X156948286Y-79821809D01*
X156948286Y-79821809D02*
X156948286Y-79678952D01*
X156948286Y-79678952D02*
X156995905Y-79488476D01*
X156995905Y-79488476D02*
X157043524Y-79393238D01*
X157043524Y-79393238D02*
X157138762Y-79298000D01*
X157138762Y-79298000D02*
X157281619Y-79250380D01*
X157281619Y-79250380D02*
X157376857Y-79250380D01*
X157376857Y-79250380D02*
X157519714Y-79298000D01*
X157519714Y-79298000D02*
X157567333Y-79345619D01*
X158519714Y-80250380D02*
X157948286Y-80250380D01*
X158234000Y-80250380D02*
X158234000Y-79250380D01*
X158234000Y-79250380D02*
X158138762Y-79393238D01*
X158138762Y-79393238D02*
X158043524Y-79488476D01*
X158043524Y-79488476D02*
X157948286Y-79536095D01*
%TO.C,C12*%
X128796142Y-90072357D02*
X128843761Y-90119976D01*
X128843761Y-90119976D02*
X128891380Y-90262833D01*
X128891380Y-90262833D02*
X128891380Y-90358071D01*
X128891380Y-90358071D02*
X128843761Y-90500928D01*
X128843761Y-90500928D02*
X128748523Y-90596166D01*
X128748523Y-90596166D02*
X128653285Y-90643785D01*
X128653285Y-90643785D02*
X128462809Y-90691404D01*
X128462809Y-90691404D02*
X128319952Y-90691404D01*
X128319952Y-90691404D02*
X128129476Y-90643785D01*
X128129476Y-90643785D02*
X128034238Y-90596166D01*
X128034238Y-90596166D02*
X127939000Y-90500928D01*
X127939000Y-90500928D02*
X127891380Y-90358071D01*
X127891380Y-90358071D02*
X127891380Y-90262833D01*
X127891380Y-90262833D02*
X127939000Y-90119976D01*
X127939000Y-90119976D02*
X127986619Y-90072357D01*
X128891380Y-89119976D02*
X128891380Y-89691404D01*
X128891380Y-89405690D02*
X127891380Y-89405690D01*
X127891380Y-89405690D02*
X128034238Y-89500928D01*
X128034238Y-89500928D02*
X128129476Y-89596166D01*
X128129476Y-89596166D02*
X128177095Y-89691404D01*
X127986619Y-88739023D02*
X127939000Y-88691404D01*
X127939000Y-88691404D02*
X127891380Y-88596166D01*
X127891380Y-88596166D02*
X127891380Y-88358071D01*
X127891380Y-88358071D02*
X127939000Y-88262833D01*
X127939000Y-88262833D02*
X127986619Y-88215214D01*
X127986619Y-88215214D02*
X128081857Y-88167595D01*
X128081857Y-88167595D02*
X128177095Y-88167595D01*
X128177095Y-88167595D02*
X128319952Y-88215214D01*
X128319952Y-88215214D02*
X128891380Y-88786642D01*
X128891380Y-88786642D02*
X128891380Y-88167595D01*
%TO.C,Q1*%
X130003561Y-75595819D02*
X129908323Y-75548200D01*
X129908323Y-75548200D02*
X129813085Y-75452961D01*
X129813085Y-75452961D02*
X129670228Y-75310104D01*
X129670228Y-75310104D02*
X129574990Y-75262485D01*
X129574990Y-75262485D02*
X129479752Y-75262485D01*
X129527371Y-75500580D02*
X129432133Y-75452961D01*
X129432133Y-75452961D02*
X129336895Y-75357723D01*
X129336895Y-75357723D02*
X129289276Y-75167247D01*
X129289276Y-75167247D02*
X129289276Y-74833914D01*
X129289276Y-74833914D02*
X129336895Y-74643438D01*
X129336895Y-74643438D02*
X129432133Y-74548200D01*
X129432133Y-74548200D02*
X129527371Y-74500580D01*
X129527371Y-74500580D02*
X129717847Y-74500580D01*
X129717847Y-74500580D02*
X129813085Y-74548200D01*
X129813085Y-74548200D02*
X129908323Y-74643438D01*
X129908323Y-74643438D02*
X129955942Y-74833914D01*
X129955942Y-74833914D02*
X129955942Y-75167247D01*
X129955942Y-75167247D02*
X129908323Y-75357723D01*
X129908323Y-75357723D02*
X129813085Y-75452961D01*
X129813085Y-75452961D02*
X129717847Y-75500580D01*
X129717847Y-75500580D02*
X129527371Y-75500580D01*
X130908323Y-75500580D02*
X130336895Y-75500580D01*
X130622609Y-75500580D02*
X130622609Y-74500580D01*
X130622609Y-74500580D02*
X130527371Y-74643438D01*
X130527371Y-74643438D02*
X130432133Y-74738676D01*
X130432133Y-74738676D02*
X130336895Y-74786295D01*
%TO.C,D3*%
X159154905Y-97776380D02*
X159154905Y-96776380D01*
X159154905Y-96776380D02*
X159393000Y-96776380D01*
X159393000Y-96776380D02*
X159535857Y-96824000D01*
X159535857Y-96824000D02*
X159631095Y-96919238D01*
X159631095Y-96919238D02*
X159678714Y-97014476D01*
X159678714Y-97014476D02*
X159726333Y-97204952D01*
X159726333Y-97204952D02*
X159726333Y-97347809D01*
X159726333Y-97347809D02*
X159678714Y-97538285D01*
X159678714Y-97538285D02*
X159631095Y-97633523D01*
X159631095Y-97633523D02*
X159535857Y-97728761D01*
X159535857Y-97728761D02*
X159393000Y-97776380D01*
X159393000Y-97776380D02*
X159154905Y-97776380D01*
X160059667Y-96776380D02*
X160678714Y-96776380D01*
X160678714Y-96776380D02*
X160345381Y-97157333D01*
X160345381Y-97157333D02*
X160488238Y-97157333D01*
X160488238Y-97157333D02*
X160583476Y-97204952D01*
X160583476Y-97204952D02*
X160631095Y-97252571D01*
X160631095Y-97252571D02*
X160678714Y-97347809D01*
X160678714Y-97347809D02*
X160678714Y-97585904D01*
X160678714Y-97585904D02*
X160631095Y-97681142D01*
X160631095Y-97681142D02*
X160583476Y-97728761D01*
X160583476Y-97728761D02*
X160488238Y-97776380D01*
X160488238Y-97776380D02*
X160202524Y-97776380D01*
X160202524Y-97776380D02*
X160107286Y-97728761D01*
X160107286Y-97728761D02*
X160059667Y-97681142D01*
%TO.C,R2*%
X114133333Y-82155380D02*
X113800000Y-81679190D01*
X113561905Y-82155380D02*
X113561905Y-81155380D01*
X113561905Y-81155380D02*
X113942857Y-81155380D01*
X113942857Y-81155380D02*
X114038095Y-81203000D01*
X114038095Y-81203000D02*
X114085714Y-81250619D01*
X114085714Y-81250619D02*
X114133333Y-81345857D01*
X114133333Y-81345857D02*
X114133333Y-81488714D01*
X114133333Y-81488714D02*
X114085714Y-81583952D01*
X114085714Y-81583952D02*
X114038095Y-81631571D01*
X114038095Y-81631571D02*
X113942857Y-81679190D01*
X113942857Y-81679190D02*
X113561905Y-81679190D01*
X114514286Y-81250619D02*
X114561905Y-81203000D01*
X114561905Y-81203000D02*
X114657143Y-81155380D01*
X114657143Y-81155380D02*
X114895238Y-81155380D01*
X114895238Y-81155380D02*
X114990476Y-81203000D01*
X114990476Y-81203000D02*
X115038095Y-81250619D01*
X115038095Y-81250619D02*
X115085714Y-81345857D01*
X115085714Y-81345857D02*
X115085714Y-81441095D01*
X115085714Y-81441095D02*
X115038095Y-81583952D01*
X115038095Y-81583952D02*
X114466667Y-82155380D01*
X114466667Y-82155380D02*
X115085714Y-82155380D01*
%TO.C,J6*%
X161292380Y-66881333D02*
X162006666Y-66881333D01*
X162006666Y-66881333D02*
X162149523Y-66928952D01*
X162149523Y-66928952D02*
X162244761Y-67024190D01*
X162244761Y-67024190D02*
X162292380Y-67167047D01*
X162292380Y-67167047D02*
X162292380Y-67262285D01*
X161292380Y-65976571D02*
X161292380Y-66167047D01*
X161292380Y-66167047D02*
X161340000Y-66262285D01*
X161340000Y-66262285D02*
X161387619Y-66309904D01*
X161387619Y-66309904D02*
X161530476Y-66405142D01*
X161530476Y-66405142D02*
X161720952Y-66452761D01*
X161720952Y-66452761D02*
X162101904Y-66452761D01*
X162101904Y-66452761D02*
X162197142Y-66405142D01*
X162197142Y-66405142D02*
X162244761Y-66357523D01*
X162244761Y-66357523D02*
X162292380Y-66262285D01*
X162292380Y-66262285D02*
X162292380Y-66071809D01*
X162292380Y-66071809D02*
X162244761Y-65976571D01*
X162244761Y-65976571D02*
X162197142Y-65928952D01*
X162197142Y-65928952D02*
X162101904Y-65881333D01*
X162101904Y-65881333D02*
X161863809Y-65881333D01*
X161863809Y-65881333D02*
X161768571Y-65928952D01*
X161768571Y-65928952D02*
X161720952Y-65976571D01*
X161720952Y-65976571D02*
X161673333Y-66071809D01*
X161673333Y-66071809D02*
X161673333Y-66262285D01*
X161673333Y-66262285D02*
X161720952Y-66357523D01*
X161720952Y-66357523D02*
X161768571Y-66405142D01*
X161768571Y-66405142D02*
X161863809Y-66452761D01*
%TO.C,R22*%
X145186856Y-101840380D02*
X144936856Y-101364190D01*
X144758285Y-101840380D02*
X144758285Y-100840380D01*
X144758285Y-100840380D02*
X145043999Y-100840380D01*
X145043999Y-100840380D02*
X145115428Y-100888000D01*
X145115428Y-100888000D02*
X145151142Y-100935619D01*
X145151142Y-100935619D02*
X145186856Y-101030857D01*
X145186856Y-101030857D02*
X145186856Y-101173714D01*
X145186856Y-101173714D02*
X145151142Y-101268952D01*
X145151142Y-101268952D02*
X145115428Y-101316571D01*
X145115428Y-101316571D02*
X145043999Y-101364190D01*
X145043999Y-101364190D02*
X144758285Y-101364190D01*
X145472571Y-100935619D02*
X145508285Y-100888000D01*
X145508285Y-100888000D02*
X145579714Y-100840380D01*
X145579714Y-100840380D02*
X145758285Y-100840380D01*
X145758285Y-100840380D02*
X145829714Y-100888000D01*
X145829714Y-100888000D02*
X145865428Y-100935619D01*
X145865428Y-100935619D02*
X145901142Y-101030857D01*
X145901142Y-101030857D02*
X145901142Y-101126095D01*
X145901142Y-101126095D02*
X145865428Y-101268952D01*
X145865428Y-101268952D02*
X145436856Y-101840380D01*
X145436856Y-101840380D02*
X145901142Y-101840380D01*
X146186857Y-100935619D02*
X146222571Y-100888000D01*
X146222571Y-100888000D02*
X146294000Y-100840380D01*
X146294000Y-100840380D02*
X146472571Y-100840380D01*
X146472571Y-100840380D02*
X146544000Y-100888000D01*
X146544000Y-100888000D02*
X146579714Y-100935619D01*
X146579714Y-100935619D02*
X146615428Y-101030857D01*
X146615428Y-101030857D02*
X146615428Y-101126095D01*
X146615428Y-101126095D02*
X146579714Y-101268952D01*
X146579714Y-101268952D02*
X146151142Y-101840380D01*
X146151142Y-101840380D02*
X146615428Y-101840380D01*
%TO.C,U7*%
X125526895Y-78640780D02*
X125526895Y-79450304D01*
X125526895Y-79450304D02*
X125574514Y-79545542D01*
X125574514Y-79545542D02*
X125622133Y-79593161D01*
X125622133Y-79593161D02*
X125717371Y-79640780D01*
X125717371Y-79640780D02*
X125907847Y-79640780D01*
X125907847Y-79640780D02*
X126003085Y-79593161D01*
X126003085Y-79593161D02*
X126050704Y-79545542D01*
X126050704Y-79545542D02*
X126098323Y-79450304D01*
X126098323Y-79450304D02*
X126098323Y-78640780D01*
X126479276Y-78640780D02*
X127145942Y-78640780D01*
X127145942Y-78640780D02*
X126717371Y-79640780D01*
%TO.C,R4*%
X145909380Y-91098666D02*
X145433190Y-91431999D01*
X145909380Y-91670094D02*
X144909380Y-91670094D01*
X144909380Y-91670094D02*
X144909380Y-91289142D01*
X144909380Y-91289142D02*
X144957000Y-91193904D01*
X144957000Y-91193904D02*
X145004619Y-91146285D01*
X145004619Y-91146285D02*
X145099857Y-91098666D01*
X145099857Y-91098666D02*
X145242714Y-91098666D01*
X145242714Y-91098666D02*
X145337952Y-91146285D01*
X145337952Y-91146285D02*
X145385571Y-91193904D01*
X145385571Y-91193904D02*
X145433190Y-91289142D01*
X145433190Y-91289142D02*
X145433190Y-91670094D01*
X145242714Y-90241523D02*
X145909380Y-90241523D01*
X144861761Y-90479618D02*
X145576047Y-90717713D01*
X145576047Y-90717713D02*
X145576047Y-90098666D01*
%TO.C,C8*%
X149058333Y-86936942D02*
X149010714Y-86984561D01*
X149010714Y-86984561D02*
X148867857Y-87032180D01*
X148867857Y-87032180D02*
X148772619Y-87032180D01*
X148772619Y-87032180D02*
X148629762Y-86984561D01*
X148629762Y-86984561D02*
X148534524Y-86889323D01*
X148534524Y-86889323D02*
X148486905Y-86794085D01*
X148486905Y-86794085D02*
X148439286Y-86603609D01*
X148439286Y-86603609D02*
X148439286Y-86460752D01*
X148439286Y-86460752D02*
X148486905Y-86270276D01*
X148486905Y-86270276D02*
X148534524Y-86175038D01*
X148534524Y-86175038D02*
X148629762Y-86079800D01*
X148629762Y-86079800D02*
X148772619Y-86032180D01*
X148772619Y-86032180D02*
X148867857Y-86032180D01*
X148867857Y-86032180D02*
X149010714Y-86079800D01*
X149010714Y-86079800D02*
X149058333Y-86127419D01*
X149629762Y-86460752D02*
X149534524Y-86413133D01*
X149534524Y-86413133D02*
X149486905Y-86365514D01*
X149486905Y-86365514D02*
X149439286Y-86270276D01*
X149439286Y-86270276D02*
X149439286Y-86222657D01*
X149439286Y-86222657D02*
X149486905Y-86127419D01*
X149486905Y-86127419D02*
X149534524Y-86079800D01*
X149534524Y-86079800D02*
X149629762Y-86032180D01*
X149629762Y-86032180D02*
X149820238Y-86032180D01*
X149820238Y-86032180D02*
X149915476Y-86079800D01*
X149915476Y-86079800D02*
X149963095Y-86127419D01*
X149963095Y-86127419D02*
X150010714Y-86222657D01*
X150010714Y-86222657D02*
X150010714Y-86270276D01*
X150010714Y-86270276D02*
X149963095Y-86365514D01*
X149963095Y-86365514D02*
X149915476Y-86413133D01*
X149915476Y-86413133D02*
X149820238Y-86460752D01*
X149820238Y-86460752D02*
X149629762Y-86460752D01*
X149629762Y-86460752D02*
X149534524Y-86508371D01*
X149534524Y-86508371D02*
X149486905Y-86555990D01*
X149486905Y-86555990D02*
X149439286Y-86651228D01*
X149439286Y-86651228D02*
X149439286Y-86841704D01*
X149439286Y-86841704D02*
X149486905Y-86936942D01*
X149486905Y-86936942D02*
X149534524Y-86984561D01*
X149534524Y-86984561D02*
X149629762Y-87032180D01*
X149629762Y-87032180D02*
X149820238Y-87032180D01*
X149820238Y-87032180D02*
X149915476Y-86984561D01*
X149915476Y-86984561D02*
X149963095Y-86936942D01*
X149963095Y-86936942D02*
X150010714Y-86841704D01*
X150010714Y-86841704D02*
X150010714Y-86651228D01*
X150010714Y-86651228D02*
X149963095Y-86555990D01*
X149963095Y-86555990D02*
X149915476Y-86508371D01*
X149915476Y-86508371D02*
X149820238Y-86460752D01*
%TO.C,R16*%
X120382380Y-109211857D02*
X119906190Y-109545190D01*
X120382380Y-109783285D02*
X119382380Y-109783285D01*
X119382380Y-109783285D02*
X119382380Y-109402333D01*
X119382380Y-109402333D02*
X119430000Y-109307095D01*
X119430000Y-109307095D02*
X119477619Y-109259476D01*
X119477619Y-109259476D02*
X119572857Y-109211857D01*
X119572857Y-109211857D02*
X119715714Y-109211857D01*
X119715714Y-109211857D02*
X119810952Y-109259476D01*
X119810952Y-109259476D02*
X119858571Y-109307095D01*
X119858571Y-109307095D02*
X119906190Y-109402333D01*
X119906190Y-109402333D02*
X119906190Y-109783285D01*
X120382380Y-108259476D02*
X120382380Y-108830904D01*
X120382380Y-108545190D02*
X119382380Y-108545190D01*
X119382380Y-108545190D02*
X119525238Y-108640428D01*
X119525238Y-108640428D02*
X119620476Y-108735666D01*
X119620476Y-108735666D02*
X119668095Y-108830904D01*
X119382380Y-107402333D02*
X119382380Y-107592809D01*
X119382380Y-107592809D02*
X119430000Y-107688047D01*
X119430000Y-107688047D02*
X119477619Y-107735666D01*
X119477619Y-107735666D02*
X119620476Y-107830904D01*
X119620476Y-107830904D02*
X119810952Y-107878523D01*
X119810952Y-107878523D02*
X120191904Y-107878523D01*
X120191904Y-107878523D02*
X120287142Y-107830904D01*
X120287142Y-107830904D02*
X120334761Y-107783285D01*
X120334761Y-107783285D02*
X120382380Y-107688047D01*
X120382380Y-107688047D02*
X120382380Y-107497571D01*
X120382380Y-107497571D02*
X120334761Y-107402333D01*
X120334761Y-107402333D02*
X120287142Y-107354714D01*
X120287142Y-107354714D02*
X120191904Y-107307095D01*
X120191904Y-107307095D02*
X119953809Y-107307095D01*
X119953809Y-107307095D02*
X119858571Y-107354714D01*
X119858571Y-107354714D02*
X119810952Y-107402333D01*
X119810952Y-107402333D02*
X119763333Y-107497571D01*
X119763333Y-107497571D02*
X119763333Y-107688047D01*
X119763333Y-107688047D02*
X119810952Y-107783285D01*
X119810952Y-107783285D02*
X119858571Y-107830904D01*
X119858571Y-107830904D02*
X119953809Y-107878523D01*
%TO.C,R24*%
X122674142Y-75679380D02*
X122340809Y-75203190D01*
X122102714Y-75679380D02*
X122102714Y-74679380D01*
X122102714Y-74679380D02*
X122483666Y-74679380D01*
X122483666Y-74679380D02*
X122578904Y-74727000D01*
X122578904Y-74727000D02*
X122626523Y-74774619D01*
X122626523Y-74774619D02*
X122674142Y-74869857D01*
X122674142Y-74869857D02*
X122674142Y-75012714D01*
X122674142Y-75012714D02*
X122626523Y-75107952D01*
X122626523Y-75107952D02*
X122578904Y-75155571D01*
X122578904Y-75155571D02*
X122483666Y-75203190D01*
X122483666Y-75203190D02*
X122102714Y-75203190D01*
X123055095Y-74774619D02*
X123102714Y-74727000D01*
X123102714Y-74727000D02*
X123197952Y-74679380D01*
X123197952Y-74679380D02*
X123436047Y-74679380D01*
X123436047Y-74679380D02*
X123531285Y-74727000D01*
X123531285Y-74727000D02*
X123578904Y-74774619D01*
X123578904Y-74774619D02*
X123626523Y-74869857D01*
X123626523Y-74869857D02*
X123626523Y-74965095D01*
X123626523Y-74965095D02*
X123578904Y-75107952D01*
X123578904Y-75107952D02*
X123007476Y-75679380D01*
X123007476Y-75679380D02*
X123626523Y-75679380D01*
X124483666Y-75012714D02*
X124483666Y-75679380D01*
X124245571Y-74631761D02*
X124007476Y-75346047D01*
X124007476Y-75346047D02*
X124626523Y-75346047D01*
%TO.C,C15*%
X113149142Y-84981142D02*
X113101523Y-85028761D01*
X113101523Y-85028761D02*
X112958666Y-85076380D01*
X112958666Y-85076380D02*
X112863428Y-85076380D01*
X112863428Y-85076380D02*
X112720571Y-85028761D01*
X112720571Y-85028761D02*
X112625333Y-84933523D01*
X112625333Y-84933523D02*
X112577714Y-84838285D01*
X112577714Y-84838285D02*
X112530095Y-84647809D01*
X112530095Y-84647809D02*
X112530095Y-84504952D01*
X112530095Y-84504952D02*
X112577714Y-84314476D01*
X112577714Y-84314476D02*
X112625333Y-84219238D01*
X112625333Y-84219238D02*
X112720571Y-84124000D01*
X112720571Y-84124000D02*
X112863428Y-84076380D01*
X112863428Y-84076380D02*
X112958666Y-84076380D01*
X112958666Y-84076380D02*
X113101523Y-84124000D01*
X113101523Y-84124000D02*
X113149142Y-84171619D01*
X114101523Y-85076380D02*
X113530095Y-85076380D01*
X113815809Y-85076380D02*
X113815809Y-84076380D01*
X113815809Y-84076380D02*
X113720571Y-84219238D01*
X113720571Y-84219238D02*
X113625333Y-84314476D01*
X113625333Y-84314476D02*
X113530095Y-84362095D01*
X115006285Y-84076380D02*
X114530095Y-84076380D01*
X114530095Y-84076380D02*
X114482476Y-84552571D01*
X114482476Y-84552571D02*
X114530095Y-84504952D01*
X114530095Y-84504952D02*
X114625333Y-84457333D01*
X114625333Y-84457333D02*
X114863428Y-84457333D01*
X114863428Y-84457333D02*
X114958666Y-84504952D01*
X114958666Y-84504952D02*
X115006285Y-84552571D01*
X115006285Y-84552571D02*
X115053904Y-84647809D01*
X115053904Y-84647809D02*
X115053904Y-84885904D01*
X115053904Y-84885904D02*
X115006285Y-84981142D01*
X115006285Y-84981142D02*
X114958666Y-85028761D01*
X114958666Y-85028761D02*
X114863428Y-85076380D01*
X114863428Y-85076380D02*
X114625333Y-85076380D01*
X114625333Y-85076380D02*
X114530095Y-85028761D01*
X114530095Y-85028761D02*
X114482476Y-84981142D01*
%TO.C,R11*%
X150659180Y-112250457D02*
X150182990Y-112583790D01*
X150659180Y-112821885D02*
X149659180Y-112821885D01*
X149659180Y-112821885D02*
X149659180Y-112440933D01*
X149659180Y-112440933D02*
X149706800Y-112345695D01*
X149706800Y-112345695D02*
X149754419Y-112298076D01*
X149754419Y-112298076D02*
X149849657Y-112250457D01*
X149849657Y-112250457D02*
X149992514Y-112250457D01*
X149992514Y-112250457D02*
X150087752Y-112298076D01*
X150087752Y-112298076D02*
X150135371Y-112345695D01*
X150135371Y-112345695D02*
X150182990Y-112440933D01*
X150182990Y-112440933D02*
X150182990Y-112821885D01*
X150659180Y-111298076D02*
X150659180Y-111869504D01*
X150659180Y-111583790D02*
X149659180Y-111583790D01*
X149659180Y-111583790D02*
X149802038Y-111679028D01*
X149802038Y-111679028D02*
X149897276Y-111774266D01*
X149897276Y-111774266D02*
X149944895Y-111869504D01*
X150659180Y-110345695D02*
X150659180Y-110917123D01*
X150659180Y-110631409D02*
X149659180Y-110631409D01*
X149659180Y-110631409D02*
X149802038Y-110726647D01*
X149802038Y-110726647D02*
X149897276Y-110821885D01*
X149897276Y-110821885D02*
X149944895Y-110917123D01*
%TO.C,R23*%
X125468142Y-85204380D02*
X125134809Y-84728190D01*
X124896714Y-85204380D02*
X124896714Y-84204380D01*
X124896714Y-84204380D02*
X125277666Y-84204380D01*
X125277666Y-84204380D02*
X125372904Y-84252000D01*
X125372904Y-84252000D02*
X125420523Y-84299619D01*
X125420523Y-84299619D02*
X125468142Y-84394857D01*
X125468142Y-84394857D02*
X125468142Y-84537714D01*
X125468142Y-84537714D02*
X125420523Y-84632952D01*
X125420523Y-84632952D02*
X125372904Y-84680571D01*
X125372904Y-84680571D02*
X125277666Y-84728190D01*
X125277666Y-84728190D02*
X124896714Y-84728190D01*
X125849095Y-84299619D02*
X125896714Y-84252000D01*
X125896714Y-84252000D02*
X125991952Y-84204380D01*
X125991952Y-84204380D02*
X126230047Y-84204380D01*
X126230047Y-84204380D02*
X126325285Y-84252000D01*
X126325285Y-84252000D02*
X126372904Y-84299619D01*
X126372904Y-84299619D02*
X126420523Y-84394857D01*
X126420523Y-84394857D02*
X126420523Y-84490095D01*
X126420523Y-84490095D02*
X126372904Y-84632952D01*
X126372904Y-84632952D02*
X125801476Y-85204380D01*
X125801476Y-85204380D02*
X126420523Y-85204380D01*
X126753857Y-84204380D02*
X127372904Y-84204380D01*
X127372904Y-84204380D02*
X127039571Y-84585333D01*
X127039571Y-84585333D02*
X127182428Y-84585333D01*
X127182428Y-84585333D02*
X127277666Y-84632952D01*
X127277666Y-84632952D02*
X127325285Y-84680571D01*
X127325285Y-84680571D02*
X127372904Y-84775809D01*
X127372904Y-84775809D02*
X127372904Y-85013904D01*
X127372904Y-85013904D02*
X127325285Y-85109142D01*
X127325285Y-85109142D02*
X127277666Y-85156761D01*
X127277666Y-85156761D02*
X127182428Y-85204380D01*
X127182428Y-85204380D02*
X126896714Y-85204380D01*
X126896714Y-85204380D02*
X126801476Y-85156761D01*
X126801476Y-85156761D02*
X126753857Y-85109142D01*
%TO.C,C16*%
X133114142Y-90072357D02*
X133161761Y-90119976D01*
X133161761Y-90119976D02*
X133209380Y-90262833D01*
X133209380Y-90262833D02*
X133209380Y-90358071D01*
X133209380Y-90358071D02*
X133161761Y-90500928D01*
X133161761Y-90500928D02*
X133066523Y-90596166D01*
X133066523Y-90596166D02*
X132971285Y-90643785D01*
X132971285Y-90643785D02*
X132780809Y-90691404D01*
X132780809Y-90691404D02*
X132637952Y-90691404D01*
X132637952Y-90691404D02*
X132447476Y-90643785D01*
X132447476Y-90643785D02*
X132352238Y-90596166D01*
X132352238Y-90596166D02*
X132257000Y-90500928D01*
X132257000Y-90500928D02*
X132209380Y-90358071D01*
X132209380Y-90358071D02*
X132209380Y-90262833D01*
X132209380Y-90262833D02*
X132257000Y-90119976D01*
X132257000Y-90119976D02*
X132304619Y-90072357D01*
X133209380Y-89119976D02*
X133209380Y-89691404D01*
X133209380Y-89405690D02*
X132209380Y-89405690D01*
X132209380Y-89405690D02*
X132352238Y-89500928D01*
X132352238Y-89500928D02*
X132447476Y-89596166D01*
X132447476Y-89596166D02*
X132495095Y-89691404D01*
X132209380Y-88262833D02*
X132209380Y-88453309D01*
X132209380Y-88453309D02*
X132257000Y-88548547D01*
X132257000Y-88548547D02*
X132304619Y-88596166D01*
X132304619Y-88596166D02*
X132447476Y-88691404D01*
X132447476Y-88691404D02*
X132637952Y-88739023D01*
X132637952Y-88739023D02*
X133018904Y-88739023D01*
X133018904Y-88739023D02*
X133114142Y-88691404D01*
X133114142Y-88691404D02*
X133161761Y-88643785D01*
X133161761Y-88643785D02*
X133209380Y-88548547D01*
X133209380Y-88548547D02*
X133209380Y-88358071D01*
X133209380Y-88358071D02*
X133161761Y-88262833D01*
X133161761Y-88262833D02*
X133114142Y-88215214D01*
X133114142Y-88215214D02*
X133018904Y-88167595D01*
X133018904Y-88167595D02*
X132780809Y-88167595D01*
X132780809Y-88167595D02*
X132685571Y-88215214D01*
X132685571Y-88215214D02*
X132637952Y-88262833D01*
X132637952Y-88262833D02*
X132590333Y-88358071D01*
X132590333Y-88358071D02*
X132590333Y-88548547D01*
X132590333Y-88548547D02*
X132637952Y-88643785D01*
X132637952Y-88643785D02*
X132685571Y-88691404D01*
X132685571Y-88691404D02*
X132780809Y-88739023D01*
%TO.C,R8*%
X129820333Y-68820380D02*
X129487000Y-68344190D01*
X129248905Y-68820380D02*
X129248905Y-67820380D01*
X129248905Y-67820380D02*
X129629857Y-67820380D01*
X129629857Y-67820380D02*
X129725095Y-67868000D01*
X129725095Y-67868000D02*
X129772714Y-67915619D01*
X129772714Y-67915619D02*
X129820333Y-68010857D01*
X129820333Y-68010857D02*
X129820333Y-68153714D01*
X129820333Y-68153714D02*
X129772714Y-68248952D01*
X129772714Y-68248952D02*
X129725095Y-68296571D01*
X129725095Y-68296571D02*
X129629857Y-68344190D01*
X129629857Y-68344190D02*
X129248905Y-68344190D01*
X130391762Y-68248952D02*
X130296524Y-68201333D01*
X130296524Y-68201333D02*
X130248905Y-68153714D01*
X130248905Y-68153714D02*
X130201286Y-68058476D01*
X130201286Y-68058476D02*
X130201286Y-68010857D01*
X130201286Y-68010857D02*
X130248905Y-67915619D01*
X130248905Y-67915619D02*
X130296524Y-67868000D01*
X130296524Y-67868000D02*
X130391762Y-67820380D01*
X130391762Y-67820380D02*
X130582238Y-67820380D01*
X130582238Y-67820380D02*
X130677476Y-67868000D01*
X130677476Y-67868000D02*
X130725095Y-67915619D01*
X130725095Y-67915619D02*
X130772714Y-68010857D01*
X130772714Y-68010857D02*
X130772714Y-68058476D01*
X130772714Y-68058476D02*
X130725095Y-68153714D01*
X130725095Y-68153714D02*
X130677476Y-68201333D01*
X130677476Y-68201333D02*
X130582238Y-68248952D01*
X130582238Y-68248952D02*
X130391762Y-68248952D01*
X130391762Y-68248952D02*
X130296524Y-68296571D01*
X130296524Y-68296571D02*
X130248905Y-68344190D01*
X130248905Y-68344190D02*
X130201286Y-68439428D01*
X130201286Y-68439428D02*
X130201286Y-68629904D01*
X130201286Y-68629904D02*
X130248905Y-68725142D01*
X130248905Y-68725142D02*
X130296524Y-68772761D01*
X130296524Y-68772761D02*
X130391762Y-68820380D01*
X130391762Y-68820380D02*
X130582238Y-68820380D01*
X130582238Y-68820380D02*
X130677476Y-68772761D01*
X130677476Y-68772761D02*
X130725095Y-68725142D01*
X130725095Y-68725142D02*
X130772714Y-68629904D01*
X130772714Y-68629904D02*
X130772714Y-68439428D01*
X130772714Y-68439428D02*
X130725095Y-68344190D01*
X130725095Y-68344190D02*
X130677476Y-68296571D01*
X130677476Y-68296571D02*
X130582238Y-68248952D01*
%TO.C,D8*%
X126388905Y-118731380D02*
X126388905Y-117731380D01*
X126388905Y-117731380D02*
X126627000Y-117731380D01*
X126627000Y-117731380D02*
X126769857Y-117779000D01*
X126769857Y-117779000D02*
X126865095Y-117874238D01*
X126865095Y-117874238D02*
X126912714Y-117969476D01*
X126912714Y-117969476D02*
X126960333Y-118159952D01*
X126960333Y-118159952D02*
X126960333Y-118302809D01*
X126960333Y-118302809D02*
X126912714Y-118493285D01*
X126912714Y-118493285D02*
X126865095Y-118588523D01*
X126865095Y-118588523D02*
X126769857Y-118683761D01*
X126769857Y-118683761D02*
X126627000Y-118731380D01*
X126627000Y-118731380D02*
X126388905Y-118731380D01*
X127531762Y-118159952D02*
X127436524Y-118112333D01*
X127436524Y-118112333D02*
X127388905Y-118064714D01*
X127388905Y-118064714D02*
X127341286Y-117969476D01*
X127341286Y-117969476D02*
X127341286Y-117921857D01*
X127341286Y-117921857D02*
X127388905Y-117826619D01*
X127388905Y-117826619D02*
X127436524Y-117779000D01*
X127436524Y-117779000D02*
X127531762Y-117731380D01*
X127531762Y-117731380D02*
X127722238Y-117731380D01*
X127722238Y-117731380D02*
X127817476Y-117779000D01*
X127817476Y-117779000D02*
X127865095Y-117826619D01*
X127865095Y-117826619D02*
X127912714Y-117921857D01*
X127912714Y-117921857D02*
X127912714Y-117969476D01*
X127912714Y-117969476D02*
X127865095Y-118064714D01*
X127865095Y-118064714D02*
X127817476Y-118112333D01*
X127817476Y-118112333D02*
X127722238Y-118159952D01*
X127722238Y-118159952D02*
X127531762Y-118159952D01*
X127531762Y-118159952D02*
X127436524Y-118207571D01*
X127436524Y-118207571D02*
X127388905Y-118255190D01*
X127388905Y-118255190D02*
X127341286Y-118350428D01*
X127341286Y-118350428D02*
X127341286Y-118540904D01*
X127341286Y-118540904D02*
X127388905Y-118636142D01*
X127388905Y-118636142D02*
X127436524Y-118683761D01*
X127436524Y-118683761D02*
X127531762Y-118731380D01*
X127531762Y-118731380D02*
X127722238Y-118731380D01*
X127722238Y-118731380D02*
X127817476Y-118683761D01*
X127817476Y-118683761D02*
X127865095Y-118636142D01*
X127865095Y-118636142D02*
X127912714Y-118540904D01*
X127912714Y-118540904D02*
X127912714Y-118350428D01*
X127912714Y-118350428D02*
X127865095Y-118255190D01*
X127865095Y-118255190D02*
X127817476Y-118207571D01*
X127817476Y-118207571D02*
X127722238Y-118159952D01*
%TO.C,R10*%
X127367380Y-109227857D02*
X126891190Y-109561190D01*
X127367380Y-109799285D02*
X126367380Y-109799285D01*
X126367380Y-109799285D02*
X126367380Y-109418333D01*
X126367380Y-109418333D02*
X126415000Y-109323095D01*
X126415000Y-109323095D02*
X126462619Y-109275476D01*
X126462619Y-109275476D02*
X126557857Y-109227857D01*
X126557857Y-109227857D02*
X126700714Y-109227857D01*
X126700714Y-109227857D02*
X126795952Y-109275476D01*
X126795952Y-109275476D02*
X126843571Y-109323095D01*
X126843571Y-109323095D02*
X126891190Y-109418333D01*
X126891190Y-109418333D02*
X126891190Y-109799285D01*
X127367380Y-108275476D02*
X127367380Y-108846904D01*
X127367380Y-108561190D02*
X126367380Y-108561190D01*
X126367380Y-108561190D02*
X126510238Y-108656428D01*
X126510238Y-108656428D02*
X126605476Y-108751666D01*
X126605476Y-108751666D02*
X126653095Y-108846904D01*
X126367380Y-107656428D02*
X126367380Y-107561190D01*
X126367380Y-107561190D02*
X126415000Y-107465952D01*
X126415000Y-107465952D02*
X126462619Y-107418333D01*
X126462619Y-107418333D02*
X126557857Y-107370714D01*
X126557857Y-107370714D02*
X126748333Y-107323095D01*
X126748333Y-107323095D02*
X126986428Y-107323095D01*
X126986428Y-107323095D02*
X127176904Y-107370714D01*
X127176904Y-107370714D02*
X127272142Y-107418333D01*
X127272142Y-107418333D02*
X127319761Y-107465952D01*
X127319761Y-107465952D02*
X127367380Y-107561190D01*
X127367380Y-107561190D02*
X127367380Y-107656428D01*
X127367380Y-107656428D02*
X127319761Y-107751666D01*
X127319761Y-107751666D02*
X127272142Y-107799285D01*
X127272142Y-107799285D02*
X127176904Y-107846904D01*
X127176904Y-107846904D02*
X126986428Y-107894523D01*
X126986428Y-107894523D02*
X126748333Y-107894523D01*
X126748333Y-107894523D02*
X126557857Y-107846904D01*
X126557857Y-107846904D02*
X126462619Y-107799285D01*
X126462619Y-107799285D02*
X126415000Y-107751666D01*
X126415000Y-107751666D02*
X126367380Y-107656428D01*
%TO.C,K1*%
X134770905Y-88251380D02*
X134770905Y-87251380D01*
X135342333Y-88251380D02*
X134913762Y-87679952D01*
X135342333Y-87251380D02*
X134770905Y-87822809D01*
X136294714Y-88251380D02*
X135723286Y-88251380D01*
X136009000Y-88251380D02*
X136009000Y-87251380D01*
X136009000Y-87251380D02*
X135913762Y-87394238D01*
X135913762Y-87394238D02*
X135818524Y-87489476D01*
X135818524Y-87489476D02*
X135723286Y-87537095D01*
%TO.C,C6*%
X148905933Y-81780742D02*
X148858314Y-81828361D01*
X148858314Y-81828361D02*
X148715457Y-81875980D01*
X148715457Y-81875980D02*
X148620219Y-81875980D01*
X148620219Y-81875980D02*
X148477362Y-81828361D01*
X148477362Y-81828361D02*
X148382124Y-81733123D01*
X148382124Y-81733123D02*
X148334505Y-81637885D01*
X148334505Y-81637885D02*
X148286886Y-81447409D01*
X148286886Y-81447409D02*
X148286886Y-81304552D01*
X148286886Y-81304552D02*
X148334505Y-81114076D01*
X148334505Y-81114076D02*
X148382124Y-81018838D01*
X148382124Y-81018838D02*
X148477362Y-80923600D01*
X148477362Y-80923600D02*
X148620219Y-80875980D01*
X148620219Y-80875980D02*
X148715457Y-80875980D01*
X148715457Y-80875980D02*
X148858314Y-80923600D01*
X148858314Y-80923600D02*
X148905933Y-80971219D01*
X149763076Y-80875980D02*
X149572600Y-80875980D01*
X149572600Y-80875980D02*
X149477362Y-80923600D01*
X149477362Y-80923600D02*
X149429743Y-80971219D01*
X149429743Y-80971219D02*
X149334505Y-81114076D01*
X149334505Y-81114076D02*
X149286886Y-81304552D01*
X149286886Y-81304552D02*
X149286886Y-81685504D01*
X149286886Y-81685504D02*
X149334505Y-81780742D01*
X149334505Y-81780742D02*
X149382124Y-81828361D01*
X149382124Y-81828361D02*
X149477362Y-81875980D01*
X149477362Y-81875980D02*
X149667838Y-81875980D01*
X149667838Y-81875980D02*
X149763076Y-81828361D01*
X149763076Y-81828361D02*
X149810695Y-81780742D01*
X149810695Y-81780742D02*
X149858314Y-81685504D01*
X149858314Y-81685504D02*
X149858314Y-81447409D01*
X149858314Y-81447409D02*
X149810695Y-81352171D01*
X149810695Y-81352171D02*
X149763076Y-81304552D01*
X149763076Y-81304552D02*
X149667838Y-81256933D01*
X149667838Y-81256933D02*
X149477362Y-81256933D01*
X149477362Y-81256933D02*
X149382124Y-81304552D01*
X149382124Y-81304552D02*
X149334505Y-81352171D01*
X149334505Y-81352171D02*
X149286886Y-81447409D01*
%TO.C,C7*%
X149484133Y-96639742D02*
X149436514Y-96687361D01*
X149436514Y-96687361D02*
X149293657Y-96734980D01*
X149293657Y-96734980D02*
X149198419Y-96734980D01*
X149198419Y-96734980D02*
X149055562Y-96687361D01*
X149055562Y-96687361D02*
X148960324Y-96592123D01*
X148960324Y-96592123D02*
X148912705Y-96496885D01*
X148912705Y-96496885D02*
X148865086Y-96306409D01*
X148865086Y-96306409D02*
X148865086Y-96163552D01*
X148865086Y-96163552D02*
X148912705Y-95973076D01*
X148912705Y-95973076D02*
X148960324Y-95877838D01*
X148960324Y-95877838D02*
X149055562Y-95782600D01*
X149055562Y-95782600D02*
X149198419Y-95734980D01*
X149198419Y-95734980D02*
X149293657Y-95734980D01*
X149293657Y-95734980D02*
X149436514Y-95782600D01*
X149436514Y-95782600D02*
X149484133Y-95830219D01*
X149817467Y-95734980D02*
X150484133Y-95734980D01*
X150484133Y-95734980D02*
X150055562Y-96734980D01*
%TO.C,D7*%
X150264905Y-118731380D02*
X150264905Y-117731380D01*
X150264905Y-117731380D02*
X150503000Y-117731380D01*
X150503000Y-117731380D02*
X150645857Y-117779000D01*
X150645857Y-117779000D02*
X150741095Y-117874238D01*
X150741095Y-117874238D02*
X150788714Y-117969476D01*
X150788714Y-117969476D02*
X150836333Y-118159952D01*
X150836333Y-118159952D02*
X150836333Y-118302809D01*
X150836333Y-118302809D02*
X150788714Y-118493285D01*
X150788714Y-118493285D02*
X150741095Y-118588523D01*
X150741095Y-118588523D02*
X150645857Y-118683761D01*
X150645857Y-118683761D02*
X150503000Y-118731380D01*
X150503000Y-118731380D02*
X150264905Y-118731380D01*
X151169667Y-117731380D02*
X151836333Y-117731380D01*
X151836333Y-117731380D02*
X151407762Y-118731380D01*
%TO.C,R7*%
X114260333Y-72376380D02*
X113927000Y-71900190D01*
X113688905Y-72376380D02*
X113688905Y-71376380D01*
X113688905Y-71376380D02*
X114069857Y-71376380D01*
X114069857Y-71376380D02*
X114165095Y-71424000D01*
X114165095Y-71424000D02*
X114212714Y-71471619D01*
X114212714Y-71471619D02*
X114260333Y-71566857D01*
X114260333Y-71566857D02*
X114260333Y-71709714D01*
X114260333Y-71709714D02*
X114212714Y-71804952D01*
X114212714Y-71804952D02*
X114165095Y-71852571D01*
X114165095Y-71852571D02*
X114069857Y-71900190D01*
X114069857Y-71900190D02*
X113688905Y-71900190D01*
X114593667Y-71376380D02*
X115260333Y-71376380D01*
X115260333Y-71376380D02*
X114831762Y-72376380D01*
%TO.C,U5*%
X139954095Y-89003380D02*
X139954095Y-89812904D01*
X139954095Y-89812904D02*
X140001714Y-89908142D01*
X140001714Y-89908142D02*
X140049333Y-89955761D01*
X140049333Y-89955761D02*
X140144571Y-90003380D01*
X140144571Y-90003380D02*
X140335047Y-90003380D01*
X140335047Y-90003380D02*
X140430285Y-89955761D01*
X140430285Y-89955761D02*
X140477904Y-89908142D01*
X140477904Y-89908142D02*
X140525523Y-89812904D01*
X140525523Y-89812904D02*
X140525523Y-89003380D01*
X141477904Y-89003380D02*
X141001714Y-89003380D01*
X141001714Y-89003380D02*
X140954095Y-89479571D01*
X140954095Y-89479571D02*
X141001714Y-89431952D01*
X141001714Y-89431952D02*
X141096952Y-89384333D01*
X141096952Y-89384333D02*
X141335047Y-89384333D01*
X141335047Y-89384333D02*
X141430285Y-89431952D01*
X141430285Y-89431952D02*
X141477904Y-89479571D01*
X141477904Y-89479571D02*
X141525523Y-89574809D01*
X141525523Y-89574809D02*
X141525523Y-89812904D01*
X141525523Y-89812904D02*
X141477904Y-89908142D01*
X141477904Y-89908142D02*
X141430285Y-89955761D01*
X141430285Y-89955761D02*
X141335047Y-90003380D01*
X141335047Y-90003380D02*
X141096952Y-90003380D01*
X141096952Y-90003380D02*
X141001714Y-89955761D01*
X141001714Y-89955761D02*
X140954095Y-89908142D01*
%TO.C,U2*%
X122809095Y-61845380D02*
X122809095Y-62654904D01*
X122809095Y-62654904D02*
X122856714Y-62750142D01*
X122856714Y-62750142D02*
X122904333Y-62797761D01*
X122904333Y-62797761D02*
X122999571Y-62845380D01*
X122999571Y-62845380D02*
X123190047Y-62845380D01*
X123190047Y-62845380D02*
X123285285Y-62797761D01*
X123285285Y-62797761D02*
X123332904Y-62750142D01*
X123332904Y-62750142D02*
X123380523Y-62654904D01*
X123380523Y-62654904D02*
X123380523Y-61845380D01*
X123809095Y-61940619D02*
X123856714Y-61893000D01*
X123856714Y-61893000D02*
X123951952Y-61845380D01*
X123951952Y-61845380D02*
X124190047Y-61845380D01*
X124190047Y-61845380D02*
X124285285Y-61893000D01*
X124285285Y-61893000D02*
X124332904Y-61940619D01*
X124332904Y-61940619D02*
X124380523Y-62035857D01*
X124380523Y-62035857D02*
X124380523Y-62131095D01*
X124380523Y-62131095D02*
X124332904Y-62273952D01*
X124332904Y-62273952D02*
X123761476Y-62845380D01*
X123761476Y-62845380D02*
X124380523Y-62845380D01*
%TO.C,R17*%
X116953380Y-109227857D02*
X116477190Y-109561190D01*
X116953380Y-109799285D02*
X115953380Y-109799285D01*
X115953380Y-109799285D02*
X115953380Y-109418333D01*
X115953380Y-109418333D02*
X116001000Y-109323095D01*
X116001000Y-109323095D02*
X116048619Y-109275476D01*
X116048619Y-109275476D02*
X116143857Y-109227857D01*
X116143857Y-109227857D02*
X116286714Y-109227857D01*
X116286714Y-109227857D02*
X116381952Y-109275476D01*
X116381952Y-109275476D02*
X116429571Y-109323095D01*
X116429571Y-109323095D02*
X116477190Y-109418333D01*
X116477190Y-109418333D02*
X116477190Y-109799285D01*
X116953380Y-108275476D02*
X116953380Y-108846904D01*
X116953380Y-108561190D02*
X115953380Y-108561190D01*
X115953380Y-108561190D02*
X116096238Y-108656428D01*
X116096238Y-108656428D02*
X116191476Y-108751666D01*
X116191476Y-108751666D02*
X116239095Y-108846904D01*
X115953380Y-107942142D02*
X115953380Y-107275476D01*
X115953380Y-107275476D02*
X116953380Y-107704047D01*
%TO.C,J2*%
X128216066Y-57888980D02*
X128216066Y-58603266D01*
X128216066Y-58603266D02*
X128168447Y-58746123D01*
X128168447Y-58746123D02*
X128073209Y-58841361D01*
X128073209Y-58841361D02*
X127930352Y-58888980D01*
X127930352Y-58888980D02*
X127835114Y-58888980D01*
X128644638Y-57984219D02*
X128692257Y-57936600D01*
X128692257Y-57936600D02*
X128787495Y-57888980D01*
X128787495Y-57888980D02*
X129025590Y-57888980D01*
X129025590Y-57888980D02*
X129120828Y-57936600D01*
X129120828Y-57936600D02*
X129168447Y-57984219D01*
X129168447Y-57984219D02*
X129216066Y-58079457D01*
X129216066Y-58079457D02*
X129216066Y-58174695D01*
X129216066Y-58174695D02*
X129168447Y-58317552D01*
X129168447Y-58317552D02*
X128597019Y-58888980D01*
X128597019Y-58888980D02*
X129216066Y-58888980D01*
%TO.C,R9*%
X129836333Y-71106380D02*
X129503000Y-70630190D01*
X129264905Y-71106380D02*
X129264905Y-70106380D01*
X129264905Y-70106380D02*
X129645857Y-70106380D01*
X129645857Y-70106380D02*
X129741095Y-70154000D01*
X129741095Y-70154000D02*
X129788714Y-70201619D01*
X129788714Y-70201619D02*
X129836333Y-70296857D01*
X129836333Y-70296857D02*
X129836333Y-70439714D01*
X129836333Y-70439714D02*
X129788714Y-70534952D01*
X129788714Y-70534952D02*
X129741095Y-70582571D01*
X129741095Y-70582571D02*
X129645857Y-70630190D01*
X129645857Y-70630190D02*
X129264905Y-70630190D01*
X130312524Y-71106380D02*
X130503000Y-71106380D01*
X130503000Y-71106380D02*
X130598238Y-71058761D01*
X130598238Y-71058761D02*
X130645857Y-71011142D01*
X130645857Y-71011142D02*
X130741095Y-70868285D01*
X130741095Y-70868285D02*
X130788714Y-70677809D01*
X130788714Y-70677809D02*
X130788714Y-70296857D01*
X130788714Y-70296857D02*
X130741095Y-70201619D01*
X130741095Y-70201619D02*
X130693476Y-70154000D01*
X130693476Y-70154000D02*
X130598238Y-70106380D01*
X130598238Y-70106380D02*
X130407762Y-70106380D01*
X130407762Y-70106380D02*
X130312524Y-70154000D01*
X130312524Y-70154000D02*
X130264905Y-70201619D01*
X130264905Y-70201619D02*
X130217286Y-70296857D01*
X130217286Y-70296857D02*
X130217286Y-70534952D01*
X130217286Y-70534952D02*
X130264905Y-70630190D01*
X130264905Y-70630190D02*
X130312524Y-70677809D01*
X130312524Y-70677809D02*
X130407762Y-70725428D01*
X130407762Y-70725428D02*
X130598238Y-70725428D01*
X130598238Y-70725428D02*
X130693476Y-70677809D01*
X130693476Y-70677809D02*
X130741095Y-70630190D01*
X130741095Y-70630190D02*
X130788714Y-70534952D01*
%TO.C,R19*%
X137947856Y-101840380D02*
X137697856Y-101364190D01*
X137519285Y-101840380D02*
X137519285Y-100840380D01*
X137519285Y-100840380D02*
X137804999Y-100840380D01*
X137804999Y-100840380D02*
X137876428Y-100888000D01*
X137876428Y-100888000D02*
X137912142Y-100935619D01*
X137912142Y-100935619D02*
X137947856Y-101030857D01*
X137947856Y-101030857D02*
X137947856Y-101173714D01*
X137947856Y-101173714D02*
X137912142Y-101268952D01*
X137912142Y-101268952D02*
X137876428Y-101316571D01*
X137876428Y-101316571D02*
X137804999Y-101364190D01*
X137804999Y-101364190D02*
X137519285Y-101364190D01*
X138662142Y-101840380D02*
X138233571Y-101840380D01*
X138447856Y-101840380D02*
X138447856Y-100840380D01*
X138447856Y-100840380D02*
X138376428Y-100983238D01*
X138376428Y-100983238D02*
X138304999Y-101078476D01*
X138304999Y-101078476D02*
X138233571Y-101126095D01*
X139019285Y-101840380D02*
X139162142Y-101840380D01*
X139162142Y-101840380D02*
X139233571Y-101792761D01*
X139233571Y-101792761D02*
X139269285Y-101745142D01*
X139269285Y-101745142D02*
X139340714Y-101602285D01*
X139340714Y-101602285D02*
X139376428Y-101411809D01*
X139376428Y-101411809D02*
X139376428Y-101030857D01*
X139376428Y-101030857D02*
X139340714Y-100935619D01*
X139340714Y-100935619D02*
X139305000Y-100888000D01*
X139305000Y-100888000D02*
X139233571Y-100840380D01*
X139233571Y-100840380D02*
X139090714Y-100840380D01*
X139090714Y-100840380D02*
X139019285Y-100888000D01*
X139019285Y-100888000D02*
X138983571Y-100935619D01*
X138983571Y-100935619D02*
X138947857Y-101030857D01*
X138947857Y-101030857D02*
X138947857Y-101268952D01*
X138947857Y-101268952D02*
X138983571Y-101364190D01*
X138983571Y-101364190D02*
X139019285Y-101411809D01*
X139019285Y-101411809D02*
X139090714Y-101459428D01*
X139090714Y-101459428D02*
X139233571Y-101459428D01*
X139233571Y-101459428D02*
X139305000Y-101411809D01*
X139305000Y-101411809D02*
X139340714Y-101364190D01*
X139340714Y-101364190D02*
X139376428Y-101268952D01*
%TO.C,C19*%
X121150142Y-85108142D02*
X121102523Y-85155761D01*
X121102523Y-85155761D02*
X120959666Y-85203380D01*
X120959666Y-85203380D02*
X120864428Y-85203380D01*
X120864428Y-85203380D02*
X120721571Y-85155761D01*
X120721571Y-85155761D02*
X120626333Y-85060523D01*
X120626333Y-85060523D02*
X120578714Y-84965285D01*
X120578714Y-84965285D02*
X120531095Y-84774809D01*
X120531095Y-84774809D02*
X120531095Y-84631952D01*
X120531095Y-84631952D02*
X120578714Y-84441476D01*
X120578714Y-84441476D02*
X120626333Y-84346238D01*
X120626333Y-84346238D02*
X120721571Y-84251000D01*
X120721571Y-84251000D02*
X120864428Y-84203380D01*
X120864428Y-84203380D02*
X120959666Y-84203380D01*
X120959666Y-84203380D02*
X121102523Y-84251000D01*
X121102523Y-84251000D02*
X121150142Y-84298619D01*
X122102523Y-85203380D02*
X121531095Y-85203380D01*
X121816809Y-85203380D02*
X121816809Y-84203380D01*
X121816809Y-84203380D02*
X121721571Y-84346238D01*
X121721571Y-84346238D02*
X121626333Y-84441476D01*
X121626333Y-84441476D02*
X121531095Y-84489095D01*
X122578714Y-85203380D02*
X122769190Y-85203380D01*
X122769190Y-85203380D02*
X122864428Y-85155761D01*
X122864428Y-85155761D02*
X122912047Y-85108142D01*
X122912047Y-85108142D02*
X123007285Y-84965285D01*
X123007285Y-84965285D02*
X123054904Y-84774809D01*
X123054904Y-84774809D02*
X123054904Y-84393857D01*
X123054904Y-84393857D02*
X123007285Y-84298619D01*
X123007285Y-84298619D02*
X122959666Y-84251000D01*
X122959666Y-84251000D02*
X122864428Y-84203380D01*
X122864428Y-84203380D02*
X122673952Y-84203380D01*
X122673952Y-84203380D02*
X122578714Y-84251000D01*
X122578714Y-84251000D02*
X122531095Y-84298619D01*
X122531095Y-84298619D02*
X122483476Y-84393857D01*
X122483476Y-84393857D02*
X122483476Y-84631952D01*
X122483476Y-84631952D02*
X122531095Y-84727190D01*
X122531095Y-84727190D02*
X122578714Y-84774809D01*
X122578714Y-84774809D02*
X122673952Y-84822428D01*
X122673952Y-84822428D02*
X122864428Y-84822428D01*
X122864428Y-84822428D02*
X122959666Y-84774809D01*
X122959666Y-84774809D02*
X123007285Y-84727190D01*
X123007285Y-84727190D02*
X123054904Y-84631952D01*
%TO.C,J3*%
X147901066Y-57914380D02*
X147901066Y-58628666D01*
X147901066Y-58628666D02*
X147853447Y-58771523D01*
X147853447Y-58771523D02*
X147758209Y-58866761D01*
X147758209Y-58866761D02*
X147615352Y-58914380D01*
X147615352Y-58914380D02*
X147520114Y-58914380D01*
X148282019Y-57914380D02*
X148901066Y-57914380D01*
X148901066Y-57914380D02*
X148567733Y-58295333D01*
X148567733Y-58295333D02*
X148710590Y-58295333D01*
X148710590Y-58295333D02*
X148805828Y-58342952D01*
X148805828Y-58342952D02*
X148853447Y-58390571D01*
X148853447Y-58390571D02*
X148901066Y-58485809D01*
X148901066Y-58485809D02*
X148901066Y-58723904D01*
X148901066Y-58723904D02*
X148853447Y-58819142D01*
X148853447Y-58819142D02*
X148805828Y-58866761D01*
X148805828Y-58866761D02*
X148710590Y-58914380D01*
X148710590Y-58914380D02*
X148424876Y-58914380D01*
X148424876Y-58914380D02*
X148329638Y-58866761D01*
X148329638Y-58866761D02*
X148282019Y-58819142D01*
%TO.C,C13*%
X133114142Y-82663357D02*
X133161761Y-82710976D01*
X133161761Y-82710976D02*
X133209380Y-82853833D01*
X133209380Y-82853833D02*
X133209380Y-82949071D01*
X133209380Y-82949071D02*
X133161761Y-83091928D01*
X133161761Y-83091928D02*
X133066523Y-83187166D01*
X133066523Y-83187166D02*
X132971285Y-83234785D01*
X132971285Y-83234785D02*
X132780809Y-83282404D01*
X132780809Y-83282404D02*
X132637952Y-83282404D01*
X132637952Y-83282404D02*
X132447476Y-83234785D01*
X132447476Y-83234785D02*
X132352238Y-83187166D01*
X132352238Y-83187166D02*
X132257000Y-83091928D01*
X132257000Y-83091928D02*
X132209380Y-82949071D01*
X132209380Y-82949071D02*
X132209380Y-82853833D01*
X132209380Y-82853833D02*
X132257000Y-82710976D01*
X132257000Y-82710976D02*
X132304619Y-82663357D01*
X133209380Y-81710976D02*
X133209380Y-82282404D01*
X133209380Y-81996690D02*
X132209380Y-81996690D01*
X132209380Y-81996690D02*
X132352238Y-82091928D01*
X132352238Y-82091928D02*
X132447476Y-82187166D01*
X132447476Y-82187166D02*
X132495095Y-82282404D01*
X132209380Y-81377642D02*
X132209380Y-80758595D01*
X132209380Y-80758595D02*
X132590333Y-81091928D01*
X132590333Y-81091928D02*
X132590333Y-80949071D01*
X132590333Y-80949071D02*
X132637952Y-80853833D01*
X132637952Y-80853833D02*
X132685571Y-80806214D01*
X132685571Y-80806214D02*
X132780809Y-80758595D01*
X132780809Y-80758595D02*
X133018904Y-80758595D01*
X133018904Y-80758595D02*
X133114142Y-80806214D01*
X133114142Y-80806214D02*
X133161761Y-80853833D01*
X133161761Y-80853833D02*
X133209380Y-80949071D01*
X133209380Y-80949071D02*
X133209380Y-81234785D01*
X133209380Y-81234785D02*
X133161761Y-81330023D01*
X133161761Y-81330023D02*
X133114142Y-81377642D01*
%TO.C,C4*%
X148905933Y-76776942D02*
X148858314Y-76824561D01*
X148858314Y-76824561D02*
X148715457Y-76872180D01*
X148715457Y-76872180D02*
X148620219Y-76872180D01*
X148620219Y-76872180D02*
X148477362Y-76824561D01*
X148477362Y-76824561D02*
X148382124Y-76729323D01*
X148382124Y-76729323D02*
X148334505Y-76634085D01*
X148334505Y-76634085D02*
X148286886Y-76443609D01*
X148286886Y-76443609D02*
X148286886Y-76300752D01*
X148286886Y-76300752D02*
X148334505Y-76110276D01*
X148334505Y-76110276D02*
X148382124Y-76015038D01*
X148382124Y-76015038D02*
X148477362Y-75919800D01*
X148477362Y-75919800D02*
X148620219Y-75872180D01*
X148620219Y-75872180D02*
X148715457Y-75872180D01*
X148715457Y-75872180D02*
X148858314Y-75919800D01*
X148858314Y-75919800D02*
X148905933Y-75967419D01*
X149763076Y-76205514D02*
X149763076Y-76872180D01*
X149524981Y-75824561D02*
X149286886Y-76538847D01*
X149286886Y-76538847D02*
X149905933Y-76538847D01*
%TO.C,R15*%
X120382380Y-114180857D02*
X119906190Y-114514190D01*
X120382380Y-114752285D02*
X119382380Y-114752285D01*
X119382380Y-114752285D02*
X119382380Y-114371333D01*
X119382380Y-114371333D02*
X119430000Y-114276095D01*
X119430000Y-114276095D02*
X119477619Y-114228476D01*
X119477619Y-114228476D02*
X119572857Y-114180857D01*
X119572857Y-114180857D02*
X119715714Y-114180857D01*
X119715714Y-114180857D02*
X119810952Y-114228476D01*
X119810952Y-114228476D02*
X119858571Y-114276095D01*
X119858571Y-114276095D02*
X119906190Y-114371333D01*
X119906190Y-114371333D02*
X119906190Y-114752285D01*
X120382380Y-113228476D02*
X120382380Y-113799904D01*
X120382380Y-113514190D02*
X119382380Y-113514190D01*
X119382380Y-113514190D02*
X119525238Y-113609428D01*
X119525238Y-113609428D02*
X119620476Y-113704666D01*
X119620476Y-113704666D02*
X119668095Y-113799904D01*
X119382380Y-112323714D02*
X119382380Y-112799904D01*
X119382380Y-112799904D02*
X119858571Y-112847523D01*
X119858571Y-112847523D02*
X119810952Y-112799904D01*
X119810952Y-112799904D02*
X119763333Y-112704666D01*
X119763333Y-112704666D02*
X119763333Y-112466571D01*
X119763333Y-112466571D02*
X119810952Y-112371333D01*
X119810952Y-112371333D02*
X119858571Y-112323714D01*
X119858571Y-112323714D02*
X119953809Y-112276095D01*
X119953809Y-112276095D02*
X120191904Y-112276095D01*
X120191904Y-112276095D02*
X120287142Y-112323714D01*
X120287142Y-112323714D02*
X120334761Y-112371333D01*
X120334761Y-112371333D02*
X120382380Y-112466571D01*
X120382380Y-112466571D02*
X120382380Y-112704666D01*
X120382380Y-112704666D02*
X120334761Y-112799904D01*
X120334761Y-112799904D02*
X120287142Y-112847523D01*
%TO.C,C18*%
X113276142Y-75329142D02*
X113228523Y-75376761D01*
X113228523Y-75376761D02*
X113085666Y-75424380D01*
X113085666Y-75424380D02*
X112990428Y-75424380D01*
X112990428Y-75424380D02*
X112847571Y-75376761D01*
X112847571Y-75376761D02*
X112752333Y-75281523D01*
X112752333Y-75281523D02*
X112704714Y-75186285D01*
X112704714Y-75186285D02*
X112657095Y-74995809D01*
X112657095Y-74995809D02*
X112657095Y-74852952D01*
X112657095Y-74852952D02*
X112704714Y-74662476D01*
X112704714Y-74662476D02*
X112752333Y-74567238D01*
X112752333Y-74567238D02*
X112847571Y-74472000D01*
X112847571Y-74472000D02*
X112990428Y-74424380D01*
X112990428Y-74424380D02*
X113085666Y-74424380D01*
X113085666Y-74424380D02*
X113228523Y-74472000D01*
X113228523Y-74472000D02*
X113276142Y-74519619D01*
X114228523Y-75424380D02*
X113657095Y-75424380D01*
X113942809Y-75424380D02*
X113942809Y-74424380D01*
X113942809Y-74424380D02*
X113847571Y-74567238D01*
X113847571Y-74567238D02*
X113752333Y-74662476D01*
X113752333Y-74662476D02*
X113657095Y-74710095D01*
X114799952Y-74852952D02*
X114704714Y-74805333D01*
X114704714Y-74805333D02*
X114657095Y-74757714D01*
X114657095Y-74757714D02*
X114609476Y-74662476D01*
X114609476Y-74662476D02*
X114609476Y-74614857D01*
X114609476Y-74614857D02*
X114657095Y-74519619D01*
X114657095Y-74519619D02*
X114704714Y-74472000D01*
X114704714Y-74472000D02*
X114799952Y-74424380D01*
X114799952Y-74424380D02*
X114990428Y-74424380D01*
X114990428Y-74424380D02*
X115085666Y-74472000D01*
X115085666Y-74472000D02*
X115133285Y-74519619D01*
X115133285Y-74519619D02*
X115180904Y-74614857D01*
X115180904Y-74614857D02*
X115180904Y-74662476D01*
X115180904Y-74662476D02*
X115133285Y-74757714D01*
X115133285Y-74757714D02*
X115085666Y-74805333D01*
X115085666Y-74805333D02*
X114990428Y-74852952D01*
X114990428Y-74852952D02*
X114799952Y-74852952D01*
X114799952Y-74852952D02*
X114704714Y-74900571D01*
X114704714Y-74900571D02*
X114657095Y-74948190D01*
X114657095Y-74948190D02*
X114609476Y-75043428D01*
X114609476Y-75043428D02*
X114609476Y-75233904D01*
X114609476Y-75233904D02*
X114657095Y-75329142D01*
X114657095Y-75329142D02*
X114704714Y-75376761D01*
X114704714Y-75376761D02*
X114799952Y-75424380D01*
X114799952Y-75424380D02*
X114990428Y-75424380D01*
X114990428Y-75424380D02*
X115085666Y-75376761D01*
X115085666Y-75376761D02*
X115133285Y-75329142D01*
X115133285Y-75329142D02*
X115180904Y-75233904D01*
X115180904Y-75233904D02*
X115180904Y-75043428D01*
X115180904Y-75043428D02*
X115133285Y-74948190D01*
X115133285Y-74948190D02*
X115085666Y-74900571D01*
X115085666Y-74900571D02*
X114990428Y-74852952D01*
%TO.C,C3*%
X123277333Y-71900142D02*
X123229714Y-71947761D01*
X123229714Y-71947761D02*
X123086857Y-71995380D01*
X123086857Y-71995380D02*
X122991619Y-71995380D01*
X122991619Y-71995380D02*
X122848762Y-71947761D01*
X122848762Y-71947761D02*
X122753524Y-71852523D01*
X122753524Y-71852523D02*
X122705905Y-71757285D01*
X122705905Y-71757285D02*
X122658286Y-71566809D01*
X122658286Y-71566809D02*
X122658286Y-71423952D01*
X122658286Y-71423952D02*
X122705905Y-71233476D01*
X122705905Y-71233476D02*
X122753524Y-71138238D01*
X122753524Y-71138238D02*
X122848762Y-71043000D01*
X122848762Y-71043000D02*
X122991619Y-70995380D01*
X122991619Y-70995380D02*
X123086857Y-70995380D01*
X123086857Y-70995380D02*
X123229714Y-71043000D01*
X123229714Y-71043000D02*
X123277333Y-71090619D01*
X123610667Y-70995380D02*
X124229714Y-70995380D01*
X124229714Y-70995380D02*
X123896381Y-71376333D01*
X123896381Y-71376333D02*
X124039238Y-71376333D01*
X124039238Y-71376333D02*
X124134476Y-71423952D01*
X124134476Y-71423952D02*
X124182095Y-71471571D01*
X124182095Y-71471571D02*
X124229714Y-71566809D01*
X124229714Y-71566809D02*
X124229714Y-71804904D01*
X124229714Y-71804904D02*
X124182095Y-71900142D01*
X124182095Y-71900142D02*
X124134476Y-71947761D01*
X124134476Y-71947761D02*
X124039238Y-71995380D01*
X124039238Y-71995380D02*
X123753524Y-71995380D01*
X123753524Y-71995380D02*
X123658286Y-71947761D01*
X123658286Y-71947761D02*
X123610667Y-71900142D01*
%TO.C,C14*%
X154297142Y-56152142D02*
X154249523Y-56199761D01*
X154249523Y-56199761D02*
X154106666Y-56247380D01*
X154106666Y-56247380D02*
X154011428Y-56247380D01*
X154011428Y-56247380D02*
X153868571Y-56199761D01*
X153868571Y-56199761D02*
X153773333Y-56104523D01*
X153773333Y-56104523D02*
X153725714Y-56009285D01*
X153725714Y-56009285D02*
X153678095Y-55818809D01*
X153678095Y-55818809D02*
X153678095Y-55675952D01*
X153678095Y-55675952D02*
X153725714Y-55485476D01*
X153725714Y-55485476D02*
X153773333Y-55390238D01*
X153773333Y-55390238D02*
X153868571Y-55295000D01*
X153868571Y-55295000D02*
X154011428Y-55247380D01*
X154011428Y-55247380D02*
X154106666Y-55247380D01*
X154106666Y-55247380D02*
X154249523Y-55295000D01*
X154249523Y-55295000D02*
X154297142Y-55342619D01*
X155249523Y-56247380D02*
X154678095Y-56247380D01*
X154963809Y-56247380D02*
X154963809Y-55247380D01*
X154963809Y-55247380D02*
X154868571Y-55390238D01*
X154868571Y-55390238D02*
X154773333Y-55485476D01*
X154773333Y-55485476D02*
X154678095Y-55533095D01*
X156106666Y-55580714D02*
X156106666Y-56247380D01*
X155868571Y-55199761D02*
X155630476Y-55914047D01*
X155630476Y-55914047D02*
X156249523Y-55914047D01*
%TO.C,R1*%
X128652999Y-101840380D02*
X128402999Y-101364190D01*
X128224428Y-101840380D02*
X128224428Y-100840380D01*
X128224428Y-100840380D02*
X128510142Y-100840380D01*
X128510142Y-100840380D02*
X128581571Y-100888000D01*
X128581571Y-100888000D02*
X128617285Y-100935619D01*
X128617285Y-100935619D02*
X128652999Y-101030857D01*
X128652999Y-101030857D02*
X128652999Y-101173714D01*
X128652999Y-101173714D02*
X128617285Y-101268952D01*
X128617285Y-101268952D02*
X128581571Y-101316571D01*
X128581571Y-101316571D02*
X128510142Y-101364190D01*
X128510142Y-101364190D02*
X128224428Y-101364190D01*
X129367285Y-101840380D02*
X128938714Y-101840380D01*
X129152999Y-101840380D02*
X129152999Y-100840380D01*
X129152999Y-100840380D02*
X129081571Y-100983238D01*
X129081571Y-100983238D02*
X129010142Y-101078476D01*
X129010142Y-101078476D02*
X128938714Y-101126095D01*
%TO.C,C17*%
X145941142Y-95406357D02*
X145988761Y-95453976D01*
X145988761Y-95453976D02*
X146036380Y-95596833D01*
X146036380Y-95596833D02*
X146036380Y-95692071D01*
X146036380Y-95692071D02*
X145988761Y-95834928D01*
X145988761Y-95834928D02*
X145893523Y-95930166D01*
X145893523Y-95930166D02*
X145798285Y-95977785D01*
X145798285Y-95977785D02*
X145607809Y-96025404D01*
X145607809Y-96025404D02*
X145464952Y-96025404D01*
X145464952Y-96025404D02*
X145274476Y-95977785D01*
X145274476Y-95977785D02*
X145179238Y-95930166D01*
X145179238Y-95930166D02*
X145084000Y-95834928D01*
X145084000Y-95834928D02*
X145036380Y-95692071D01*
X145036380Y-95692071D02*
X145036380Y-95596833D01*
X145036380Y-95596833D02*
X145084000Y-95453976D01*
X145084000Y-95453976D02*
X145131619Y-95406357D01*
X146036380Y-94453976D02*
X146036380Y-95025404D01*
X146036380Y-94739690D02*
X145036380Y-94739690D01*
X145036380Y-94739690D02*
X145179238Y-94834928D01*
X145179238Y-94834928D02*
X145274476Y-94930166D01*
X145274476Y-94930166D02*
X145322095Y-95025404D01*
X145036380Y-94120642D02*
X145036380Y-93453976D01*
X145036380Y-93453976D02*
X146036380Y-93882547D01*
%TO.C,SW1*%
X113982667Y-93283761D02*
X114125524Y-93331380D01*
X114125524Y-93331380D02*
X114363619Y-93331380D01*
X114363619Y-93331380D02*
X114458857Y-93283761D01*
X114458857Y-93283761D02*
X114506476Y-93236142D01*
X114506476Y-93236142D02*
X114554095Y-93140904D01*
X114554095Y-93140904D02*
X114554095Y-93045666D01*
X114554095Y-93045666D02*
X114506476Y-92950428D01*
X114506476Y-92950428D02*
X114458857Y-92902809D01*
X114458857Y-92902809D02*
X114363619Y-92855190D01*
X114363619Y-92855190D02*
X114173143Y-92807571D01*
X114173143Y-92807571D02*
X114077905Y-92759952D01*
X114077905Y-92759952D02*
X114030286Y-92712333D01*
X114030286Y-92712333D02*
X113982667Y-92617095D01*
X113982667Y-92617095D02*
X113982667Y-92521857D01*
X113982667Y-92521857D02*
X114030286Y-92426619D01*
X114030286Y-92426619D02*
X114077905Y-92379000D01*
X114077905Y-92379000D02*
X114173143Y-92331380D01*
X114173143Y-92331380D02*
X114411238Y-92331380D01*
X114411238Y-92331380D02*
X114554095Y-92379000D01*
X114887429Y-92331380D02*
X115125524Y-93331380D01*
X115125524Y-93331380D02*
X115316000Y-92617095D01*
X115316000Y-92617095D02*
X115506476Y-93331380D01*
X115506476Y-93331380D02*
X115744572Y-92331380D01*
X116649333Y-93331380D02*
X116077905Y-93331380D01*
X116363619Y-93331380D02*
X116363619Y-92331380D01*
X116363619Y-92331380D02*
X116268381Y-92474238D01*
X116268381Y-92474238D02*
X116173143Y-92569476D01*
X116173143Y-92569476D02*
X116077905Y-92617095D01*
%TO.C,R6*%
X131065999Y-101840380D02*
X130815999Y-101364190D01*
X130637428Y-101840380D02*
X130637428Y-100840380D01*
X130637428Y-100840380D02*
X130923142Y-100840380D01*
X130923142Y-100840380D02*
X130994571Y-100888000D01*
X130994571Y-100888000D02*
X131030285Y-100935619D01*
X131030285Y-100935619D02*
X131065999Y-101030857D01*
X131065999Y-101030857D02*
X131065999Y-101173714D01*
X131065999Y-101173714D02*
X131030285Y-101268952D01*
X131030285Y-101268952D02*
X130994571Y-101316571D01*
X130994571Y-101316571D02*
X130923142Y-101364190D01*
X130923142Y-101364190D02*
X130637428Y-101364190D01*
X131708857Y-100840380D02*
X131565999Y-100840380D01*
X131565999Y-100840380D02*
X131494571Y-100888000D01*
X131494571Y-100888000D02*
X131458857Y-100935619D01*
X131458857Y-100935619D02*
X131387428Y-101078476D01*
X131387428Y-101078476D02*
X131351714Y-101268952D01*
X131351714Y-101268952D02*
X131351714Y-101649904D01*
X131351714Y-101649904D02*
X131387428Y-101745142D01*
X131387428Y-101745142D02*
X131423142Y-101792761D01*
X131423142Y-101792761D02*
X131494571Y-101840380D01*
X131494571Y-101840380D02*
X131637428Y-101840380D01*
X131637428Y-101840380D02*
X131708857Y-101792761D01*
X131708857Y-101792761D02*
X131744571Y-101745142D01*
X131744571Y-101745142D02*
X131780285Y-101649904D01*
X131780285Y-101649904D02*
X131780285Y-101411809D01*
X131780285Y-101411809D02*
X131744571Y-101316571D01*
X131744571Y-101316571D02*
X131708857Y-101268952D01*
X131708857Y-101268952D02*
X131637428Y-101221333D01*
X131637428Y-101221333D02*
X131494571Y-101221333D01*
X131494571Y-101221333D02*
X131423142Y-101268952D01*
X131423142Y-101268952D02*
X131387428Y-101316571D01*
X131387428Y-101316571D02*
X131351714Y-101411809D01*
%TO.C,R3*%
X114142733Y-80351980D02*
X113809400Y-79875790D01*
X113571305Y-80351980D02*
X113571305Y-79351980D01*
X113571305Y-79351980D02*
X113952257Y-79351980D01*
X113952257Y-79351980D02*
X114047495Y-79399600D01*
X114047495Y-79399600D02*
X114095114Y-79447219D01*
X114095114Y-79447219D02*
X114142733Y-79542457D01*
X114142733Y-79542457D02*
X114142733Y-79685314D01*
X114142733Y-79685314D02*
X114095114Y-79780552D01*
X114095114Y-79780552D02*
X114047495Y-79828171D01*
X114047495Y-79828171D02*
X113952257Y-79875790D01*
X113952257Y-79875790D02*
X113571305Y-79875790D01*
X114476067Y-79351980D02*
X115095114Y-79351980D01*
X115095114Y-79351980D02*
X114761781Y-79732933D01*
X114761781Y-79732933D02*
X114904638Y-79732933D01*
X114904638Y-79732933D02*
X114999876Y-79780552D01*
X114999876Y-79780552D02*
X115047495Y-79828171D01*
X115047495Y-79828171D02*
X115095114Y-79923409D01*
X115095114Y-79923409D02*
X115095114Y-80161504D01*
X115095114Y-80161504D02*
X115047495Y-80256742D01*
X115047495Y-80256742D02*
X114999876Y-80304361D01*
X114999876Y-80304361D02*
X114904638Y-80351980D01*
X114904638Y-80351980D02*
X114618924Y-80351980D01*
X114618924Y-80351980D02*
X114523686Y-80304361D01*
X114523686Y-80304361D02*
X114476067Y-80256742D01*
%TO.C,D4*%
X129436905Y-115124580D02*
X129436905Y-114124580D01*
X129436905Y-114124580D02*
X129675000Y-114124580D01*
X129675000Y-114124580D02*
X129817857Y-114172200D01*
X129817857Y-114172200D02*
X129913095Y-114267438D01*
X129913095Y-114267438D02*
X129960714Y-114362676D01*
X129960714Y-114362676D02*
X130008333Y-114553152D01*
X130008333Y-114553152D02*
X130008333Y-114696009D01*
X130008333Y-114696009D02*
X129960714Y-114886485D01*
X129960714Y-114886485D02*
X129913095Y-114981723D01*
X129913095Y-114981723D02*
X129817857Y-115076961D01*
X129817857Y-115076961D02*
X129675000Y-115124580D01*
X129675000Y-115124580D02*
X129436905Y-115124580D01*
X130865476Y-114457914D02*
X130865476Y-115124580D01*
X130627381Y-114076961D02*
X130389286Y-114791247D01*
X130389286Y-114791247D02*
X131008333Y-114791247D01*
%TO.C,C20*%
X113237142Y-77514142D02*
X113189523Y-77561761D01*
X113189523Y-77561761D02*
X113046666Y-77609380D01*
X113046666Y-77609380D02*
X112951428Y-77609380D01*
X112951428Y-77609380D02*
X112808571Y-77561761D01*
X112808571Y-77561761D02*
X112713333Y-77466523D01*
X112713333Y-77466523D02*
X112665714Y-77371285D01*
X112665714Y-77371285D02*
X112618095Y-77180809D01*
X112618095Y-77180809D02*
X112618095Y-77037952D01*
X112618095Y-77037952D02*
X112665714Y-76847476D01*
X112665714Y-76847476D02*
X112713333Y-76752238D01*
X112713333Y-76752238D02*
X112808571Y-76657000D01*
X112808571Y-76657000D02*
X112951428Y-76609380D01*
X112951428Y-76609380D02*
X113046666Y-76609380D01*
X113046666Y-76609380D02*
X113189523Y-76657000D01*
X113189523Y-76657000D02*
X113237142Y-76704619D01*
X113618095Y-76704619D02*
X113665714Y-76657000D01*
X113665714Y-76657000D02*
X113760952Y-76609380D01*
X113760952Y-76609380D02*
X113999047Y-76609380D01*
X113999047Y-76609380D02*
X114094285Y-76657000D01*
X114094285Y-76657000D02*
X114141904Y-76704619D01*
X114141904Y-76704619D02*
X114189523Y-76799857D01*
X114189523Y-76799857D02*
X114189523Y-76895095D01*
X114189523Y-76895095D02*
X114141904Y-77037952D01*
X114141904Y-77037952D02*
X113570476Y-77609380D01*
X113570476Y-77609380D02*
X114189523Y-77609380D01*
X114808571Y-76609380D02*
X114903809Y-76609380D01*
X114903809Y-76609380D02*
X114999047Y-76657000D01*
X114999047Y-76657000D02*
X115046666Y-76704619D01*
X115046666Y-76704619D02*
X115094285Y-76799857D01*
X115094285Y-76799857D02*
X115141904Y-76990333D01*
X115141904Y-76990333D02*
X115141904Y-77228428D01*
X115141904Y-77228428D02*
X115094285Y-77418904D01*
X115094285Y-77418904D02*
X115046666Y-77514142D01*
X115046666Y-77514142D02*
X114999047Y-77561761D01*
X114999047Y-77561761D02*
X114903809Y-77609380D01*
X114903809Y-77609380D02*
X114808571Y-77609380D01*
X114808571Y-77609380D02*
X114713333Y-77561761D01*
X114713333Y-77561761D02*
X114665714Y-77514142D01*
X114665714Y-77514142D02*
X114618095Y-77418904D01*
X114618095Y-77418904D02*
X114570476Y-77228428D01*
X114570476Y-77228428D02*
X114570476Y-76990333D01*
X114570476Y-76990333D02*
X114618095Y-76799857D01*
X114618095Y-76799857D02*
X114665714Y-76704619D01*
X114665714Y-76704619D02*
X114713333Y-76657000D01*
X114713333Y-76657000D02*
X114808571Y-76609380D01*
%TO.C,C11*%
X130955142Y-90072357D02*
X131002761Y-90119976D01*
X131002761Y-90119976D02*
X131050380Y-90262833D01*
X131050380Y-90262833D02*
X131050380Y-90358071D01*
X131050380Y-90358071D02*
X131002761Y-90500928D01*
X131002761Y-90500928D02*
X130907523Y-90596166D01*
X130907523Y-90596166D02*
X130812285Y-90643785D01*
X130812285Y-90643785D02*
X130621809Y-90691404D01*
X130621809Y-90691404D02*
X130478952Y-90691404D01*
X130478952Y-90691404D02*
X130288476Y-90643785D01*
X130288476Y-90643785D02*
X130193238Y-90596166D01*
X130193238Y-90596166D02*
X130098000Y-90500928D01*
X130098000Y-90500928D02*
X130050380Y-90358071D01*
X130050380Y-90358071D02*
X130050380Y-90262833D01*
X130050380Y-90262833D02*
X130098000Y-90119976D01*
X130098000Y-90119976D02*
X130145619Y-90072357D01*
X131050380Y-89119976D02*
X131050380Y-89691404D01*
X131050380Y-89405690D02*
X130050380Y-89405690D01*
X130050380Y-89405690D02*
X130193238Y-89500928D01*
X130193238Y-89500928D02*
X130288476Y-89596166D01*
X130288476Y-89596166D02*
X130336095Y-89691404D01*
X131050380Y-88167595D02*
X131050380Y-88739023D01*
X131050380Y-88453309D02*
X130050380Y-88453309D01*
X130050380Y-88453309D02*
X130193238Y-88548547D01*
X130193238Y-88548547D02*
X130288476Y-88643785D01*
X130288476Y-88643785D02*
X130336095Y-88739023D01*
%TO.C,C10*%
X113149142Y-86886142D02*
X113101523Y-86933761D01*
X113101523Y-86933761D02*
X112958666Y-86981380D01*
X112958666Y-86981380D02*
X112863428Y-86981380D01*
X112863428Y-86981380D02*
X112720571Y-86933761D01*
X112720571Y-86933761D02*
X112625333Y-86838523D01*
X112625333Y-86838523D02*
X112577714Y-86743285D01*
X112577714Y-86743285D02*
X112530095Y-86552809D01*
X112530095Y-86552809D02*
X112530095Y-86409952D01*
X112530095Y-86409952D02*
X112577714Y-86219476D01*
X112577714Y-86219476D02*
X112625333Y-86124238D01*
X112625333Y-86124238D02*
X112720571Y-86029000D01*
X112720571Y-86029000D02*
X112863428Y-85981380D01*
X112863428Y-85981380D02*
X112958666Y-85981380D01*
X112958666Y-85981380D02*
X113101523Y-86029000D01*
X113101523Y-86029000D02*
X113149142Y-86076619D01*
X114101523Y-86981380D02*
X113530095Y-86981380D01*
X113815809Y-86981380D02*
X113815809Y-85981380D01*
X113815809Y-85981380D02*
X113720571Y-86124238D01*
X113720571Y-86124238D02*
X113625333Y-86219476D01*
X113625333Y-86219476D02*
X113530095Y-86267095D01*
X114720571Y-85981380D02*
X114815809Y-85981380D01*
X114815809Y-85981380D02*
X114911047Y-86029000D01*
X114911047Y-86029000D02*
X114958666Y-86076619D01*
X114958666Y-86076619D02*
X115006285Y-86171857D01*
X115006285Y-86171857D02*
X115053904Y-86362333D01*
X115053904Y-86362333D02*
X115053904Y-86600428D01*
X115053904Y-86600428D02*
X115006285Y-86790904D01*
X115006285Y-86790904D02*
X114958666Y-86886142D01*
X114958666Y-86886142D02*
X114911047Y-86933761D01*
X114911047Y-86933761D02*
X114815809Y-86981380D01*
X114815809Y-86981380D02*
X114720571Y-86981380D01*
X114720571Y-86981380D02*
X114625333Y-86933761D01*
X114625333Y-86933761D02*
X114577714Y-86886142D01*
X114577714Y-86886142D02*
X114530095Y-86790904D01*
X114530095Y-86790904D02*
X114482476Y-86600428D01*
X114482476Y-86600428D02*
X114482476Y-86362333D01*
X114482476Y-86362333D02*
X114530095Y-86171857D01*
X114530095Y-86171857D02*
X114577714Y-86076619D01*
X114577714Y-86076619D02*
X114625333Y-86029000D01*
X114625333Y-86029000D02*
X114720571Y-85981380D01*
%TO.C,R20*%
X140360856Y-101840380D02*
X140110856Y-101364190D01*
X139932285Y-101840380D02*
X139932285Y-100840380D01*
X139932285Y-100840380D02*
X140217999Y-100840380D01*
X140217999Y-100840380D02*
X140289428Y-100888000D01*
X140289428Y-100888000D02*
X140325142Y-100935619D01*
X140325142Y-100935619D02*
X140360856Y-101030857D01*
X140360856Y-101030857D02*
X140360856Y-101173714D01*
X140360856Y-101173714D02*
X140325142Y-101268952D01*
X140325142Y-101268952D02*
X140289428Y-101316571D01*
X140289428Y-101316571D02*
X140217999Y-101364190D01*
X140217999Y-101364190D02*
X139932285Y-101364190D01*
X140646571Y-100935619D02*
X140682285Y-100888000D01*
X140682285Y-100888000D02*
X140753714Y-100840380D01*
X140753714Y-100840380D02*
X140932285Y-100840380D01*
X140932285Y-100840380D02*
X141003714Y-100888000D01*
X141003714Y-100888000D02*
X141039428Y-100935619D01*
X141039428Y-100935619D02*
X141075142Y-101030857D01*
X141075142Y-101030857D02*
X141075142Y-101126095D01*
X141075142Y-101126095D02*
X141039428Y-101268952D01*
X141039428Y-101268952D02*
X140610856Y-101840380D01*
X140610856Y-101840380D02*
X141075142Y-101840380D01*
X141539428Y-100840380D02*
X141610857Y-100840380D01*
X141610857Y-100840380D02*
X141682285Y-100888000D01*
X141682285Y-100888000D02*
X141718000Y-100935619D01*
X141718000Y-100935619D02*
X141753714Y-101030857D01*
X141753714Y-101030857D02*
X141789428Y-101221333D01*
X141789428Y-101221333D02*
X141789428Y-101459428D01*
X141789428Y-101459428D02*
X141753714Y-101649904D01*
X141753714Y-101649904D02*
X141718000Y-101745142D01*
X141718000Y-101745142D02*
X141682285Y-101792761D01*
X141682285Y-101792761D02*
X141610857Y-101840380D01*
X141610857Y-101840380D02*
X141539428Y-101840380D01*
X141539428Y-101840380D02*
X141468000Y-101792761D01*
X141468000Y-101792761D02*
X141432285Y-101745142D01*
X141432285Y-101745142D02*
X141396571Y-101649904D01*
X141396571Y-101649904D02*
X141360857Y-101459428D01*
X141360857Y-101459428D02*
X141360857Y-101221333D01*
X141360857Y-101221333D02*
X141396571Y-101030857D01*
X141396571Y-101030857D02*
X141432285Y-100935619D01*
X141432285Y-100935619D02*
X141468000Y-100888000D01*
X141468000Y-100888000D02*
X141539428Y-100840380D01*
D11*
%TO.C,U3*%
X150840000Y-81694000D02*
X156850000Y-81694000D01*
X153090000Y-88514000D02*
X156850000Y-88514000D01*
X156850000Y-81694000D02*
X156850000Y-82954000D01*
X156850000Y-88514000D02*
X156850000Y-87254000D01*
%TO.C,U1*%
X150840000Y-71520000D02*
X156850000Y-71520000D01*
X153090000Y-78340000D02*
X156850000Y-78340000D01*
X156850000Y-71520000D02*
X156850000Y-72780000D01*
X156850000Y-78340000D02*
X156850000Y-77080000D01*
%TO.C,C22*%
X149607600Y-108037352D02*
X149607600Y-107514848D01*
X151077600Y-108037352D02*
X151077600Y-107514848D01*
%TO.C,C21*%
X147372400Y-108037352D02*
X147372400Y-107514848D01*
X148842400Y-108037352D02*
X148842400Y-107514848D01*
%TO.C,R25*%
X160195000Y-85190064D02*
X160195000Y-84735936D01*
X161665000Y-85190064D02*
X161665000Y-84735936D01*
%TO.C,J5*%
X132158600Y-102639600D02*
X132158600Y-106249600D01*
X132158600Y-107949600D02*
X132158600Y-112649600D01*
X132158600Y-113949600D02*
X132158600Y-115749600D01*
X132608600Y-102639600D02*
X132158600Y-102639600D01*
X133188600Y-118909600D02*
X132988600Y-118709600D01*
X133188600Y-118909600D02*
X135048600Y-118909600D01*
X135048600Y-118909600D02*
X135258600Y-118709600D01*
X135258600Y-118559600D02*
X135258600Y-118709600D01*
X135258600Y-118559600D02*
X141628600Y-118559600D01*
X142138600Y-118909600D02*
X141628600Y-118559600D01*
X144208600Y-102639600D02*
X146128600Y-102639600D01*
X144448600Y-118909600D02*
X142138600Y-118909600D01*
X144448600Y-118909600D02*
X144648600Y-118709600D01*
X144648600Y-118709600D02*
X144908600Y-118709600D01*
X146128600Y-102639600D02*
X146128600Y-116649600D01*
D12*
%TO.C,F1*%
X160223199Y-114503199D02*
G75*
G03*
X158935809Y-115785030I-4013199J2743199D01*
G01*
X158951149Y-115770967D02*
G75*
G03*
X160223199Y-114503201I662451J607367D01*
G01*
D11*
%TO.C,R21*%
X143991000Y-98832936D02*
X143991000Y-99287064D01*
X142521000Y-98832936D02*
X142521000Y-99287064D01*
%TO.C,R14*%
X125830000Y-113326936D02*
X125830000Y-113781064D01*
X124360000Y-113326936D02*
X124360000Y-113781064D01*
%TO.C,J4*%
X146718000Y-90299000D02*
X147828000Y-90299000D01*
X146718000Y-91059000D02*
X146718000Y-90299000D01*
X146718000Y-91819000D02*
X146718000Y-95564000D01*
X146718000Y-91819000D02*
X147264529Y-91819000D01*
X146718000Y-95564000D02*
X147520470Y-95564000D01*
X148135530Y-95564000D02*
X148938000Y-95564000D01*
X148391471Y-91819000D02*
X148938000Y-91819000D01*
X148938000Y-91819000D02*
X148938000Y-95564000D01*
D12*
%TO.C,D1*%
X151130000Y-90170000D02*
X159258000Y-90170000D01*
X159258000Y-90170000D02*
X159258000Y-95758000D01*
X159258000Y-95758000D02*
X151130000Y-95758000D01*
X151130000Y-95758000D02*
X151130000Y-90170000D01*
D11*
%TO.C,R13*%
X134339000Y-98816936D02*
X134339000Y-99271064D01*
X132869000Y-98816936D02*
X132869000Y-99271064D01*
%TO.C,R26*%
X160174000Y-80491064D02*
X160174000Y-80036936D01*
X161644000Y-80491064D02*
X161644000Y-80036936D01*
%TO.C,R12*%
X125830000Y-108357936D02*
X125830000Y-108812064D01*
X124360000Y-108357936D02*
X124360000Y-108812064D01*
%TO.C,C9*%
X131418000Y-85188248D02*
X131418000Y-85710752D01*
X129948000Y-85188248D02*
X129948000Y-85710752D01*
%TO.C,J1*%
X162710000Y-100611000D02*
X170430000Y-100611000D01*
X162710000Y-100611000D02*
X162710000Y-93880000D01*
X168870000Y-100611000D02*
X168870000Y-93880000D01*
X169970000Y-100611000D02*
X169970000Y-93880000D01*
X170430000Y-100611000D02*
X170430000Y-93880000D01*
X166811000Y-96605000D02*
X166939000Y-96734000D01*
X167051000Y-96435000D02*
X167144000Y-96529000D01*
X164595000Y-94390000D02*
X164689000Y-94484000D01*
X164801000Y-94185000D02*
X164929000Y-94314000D01*
X162710000Y-93880000D02*
X170430000Y-93880000D01*
X165004000Y-100400000D02*
G75*
G03*
X166759894Y-100385358I866000J1439998D01*
G01*
X164430000Y-98094000D02*
G75*
G03*
X164444642Y-99849894I1439998J-866000D01*
G01*
X167310000Y-99826000D02*
G75*
G03*
X167550098Y-98931326I-1440014J866003D01*
G01*
X167549999Y-98960000D02*
G75*
G03*
X167294720Y-98069736I-1679989J3D01*
G01*
X166760999Y-97535001D02*
G75*
G03*
X164979808Y-97534497I-890999J-1425002D01*
G01*
X167550000Y-95460000D02*
G75*
G03*
X167550000Y-95460000I-1680000J0D01*
G01*
%TO.C,R18*%
X136752000Y-98832936D02*
X136752000Y-99287064D01*
X135282000Y-98832936D02*
X135282000Y-99287064D01*
%TO.C,C2*%
X170553500Y-108806900D02*
X169766000Y-108806900D01*
X170159750Y-109200650D02*
X170159750Y-108413150D01*
X169526000Y-109304963D02*
X169526000Y-108019400D01*
X169526000Y-109304963D02*
X168461563Y-110369400D01*
X169526000Y-104613837D02*
X169526000Y-105899400D01*
X169526000Y-104613837D02*
X168461563Y-103549400D01*
X168461563Y-110369400D02*
X162706000Y-110369400D01*
X168461563Y-103549400D02*
X162706000Y-103549400D01*
X162706000Y-110369400D02*
X162706000Y-108019400D01*
X162706000Y-103549400D02*
X162706000Y-105899400D01*
%TO.C,U4*%
X151080000Y-59002000D02*
X151080000Y-59257000D01*
X151080000Y-59257000D02*
X149265000Y-59257000D01*
X151080000Y-69522000D02*
X151080000Y-69267000D01*
X154940000Y-59002000D02*
X151080000Y-59002000D01*
X154940000Y-59002000D02*
X158800000Y-59002000D01*
X154940000Y-69522000D02*
X151080000Y-69522000D01*
X154940000Y-69522000D02*
X158800000Y-69522000D01*
X158800000Y-59002000D02*
X158800000Y-59257000D01*
X158800000Y-69522000D02*
X158800000Y-69267000D01*
%TO.C,SW2*%
X124156000Y-105247000D02*
X117696000Y-105247000D01*
X124156000Y-105217000D02*
X124156000Y-105247000D01*
X124156000Y-103317000D02*
X124156000Y-100717000D01*
X124156000Y-98787000D02*
X124156000Y-98817000D01*
X124156000Y-98787000D02*
X117696000Y-98787000D01*
X117696000Y-105247000D02*
X117696000Y-105217000D01*
X117696000Y-103317000D02*
X117696000Y-100717000D01*
X117696000Y-98787000D02*
X117696000Y-98817000D01*
%TO.C,C5*%
X164182248Y-101500000D02*
X164704752Y-101500000D01*
X164182248Y-102970000D02*
X164704752Y-102970000D01*
%TO.C,C1*%
X155201252Y-80745000D02*
X154678748Y-80745000D01*
X155201252Y-79275000D02*
X154678748Y-79275000D01*
%TO.C,C12*%
X129259000Y-92597248D02*
X129259000Y-93119752D01*
X127789000Y-92597248D02*
X127789000Y-93119752D01*
%TO.C,Q1*%
X134595000Y-74676000D02*
X134595000Y-73001000D01*
X134595000Y-74676000D02*
X134595000Y-75326000D01*
X131475000Y-74676000D02*
X131475000Y-74026000D01*
X131475000Y-74676000D02*
X131475000Y-75326000D01*
D12*
%TO.C,D3*%
X158115000Y-104013000D02*
X158115000Y-99695000D01*
X158623000Y-104013000D02*
X158115000Y-104013000D01*
X161671000Y-104013000D02*
X161163000Y-104013000D01*
X158115000Y-99695000D02*
X158623000Y-99695000D01*
X161163000Y-99695000D02*
X161671000Y-99695000D01*
X161671000Y-99695000D02*
X161671000Y-104013000D01*
D11*
%TO.C,R2*%
X116993936Y-81053000D02*
X117448064Y-81053000D01*
X116993936Y-82523000D02*
X117448064Y-82523000D01*
%TO.C,J6*%
X162720000Y-93620000D02*
X170440000Y-93620000D01*
X162720000Y-93620000D02*
X162710000Y-65770000D01*
X168870000Y-93620000D02*
X168910000Y-65780000D01*
X169970000Y-93620000D02*
X169960000Y-65760000D01*
X170440000Y-93620000D02*
X170430000Y-65770000D01*
X166811000Y-89595000D02*
X166939000Y-89724000D01*
X167051000Y-89425000D02*
X167144000Y-89519000D01*
X164595000Y-87380000D02*
X164689000Y-87474000D01*
X164801000Y-87175000D02*
X164929000Y-87304000D01*
X166811000Y-86095000D02*
X166939000Y-86224000D01*
X167051000Y-85925000D02*
X167144000Y-86019000D01*
X164595000Y-83880000D02*
X164689000Y-83974000D01*
X164801000Y-83675000D02*
X164929000Y-83804000D01*
X166811000Y-82595000D02*
X166939000Y-82724000D01*
X167051000Y-82425000D02*
X167144000Y-82519000D01*
X164595000Y-80380000D02*
X164689000Y-80474000D01*
X164801000Y-80175000D02*
X164929000Y-80304000D01*
X166811000Y-79095000D02*
X166939000Y-79224000D01*
X167051000Y-78925000D02*
X167144000Y-79019000D01*
X164595000Y-76880000D02*
X164689000Y-76974000D01*
X164801000Y-76675000D02*
X164929000Y-76804000D01*
X166811000Y-75595000D02*
X166939000Y-75724000D01*
X167051000Y-75425000D02*
X167144000Y-75519000D01*
X164595000Y-73380000D02*
X164689000Y-73474000D01*
X164801000Y-73175000D02*
X164929000Y-73304000D01*
X166811000Y-72095000D02*
X166939000Y-72224000D01*
X167051000Y-71925000D02*
X167144000Y-72019000D01*
X164595000Y-69880000D02*
X164689000Y-69974000D01*
X164801000Y-69675000D02*
X164929000Y-69804000D01*
X166811000Y-68595000D02*
X166939000Y-68724000D01*
X167051000Y-68425000D02*
X167144000Y-68519000D01*
X164595000Y-66380000D02*
X164689000Y-66474000D01*
X164801000Y-66175000D02*
X164929000Y-66304000D01*
X162710000Y-65770000D02*
X170430000Y-65770000D01*
X165004000Y-93390000D02*
G75*
G03*
X166759894Y-93375358I866000J1439998D01*
G01*
X164430000Y-91084000D02*
G75*
G03*
X164444642Y-92839894I1439998J-866000D01*
G01*
X167310000Y-92816000D02*
G75*
G03*
X167550098Y-91921326I-1440014J866003D01*
G01*
X167549999Y-91950000D02*
G75*
G03*
X167294720Y-91059736I-1679989J3D01*
G01*
X166760999Y-90525001D02*
G75*
G03*
X164979808Y-90524497I-890999J-1425002D01*
G01*
X167550000Y-88450000D02*
G75*
G03*
X167550000Y-88450000I-1680000J0D01*
G01*
X167550000Y-84950000D02*
G75*
G03*
X167550000Y-84950000I-1680000J0D01*
G01*
X167550000Y-81450000D02*
G75*
G03*
X167550000Y-81450000I-1680000J0D01*
G01*
X167550000Y-77950000D02*
G75*
G03*
X167550000Y-77950000I-1680000J0D01*
G01*
X167550000Y-74450000D02*
G75*
G03*
X167550000Y-74450000I-1680000J0D01*
G01*
X167550000Y-70950000D02*
G75*
G03*
X167550000Y-70950000I-1680000J0D01*
G01*
X167550000Y-67450000D02*
G75*
G03*
X167550000Y-67450000I-1680000J0D01*
G01*
%TO.C,R22*%
X146404000Y-98816936D02*
X146404000Y-99271064D01*
X144934000Y-98816936D02*
X144934000Y-99271064D01*
%TO.C,U7*%
X123317000Y-79339000D02*
X121517000Y-79339000D01*
X123317000Y-79339000D02*
X124117000Y-79339000D01*
X123317000Y-82459000D02*
X122517000Y-82459000D01*
X123317000Y-82459000D02*
X124117000Y-82459000D01*
%TO.C,R4*%
X144499000Y-90704936D02*
X144499000Y-91159064D01*
X143029000Y-90704936D02*
X143029000Y-91159064D01*
%TO.C,C8*%
X148490000Y-84313752D02*
X148490000Y-83791248D01*
X149960000Y-84313752D02*
X149960000Y-83791248D01*
%TO.C,R16*%
X122274000Y-108357936D02*
X122274000Y-108812064D01*
X120804000Y-108357936D02*
X120804000Y-108812064D01*
%TO.C,R24*%
X123089936Y-76227000D02*
X123544064Y-76227000D01*
X123089936Y-77697000D02*
X123544064Y-77697000D01*
%TO.C,C15*%
X117482252Y-85317000D02*
X116959748Y-85317000D01*
X117482252Y-83847000D02*
X116959748Y-83847000D01*
%TO.C,R11*%
X149325000Y-111405936D02*
X149325000Y-111860064D01*
X147855000Y-111405936D02*
X147855000Y-111860064D01*
%TO.C,R23*%
X125883936Y-85752000D02*
X126338064Y-85752000D01*
X125883936Y-87222000D02*
X126338064Y-87222000D01*
%TO.C,C16*%
X133577000Y-92597248D02*
X133577000Y-93119752D01*
X132107000Y-92597248D02*
X132107000Y-93119752D01*
%TO.C,R8*%
X132807936Y-67718000D02*
X133262064Y-67718000D01*
X132807936Y-69188000D02*
X133262064Y-69188000D01*
%TO.C,D8*%
X128580000Y-118700000D02*
X130500000Y-118700000D01*
X130500000Y-118700000D02*
X130500000Y-115840000D01*
X128580000Y-115840000D02*
X128580000Y-118700000D01*
%TO.C,R10*%
X129259000Y-108357936D02*
X129259000Y-108812064D01*
X127789000Y-108357936D02*
X127789000Y-108812064D01*
D12*
%TO.C,K1*%
X136901000Y-88377000D02*
X147061000Y-88377000D01*
X147061000Y-88377000D02*
X147061000Y-68057000D01*
X147061000Y-68057000D02*
X136901000Y-68057000D01*
X136901000Y-68057000D02*
X136901000Y-88377000D01*
D11*
%TO.C,C6*%
X149833000Y-78711248D02*
X149833000Y-79233752D01*
X148363000Y-78711248D02*
X148363000Y-79233752D01*
%TO.C,C7*%
X156628300Y-102533100D02*
X155840800Y-102533100D01*
X156234550Y-102926850D02*
X156234550Y-102139350D01*
X155600800Y-103031163D02*
X155600800Y-101745600D01*
X155600800Y-103031163D02*
X154536363Y-104095600D01*
X155600800Y-98340037D02*
X155600800Y-99625600D01*
X155600800Y-98340037D02*
X154536363Y-97275600D01*
X154536363Y-104095600D02*
X148780800Y-104095600D01*
X154536363Y-97275600D02*
X148780800Y-97275600D01*
X148780800Y-104095600D02*
X148780800Y-101745600D01*
X148780800Y-97275600D02*
X148780800Y-99625600D01*
%TO.C,D7*%
X147630000Y-118700000D02*
X149550000Y-118700000D01*
X149550000Y-118700000D02*
X149550000Y-115840000D01*
X147630000Y-115840000D02*
X147630000Y-118700000D01*
%TO.C,R7*%
X117120936Y-71147000D02*
X117575064Y-71147000D01*
X117120936Y-72617000D02*
X117575064Y-72617000D01*
D13*
%TO.C,U5*%
X135182000Y-90494000D02*
X140807000Y-90494000D01*
X136307000Y-96044000D02*
X140807000Y-96044000D01*
D11*
%TO.C,U2*%
X121961000Y-66888000D02*
X121961000Y-66413000D01*
X122436000Y-63668000D02*
X121961000Y-63668000D01*
X122436000Y-66888000D02*
X121961000Y-66888000D01*
X124706000Y-63668000D02*
X125181000Y-63668000D01*
X124706000Y-66888000D02*
X125181000Y-66888000D01*
X125181000Y-63668000D02*
X125181000Y-64143000D01*
X125181000Y-66888000D02*
X125181000Y-66413000D01*
%TO.C,R17*%
X118845000Y-108357936D02*
X118845000Y-108812064D01*
X117375000Y-108357936D02*
X117375000Y-108812064D01*
%TO.C,J2*%
X136531000Y-66600000D02*
X136531000Y-58880000D01*
X136531000Y-66600000D02*
X129800000Y-66600000D01*
X136531000Y-60440000D02*
X129800000Y-60440000D01*
X136531000Y-59340000D02*
X129800000Y-59340000D01*
X136531000Y-58880000D02*
X129800000Y-58880000D01*
X132525000Y-62499000D02*
X132654000Y-62371000D01*
X132355000Y-62259000D02*
X132449000Y-62166000D01*
X130310000Y-64715000D02*
X130404000Y-64621000D01*
X130105000Y-64509000D02*
X130234000Y-64381000D01*
X129800000Y-66600000D02*
X129800000Y-58880000D01*
X136320000Y-64306000D02*
G75*
G03*
X136305358Y-62550106I-1439998J866000D01*
G01*
X134014000Y-64880000D02*
G75*
G03*
X135769894Y-64865358I866000J1439998D01*
G01*
X135746000Y-62000000D02*
G75*
G03*
X134851326Y-61759902I-866003J-1440014D01*
G01*
X134880000Y-61760001D02*
G75*
G03*
X133989736Y-62015280I-3J-1679989D01*
G01*
X133455001Y-62549001D02*
G75*
G03*
X133454497Y-64330192I1425002J-890999D01*
G01*
X133060000Y-63440000D02*
G75*
G03*
X133060000Y-63440000I-1680000J0D01*
G01*
%TO.C,R9*%
X133278064Y-71474000D02*
X132823936Y-71474000D01*
X133278064Y-70004000D02*
X132823936Y-70004000D01*
%TO.C,R19*%
X139165000Y-98832936D02*
X139165000Y-99287064D01*
X137695000Y-98832936D02*
X137695000Y-99287064D01*
%TO.C,C19*%
X122054252Y-87222000D02*
X121531748Y-87222000D01*
X122054252Y-85752000D02*
X121531748Y-85752000D01*
%TO.C,J3*%
X147130000Y-66600000D02*
X147130000Y-58880000D01*
X147130000Y-66600000D02*
X136740000Y-66600000D01*
X147130000Y-60440000D02*
X136740000Y-60440000D01*
X147130000Y-59340000D02*
X136740000Y-59340000D01*
X147130000Y-58880000D02*
X136740000Y-58880000D01*
X143075000Y-62499000D02*
X143204000Y-62371000D01*
X142905000Y-62259000D02*
X142999000Y-62166000D01*
X140860000Y-64715000D02*
X140954000Y-64621000D01*
X140655000Y-64509000D02*
X140784000Y-64381000D01*
X139575000Y-62499000D02*
X139704000Y-62371000D01*
X139405000Y-62259000D02*
X139499000Y-62166000D01*
X137360000Y-64715000D02*
X137454000Y-64621000D01*
X137155000Y-64509000D02*
X137284000Y-64381000D01*
X136740000Y-66600000D02*
X136740000Y-58880000D01*
X146870000Y-64306000D02*
G75*
G03*
X146855358Y-62550106I-1439998J866000D01*
G01*
X144564000Y-64880000D02*
G75*
G03*
X146319894Y-64865358I866000J1439998D01*
G01*
X146296000Y-62000000D02*
G75*
G03*
X145401326Y-61759902I-866003J-1440014D01*
G01*
X145430000Y-61760001D02*
G75*
G03*
X144539736Y-62015280I-3J-1679989D01*
G01*
X144005001Y-62549001D02*
G75*
G03*
X144004497Y-64330192I1425002J-890999D01*
G01*
X143610000Y-63440000D02*
G75*
G03*
X143610000Y-63440000I-1680000J0D01*
G01*
X140110000Y-63440000D02*
G75*
G03*
X140110000Y-63440000I-1680000J0D01*
G01*
%TO.C,C13*%
X133577000Y-85188248D02*
X133577000Y-85710752D01*
X132107000Y-85188248D02*
X132107000Y-85710752D01*
%TO.C,C4*%
X148363000Y-74175252D02*
X148363000Y-73652748D01*
X149833000Y-74175252D02*
X149833000Y-73652748D01*
%TO.C,R15*%
X122274000Y-113326936D02*
X122274000Y-113781064D01*
X120804000Y-113326936D02*
X120804000Y-113781064D01*
%TO.C,C18*%
X117587752Y-75665000D02*
X117065248Y-75665000D01*
X117587752Y-74195000D02*
X117065248Y-74195000D01*
%TO.C,C3*%
X123693252Y-70331000D02*
X123170748Y-70331000D01*
X123693252Y-68861000D02*
X123170748Y-68861000D01*
%TO.C,C14*%
X155201252Y-58266000D02*
X154678748Y-58266000D01*
X155201252Y-56796000D02*
X154678748Y-56796000D01*
%TO.C,R1*%
X128043000Y-99287064D02*
X128043000Y-98832936D01*
X129513000Y-99287064D02*
X129513000Y-98832936D01*
%TO.C,C17*%
X143029000Y-95024752D02*
X143029000Y-94502248D01*
X144499000Y-95024752D02*
X144499000Y-94502248D01*
%TO.C,SW1*%
X117674000Y-89734000D02*
X124134000Y-89734000D01*
X117674000Y-89764000D02*
X117674000Y-89734000D01*
X117674000Y-91664000D02*
X117674000Y-94264000D01*
X117674000Y-96194000D02*
X117674000Y-96164000D01*
X117674000Y-96194000D02*
X124134000Y-96194000D01*
X124134000Y-89734000D02*
X124134000Y-89764000D01*
X124134000Y-91664000D02*
X124134000Y-94264000D01*
X124134000Y-96194000D02*
X124134000Y-96164000D01*
%TO.C,R6*%
X131926000Y-98832936D02*
X131926000Y-99287064D01*
X130456000Y-98832936D02*
X130456000Y-99287064D01*
%TO.C,R3*%
X117003336Y-78995600D02*
X117457464Y-78995600D01*
X117003336Y-80465600D02*
X117457464Y-80465600D01*
%TO.C,D4*%
X131243000Y-113909400D02*
X131243000Y-112709400D01*
X129283000Y-113909400D02*
X131243000Y-113909400D01*
X129283000Y-112709400D02*
X131243000Y-112709400D01*
%TO.C,C20*%
X117609252Y-77697000D02*
X117086748Y-77697000D01*
X117609252Y-76227000D02*
X117086748Y-76227000D01*
%TO.C,C11*%
X131418000Y-92597248D02*
X131418000Y-93119752D01*
X129948000Y-92597248D02*
X129948000Y-93119752D01*
%TO.C,C10*%
X117482252Y-87349000D02*
X116959748Y-87349000D01*
X117482252Y-85879000D02*
X116959748Y-85879000D01*
%TO.C,R20*%
X141578000Y-98832936D02*
X141578000Y-99287064D01*
X140108000Y-98832936D02*
X140108000Y-99287064D01*
%TD*%
M02*
