%TF.GenerationSoftware,KiCad,Pcbnew,(7.0.0-0)*%
%TF.CreationDate,2023-06-26T00:58:40+02:00*%
%TF.ProjectId,door_bell,646f6f72-5f62-4656-9c6c-2e6b69636164,rev?*%
%TF.SameCoordinates,Original*%
%TF.FileFunction,Copper,L1,Top*%
%TF.FilePolarity,Positive*%
%FSLAX46Y46*%
G04 Gerber Fmt 4.6, Leading zero omitted, Abs format (unit mm)*
G04 Created by KiCad (PCBNEW (7.0.0-0)) date 2023-06-26 00:58:40*
%MOMM*%
%LPD*%
G01*
G04 APERTURE LIST*
G04 Aperture macros list*
%AMRoundRect*
0 Rectangle with rounded corners*
0 $1 Rounding radius*
0 $2 $3 $4 $5 $6 $7 $8 $9 X,Y pos of 4 corners*
0 Add a 4 corners polygon primitive as box body*
4,1,4,$2,$3,$4,$5,$6,$7,$8,$9,$2,$3,0*
0 Add four circle primitives for the rounded corners*
1,1,$1+$1,$2,$3*
1,1,$1+$1,$4,$5*
1,1,$1+$1,$6,$7*
1,1,$1+$1,$8,$9*
0 Add four rect primitives between the rounded corners*
20,1,$1+$1,$2,$3,$4,$5,0*
20,1,$1+$1,$4,$5,$6,$7,0*
20,1,$1+$1,$6,$7,$8,$9,0*
20,1,$1+$1,$8,$9,$2,$3,0*%
G04 Aperture macros list end*
%TA.AperFunction,ComponentPad*%
%ADD10C,1.905000*%
%TD*%
%TA.AperFunction,SMDPad,CuDef*%
%ADD11RoundRect,0.250000X0.450000X-0.350000X0.450000X0.350000X-0.450000X0.350000X-0.450000X-0.350000X0*%
%TD*%
%TA.AperFunction,SMDPad,CuDef*%
%ADD12R,1.300000X1.900000*%
%TD*%
%TA.AperFunction,SMDPad,CuDef*%
%ADD13R,1.000000X1.200000*%
%TD*%
%TA.AperFunction,SMDPad,CuDef*%
%ADD14R,1.000000X2.800000*%
%TD*%
%TA.AperFunction,SMDPad,CuDef*%
%ADD15R,1.000000X0.800000*%
%TD*%
%TA.AperFunction,SMDPad,CuDef*%
%ADD16R,0.700000X1.200000*%
%TD*%
%TA.AperFunction,ComponentPad*%
%ADD17C,1.500000*%
%TD*%
%TA.AperFunction,SMDPad,CuDef*%
%ADD18RoundRect,0.250000X-0.450000X0.350000X-0.450000X-0.350000X0.450000X-0.350000X0.450000X0.350000X0*%
%TD*%
%TA.AperFunction,SMDPad,CuDef*%
%ADD19R,1.700000X1.200000*%
%TD*%
%TA.AperFunction,SMDPad,CuDef*%
%ADD20RoundRect,0.250000X-0.475000X0.337500X-0.475000X-0.337500X0.475000X-0.337500X0.475000X0.337500X0*%
%TD*%
%TA.AperFunction,ComponentPad*%
%ADD21R,2.400000X2.400000*%
%TD*%
%TA.AperFunction,ComponentPad*%
%ADD22C,2.400000*%
%TD*%
%TA.AperFunction,SMDPad,CuDef*%
%ADD23RoundRect,0.250000X1.500000X0.550000X-1.500000X0.550000X-1.500000X-0.550000X1.500000X-0.550000X0*%
%TD*%
%TA.AperFunction,SMDPad,CuDef*%
%ADD24RoundRect,0.150000X-0.875000X-0.150000X0.875000X-0.150000X0.875000X0.150000X-0.875000X0.150000X0*%
%TD*%
%TA.AperFunction,SMDPad,CuDef*%
%ADD25R,2.100000X1.400000*%
%TD*%
%TA.AperFunction,SMDPad,CuDef*%
%ADD26RoundRect,0.250000X-0.337500X-0.475000X0.337500X-0.475000X0.337500X0.475000X-0.337500X0.475000X0*%
%TD*%
%TA.AperFunction,SMDPad,CuDef*%
%ADD27RoundRect,0.250000X0.337500X0.475000X-0.337500X0.475000X-0.337500X-0.475000X0.337500X-0.475000X0*%
%TD*%
%TA.AperFunction,SMDPad,CuDef*%
%ADD28RoundRect,0.150000X-0.150000X0.587500X-0.150000X-0.587500X0.150000X-0.587500X0.150000X0.587500X0*%
%TD*%
%TA.AperFunction,SMDPad,CuDef*%
%ADD29R,2.300000X2.300000*%
%TD*%
%TA.AperFunction,SMDPad,CuDef*%
%ADD30RoundRect,0.250000X-0.350000X-0.450000X0.350000X-0.450000X0.350000X0.450000X-0.350000X0.450000X0*%
%TD*%
%TA.AperFunction,SMDPad,CuDef*%
%ADD31RoundRect,0.150000X-0.512500X-0.150000X0.512500X-0.150000X0.512500X0.150000X-0.512500X0.150000X0*%
%TD*%
%TA.AperFunction,SMDPad,CuDef*%
%ADD32RoundRect,0.250000X0.475000X-0.337500X0.475000X0.337500X-0.475000X0.337500X-0.475000X-0.337500X0*%
%TD*%
%TA.AperFunction,SMDPad,CuDef*%
%ADD33R,2.000000X1.500000*%
%TD*%
%TA.AperFunction,SMDPad,CuDef*%
%ADD34R,2.000000X3.800000*%
%TD*%
%TA.AperFunction,SMDPad,CuDef*%
%ADD35RoundRect,0.250000X0.450000X-0.325000X0.450000X0.325000X-0.450000X0.325000X-0.450000X-0.325000X0*%
%TD*%
%TA.AperFunction,ComponentPad*%
%ADD36R,1.000000X1.000000*%
%TD*%
%TA.AperFunction,ComponentPad*%
%ADD37O,1.000000X1.000000*%
%TD*%
%TA.AperFunction,SMDPad,CuDef*%
%ADD38R,1.050000X0.450000*%
%TD*%
%TA.AperFunction,HeatsinkPad*%
%ADD39R,1.230000X1.230000*%
%TD*%
%TA.AperFunction,SMDPad,CuDef*%
%ADD40RoundRect,0.062500X-0.350000X-0.062500X0.350000X-0.062500X0.350000X0.062500X-0.350000X0.062500X0*%
%TD*%
%TA.AperFunction,SMDPad,CuDef*%
%ADD41RoundRect,0.062500X-0.062500X-0.350000X0.062500X-0.350000X0.062500X0.350000X-0.062500X0.350000X0*%
%TD*%
%TA.AperFunction,SMDPad,CuDef*%
%ADD42RoundRect,0.250000X0.350000X0.450000X-0.350000X0.450000X-0.350000X-0.450000X0.350000X-0.450000X0*%
%TD*%
%TA.AperFunction,SMDPad,CuDef*%
%ADD43RoundRect,0.150000X0.150000X0.200000X-0.150000X0.200000X-0.150000X-0.200000X0.150000X-0.200000X0*%
%TD*%
%TA.AperFunction,ViaPad*%
%ADD44C,0.500000*%
%TD*%
%TA.AperFunction,Conductor*%
%ADD45C,0.150000*%
%TD*%
%TA.AperFunction,Conductor*%
%ADD46C,0.300000*%
%TD*%
G04 APERTURE END LIST*
D10*
%TO.P,K1,1*%
%TO.N,Net-(D2-A)*%
X145791000Y-87107000D03*
%TO.P,K1,4*%
%TO.N,unconnected-(K1-Pad4)*%
X145791000Y-79487000D03*
%TO.P,K1,6*%
%TO.N,unconnected-(K1-Pad6)*%
X145791000Y-74407000D03*
%TO.P,K1,8*%
%TO.N,unconnected-(K1-Pad8)*%
X145791000Y-69327000D03*
%TO.P,K1,9*%
%TO.N,Net-(J3-Pin_3)*%
X138171000Y-69327000D03*
%TO.P,K1,11*%
%TO.N,Net-(J3-Pin_2)*%
X138171000Y-74407000D03*
%TO.P,K1,13*%
%TO.N,Net-(J3-Pin_1)*%
X138171000Y-79487000D03*
%TO.P,K1,16*%
%TO.N,+5V*%
X138171000Y-87107000D03*
%TD*%
D11*
%TO.P,R25,1*%
%TO.N,/~{S1_INPUT}*%
X160930000Y-85963000D03*
%TO.P,R25,2*%
%TO.N,+3V3*%
X160930000Y-83963000D03*
%TD*%
D12*
%TO.P,J5,11,SHIELD*%
%TO.N,GND*%
X145808599Y-117899599D03*
D13*
X143458599Y-102799599D03*
D14*
X132308599Y-117449599D03*
D13*
X132308599Y-107099599D03*
D15*
%TO.P,J5,10,DET_A*%
%TO.N,Net-(D4-A2)*%
X132308599Y-113299599D03*
D16*
%TO.P,J5,9,DET_B*%
%TO.N,GND*%
X133258599Y-102799599D03*
%TO.P,J5,8,DAT1*%
%TO.N,Net-(D5-A2)*%
X134208599Y-102799599D03*
%TO.P,J5,7,DAT0*%
%TO.N,/SPIMISO*%
X135308599Y-102799599D03*
%TO.P,J5,6,VSS*%
%TO.N,GND*%
X136408599Y-102799599D03*
%TO.P,J5,5,CLK*%
%TO.N,/SPICLK*%
X137508599Y-102799599D03*
%TO.P,J5,4,VDD*%
%TO.N,+3V3*%
X138608599Y-102799599D03*
%TO.P,J5,3,CMD*%
%TO.N,/SPIMOSI*%
X139708599Y-102799599D03*
%TO.P,J5,2,DAT3/CD*%
%TO.N,/SPICS*%
X140808599Y-102799599D03*
%TO.P,J5,1,DAT2*%
%TO.N,Net-(D12-A2)*%
X141908599Y-102799599D03*
%TD*%
D17*
%TO.P,F1,1*%
%TO.N,Net-(D1-Pad4)*%
X153670000Y-111760000D03*
%TO.P,F1,2*%
%TO.N,Net-(J1-Pin_2)*%
X158750000Y-111760000D03*
%TD*%
D18*
%TO.P,R21,1*%
%TO.N,+3V3*%
X143256000Y-98060000D03*
%TO.P,R21,2*%
%TO.N,/SPICS*%
X143256000Y-100060000D03*
%TD*%
%TO.P,R14,1*%
%TO.N,Net-(U6-IO22)*%
X125095000Y-112554000D03*
%TO.P,R14,2*%
%TO.N,/S1_RED*%
X125095000Y-114554000D03*
%TD*%
D19*
%TO.P,D1,1,+*%
%TO.N,+VDC*%
X152399999Y-91693999D03*
%TO.P,D1,2*%
%TO.N,Net-(J1-Pin_1)*%
X157987999Y-91693999D03*
%TO.P,D1,3,-*%
%TO.N,GND*%
X152399999Y-94233999D03*
%TO.P,D1,4*%
%TO.N,Net-(D1-Pad4)*%
X157987999Y-94233999D03*
%TD*%
D18*
%TO.P,R13,1*%
%TO.N,+3V3*%
X133604000Y-98044000D03*
%TO.P,R13,2*%
%TO.N,Net-(D5-A2)*%
X133604000Y-100044000D03*
%TD*%
D11*
%TO.P,R26,1*%
%TO.N,/~{S2_INPUT}*%
X160909000Y-81264000D03*
%TO.P,R26,2*%
%TO.N,+3V3*%
X160909000Y-79264000D03*
%TD*%
D18*
%TO.P,R12,1*%
%TO.N,Net-(U6-IO25)*%
X125095000Y-107585000D03*
%TO.P,R12,2*%
%TO.N,Net-(D8-A)*%
X125095000Y-109585000D03*
%TD*%
D20*
%TO.P,C9,1*%
%TO.N,+3V3*%
X130683000Y-84412000D03*
%TO.P,C9,2*%
%TO.N,Net-(U5-VS+)*%
X130683000Y-86487000D03*
%TD*%
D21*
%TO.P,J1,1,Pin_1*%
%TO.N,Net-(J1-Pin_1)*%
X165869999Y-98959999D03*
D22*
%TO.P,J1,2,Pin_2*%
%TO.N,Net-(J1-Pin_2)*%
X165870000Y-95460000D03*
%TD*%
D18*
%TO.P,R18,1*%
%TO.N,+3V3*%
X136017000Y-98060000D03*
%TO.P,R18,2*%
%TO.N,/SPIMISO*%
X136017000Y-100060000D03*
%TD*%
D23*
%TO.P,C2,1*%
%TO.N,+VDC*%
X168916000Y-106959400D03*
%TO.P,C2,2*%
%TO.N,GND*%
X163316000Y-106959400D03*
%TD*%
D24*
%TO.P,U4,1,32kHz*%
%TO.N,unconnected-(U4-32kHz-Pad1)*%
X150290000Y-59817000D03*
%TO.P,U4,2,V_{CC}*%
%TO.N,+3V3*%
X150290000Y-61087000D03*
%TO.P,U4,3,~{INT}/SQW*%
%TO.N,unconnected-(U4-~{INT}{slash}SQW-Pad3)*%
X150290000Y-62357000D03*
%TO.P,U4,4,~{RST}*%
%TO.N,Net-(U4-~{RST})*%
X150290000Y-63627000D03*
%TO.P,U4,5,NC*%
%TO.N,GND*%
X150290000Y-64897000D03*
%TO.P,U4,6,NC*%
X150290000Y-66167000D03*
%TO.P,U4,7,NC*%
X150290000Y-67437000D03*
%TO.P,U4,8,NC*%
X150290000Y-68707000D03*
%TO.P,U4,9,NC*%
X159590000Y-68707000D03*
%TO.P,U4,10,NC*%
X159590000Y-67437000D03*
%TO.P,U4,11,NC*%
X159590000Y-66167000D03*
%TO.P,U4,12,NC*%
X159590000Y-64897000D03*
%TO.P,U4,13,GND*%
X159590000Y-63627000D03*
%TO.P,U4,14,V_{BAT}*%
%TO.N,Net-(#FLG03-pwr)*%
X159590000Y-62357000D03*
%TO.P,U4,15,SDA*%
%TO.N,/SDA*%
X159590000Y-61087000D03*
%TO.P,U4,16,SCL*%
%TO.N,/SCL*%
X159590000Y-59817000D03*
%TD*%
D25*
%TO.P,SW2,1,1*%
%TO.N,GND*%
X125475999Y-104266999D03*
X116375999Y-104266999D03*
%TO.P,SW2,2,2*%
%TO.N,Net-(R7-Pad1)*%
X125475999Y-99766999D03*
X116375999Y-99766999D03*
%TD*%
D26*
%TO.P,C5,1*%
%TO.N,+VDC*%
X163406000Y-102235000D03*
%TO.P,C5,2*%
%TO.N,GND*%
X165481000Y-102235000D03*
%TD*%
D27*
%TO.P,C1,1*%
%TO.N,+VDC*%
X155977500Y-80010000D03*
%TO.P,C1,2*%
%TO.N,GND*%
X153902500Y-80010000D03*
%TD*%
D20*
%TO.P,C12,1*%
%TO.N,GND*%
X128524000Y-91821000D03*
%TO.P,C12,2*%
%TO.N,Net-(C12-Pad2)*%
X128524000Y-93896000D03*
%TD*%
D28*
%TO.P,Q1,1,B*%
%TO.N,Net-(Q1-B)*%
X133985000Y-73738500D03*
%TO.P,Q1,2,E*%
%TO.N,GND*%
X132085000Y-73738500D03*
%TO.P,Q1,3,C*%
%TO.N,Net-(D2-A)*%
X133035000Y-75613500D03*
%TD*%
D29*
%TO.P,D3,1,A1*%
%TO.N,GND*%
X159892999Y-104139999D03*
%TO.P,D3,2,A2*%
%TO.N,+VDC*%
X159892999Y-99567999D03*
%TD*%
D30*
%TO.P,R2,1*%
%TO.N,Net-(C12-Pad2)*%
X116221000Y-81788000D03*
%TO.P,R2,2*%
%TO.N,Net-(U6-EN)*%
X118221000Y-81788000D03*
%TD*%
D21*
%TO.P,J6,1,Pin_1*%
%TO.N,+3V3*%
X165869999Y-91949999D03*
D22*
%TO.P,J6,2,Pin_2*%
%TO.N,/~{S1_INPUT}*%
X165870000Y-88450000D03*
%TO.P,J6,3,Pin_3*%
%TO.N,/~{S2_INPUT}*%
X165870000Y-84950000D03*
%TO.P,J6,4,Pin_4*%
%TO.N,/S1_RED*%
X165870000Y-81450000D03*
%TO.P,J6,5,Pin_5*%
%TO.N,/S1_GREEN*%
X165870000Y-77950000D03*
%TO.P,J6,6,Pin_6*%
%TO.N,/S2_RED*%
X165870000Y-74450000D03*
%TO.P,J6,7,Pin_7*%
%TO.N,/S2_GREEN*%
X165870000Y-70950000D03*
%TO.P,J6,8,Pin_8*%
%TO.N,GND*%
X165870000Y-67450000D03*
%TD*%
D18*
%TO.P,R22,1*%
%TO.N,+3V3*%
X145669000Y-98044000D03*
%TO.P,R22,2*%
%TO.N,Net-(D12-A2)*%
X145669000Y-100044000D03*
%TD*%
D31*
%TO.P,U7,1*%
%TO.N,Net-(C19-Pad1)*%
X122179500Y-79949000D03*
%TO.P,U7,2,GND*%
%TO.N,GND*%
X122179500Y-80899000D03*
%TO.P,U7,3*%
%TO.N,Net-(C20-Pad1)*%
X122179500Y-81849000D03*
%TO.P,U7,4*%
%TO.N,Net-(U6-IO36)*%
X124454500Y-81849000D03*
%TO.P,U7,5,VCC*%
%TO.N,+3V3*%
X124454500Y-80899000D03*
%TO.P,U7,6*%
%TO.N,Net-(U6-IO39)*%
X124454500Y-79949000D03*
%TD*%
D18*
%TO.P,R4,1*%
%TO.N,+3V3*%
X143764000Y-89932000D03*
%TO.P,R4,2*%
%TO.N,Net-(U5-T1IN)*%
X143764000Y-91932000D03*
%TD*%
D32*
%TO.P,C8,1*%
%TO.N,+3V3*%
X149225000Y-85090000D03*
%TO.P,C8,2*%
%TO.N,GND*%
X149225000Y-83015000D03*
%TD*%
D18*
%TO.P,R16,1*%
%TO.N,Net-(U6-IO18)*%
X121539000Y-107585000D03*
%TO.P,R16,2*%
%TO.N,/S2_RED*%
X121539000Y-109585000D03*
%TD*%
D30*
%TO.P,R24,1*%
%TO.N,Net-(C20-Pad1)*%
X122317000Y-76962000D03*
%TO.P,R24,2*%
%TO.N,/~{S2_INPUT}*%
X124317000Y-76962000D03*
%TD*%
D27*
%TO.P,C15,1*%
%TO.N,Net-(U6-EN)*%
X118258500Y-84582000D03*
%TO.P,C15,2*%
%TO.N,GND*%
X116183500Y-84582000D03*
%TD*%
D33*
%TO.P,U1,1,GND*%
%TO.N,GND*%
X151789999Y-72629999D03*
%TO.P,U1,2,VO*%
%TO.N,+5V*%
X151789999Y-74929999D03*
D34*
X158089999Y-74929999D03*
D33*
%TO.P,U1,3,VI*%
%TO.N,+VDC*%
X151789999Y-77229999D03*
%TD*%
D18*
%TO.P,R11,1*%
%TO.N,Net-(U6-IO21)*%
X148590000Y-110633000D03*
%TO.P,R11,2*%
%TO.N,Net-(D7-A)*%
X148590000Y-112633000D03*
%TD*%
D30*
%TO.P,R23,1*%
%TO.N,Net-(C19-Pad1)*%
X125111000Y-86487000D03*
%TO.P,R23,2*%
%TO.N,/~{S1_INPUT}*%
X127111000Y-86487000D03*
%TD*%
D20*
%TO.P,C16,1*%
%TO.N,Net-(U5-C2+)*%
X132842000Y-91821000D03*
%TO.P,C16,2*%
%TO.N,Net-(U5-C2-)*%
X132842000Y-93896000D03*
%TD*%
D30*
%TO.P,R8,1*%
%TO.N,Net-(U6-IO12)*%
X132035000Y-68453000D03*
%TO.P,R8,2*%
%TO.N,Net-(Q1-B)*%
X134035000Y-68453000D03*
%TD*%
D35*
%TO.P,D8,1,K*%
%TO.N,GND*%
X129540000Y-117865000D03*
%TO.P,D8,2,A*%
%TO.N,Net-(D8-A)*%
X129540000Y-115815000D03*
%TD*%
D18*
%TO.P,R10,1*%
%TO.N,+3V3*%
X128524000Y-107585000D03*
%TO.P,R10,2*%
%TO.N,Net-(D4-A2)*%
X128524000Y-109585000D03*
%TD*%
D20*
%TO.P,C6,1*%
%TO.N,+5V*%
X149098000Y-77935000D03*
%TO.P,C6,2*%
%TO.N,GND*%
X149098000Y-80010000D03*
%TD*%
D36*
%TO.P,J4,1,Pin_1*%
%TO.N,GND*%
X147827999Y-94868999D03*
D37*
%TO.P,J4,2,Pin_2*%
%TO.N,unconnected-(J4-Pin_2-Pad2)*%
X147827999Y-93598999D03*
%TO.P,J4,3,Pin_3*%
%TO.N,Net-(J4-Pin_3)*%
X147827999Y-92328999D03*
%TO.P,J4,4,Pin_4*%
%TO.N,Net-(J4-Pin_4)*%
X147827999Y-91058999D03*
%TD*%
D23*
%TO.P,C7,1*%
%TO.N,+VDC*%
X155454000Y-101854000D03*
%TO.P,C7,2*%
%TO.N,GND*%
X149854000Y-101854000D03*
%TD*%
D35*
%TO.P,D7,1,K*%
%TO.N,GND*%
X148590000Y-117865000D03*
%TO.P,D7,2,A*%
%TO.N,Net-(D7-A)*%
X148590000Y-115815000D03*
%TD*%
D30*
%TO.P,R7,2*%
%TO.N,/BCLK*%
X118348000Y-71882000D03*
%TO.P,R7,1*%
%TO.N,Net-(R7-Pad1)*%
X116348000Y-71882000D03*
%TD*%
D38*
%TO.P,U5,1,C1+*%
%TO.N,Net-(U5-C1+)*%
X135781999Y-91043999D03*
%TO.P,U5,2,VS+*%
%TO.N,Net-(U5-VS+)*%
X135781999Y-91693999D03*
%TO.P,U5,3,C1-*%
%TO.N,Net-(U5-C1-)*%
X135781999Y-92343999D03*
%TO.P,U5,4,C2+*%
%TO.N,Net-(U5-C2+)*%
X135781999Y-92993999D03*
%TO.P,U5,5,C2-*%
%TO.N,Net-(U5-C2-)*%
X135781999Y-93643999D03*
%TO.P,U5,6,VS-*%
%TO.N,Net-(U5-VS-)*%
X135781999Y-94293999D03*
%TO.P,U5,7,T2OUT*%
%TO.N,unconnected-(U5-T2OUT-Pad7)*%
X135781999Y-94943999D03*
%TO.P,U5,8,R2IN*%
%TO.N,unconnected-(U5-R2IN-Pad8)*%
X135781999Y-95593999D03*
%TO.P,U5,9,R2OUT*%
%TO.N,unconnected-(U5-R2OUT-Pad9)*%
X141331999Y-95593999D03*
%TO.P,U5,10,T2IN*%
%TO.N,unconnected-(U5-T2IN-Pad10)*%
X141331999Y-94943999D03*
%TO.P,U5,11,T1IN*%
%TO.N,Net-(U5-T1IN)*%
X141331999Y-94293999D03*
%TO.P,U5,12,R1OUT*%
%TO.N,Net-(U5-R1OUT)*%
X141331999Y-93643999D03*
%TO.P,U5,13,R1IN*%
%TO.N,Net-(J4-Pin_3)*%
X141331999Y-92993999D03*
%TO.P,U5,14,T1OUT*%
%TO.N,Net-(J4-Pin_4)*%
X141331999Y-92343999D03*
%TO.P,U5,15,GND*%
%TO.N,GND*%
X141331999Y-91693999D03*
%TO.P,U5,16,VCC*%
%TO.N,+3V3*%
X141331999Y-91043999D03*
%TD*%
D39*
%TO.P,U2,*%
%TO.N,*%
X123570999Y-65277999D03*
D40*
%TO.P,U2,1,DIN*%
%TO.N,/DOUT*%
X122133500Y-64528000D03*
%TO.P,U2,2,GAIN_SLOT*%
%TO.N,GND*%
X122133500Y-65028000D03*
%TO.P,U2,3,GND*%
X122133500Y-65528000D03*
%TO.P,U2,4,~{SD_MODE}*%
%TO.N,/~{SD_MODE}*%
X122133500Y-66028000D03*
D41*
%TO.P,U2,5,NC*%
%TO.N,unconnected-(U2-NC-Pad5)*%
X122821000Y-66715500D03*
%TO.P,U2,6,NC*%
%TO.N,unconnected-(U2-NC-Pad6)*%
X123321000Y-66715500D03*
%TO.P,U2,7,VDD*%
%TO.N,+5V*%
X123821000Y-66715500D03*
%TO.P,U2,8,VDD*%
X124321000Y-66715500D03*
D40*
%TO.P,U2,9,OUTP*%
%TO.N,Net-(J2-Pin_1)*%
X125008500Y-66028000D03*
%TO.P,U2,10,OUTN*%
%TO.N,Net-(J2-Pin_2)*%
X125008500Y-65528000D03*
%TO.P,U2,11,GND*%
%TO.N,GND*%
X125008500Y-65028000D03*
%TO.P,U2,12,NC*%
%TO.N,unconnected-(U2-NC-Pad12)*%
X125008500Y-64528000D03*
D41*
%TO.P,U2,13,NC*%
%TO.N,unconnected-(U2-NC-Pad13)*%
X124321000Y-63840500D03*
%TO.P,U2,14,LRCLK*%
%TO.N,/LRCLK*%
X123821000Y-63840500D03*
%TO.P,U2,15,GND*%
%TO.N,GND*%
X123321000Y-63840500D03*
%TO.P,U2,16,BCLK*%
%TO.N,/BCLK*%
X122821000Y-63840500D03*
%TD*%
D18*
%TO.P,R17,1*%
%TO.N,Net-(U6-IO19)*%
X118110000Y-107585000D03*
%TO.P,R17,2*%
%TO.N,/S2_GREEN*%
X118110000Y-109585000D03*
%TD*%
D21*
%TO.P,J2,1,Pin_1*%
%TO.N,Net-(J2-Pin_1)*%
X134879999Y-63439999D03*
D22*
%TO.P,J2,2,Pin_2*%
%TO.N,Net-(J2-Pin_2)*%
X131380000Y-63440000D03*
%TD*%
D42*
%TO.P,R9,1*%
%TO.N,Net-(U6-IO12)*%
X134051000Y-70739000D03*
%TO.P,R9,2*%
%TO.N,GND*%
X132051000Y-70739000D03*
%TD*%
D18*
%TO.P,R19,1*%
%TO.N,+3V3*%
X138430000Y-98060000D03*
%TO.P,R19,2*%
%TO.N,/SPICLK*%
X138430000Y-100060000D03*
%TD*%
D27*
%TO.P,C19,1*%
%TO.N,Net-(C19-Pad1)*%
X122830500Y-86487000D03*
%TO.P,C19,2*%
%TO.N,GND*%
X120755500Y-86487000D03*
%TD*%
D21*
%TO.P,J3,1,Pin_1*%
%TO.N,Net-(J3-Pin_1)*%
X145429999Y-63439999D03*
D22*
%TO.P,J3,2,Pin_2*%
%TO.N,Net-(J3-Pin_2)*%
X141930000Y-63440000D03*
%TO.P,J3,3,Pin_3*%
%TO.N,Net-(J3-Pin_3)*%
X138430000Y-63440000D03*
%TD*%
D20*
%TO.P,C13,1*%
%TO.N,+3V3*%
X132842000Y-84412000D03*
%TO.P,C13,2*%
%TO.N,GND*%
X132842000Y-86487000D03*
%TD*%
D32*
%TO.P,C4,2*%
%TO.N,GND*%
X149098000Y-72876500D03*
%TO.P,C4,1*%
%TO.N,+5V*%
X149098000Y-74951500D03*
%TD*%
D18*
%TO.P,R15,1*%
%TO.N,Net-(U6-IO23)*%
X121539000Y-112554000D03*
%TO.P,R15,2*%
%TO.N,/S1_GREEN*%
X121539000Y-114554000D03*
%TD*%
D27*
%TO.P,C18,1*%
%TO.N,+3V3*%
X118364000Y-74930000D03*
%TO.P,C18,2*%
%TO.N,GND*%
X116289000Y-74930000D03*
%TD*%
%TO.P,C3,1*%
%TO.N,+5V*%
X124469500Y-69596000D03*
%TO.P,C3,2*%
%TO.N,GND*%
X122394500Y-69596000D03*
%TD*%
%TO.P,C14,1*%
%TO.N,GND*%
X155977500Y-57531000D03*
%TO.P,C14,2*%
%TO.N,+3V3*%
X153902500Y-57531000D03*
%TD*%
D11*
%TO.P,R1,1*%
%TO.N,Net-(U4-~{RST})*%
X128778000Y-100060000D03*
%TO.P,R1,2*%
%TO.N,Net-(C12-Pad2)*%
X128778000Y-98060000D03*
%TD*%
D32*
%TO.P,C17,1*%
%TO.N,Net-(U5-VS-)*%
X143764000Y-95801000D03*
%TO.P,C17,2*%
%TO.N,GND*%
X143764000Y-93726000D03*
%TD*%
D25*
%TO.P,SW1,2,2*%
%TO.N,Net-(C12-Pad2)*%
X125453999Y-95213999D03*
X116353999Y-95213999D03*
%TO.P,SW1,1,1*%
%TO.N,GND*%
X125453999Y-90713999D03*
X116353999Y-90713999D03*
%TD*%
D18*
%TO.P,R6,1*%
%TO.N,+3V3*%
X131191000Y-98060000D03*
%TO.P,R6,2*%
%TO.N,/SCL*%
X131191000Y-100060000D03*
%TD*%
D33*
%TO.P,U3,1,GND*%
%TO.N,GND*%
X151789999Y-82803999D03*
%TO.P,U3,2,VO*%
%TO.N,+3V3*%
X151789999Y-85103999D03*
D34*
X158089999Y-85103999D03*
D33*
%TO.P,U3,3,VI*%
%TO.N,+5V*%
X151789999Y-87403999D03*
%TD*%
D30*
%TO.P,R3,1*%
%TO.N,+3V3*%
X116230400Y-79730600D03*
%TO.P,R3,2*%
%TO.N,Net-(U6-EN)*%
X118230400Y-79730600D03*
%TD*%
D43*
%TO.P,D4,1,A1*%
%TO.N,GND*%
X129286000Y-113284000D03*
%TO.P,D4,2,A2*%
%TO.N,Net-(D4-A2)*%
X130686000Y-113284000D03*
%TD*%
D27*
%TO.P,C20,1*%
%TO.N,Net-(C20-Pad1)*%
X118385500Y-76962000D03*
%TO.P,C20,2*%
%TO.N,GND*%
X116310500Y-76962000D03*
%TD*%
D20*
%TO.P,C11,1*%
%TO.N,Net-(U5-C1+)*%
X130683000Y-91821000D03*
%TO.P,C11,2*%
%TO.N,Net-(U5-C1-)*%
X130683000Y-93896000D03*
%TD*%
D27*
%TO.P,C10,1*%
%TO.N,+3V3*%
X118258500Y-86614000D03*
%TO.P,C10,2*%
%TO.N,GND*%
X116183500Y-86614000D03*
%TD*%
D18*
%TO.P,R20,1*%
%TO.N,+3V3*%
X140843000Y-98060000D03*
%TO.P,R20,2*%
%TO.N,/SPIMOSI*%
X140843000Y-100060000D03*
%TD*%
D44*
%TO.N,Net-(#FLG03-pwr)*%
X160756600Y-62357000D03*
%TO.N,/SCL*%
X131191000Y-101041200D03*
%TO.N,+3V3*%
X137160000Y-96266000D03*
%TO.N,Net-(U5-T1IN)*%
X139522200Y-94310200D03*
X137972800Y-94310200D03*
X122250200Y-88620600D03*
%TO.N,Net-(U6-IO39)*%
X119938800Y-81991200D03*
%TO.N,Net-(U6-IO36)*%
X119938800Y-82931000D03*
%TO.N,Net-(U5-R1OUT)*%
X122250200Y-89408000D03*
X130708400Y-89408000D03*
%TO.N,Net-(U5-VS-)*%
X137160000Y-94294000D03*
%TO.N,Net-(U5-R1OUT)*%
X140106400Y-93649800D03*
%TO.N,Net-(U5-VS+)*%
X131800600Y-85394800D03*
X136855200Y-91694000D03*
%TO.N,/SPIMISO*%
X131470400Y-79349600D03*
X134721600Y-82118200D03*
X135153400Y-89204800D03*
%TO.N,+3V3*%
X138733100Y-96088200D03*
%TO.N,/SPICS*%
X130802595Y-103261500D03*
%TO.N,GND*%
X128143000Y-117856000D03*
X133553200Y-117449600D03*
%TO.N,+3V3*%
X127027039Y-97202307D03*
%TO.N,/SPICS*%
X123901200Y-93537700D03*
%TO.N,Net-(U6-IO25)*%
X122834400Y-93537700D03*
%TO.N,Net-(D2-A)*%
X143281400Y-80543400D03*
%TO.N,+3V3*%
X159394400Y-79264000D03*
%TO.N,/~{SD_MODE}*%
X123393200Y-67970400D03*
%TO.N,/DOUT*%
X121376100Y-64236600D03*
%TO.N,/LRCLK*%
X124333000Y-62687200D03*
%TO.N,/SPICLK*%
X137508600Y-100981400D03*
%TO.N,/SPICS*%
X142422500Y-100893500D03*
%TO.N,Net-(D12-A2)*%
X144290800Y-101422200D03*
%TO.N,/SPIMOSI*%
X142062200Y-100050600D03*
%TO.N,/SPICLK*%
X139674600Y-100076000D03*
%TO.N,/SPIMISO*%
X137261600Y-100050600D03*
%TO.N,Net-(D5-A2)*%
X134823200Y-100025200D03*
%TO.N,Net-(U5-VS-)*%
X145313400Y-95351600D03*
%TO.N,GND*%
X145313400Y-93726000D03*
X139877800Y-91694000D03*
%TO.N,Net-(U6-EN)*%
X115189000Y-80772000D03*
%TO.N,/SPIMOSI*%
X127660000Y-79349600D03*
%TO.N,+3V3*%
X140182600Y-96088200D03*
%TO.N,Net-(U6-IO12)*%
X128930400Y-68427600D03*
%TO.N,GND*%
X126161800Y-64490600D03*
%TO.N,/BCLK*%
X129006600Y-87045800D03*
%TO.N,Net-(D4-A2)*%
X122834400Y-92760800D03*
%TO.N,Net-(U6-IO18)*%
X122580400Y-107594400D03*
%TO.N,Net-(U6-IO19)*%
X120624600Y-104622600D03*
%TO.N,Net-(U6-IO22)*%
X122961400Y-113436400D03*
%TO.N,Net-(U6-IO23)*%
X119862600Y-112547400D03*
%TO.N,GND*%
X147777200Y-72872600D03*
%TO.N,Net-(U4-~{RST})*%
X153619200Y-66954400D03*
%TO.N,Net-(U6-IO21)*%
X146888200Y-110642400D03*
%TO.N,Net-(U4-~{RST})*%
X129590800Y-92964000D03*
%TO.N,/SCL*%
X160756600Y-59817000D03*
%TO.N,/SDA*%
X156946600Y-62128400D03*
%TO.N,/S2_GREEN*%
X122809000Y-111455200D03*
%TO.N,/S2_RED*%
X121539000Y-110921800D03*
%TO.N,+3V3*%
X158090000Y-82550000D03*
%TO.N,/S1_GREEN*%
X122961400Y-114554000D03*
%TO.N,+VDC*%
X159893000Y-101015800D03*
%TO.N,/S1_RED*%
X126644400Y-114554000D03*
%TO.N,+VDC*%
X163398200Y-101015800D03*
%TO.N,GND*%
X165481000Y-103149400D03*
%TO.N,+VDC*%
X167741600Y-104140000D03*
%TO.N,Net-(D1-Pad4)*%
X157988000Y-95707200D03*
%TO.N,Net-(J1-Pin_1)*%
X159639000Y-91694000D03*
%TO.N,+5V*%
X125399800Y-69596000D03*
X125399800Y-66929000D03*
%TO.N,+3V3*%
X138607800Y-101422200D03*
X129844800Y-107594400D03*
%TO.N,+5V*%
X153466800Y-87401400D03*
%TO.N,+3V3*%
X153898600Y-59029600D03*
X152120600Y-61087000D03*
%TO.N,+VDC*%
X155981400Y-99568000D03*
X157962600Y-99568000D03*
X153771600Y-91694000D03*
X155981400Y-78689200D03*
X153568400Y-77241400D03*
%TO.N,+5V*%
X156413200Y-74904600D03*
X153568400Y-74904600D03*
X149098000Y-76454000D03*
%TO.N,GND*%
X120751600Y-87960200D03*
X151790400Y-67437000D03*
X149854000Y-100787200D03*
X118160800Y-90728800D03*
X120751600Y-69596000D03*
X151790400Y-71247000D03*
X131318000Y-106807000D03*
X150393400Y-80010000D03*
X114833400Y-74930000D03*
X123317000Y-62661800D03*
X158064200Y-64897000D03*
X114833400Y-86614000D03*
X130200400Y-79349600D03*
X158064200Y-63627000D03*
X130200400Y-70739000D03*
X151790400Y-66167000D03*
X158064200Y-67437000D03*
X150393400Y-82804000D03*
X132842000Y-87757000D03*
X150876000Y-96901000D03*
X117983000Y-103886000D03*
X155473400Y-104140000D03*
X125450600Y-91998800D03*
X130200400Y-73736200D03*
X147828000Y-96901000D03*
X146304000Y-96901000D03*
X144780000Y-96901000D03*
X152400000Y-96901000D03*
X152984200Y-80010000D03*
X133273800Y-105170900D03*
X158064200Y-68707000D03*
X145821400Y-116230400D03*
X119380000Y-106502200D03*
X120751600Y-80899000D03*
X143484600Y-105181400D03*
X151790400Y-81483200D03*
X152400000Y-95250000D03*
X136398000Y-105181400D03*
X149885400Y-117373400D03*
X120751600Y-65024000D03*
X129286000Y-112649000D03*
X112420400Y-94183200D03*
X112420400Y-79781400D03*
X150876000Y-94234000D03*
X151790400Y-64897000D03*
X160731200Y-106959400D03*
X123875800Y-103886000D03*
X149352000Y-96901000D03*
X128524000Y-90500200D03*
X158064200Y-58089800D03*
X153873200Y-72136000D03*
X158064200Y-66167000D03*
%TO.N,+3V3*%
X145186400Y-89941400D03*
X134366000Y-84404200D03*
X113690400Y-79730600D03*
X119811800Y-74930000D03*
X153466800Y-85115400D03*
X141325600Y-89941400D03*
X125933200Y-80899000D03*
X115189000Y-79730600D03*
X118262400Y-87960200D03*
%TD*%
D45*
%TO.N,Net-(R7-Pad1)*%
X116376000Y-99767000D02*
X114245000Y-99767000D01*
X114245000Y-99767000D02*
X113792000Y-99314000D01*
X113792000Y-99314000D02*
X113792000Y-82354336D01*
X113792000Y-82354336D02*
X114452400Y-81693936D01*
X114452400Y-81693936D02*
X114452400Y-79044800D01*
X114452400Y-79044800D02*
X114108400Y-78700800D01*
X114108400Y-78700800D02*
X114108400Y-72454600D01*
X114108400Y-72454600D02*
X114681000Y-71882000D01*
X114681000Y-71882000D02*
X116348000Y-71882000D01*
%TO.N,/~{S2_INPUT}*%
X124317000Y-76962000D02*
X128117600Y-76962000D01*
X128117600Y-76962000D02*
X129311400Y-78155800D01*
X150901400Y-80797400D02*
X152628600Y-80797400D01*
X129311400Y-78155800D02*
X129311400Y-81407000D01*
X146862800Y-83083400D02*
X148234400Y-81711800D01*
X148234400Y-81711800D02*
X149987000Y-81711800D01*
X152628600Y-80797400D02*
X153416000Y-81584800D01*
X129311400Y-81407000D02*
X130987800Y-83083400D01*
X130987800Y-83083400D02*
X146862800Y-83083400D01*
X149987000Y-81711800D02*
X150901400Y-80797400D01*
X153416000Y-81584800D02*
X156616400Y-81584800D01*
X156616400Y-81584800D02*
X156937200Y-81264000D01*
X156937200Y-81264000D02*
X160909000Y-81264000D01*
%TO.N,/~{S1_INPUT}*%
X128228600Y-87604600D02*
X131664295Y-87604600D01*
X135780864Y-88265000D02*
X136669864Y-89154000D01*
X132541695Y-88482000D02*
X133142305Y-88482000D01*
X127111000Y-86487000D02*
X128228600Y-87604600D01*
X131664295Y-87604600D02*
X132541695Y-88482000D01*
X133359305Y-88265000D02*
X135780864Y-88265000D01*
X133142305Y-88482000D02*
X133359305Y-88265000D01*
X136669864Y-89154000D02*
X139885336Y-89154000D01*
X144802664Y-88600000D02*
X145005864Y-88803200D01*
X140439336Y-88600000D02*
X144802664Y-88600000D01*
X139885336Y-89154000D02*
X140439336Y-88600000D01*
X145005864Y-88803200D02*
X148688864Y-88803200D01*
X148688864Y-88803200D02*
X149344464Y-89458800D01*
X149344464Y-89458800D02*
X159943800Y-89458800D01*
X159943800Y-89458800D02*
X160930000Y-88472600D01*
X160930000Y-88472600D02*
X160930000Y-85963000D01*
X165870000Y-88450000D02*
X163383000Y-85963000D01*
X163383000Y-85963000D02*
X160930000Y-85963000D01*
%TO.N,Net-(J4-Pin_3)*%
X141332000Y-92994000D02*
X139653800Y-92994000D01*
X139653800Y-92994000D02*
X139152800Y-92493000D01*
X139152800Y-92493000D02*
X139152800Y-90310800D01*
X139152800Y-90310800D02*
X140563600Y-88900000D01*
X140563600Y-88900000D02*
X144678400Y-88900000D01*
X144678400Y-88900000D02*
X144881600Y-89103200D01*
X144881600Y-89103200D02*
X148564600Y-89103200D01*
X148564600Y-89103200D02*
X149072600Y-89611200D01*
X149072600Y-89611200D02*
X149072600Y-91922600D01*
X149072600Y-91922600D02*
X148666200Y-92329000D01*
X148666200Y-92329000D02*
X147828000Y-92329000D01*
%TO.N,Net-(D2-A)*%
X143281400Y-80543400D02*
X142189200Y-81635600D01*
X142189200Y-81635600D02*
X137109200Y-81635600D01*
X135788400Y-77317600D02*
X134084300Y-75613500D01*
X137109200Y-81635600D02*
X135788400Y-80314800D01*
X135788400Y-80314800D02*
X135788400Y-77317600D01*
X134084300Y-75613500D02*
X133035000Y-75613500D01*
%TO.N,Net-(C12-Pad2)*%
X116354000Y-95214000D02*
X116354000Y-93729400D01*
X116354000Y-93729400D02*
X118211600Y-91871800D01*
X118211600Y-91871800D02*
X123977400Y-91871800D01*
X123977400Y-91871800D02*
X125454000Y-93348400D01*
X125454000Y-93348400D02*
X125454000Y-95214000D01*
%TO.N,Net-(D4-A2)*%
X128524000Y-109585000D02*
X128533400Y-109585000D01*
X128533400Y-109585000D02*
X130686000Y-111737600D01*
X130686000Y-111737600D02*
X130686000Y-113284000D01*
X122834400Y-92760800D02*
X123342400Y-93268800D01*
X126326536Y-97845600D02*
X127335000Y-98854064D01*
X123342400Y-95910400D02*
X125277600Y-97845600D01*
X123342400Y-93268800D02*
X123342400Y-95910400D01*
X125277600Y-97845600D02*
X126326536Y-97845600D01*
X127335000Y-108396000D02*
X128524000Y-109585000D01*
X127335000Y-98854064D02*
X127335000Y-108396000D01*
%TO.N,/SPICS*%
X123901200Y-95986600D02*
X125460200Y-97545600D01*
X126450800Y-97545600D02*
X127635000Y-98729800D01*
X125460200Y-97545600D02*
X126450800Y-97545600D01*
X123901200Y-93537700D02*
X123901200Y-95986600D01*
X127635000Y-98729800D02*
X127635000Y-102895400D01*
X127635000Y-102895400D02*
X128001100Y-103261500D01*
X128001100Y-103261500D02*
X130802595Y-103261500D01*
%TO.N,Net-(U6-IO25)*%
X122834400Y-93537700D02*
X122834400Y-95826664D01*
X122834400Y-95826664D02*
X125153336Y-98145600D01*
X125153336Y-98145600D02*
X126202272Y-98145600D01*
X126202272Y-98145600D02*
X127035000Y-98978328D01*
X127035000Y-98978328D02*
X127035000Y-105654400D01*
X127035000Y-105654400D02*
X125104400Y-107585000D01*
X125104400Y-107585000D02*
X125095000Y-107585000D01*
%TO.N,Net-(C20-Pad1)*%
X122179500Y-81849000D02*
X122169300Y-81838800D01*
X122169300Y-81838800D02*
X120777000Y-81838800D01*
X120777000Y-81838800D02*
X119507000Y-80568800D01*
X119507000Y-80568800D02*
X119507000Y-79248000D01*
X119507000Y-79248000D02*
X118385500Y-78126500D01*
X118385500Y-78126500D02*
X118385500Y-76962000D01*
D46*
%TO.N,GND*%
X165481000Y-102235000D02*
X165481000Y-103149400D01*
D45*
%TO.N,/SCL*%
X159590000Y-59817000D02*
X160756600Y-59817000D01*
%TO.N,Net-(#FLG03-pwr)*%
X160756600Y-62357000D02*
X159590000Y-62357000D01*
%TO.N,/BCLK*%
X118348000Y-71882000D02*
X121716800Y-71882000D01*
X121716800Y-71882000D02*
X123317000Y-73482200D01*
X123317000Y-73482200D02*
X123317000Y-77978000D01*
X123596400Y-78257400D02*
X127914400Y-78257400D01*
X123317000Y-77978000D02*
X123596400Y-78257400D01*
X127914400Y-78257400D02*
X128524000Y-78867000D01*
X128524000Y-78867000D02*
X128524000Y-86563200D01*
X128524000Y-86563200D02*
X129006600Y-87045800D01*
%TO.N,/SPIMISO*%
X134721600Y-82118200D02*
X134721600Y-81584800D01*
X134721600Y-81584800D02*
X132486400Y-79349600D01*
X132486400Y-79349600D02*
X131470400Y-79349600D01*
D46*
%TO.N,+3V3*%
X137160000Y-96266000D02*
X137160000Y-96291400D01*
X137160000Y-96291400D02*
X136017000Y-97434400D01*
X136017000Y-97434400D02*
X136017000Y-98060000D01*
D45*
%TO.N,Net-(C19-Pad1)*%
X122830500Y-86487000D02*
X122830500Y-85373300D01*
X122830500Y-85373300D02*
X126796800Y-81407000D01*
X126796800Y-80035400D02*
X125501400Y-78740000D01*
X126796800Y-81407000D02*
X126796800Y-80035400D01*
X125501400Y-78740000D02*
X122809000Y-78740000D01*
X122809000Y-78740000D02*
X122179500Y-79369500D01*
X122179500Y-79369500D02*
X122179500Y-79949000D01*
%TO.N,Net-(C12-Pad2)*%
X125454000Y-95214000D02*
X127206000Y-95214000D01*
X127206000Y-95214000D02*
X128524000Y-93896000D01*
%TO.N,Net-(D8-A)*%
X125095000Y-109585000D02*
X125104400Y-109585000D01*
X125104400Y-109585000D02*
X127025400Y-111506000D01*
X127025400Y-111506000D02*
X127025400Y-113300400D01*
X127025400Y-113300400D02*
X129540000Y-115815000D01*
D46*
%TO.N,GND*%
X123875800Y-103886000D02*
X124256800Y-104267000D01*
X124256800Y-104267000D02*
X125476000Y-104267000D01*
D45*
%TO.N,/SCL*%
X131191000Y-100060000D02*
X131191000Y-101041200D01*
%TO.N,Net-(D4-A2)*%
X130686000Y-113284000D02*
X130701600Y-113299600D01*
X130701600Y-113299600D02*
X132308600Y-113299600D01*
%TO.N,Net-(U5-T1IN)*%
X139522200Y-94310200D02*
X141315800Y-94310200D01*
X141315800Y-94310200D02*
X141332000Y-94294000D01*
D46*
%TO.N,GND*%
X143484600Y-105181400D02*
X143484600Y-102825600D01*
X143484600Y-102825600D02*
X143458600Y-102799600D01*
X136398000Y-105181400D02*
X136398000Y-102765000D01*
X133273800Y-105170900D02*
X133248000Y-105145100D01*
X133248000Y-105145100D02*
X133248000Y-102765000D01*
D45*
%TO.N,Net-(U6-IO19)*%
X120624600Y-104622600D02*
X120624600Y-106426000D01*
X120624600Y-106426000D02*
X119465600Y-107585000D01*
X119465600Y-107585000D02*
X118110000Y-107585000D01*
%TO.N,Net-(U5-VS-)*%
X145313400Y-95351600D02*
X144864000Y-95801000D01*
X144864000Y-95801000D02*
X143764000Y-95801000D01*
%TO.N,Net-(U6-IO36)*%
X119938800Y-82931000D02*
X123952000Y-82931000D01*
X123952000Y-82931000D02*
X124454500Y-82428500D01*
X124454500Y-82428500D02*
X124454500Y-81849000D01*
%TO.N,Net-(U6-IO39)*%
X119938800Y-81991200D02*
X120446800Y-82499200D01*
X120446800Y-82499200D02*
X122910600Y-82499200D01*
X122910600Y-82499200D02*
X123367800Y-82042000D01*
X123367800Y-82042000D02*
X123367800Y-80137000D01*
X123555800Y-79949000D02*
X124454500Y-79949000D01*
X123367800Y-80137000D02*
X123555800Y-79949000D01*
%TO.N,/SPIMISO*%
X137261600Y-100050600D02*
X137261600Y-97256600D01*
X137261600Y-97256600D02*
X137905000Y-96613200D01*
X137905000Y-95890995D02*
X138552800Y-95243195D01*
X135872136Y-89204800D02*
X135153400Y-89204800D01*
X137905000Y-96613200D02*
X137905000Y-95890995D01*
X138552800Y-95243195D02*
X138552800Y-91885464D01*
X138552800Y-91885464D02*
X135872136Y-89204800D01*
%TO.N,Net-(U5-R1OUT)*%
X140106400Y-93649800D02*
X140112200Y-93644000D01*
X140112200Y-93644000D02*
X141332000Y-93644000D01*
%TO.N,Net-(U5-T1IN)*%
X122250200Y-88620600D02*
X122656600Y-88214200D01*
X122656600Y-88214200D02*
X131425367Y-88214200D01*
X131425367Y-88214200D02*
X132293167Y-89082000D01*
X132293167Y-89082000D02*
X133390833Y-89082000D01*
X133390833Y-89082000D02*
X133557033Y-88915800D01*
X133557033Y-88915800D02*
X134000800Y-88915800D01*
X134000800Y-88915800D02*
X134823200Y-89738200D01*
X134823200Y-89738200D02*
X135981272Y-89738200D01*
X135981272Y-89738200D02*
X137972800Y-91729728D01*
X137972800Y-91729728D02*
X137972800Y-94310200D01*
%TO.N,/SPIMOSI*%
X127660000Y-79349600D02*
X127660400Y-79350000D01*
X126085600Y-87198200D02*
X126792000Y-87904600D01*
X127660400Y-79350000D02*
X127660400Y-84124800D01*
X127660400Y-84124800D02*
X126085600Y-85699600D01*
X126085600Y-85699600D02*
X126085600Y-87198200D01*
X126792000Y-87904600D02*
X131540031Y-87904600D01*
X131540031Y-87904600D02*
X132417431Y-88782000D01*
X132417431Y-88782000D02*
X133266569Y-88782000D01*
X133266569Y-88782000D02*
X133483569Y-88565000D01*
X133483569Y-88565000D02*
X135656600Y-88565000D01*
X135656600Y-88565000D02*
X138852800Y-91761200D01*
X138852800Y-91761200D02*
X138852800Y-95139400D01*
X138852800Y-95139400D02*
X139457850Y-95744450D01*
X139457850Y-95744450D02*
X139457850Y-96774000D01*
X139457850Y-96774000D02*
X139623800Y-96939950D01*
X139623800Y-96939950D02*
X139623800Y-98840800D01*
X139623800Y-98840800D02*
X140843000Y-100060000D01*
%TO.N,Net-(Q1-B)*%
X134035000Y-68453000D02*
X135026400Y-68453000D01*
X135382000Y-68808600D02*
X135382000Y-73380600D01*
X135382000Y-73380600D02*
X135024100Y-73738500D01*
X135026400Y-68453000D02*
X135382000Y-68808600D01*
X135024100Y-73738500D02*
X133985000Y-73738500D01*
%TO.N,/SPIMISO*%
X136017000Y-100060000D02*
X136017000Y-101219000D01*
X136017000Y-101219000D02*
X135308600Y-101927400D01*
X135308600Y-101927400D02*
X135308600Y-102799600D01*
%TO.N,/SPICS*%
X142422500Y-100893500D02*
X141828900Y-100893500D01*
X141828900Y-100893500D02*
X140808600Y-101913800D01*
X140808600Y-101913800D02*
X140808600Y-102799600D01*
D46*
%TO.N,+3V3*%
X138430000Y-98060000D02*
X138430000Y-97104200D01*
X138430000Y-97104200D02*
X138733100Y-96801100D01*
X138733100Y-96801100D02*
X138733100Y-96088200D01*
D45*
%TO.N,Net-(U5-C1-)*%
X130683000Y-93896000D02*
X130690800Y-93896000D01*
X130690800Y-93896000D02*
X131749800Y-92837000D01*
X133451600Y-90779600D02*
X135016000Y-92344000D01*
X131749800Y-92837000D02*
X131749800Y-91135200D01*
X131749800Y-91135200D02*
X132105400Y-90779600D01*
X132105400Y-90779600D02*
X133451600Y-90779600D01*
X135016000Y-92344000D02*
X135782000Y-92344000D01*
%TO.N,Net-(U5-C1+)*%
X130683000Y-91821000D02*
X130683000Y-90881200D01*
X130683000Y-90881200D02*
X131114800Y-90449400D01*
X135782000Y-90697000D02*
X135782000Y-91044000D01*
X131114800Y-90449400D02*
X135534400Y-90449400D01*
X135534400Y-90449400D02*
X135782000Y-90697000D01*
%TO.N,Net-(U5-C2-)*%
X132842000Y-93896000D02*
X134780200Y-93896000D01*
X134780200Y-93896000D02*
X135032200Y-93644000D01*
X135032200Y-93644000D02*
X135782000Y-93644000D01*
%TO.N,Net-(U6-IO22)*%
X122961400Y-113436400D02*
X123850400Y-112547400D01*
X123850400Y-112547400D02*
X125088400Y-112547400D01*
X125088400Y-112547400D02*
X125095000Y-112554000D01*
%TO.N,Net-(U5-VS-)*%
X137160000Y-94294000D02*
X135782000Y-94294000D01*
%TO.N,Net-(U5-R1OUT)*%
X130708400Y-89408000D02*
X122250200Y-89408000D01*
%TO.N,Net-(U4-~{RST})*%
X129844800Y-97028000D02*
X129844800Y-98993200D01*
X129844800Y-98993200D02*
X128778000Y-100060000D01*
X129590800Y-96774000D02*
X129844800Y-97028000D01*
X129590800Y-92964000D02*
X129590800Y-96774000D01*
%TO.N,Net-(U5-VS+)*%
X135782000Y-91694000D02*
X136855200Y-91694000D01*
X131800600Y-85394800D02*
X131775200Y-85394800D01*
X131775200Y-85394800D02*
X130683000Y-86487000D01*
D46*
%TO.N,GND*%
X128152000Y-117865000D02*
X128143000Y-117856000D01*
X129540000Y-117865000D02*
X128152000Y-117865000D01*
X132308600Y-117449600D02*
X133553200Y-117449600D01*
D45*
%TO.N,Net-(J4-Pin_4)*%
X141332000Y-92344000D02*
X142047200Y-92344000D01*
X142047200Y-92344000D02*
X142697200Y-91694000D01*
X142697200Y-91694000D02*
X142697200Y-91363800D01*
X142697200Y-91363800D02*
X143052800Y-91008200D01*
X143052800Y-91008200D02*
X147777200Y-91008200D01*
X147777200Y-91008200D02*
X147828000Y-91059000D01*
%TO.N,Net-(C20-Pad1)*%
X118385500Y-76962000D02*
X122317000Y-76962000D01*
%TO.N,Net-(U6-EN)*%
X118258500Y-84582000D02*
X118258500Y-81825500D01*
X118258500Y-81825500D02*
X118221000Y-81788000D01*
D46*
%TO.N,+5V*%
X125399800Y-66929000D02*
X125186300Y-66715500D01*
X125186300Y-66715500D02*
X124321000Y-66715500D01*
X124469500Y-69596000D02*
X125399800Y-69596000D01*
D45*
%TO.N,/~{SD_MODE}*%
X123393200Y-67970400D02*
X122555000Y-67970400D01*
X122555000Y-67970400D02*
X122123200Y-67538600D01*
X122123200Y-67538600D02*
X122123200Y-66038300D01*
X122123200Y-66038300D02*
X122133500Y-66028000D01*
%TO.N,/BCLK*%
X118348000Y-63744600D02*
X118348000Y-71882000D01*
X119430800Y-62661800D02*
X118348000Y-63744600D01*
X122821000Y-63191105D02*
X122291695Y-62661800D01*
X122291695Y-62661800D02*
X119430800Y-62661800D01*
X122821000Y-63840500D02*
X122821000Y-63191105D01*
%TO.N,/DOUT*%
X121376100Y-64236600D02*
X121842100Y-64236600D01*
X121842100Y-64236600D02*
X122133500Y-64528000D01*
%TO.N,/LRCLK*%
X123821000Y-63199200D02*
X123821000Y-63840500D01*
X124333000Y-62687200D02*
X123821000Y-63199200D01*
%TO.N,/SPICS*%
X143256000Y-100060000D02*
X142422500Y-100893500D01*
D46*
%TO.N,GND*%
X149854000Y-100787200D02*
X149854000Y-101854000D01*
D45*
%TO.N,/SPIMOSI*%
X140852400Y-100050600D02*
X140843000Y-100060000D01*
X142062200Y-100050600D02*
X140852400Y-100050600D01*
%TO.N,/SPICLK*%
X139674600Y-100076000D02*
X138446000Y-100076000D01*
X138446000Y-100076000D02*
X138430000Y-100060000D01*
%TO.N,/SPIMOSI*%
X139708600Y-102799600D02*
X139708600Y-101972400D01*
X139708600Y-101972400D02*
X140817600Y-100863400D01*
X140817600Y-100863400D02*
X140817600Y-100085400D01*
X140817600Y-100085400D02*
X140843000Y-100060000D01*
%TO.N,/SPIMISO*%
X137261600Y-100050600D02*
X136026400Y-100050600D01*
X136026400Y-100050600D02*
X136017000Y-100060000D01*
%TO.N,Net-(D5-A2)*%
X134823200Y-100025200D02*
X133622800Y-100025200D01*
X133622800Y-100025200D02*
X133604000Y-100044000D01*
%TO.N,Net-(D12-A2)*%
X145669000Y-100044000D02*
X144290800Y-101422200D01*
X141908600Y-101855200D02*
X141908600Y-102799600D01*
X144290800Y-101422200D02*
X142341600Y-101422200D01*
X142341600Y-101422200D02*
X141908600Y-101855200D01*
%TO.N,/SPICLK*%
X138430000Y-100060000D02*
X137508600Y-100981400D01*
X137508600Y-100981400D02*
X137508600Y-102799600D01*
%TO.N,Net-(D5-A2)*%
X133604000Y-100044000D02*
X133604000Y-101219000D01*
X134208600Y-101823600D02*
X134208600Y-102799600D01*
X133604000Y-101219000D02*
X134208600Y-101823600D01*
%TO.N,Net-(U5-T1IN)*%
X141332000Y-94294000D02*
X142154600Y-94294000D01*
X142154600Y-94294000D02*
X142392400Y-94056200D01*
X142392400Y-94056200D02*
X142392400Y-93303600D01*
X142392400Y-93303600D02*
X143764000Y-91932000D01*
D46*
%TO.N,GND*%
X143764000Y-93726000D02*
X145313400Y-93726000D01*
D45*
X141332000Y-91694000D02*
X139877800Y-91694000D01*
%TO.N,Net-(C12-Pad2)*%
X116221000Y-81788000D02*
X114782600Y-81788000D01*
X114092000Y-94762600D02*
X114543400Y-95214000D01*
X114782600Y-81788000D02*
X114092000Y-82478600D01*
X114092000Y-82478600D02*
X114092000Y-94762600D01*
X114543400Y-95214000D02*
X116354000Y-95214000D01*
%TO.N,Net-(U6-EN)*%
X118230400Y-79730600D02*
X118230400Y-81778600D01*
X115222600Y-80805600D02*
X117238600Y-80805600D01*
X117238600Y-80805600D02*
X118221000Y-81788000D01*
X115189000Y-80772000D02*
X115222600Y-80805600D01*
X118230400Y-81778600D02*
X118221000Y-81788000D01*
%TO.N,Net-(C19-Pad1)*%
X122830500Y-86487000D02*
X125111000Y-86487000D01*
D46*
%TO.N,+3V3*%
X140843000Y-96748600D02*
X140182600Y-96088200D01*
X140843000Y-98060000D02*
X140843000Y-96748600D01*
D45*
%TO.N,Net-(U5-C2+)*%
X132842000Y-91821000D02*
X133756400Y-91821000D01*
X133756400Y-91821000D02*
X134929400Y-92994000D01*
X134929400Y-92994000D02*
X135782000Y-92994000D01*
%TO.N,Net-(U6-IO12)*%
X132035000Y-68453000D02*
X132035000Y-68509600D01*
X132035000Y-68509600D02*
X134051000Y-70525600D01*
X134051000Y-70525600D02*
X134051000Y-70739000D01*
X128955800Y-68453000D02*
X128930400Y-68427600D01*
X132035000Y-68453000D02*
X128955800Y-68453000D01*
%TO.N,Net-(J2-Pin_2)*%
X125008500Y-65528000D02*
X130966400Y-65528000D01*
X130966400Y-65528000D02*
X131380000Y-65114400D01*
X131380000Y-65114400D02*
X131380000Y-63440000D01*
%TO.N,Net-(J2-Pin_1)*%
X125008500Y-66028000D02*
X134428800Y-66028000D01*
X134428800Y-66028000D02*
X134880000Y-65576800D01*
X134880000Y-65576800D02*
X134880000Y-63440000D01*
%TO.N,GND*%
X125624400Y-65028000D02*
X126161800Y-64490600D01*
X125008500Y-65028000D02*
X125624400Y-65028000D01*
%TO.N,Net-(D7-A)*%
X148590000Y-112633000D02*
X148590000Y-115815000D01*
%TO.N,Net-(C12-Pad2)*%
X128524000Y-93896000D02*
X128524000Y-96215200D01*
X128524000Y-96215200D02*
X128778000Y-96469200D01*
X128778000Y-96469200D02*
X128778000Y-98060000D01*
%TO.N,/~{S2_INPUT}*%
X160909000Y-81264000D02*
X162184000Y-81264000D01*
X162184000Y-81264000D02*
X165870000Y-84950000D01*
%TO.N,Net-(R7-Pad1)*%
X116376000Y-99767000D02*
X125476000Y-99767000D01*
%TO.N,Net-(U6-IO18)*%
X122580400Y-107594400D02*
X121548400Y-107594400D01*
X121548400Y-107594400D02*
X121539000Y-107585000D01*
%TO.N,Net-(U6-IO23)*%
X121539000Y-112554000D02*
X119869200Y-112554000D01*
X119869200Y-112554000D02*
X119862600Y-112547400D01*
D46*
%TO.N,GND*%
X147781100Y-72876500D02*
X147777200Y-72872600D01*
X149098000Y-72876500D02*
X147781100Y-72876500D01*
X150290000Y-68707000D02*
X150290000Y-67437000D01*
D45*
%TO.N,Net-(U4-~{RST})*%
X153619200Y-66954400D02*
X153619200Y-64770000D01*
%TO.N,Net-(U6-IO21)*%
X148590000Y-110633000D02*
X146897600Y-110633000D01*
X146897600Y-110633000D02*
X146888200Y-110642400D01*
%TO.N,Net-(U4-~{RST})*%
X152476200Y-63627000D02*
X153619200Y-64770000D01*
X150290000Y-63627000D02*
X152476200Y-63627000D01*
%TO.N,/SDA*%
X156946600Y-62128400D02*
X157988000Y-61087000D01*
X157988000Y-61087000D02*
X159590000Y-61087000D01*
%TO.N,/S2_GREEN*%
X118110000Y-110794800D02*
X118110000Y-109585000D01*
X122809000Y-111455200D02*
X118770400Y-111455200D01*
X118770400Y-111455200D02*
X118110000Y-110794800D01*
%TO.N,/S2_RED*%
X121539000Y-110921800D02*
X121539000Y-109585000D01*
D46*
%TO.N,+3V3*%
X158090000Y-82550000D02*
X159517000Y-82550000D01*
X159517000Y-82550000D02*
X160930000Y-83963000D01*
X158090000Y-82550000D02*
X158090000Y-85104000D01*
X160909000Y-79264000D02*
X159394400Y-79264000D01*
D45*
%TO.N,/S1_GREEN*%
X122961400Y-114554000D02*
X121539000Y-114554000D01*
D46*
%TO.N,GND*%
X159893000Y-104140000D02*
X155473400Y-104140000D01*
%TO.N,+VDC*%
X159893000Y-101015800D02*
X159893000Y-99568000D01*
D45*
%TO.N,/S1_RED*%
X126644400Y-114554000D02*
X125095000Y-114554000D01*
D46*
%TO.N,+VDC*%
X163406000Y-102235000D02*
X163406000Y-101023600D01*
X163406000Y-101023600D02*
X163398200Y-101015800D01*
X168910000Y-106953400D02*
X168916000Y-106959400D01*
X167741600Y-104140000D02*
X168910000Y-105308400D01*
X168910000Y-105308400D02*
X168910000Y-106953400D01*
%TO.N,Net-(D1-Pad4)*%
X157988000Y-94234000D02*
X157988000Y-95707200D01*
%TO.N,Net-(J1-Pin_1)*%
X157988000Y-91694000D02*
X159639000Y-91694000D01*
D45*
%TO.N,+5V*%
X123821000Y-66715500D02*
X124321000Y-66715500D01*
D46*
%TO.N,+3V3*%
X138608600Y-101423000D02*
X138607800Y-101422200D01*
X138608600Y-102799600D02*
X138608600Y-101423000D01*
X129835400Y-107585000D02*
X129844800Y-107594400D01*
X128524000Y-107585000D02*
X129835400Y-107585000D01*
%TO.N,+5V*%
X153464200Y-87404000D02*
X153466800Y-87401400D01*
X151790000Y-87404000D02*
X153464200Y-87404000D01*
%TO.N,+3V3*%
X153902500Y-59025700D02*
X153898600Y-59029600D01*
X153902500Y-57531000D02*
X153902500Y-59025700D01*
X150290000Y-61087000D02*
X152120600Y-61087000D01*
%TO.N,+VDC*%
X155454000Y-101854000D02*
X155454000Y-100095400D01*
X155454000Y-100095400D02*
X155981400Y-99568000D01*
X157962600Y-99568000D02*
X159893000Y-99568000D01*
X153771600Y-91694000D02*
X152400000Y-91694000D01*
%TO.N,+3V3*%
X153466800Y-85115400D02*
X158090000Y-85104000D01*
%TO.N,+VDC*%
X155977500Y-78693100D02*
X155981400Y-78689200D01*
X155977500Y-80010000D02*
X155977500Y-78693100D01*
X153557000Y-77230000D02*
X153568400Y-77241400D01*
X151790000Y-77230000D02*
X153557000Y-77230000D01*
%TO.N,+5V*%
X156438600Y-74930000D02*
X156413200Y-74904600D01*
X158090000Y-74930000D02*
X156438600Y-74930000D01*
X153543000Y-74930000D02*
X153568400Y-74904600D01*
X151790000Y-74930000D02*
X153543000Y-74930000D01*
X149098000Y-74951500D02*
X151768500Y-74951500D01*
X151768500Y-74951500D02*
X151790000Y-74930000D01*
X149098000Y-74951500D02*
X149098000Y-76454000D01*
X149098000Y-77935000D02*
X149098000Y-76454000D01*
%TO.N,GND*%
X152400000Y-94234000D02*
X150876000Y-94234000D01*
X132842000Y-86487000D02*
X132842000Y-87757000D01*
X131576000Y-107065000D02*
X131318000Y-106807000D01*
X130202700Y-73738500D02*
X130200400Y-73736200D01*
X116310500Y-74951500D02*
X116289000Y-74930000D01*
X122394500Y-69596000D02*
X120751600Y-69596000D01*
X151790000Y-82804000D02*
X151790000Y-81483600D01*
X150290000Y-66167000D02*
X151790400Y-66167000D01*
X149098000Y-80010000D02*
X150393400Y-80010000D01*
D45*
X123321000Y-62665800D02*
X123317000Y-62661800D01*
D46*
X150182400Y-83015000D02*
X150393400Y-82804000D01*
X116183500Y-86614000D02*
X116183500Y-84582000D01*
X151790000Y-72630000D02*
X151790000Y-71247400D01*
X128524000Y-91821000D02*
X128524000Y-90500200D01*
X145808600Y-116243200D02*
X145821400Y-116230400D01*
X148590000Y-117865000D02*
X149520800Y-117865000D01*
X150290000Y-67437000D02*
X151790400Y-67437000D01*
X159590000Y-68707000D02*
X158064200Y-68707000D01*
X145808600Y-117899600D02*
X145808600Y-116243200D01*
X159590000Y-67437000D02*
X158064200Y-67437000D01*
X150290000Y-64897000D02*
X151790400Y-64897000D01*
X132085000Y-73738500D02*
X130202700Y-73738500D01*
X157505400Y-57531000D02*
X158064200Y-58089800D01*
X155977500Y-57531000D02*
X157505400Y-57531000D01*
X120755500Y-86487000D02*
X120755500Y-87956300D01*
D45*
X120755600Y-65028000D02*
X120751600Y-65024000D01*
D46*
X151790000Y-81483600D02*
X151790400Y-81483200D01*
X152400000Y-94234000D02*
X152400000Y-95250000D01*
D45*
X122133500Y-65028000D02*
X122133500Y-65528000D01*
D46*
X149225000Y-83015000D02*
X150182400Y-83015000D01*
D45*
X122133500Y-65028000D02*
X120755600Y-65028000D01*
D46*
X116376000Y-104267000D02*
X117602000Y-104267000D01*
X125454000Y-91995400D02*
X125450600Y-91998800D01*
D45*
X123321000Y-63840500D02*
X123321000Y-62665800D01*
D46*
X159590000Y-66167000D02*
X158064200Y-66167000D01*
X116183500Y-86614000D02*
X114833400Y-86614000D01*
X132051000Y-70739000D02*
X130200400Y-70739000D01*
X149885400Y-117500400D02*
X149885400Y-117373400D01*
X149580600Y-117805200D02*
X149885400Y-117500400D01*
X120755500Y-87956300D02*
X120751600Y-87960200D01*
X132298000Y-107065000D02*
X131576000Y-107065000D01*
X149520800Y-117865000D02*
X149580600Y-117805200D01*
X163316000Y-106959400D02*
X160731200Y-106959400D01*
X159590000Y-63627000D02*
X158064200Y-63627000D01*
X153390600Y-72618600D02*
X151801400Y-72618600D01*
X118146000Y-90714000D02*
X118160800Y-90728800D01*
X151790000Y-71247400D02*
X151790400Y-71247000D01*
X129286000Y-113284000D02*
X129286000Y-112649000D01*
X116310500Y-76962000D02*
X116310500Y-74951500D01*
X153873200Y-72136000D02*
X153390600Y-72618600D01*
X125454000Y-90714000D02*
X125454000Y-91995400D01*
X153902500Y-80010000D02*
X152984200Y-80010000D01*
X151801400Y-72618600D02*
X151790000Y-72630000D01*
X151790000Y-82804000D02*
X150393400Y-82804000D01*
X116354000Y-90714000D02*
X118146000Y-90714000D01*
X159590000Y-64897000D02*
X158064200Y-64897000D01*
X122179500Y-80899000D02*
X120751600Y-80899000D01*
X116289000Y-74930000D02*
X114833400Y-74930000D01*
X117602000Y-104267000D02*
X117983000Y-103886000D01*
%TO.N,+3V3*%
X153455400Y-85104000D02*
X153466800Y-85115400D01*
X118364000Y-74930000D02*
X119811800Y-74930000D01*
X149225000Y-85090000D02*
X151776000Y-85090000D01*
X143764000Y-89932000D02*
X145177000Y-89932000D01*
X124454500Y-80899000D02*
X125933200Y-80899000D01*
X116230400Y-79730600D02*
X115189000Y-79730600D01*
X118258500Y-87956300D02*
X118262400Y-87960200D01*
D45*
X141332000Y-91044000D02*
X141332000Y-89947800D01*
D46*
X145177000Y-89932000D02*
X145186400Y-89941400D01*
X133588000Y-98060000D02*
X133604000Y-98044000D01*
X140843000Y-98060000D02*
X143256000Y-98060000D01*
X118258500Y-86614000D02*
X118258500Y-87956300D01*
X136001000Y-98044000D02*
X136017000Y-98060000D01*
X134358200Y-84412000D02*
X134366000Y-84404200D01*
X133604000Y-98044000D02*
X136001000Y-98044000D01*
X130683000Y-84412000D02*
X132842000Y-84412000D01*
D45*
X141332000Y-89947800D02*
X141325600Y-89941400D01*
D46*
X151776000Y-85090000D02*
X151790000Y-85104000D01*
X131191000Y-98060000D02*
X133588000Y-98060000D01*
X145653000Y-98060000D02*
X145669000Y-98044000D01*
X132842000Y-84412000D02*
X134358200Y-84412000D01*
X151790000Y-85104000D02*
X153455400Y-85104000D01*
X143256000Y-98060000D02*
X145653000Y-98060000D01*
%TD*%
M02*
