%TF.GenerationSoftware,KiCad,Pcbnew,(7.0.0-0)*%
%TF.CreationDate,2023-05-31T16:46:43+02:00*%
%TF.ProjectId,door_bell,646f6f72-5f62-4656-9c6c-2e6b69636164,rev?*%
%TF.SameCoordinates,Original*%
%TF.FileFunction,Soldermask,Top*%
%TF.FilePolarity,Negative*%
%FSLAX46Y46*%
G04 Gerber Fmt 4.6, Leading zero omitted, Abs format (unit mm)*
G04 Created by KiCad (PCBNEW (7.0.0-0)) date 2023-05-31 16:46:43*
%MOMM*%
%LPD*%
G01*
G04 APERTURE LIST*
G04 Aperture macros list*
%AMRoundRect*
0 Rectangle with rounded corners*
0 $1 Rounding radius*
0 $2 $3 $4 $5 $6 $7 $8 $9 X,Y pos of 4 corners*
0 Add a 4 corners polygon primitive as box body*
4,1,4,$2,$3,$4,$5,$6,$7,$8,$9,$2,$3,0*
0 Add four circle primitives for the rounded corners*
1,1,$1+$1,$2,$3*
1,1,$1+$1,$4,$5*
1,1,$1+$1,$6,$7*
1,1,$1+$1,$8,$9*
0 Add four rect primitives between the rounded corners*
20,1,$1+$1,$2,$3,$4,$5,0*
20,1,$1+$1,$4,$5,$6,$7,0*
20,1,$1+$1,$6,$7,$8,$9,0*
20,1,$1+$1,$8,$9,$2,$3,0*%
G04 Aperture macros list end*
%ADD10RoundRect,0.250000X0.450000X-0.350000X0.450000X0.350000X-0.450000X0.350000X-0.450000X-0.350000X0*%
%ADD11R,0.700000X1.200000*%
%ADD12R,1.000000X0.800000*%
%ADD13R,1.000000X1.200000*%
%ADD14R,1.000000X2.800000*%
%ADD15R,1.300000X1.900000*%
%ADD16C,1.500000*%
%ADD17RoundRect,0.062500X-0.062500X0.117500X-0.062500X-0.117500X0.062500X-0.117500X0.062500X0.117500X0*%
%ADD18RoundRect,0.250000X-0.450000X0.350000X-0.450000X-0.350000X0.450000X-0.350000X0.450000X0.350000X0*%
%ADD19RoundRect,0.250000X0.337500X0.475000X-0.337500X0.475000X-0.337500X-0.475000X0.337500X-0.475000X0*%
%ADD20R,2.400000X2.400000*%
%ADD21C,2.400000*%
%ADD22RoundRect,0.250001X1.999999X0.799999X-1.999999X0.799999X-1.999999X-0.799999X1.999999X-0.799999X0*%
%ADD23RoundRect,0.150000X-0.875000X-0.150000X0.875000X-0.150000X0.875000X0.150000X-0.875000X0.150000X0*%
%ADD24RoundRect,0.250000X-0.475000X0.337500X-0.475000X-0.337500X0.475000X-0.337500X0.475000X0.337500X0*%
%ADD25R,2.000000X0.650000*%
%ADD26RoundRect,0.150000X-0.150000X0.587500X-0.150000X-0.587500X0.150000X-0.587500X0.150000X0.587500X0*%
%ADD27RoundRect,0.250000X-0.350000X-0.450000X0.350000X-0.450000X0.350000X0.450000X-0.350000X0.450000X0*%
%ADD28R,1.000000X1.000000*%
%ADD29O,1.000000X1.000000*%
%ADD30RoundRect,0.250000X0.350000X0.450000X-0.350000X0.450000X-0.350000X-0.450000X0.350000X-0.450000X0*%
%ADD31RoundRect,0.250000X0.475000X-0.337500X0.475000X0.337500X-0.475000X0.337500X-0.475000X-0.337500X0*%
%ADD32RoundRect,0.250000X0.450000X-0.325000X0.450000X0.325000X-0.450000X0.325000X-0.450000X-0.325000X0*%
%ADD33C,1.905000*%
%ADD34R,1.230000X1.230000*%
%ADD35RoundRect,0.062500X-0.350000X-0.062500X0.350000X-0.062500X0.350000X0.062500X-0.350000X0.062500X0*%
%ADD36RoundRect,0.062500X-0.062500X-0.350000X0.062500X-0.350000X0.062500X0.350000X-0.062500X0.350000X0*%
%ADD37R,2.000000X1.500000*%
%ADD38R,2.000000X3.800000*%
%ADD39C,1.800000*%
%ADD40R,2.100000X1.400000*%
%ADD41R,1.050000X0.450000*%
%ADD42R,1.470000X0.895000*%
%ADD43RoundRect,0.062500X0.062500X-0.117500X0.062500X0.117500X-0.062500X0.117500X-0.062500X-0.117500X0*%
G04 APERTURE END LIST*
D10*
%TO.C,R22*%
X160930000Y-88410000D03*
X160930000Y-86410000D03*
%TD*%
D11*
%TO.C,J8*%
X142403999Y-103009999D03*
X141303999Y-103009999D03*
X140203999Y-103009999D03*
X139103999Y-103009999D03*
X138003999Y-103009999D03*
X136903999Y-103009999D03*
X135803999Y-103009999D03*
X134703999Y-103009999D03*
X133753999Y-103009999D03*
D12*
X132803999Y-113509999D03*
D13*
X132803999Y-107309999D03*
D14*
X132803999Y-117659999D03*
D13*
X143953999Y-103009999D03*
D15*
X146303999Y-118109999D03*
%TD*%
D16*
%TO.C,F1*%
X151638000Y-109982000D03*
X156718000Y-109982000D03*
%TD*%
D17*
%TO.C,D10*%
X131699000Y-80169000D03*
X131699000Y-79329000D03*
%TD*%
D18*
%TO.C,R18*%
X131699000Y-75978000D03*
X131699000Y-77978000D03*
%TD*%
%TO.C,R11*%
X118618000Y-105950000D03*
X118618000Y-107950000D03*
%TD*%
D10*
%TO.C,R10*%
X130937000Y-100187000D03*
X130937000Y-98187000D03*
%TD*%
D18*
%TO.C,R23*%
X160909000Y-79264000D03*
X160909000Y-81264000D03*
%TD*%
D10*
%TO.C,R9*%
X122936000Y-115062000D03*
X122936000Y-113062000D03*
%TD*%
D19*
%TO.C,C9*%
X144547500Y-90678000D03*
X142472500Y-90678000D03*
%TD*%
D20*
%TO.C,J1*%
X165869999Y-98959999D03*
D21*
X165870000Y-95460000D03*
%TD*%
D10*
%TO.C,R15*%
X133096000Y-100203000D03*
X133096000Y-98203000D03*
%TD*%
D22*
%TO.C,C3*%
X168192000Y-105791000D03*
X160992000Y-105791000D03*
%TD*%
D23*
%TO.C,U4*%
X150036000Y-58928000D03*
X150036000Y-60198000D03*
X150036000Y-61468000D03*
X150036000Y-62738000D03*
X150036000Y-64008000D03*
X150036000Y-65278000D03*
X150036000Y-66548000D03*
X150036000Y-67818000D03*
X159336000Y-67818000D03*
X159336000Y-66548000D03*
X159336000Y-65278000D03*
X159336000Y-64008000D03*
X159336000Y-62738000D03*
X159336000Y-61468000D03*
X159336000Y-60198000D03*
X159336000Y-58928000D03*
%TD*%
D19*
%TO.C,C1*%
X156117500Y-79705200D03*
X154042500Y-79705200D03*
%TD*%
D24*
%TO.C,C12*%
X133096000Y-84814500D03*
X133096000Y-86889500D03*
%TD*%
D25*
%TO.C,U7*%
X121479999Y-80710999D03*
X121479999Y-81660999D03*
X121479999Y-82610999D03*
X124899999Y-82610999D03*
X124899999Y-81660999D03*
X124899999Y-80710999D03*
%TD*%
D26*
%TO.C,Q1*%
X133780000Y-69160000D03*
X131880000Y-69160000D03*
X132830000Y-71035000D03*
%TD*%
D27*
%TO.C,R2*%
X116348000Y-87376000D03*
X118348000Y-87376000D03*
%TD*%
D20*
%TO.C,J4*%
X165869999Y-91949999D03*
D21*
X165870000Y-88450000D03*
X165870000Y-84950000D03*
X165870000Y-81450000D03*
X165870000Y-77950000D03*
X165870000Y-74450000D03*
X165870000Y-70950000D03*
X165870000Y-67450000D03*
%TD*%
D18*
%TO.C,R19*%
X129032000Y-75962000D03*
X129032000Y-77962000D03*
%TD*%
D28*
%TO.C,J7*%
X115935999Y-99821999D03*
D29*
X117205999Y-99821999D03*
%TD*%
D30*
%TO.C,R4*%
X146034000Y-99568000D03*
X144034000Y-99568000D03*
%TD*%
D17*
%TO.C,D9*%
X134366000Y-80169000D03*
X134366000Y-79329000D03*
%TD*%
D28*
%TO.C,J6*%
X116585999Y-58546999D03*
D29*
X117855999Y-58546999D03*
X119125999Y-58546999D03*
X120395999Y-58546999D03*
X121665999Y-58546999D03*
X122935999Y-58546999D03*
X124205999Y-58546999D03*
%TD*%
D31*
%TO.C,C8*%
X149352000Y-84857500D03*
X149352000Y-82782500D03*
%TD*%
D18*
%TO.C,R13*%
X122682000Y-105966000D03*
X122682000Y-107966000D03*
%TD*%
D27*
%TO.C,R21*%
X120904000Y-78105000D03*
X122904000Y-78105000D03*
%TD*%
D19*
%TO.C,C15*%
X118385500Y-90170000D03*
X116310500Y-90170000D03*
%TD*%
D18*
%TO.C,R8*%
X120650000Y-113062000D03*
X120650000Y-115062000D03*
%TD*%
D17*
%TO.C,D11*%
X129032000Y-80169000D03*
X129032000Y-79329000D03*
%TD*%
D27*
%TO.C,R20*%
X124730000Y-86487000D03*
X126730000Y-86487000D03*
%TD*%
D24*
%TO.C,C16*%
X138430000Y-95482500D03*
X138430000Y-97557500D03*
%TD*%
D27*
%TO.C,R5*%
X133366000Y-89408000D03*
X135366000Y-89408000D03*
%TD*%
D32*
%TO.C,D7*%
X129540000Y-117865000D03*
X129540000Y-115815000D03*
%TD*%
D18*
%TO.C,R7*%
X116840000Y-72660000D03*
X116840000Y-74660000D03*
%TD*%
D33*
%TO.C,K1*%
X145796000Y-86614000D03*
X145796000Y-78994000D03*
X145796000Y-73914000D03*
X145796000Y-68834000D03*
X138176000Y-68834000D03*
X138176000Y-73914000D03*
X138176000Y-78994000D03*
X138176000Y-86614000D03*
%TD*%
D19*
%TO.C,C6*%
X158517500Y-91694000D03*
X156442500Y-91694000D03*
%TD*%
D22*
%TO.C,C7*%
X157060000Y-99949000D03*
X149860000Y-99949000D03*
%TD*%
D32*
%TO.C,D6*%
X149860000Y-117865000D03*
X149860000Y-115815000D03*
%TD*%
D34*
%TO.C,U2*%
X122789999Y-71099999D03*
D35*
X121352500Y-70350000D03*
X121352500Y-70850000D03*
X121352500Y-71350000D03*
X121352500Y-71850000D03*
D36*
X122040000Y-72537500D03*
X122540000Y-72537500D03*
X123040000Y-72537500D03*
X123540000Y-72537500D03*
D35*
X124227500Y-71850000D03*
X124227500Y-71350000D03*
X124227500Y-70850000D03*
X124227500Y-70350000D03*
D36*
X123540000Y-69662500D03*
X123040000Y-69662500D03*
X122540000Y-69662500D03*
X122040000Y-69662500D03*
%TD*%
D37*
%TO.C,U1*%
X152170999Y-71994999D03*
X152170999Y-74294999D03*
D38*
X158470999Y-74294999D03*
D37*
X152170999Y-76594999D03*
%TD*%
D18*
%TO.C,R14*%
X120650000Y-105966000D03*
X120650000Y-107966000D03*
%TD*%
D20*
%TO.C,J2*%
X134879999Y-63439999D03*
D21*
X131380000Y-63440000D03*
%TD*%
D39*
%TO.C,TP1*%
X110998000Y-59944000D03*
%TD*%
D27*
%TO.C,R6*%
X122210000Y-61550000D03*
X124210000Y-61550000D03*
%TD*%
D10*
%TO.C,R16*%
X135255000Y-100187000D03*
X135255000Y-98187000D03*
%TD*%
D19*
%TO.C,C19*%
X122830500Y-86487000D03*
X120755500Y-86487000D03*
%TD*%
D20*
%TO.C,J3*%
X145429999Y-63439999D03*
D21*
X141930000Y-63440000D03*
X138430000Y-63440000D03*
%TD*%
D19*
%TO.C,C13*%
X148484500Y-90678000D03*
X146409500Y-90678000D03*
%TD*%
D31*
%TO.C,C4*%
X149352000Y-74189500D03*
X149352000Y-72114500D03*
%TD*%
D18*
%TO.C,R12*%
X116586000Y-105966000D03*
X116586000Y-107966000D03*
%TD*%
D19*
%TO.C,C18*%
X118364000Y-80518000D03*
X116289000Y-80518000D03*
%TD*%
D18*
%TO.C,R1*%
X130302000Y-84889500D03*
X130302000Y-86889500D03*
%TD*%
D19*
%TO.C,C17*%
X142007500Y-99568000D03*
X139932500Y-99568000D03*
%TD*%
D40*
%TO.C,SW1*%
X121179999Y-90967999D03*
X130279999Y-90967999D03*
X121179999Y-95467999D03*
X130279999Y-95467999D03*
%TD*%
D37*
%TO.C,U3*%
X152170999Y-82662999D03*
X152170999Y-84962999D03*
D38*
X158470999Y-84962999D03*
D37*
X152170999Y-87262999D03*
%TD*%
D27*
%TO.C,R3*%
X116348000Y-85344000D03*
X118348000Y-85344000D03*
%TD*%
D41*
%TO.C,U5*%
X140753999Y-92960599D03*
X140753999Y-93610599D03*
X140753999Y-94260599D03*
X140753999Y-94910599D03*
X140753999Y-95560599D03*
X140753999Y-96210599D03*
X140753999Y-96860599D03*
X140753999Y-97510599D03*
X146303999Y-97510599D03*
X146303999Y-96860599D03*
X146303999Y-96210599D03*
X146303999Y-95560599D03*
X146303999Y-94910599D03*
X146303999Y-94260599D03*
X146303999Y-93610599D03*
X146303999Y-92960599D03*
D42*
X142793999Y-93893099D03*
X142793999Y-94788099D03*
X142793999Y-95683099D03*
X142793999Y-96578099D03*
X144263999Y-93893099D03*
X144263999Y-94788099D03*
X144263999Y-95683099D03*
X144263999Y-96578099D03*
%TD*%
D43*
%TO.C,D3*%
X118541800Y-73660000D03*
X118541800Y-74500000D03*
%TD*%
D19*
%TO.C,C20*%
X118385500Y-82550000D03*
X116310500Y-82550000D03*
%TD*%
D28*
%TO.C,J5*%
X152259999Y-91089999D03*
D29*
X152259999Y-92359999D03*
X152259999Y-93629999D03*
%TD*%
D19*
%TO.C,C11*%
X140610500Y-90678000D03*
X138535500Y-90678000D03*
%TD*%
%TO.C,C10*%
X118385500Y-92202000D03*
X116310500Y-92202000D03*
%TD*%
D18*
%TO.C,R17*%
X134366000Y-75962000D03*
X134366000Y-77962000D03*
%TD*%
M02*
