%TF.GenerationSoftware,KiCad,Pcbnew,(7.0.0-0)*%
%TF.CreationDate,2023-05-31T16:46:44+02:00*%
%TF.ProjectId,door_bell,646f6f72-5f62-4656-9c6c-2e6b69636164,rev?*%
%TF.SameCoordinates,Original*%
%TF.FileFunction,Profile,NP*%
%FSLAX46Y46*%
G04 Gerber Fmt 4.6, Leading zero omitted, Abs format (unit mm)*
G04 Created by KiCad (PCBNEW (7.0.0-0)) date 2023-05-31 16:46:44*
%MOMM*%
%LPD*%
G01*
G04 APERTURE LIST*
%TA.AperFunction,Profile*%
%ADD10C,0.200000*%
%TD*%
G04 APERTURE END LIST*
D10*
X126493200Y-54616900D02*
X126234400Y-54457900D01*
X104952900Y-116548900D02*
X104991600Y-116860600D01*
X105407400Y-118360300D02*
X105533500Y-118644900D01*
X105826800Y-119194500D02*
X105993700Y-119458500D01*
X127031100Y-121099400D02*
X127309100Y-120979400D01*
X110991200Y-53695700D02*
X110675500Y-53719300D01*
X172441200Y-56517000D02*
X172263600Y-56267300D01*
X105982100Y-56548300D02*
X105815300Y-56814000D01*
X115329000Y-113397900D02*
G75*
G03*
X112309000Y-113397900I-1510000J0D01*
G01*
X152462900Y-121709500D02*
X152706500Y-121893500D01*
X150853200Y-120872700D02*
X151136600Y-120979400D01*
X128470300Y-55360700D02*
X128173600Y-55295400D01*
X109445100Y-53965700D02*
X109148300Y-54064200D01*
X151952500Y-54616900D02*
X151686800Y-54763100D01*
X150564900Y-120779700D02*
X150853200Y-120872700D01*
X150272200Y-120700400D02*
X150564900Y-120779700D01*
X128173600Y-120700400D02*
X128470300Y-120635100D01*
X173521200Y-116234300D02*
X173529000Y-115917900D01*
X150272200Y-55295400D02*
X149975500Y-55360700D01*
X167465400Y-122290100D02*
X167779600Y-122266700D01*
X109446200Y-122022500D02*
X109746600Y-122105800D01*
X104985000Y-59161100D02*
X104947500Y-59474300D01*
X151686800Y-54763100D02*
X151414700Y-54896400D01*
X108860200Y-121812700D02*
X109150600Y-121924700D01*
X114341000Y-64629900D02*
G75*
G03*
X117361000Y-64629900I1510000J0D01*
G01*
X125739200Y-121893500D02*
X125982900Y-121709500D01*
X108297500Y-121546800D02*
X108575700Y-121686700D01*
X110051200Y-122174400D02*
X110359500Y-122228200D01*
X127309100Y-120979400D02*
X127592500Y-120872700D01*
X173142500Y-57888200D02*
X173028500Y-57599000D01*
X106366600Y-119962200D02*
X106572300Y-120200800D01*
X173028500Y-57599000D02*
X172900900Y-57316800D01*
X169349300Y-54094800D02*
X169053300Y-53994600D01*
X151414700Y-54896400D02*
X151136600Y-55016400D01*
X117361000Y-64629900D02*
G75*
G03*
X114341000Y-64629900I-1510000J0D01*
G01*
X150564900Y-55216100D02*
X150272200Y-55295400D01*
X173399600Y-58794500D02*
X173328500Y-58486300D01*
X109148300Y-54064200D02*
X108856700Y-54177100D01*
X152211400Y-121537900D02*
X152462900Y-121709500D01*
X168442800Y-53837600D02*
X168129100Y-53781500D01*
X111309000Y-53697900D02*
X110991200Y-53695700D01*
X110362600Y-53758300D02*
X110052800Y-53812500D01*
X125277300Y-53697900D02*
X111309000Y-53697900D01*
X153168400Y-122297900D02*
X167149000Y-122297900D01*
X107009800Y-55350400D02*
X106780000Y-55570000D01*
X166129000Y-62597900D02*
G75*
G03*
X163109000Y-62597900I-1510000J0D01*
G01*
X172917300Y-118644000D02*
X173043400Y-118359400D01*
X169638600Y-54208900D02*
X169349300Y-54094800D01*
X107754500Y-54767600D02*
X107497600Y-54948900D01*
X105295300Y-118069900D02*
X105407400Y-118360300D01*
X109150600Y-121924700D02*
X109446200Y-122022500D01*
X128470300Y-120635100D02*
X128770400Y-120583900D01*
X172457100Y-119457500D02*
X172623900Y-119193500D01*
X129379100Y-120524900D02*
X129699000Y-120517900D01*
X171192400Y-120853100D02*
X171431100Y-120647400D01*
X107506000Y-121046700D02*
X107762100Y-121226600D01*
X129699000Y-120517900D02*
X148759000Y-120517500D01*
X104925400Y-59790000D02*
X104919000Y-60107900D01*
X151136600Y-55016400D02*
X150853200Y-55123100D01*
X149675300Y-120583900D02*
X149975500Y-120635100D01*
X107249100Y-55143200D02*
X107009800Y-55350400D01*
X170970400Y-54974000D02*
X170720600Y-54796400D01*
X105105600Y-58544800D02*
X105037800Y-58851100D01*
X169300200Y-121924300D02*
X169590500Y-121812300D01*
X151686800Y-121232600D02*
X151952500Y-121378900D01*
X169875100Y-121686200D02*
X170153300Y-121546300D01*
X128770400Y-55411900D02*
X128470300Y-55360700D01*
X110671100Y-122266800D02*
X110985300Y-122290100D01*
X106162200Y-56290600D02*
X105982100Y-56548300D01*
X167810300Y-53740900D02*
X167486800Y-53716300D01*
X173043400Y-118359400D02*
X173155400Y-118069100D01*
X170688600Y-121226000D02*
X170944700Y-121046000D01*
X107258400Y-120853800D02*
X107506000Y-121046700D01*
X152462900Y-54286300D02*
X152211400Y-54457900D01*
X125982900Y-121709500D02*
X126234400Y-121537900D01*
X167157700Y-53697900D02*
X153168400Y-53697900D01*
X168129100Y-53781500D02*
X167810300Y-53740900D01*
X105815300Y-56814000D02*
X105662000Y-57087100D01*
X171878500Y-120200000D02*
X172084200Y-119961300D01*
X169590500Y-121812300D02*
X169875100Y-121686200D01*
X105188100Y-58242700D02*
X105105600Y-58544800D01*
X105197500Y-117774300D02*
X105295300Y-118069900D01*
X104919000Y-60107900D02*
X104921100Y-66297400D01*
X171431100Y-120647400D02*
X171660400Y-120429200D01*
X149975500Y-120635100D02*
X150272200Y-120700400D01*
X152211400Y-54457900D02*
X151952500Y-54616900D01*
X109746800Y-53881700D02*
X109445100Y-53965700D01*
X172074500Y-56026700D02*
X171874300Y-55795500D01*
X170720600Y-54796400D02*
X170462200Y-54630700D01*
X104991600Y-116860600D02*
X105045400Y-117169000D01*
X106780000Y-55570000D02*
X106561300Y-55800900D01*
X173253200Y-117773400D02*
X173336600Y-117473000D01*
X150853200Y-55123100D02*
X150564900Y-55216100D01*
X105673300Y-118923100D02*
X105826800Y-119194500D01*
X169004500Y-122022100D02*
X169300200Y-121924300D01*
X105285300Y-57945400D02*
X105188100Y-58242700D01*
X167149000Y-122297900D02*
X167465400Y-122290100D01*
X152941900Y-122089700D02*
X153168400Y-122297900D01*
X128173600Y-55295400D02*
X127880800Y-55216100D01*
X106173700Y-119714500D02*
X106366600Y-119962200D01*
X127031100Y-54896400D02*
X126759000Y-54763100D01*
X110052800Y-53812500D02*
X109746800Y-53881700D01*
X104929600Y-116234500D02*
X104952900Y-116548900D01*
X108019400Y-54599600D02*
X107754500Y-54767600D01*
X171663400Y-55574300D02*
X171442100Y-55363400D01*
X172623900Y-119193500D02*
X172777400Y-118922200D01*
X148759000Y-55478300D02*
X129699000Y-55477900D01*
X153168400Y-53697900D02*
X152941900Y-53906100D01*
X173155400Y-118069100D02*
X173253200Y-117773400D01*
X125503800Y-53906100D02*
X125277300Y-53697900D01*
X173529000Y-60077900D02*
X173520700Y-59750200D01*
X106790400Y-120430000D02*
X107019700Y-120648200D01*
X171442100Y-55363400D02*
X171211000Y-55163100D01*
X127880800Y-120779700D02*
X128173600Y-120700400D01*
X108291700Y-54445000D02*
X108019400Y-54599600D01*
X105114100Y-117473800D02*
X105197500Y-117774300D01*
X173455600Y-59108100D02*
X173399600Y-58794500D01*
X126234400Y-121537900D02*
X126493200Y-121378900D01*
X126493200Y-121378900D02*
X126759000Y-121232600D01*
X107762100Y-121226600D02*
X108026100Y-121393400D01*
X127592500Y-55123100D02*
X127309100Y-55016400D01*
X111300300Y-122297900D02*
X125277300Y-122297900D01*
X172606900Y-56775500D02*
X172441200Y-56517000D01*
X104947500Y-59474300D02*
X104925400Y-59790000D01*
X110675500Y-53719300D02*
X110362600Y-53758300D01*
X106355400Y-56041200D02*
X106162200Y-56290600D01*
X172900900Y-57316800D02*
X172760200Y-57042200D01*
X169053300Y-53994600D02*
X168751000Y-53908700D01*
X151414700Y-121099400D02*
X151686800Y-121232600D01*
X129379100Y-55470800D02*
X129073500Y-55448600D01*
X126759000Y-121232600D02*
X127031100Y-121099400D01*
X128770400Y-120583900D02*
X129073500Y-120547200D01*
X105533500Y-118644900D02*
X105673300Y-118923100D01*
X170195400Y-54477300D02*
X169920800Y-54336500D01*
X105396800Y-57653300D02*
X105285300Y-57945400D01*
X169920800Y-54336500D02*
X169638600Y-54208900D01*
X163109000Y-62597900D02*
G75*
G03*
X166129000Y-62597900I1510000J0D01*
G01*
X152706500Y-121893500D02*
X152941900Y-122089700D01*
X108575700Y-121686700D02*
X108860200Y-121812700D01*
X125739200Y-54102300D02*
X125503800Y-53906100D01*
X168751000Y-53908700D02*
X168442800Y-53837600D01*
X110985300Y-122290100D02*
X111300300Y-122297900D01*
X108571000Y-54304100D02*
X108291700Y-54445000D01*
X152941900Y-53906100D02*
X152706500Y-54102300D01*
X107497600Y-54948900D02*
X107249100Y-55143200D01*
X105662000Y-57087100D02*
X105522400Y-57367100D01*
X108026100Y-121393400D02*
X108297500Y-121546800D01*
X168399500Y-122174200D02*
X168704100Y-122105500D01*
X111391100Y-66297400D02*
X111391100Y-107207400D01*
X151136600Y-120979400D02*
X151414700Y-121099400D01*
X149675300Y-55411900D02*
X149372200Y-55448600D01*
X173328500Y-58486300D02*
X173242700Y-58184100D01*
X126759000Y-54763100D02*
X126493200Y-54616900D01*
X173405300Y-117168400D02*
X173459100Y-116860000D01*
X152706500Y-54102300D02*
X152462900Y-54286300D01*
X171660400Y-120429200D02*
X171878500Y-120200000D01*
X149372200Y-55448600D02*
X149066600Y-55470900D01*
X173520700Y-59750200D02*
X173496100Y-59426800D01*
X107019700Y-120648200D02*
X107258400Y-120853800D01*
X125982800Y-54286300D02*
X125739200Y-54102300D01*
X127592500Y-120872700D02*
X127880800Y-120779700D01*
X110359500Y-122228200D02*
X110671100Y-122266800D01*
X105522400Y-57367100D02*
X105396800Y-57653300D01*
X129073500Y-120547200D02*
X129379100Y-120524900D01*
X105037800Y-58851100D02*
X104985000Y-59161100D01*
X167779600Y-122266700D02*
X168091100Y-122228000D01*
X109746600Y-122105800D02*
X110051200Y-122174400D01*
X104916100Y-107207400D02*
X104921700Y-115917900D01*
X148759000Y-120517500D02*
X149066600Y-120524900D01*
X173497800Y-116548500D02*
X173521200Y-116234300D01*
X172263600Y-56267300D02*
X172074500Y-56026700D01*
X104921700Y-115917900D02*
X104929600Y-116234500D01*
X167486800Y-53716300D02*
X167157700Y-53697900D01*
X125277300Y-122297900D02*
X125503800Y-122089700D01*
X172084200Y-119961300D02*
X172277100Y-119713600D01*
X173459100Y-116860000D02*
X173497800Y-116548500D01*
X129073500Y-55448600D02*
X128770400Y-55411900D01*
X129699000Y-55477900D02*
X129379100Y-55470800D01*
X149066600Y-120524900D02*
X149675300Y-120583900D01*
X172277100Y-119713600D02*
X172457100Y-119457500D01*
X170153300Y-121546300D02*
X170424600Y-121392800D01*
X127880800Y-55216100D02*
X127592500Y-55123100D01*
X163109000Y-113397900D02*
G75*
G03*
X166129000Y-113397900I1510000J0D01*
G01*
X126234400Y-54457900D02*
X125982800Y-54286300D01*
X104921100Y-66297400D02*
X111391100Y-66297400D01*
X166129000Y-113397900D02*
G75*
G03*
X163109000Y-113397900I-1510000J0D01*
G01*
X149066600Y-55470900D02*
X148759000Y-55478300D01*
X173336600Y-117473000D02*
X173405300Y-117168400D01*
X170462200Y-54630700D02*
X170195400Y-54477300D01*
X127309100Y-55016400D02*
X127031100Y-54896400D01*
X151952500Y-121378900D02*
X152211400Y-121537900D01*
X105993700Y-119458500D02*
X106173700Y-119714500D01*
X173529000Y-115917900D02*
X173529000Y-60077900D01*
X106572300Y-120200800D02*
X106790400Y-120430000D01*
X106561300Y-55800900D02*
X106355400Y-56041200D01*
X149975500Y-55360700D02*
X149675300Y-55411900D01*
X173242700Y-58184100D02*
X173142500Y-57888200D01*
X108856700Y-54177100D02*
X108571000Y-54304100D01*
X173496100Y-59426800D02*
X173455600Y-59108100D01*
X125503800Y-122089700D02*
X125739200Y-121893500D01*
X111391100Y-107207400D02*
X104916100Y-107207400D01*
X171211000Y-55163100D02*
X170970400Y-54974000D01*
X171874300Y-55795500D02*
X171663400Y-55574300D01*
X172777400Y-118922200D02*
X172917300Y-118644000D01*
X172760200Y-57042200D02*
X172606900Y-56775500D01*
X170424600Y-121392800D02*
X170688600Y-121226000D01*
X168091100Y-122228000D02*
X168399500Y-122174200D01*
X112309000Y-113397900D02*
G75*
G03*
X115329000Y-113397900I1510000J0D01*
G01*
X105045400Y-117169000D02*
X105114100Y-117473800D01*
X170944700Y-121046000D02*
X171192400Y-120853100D01*
X168704100Y-122105500D02*
X169004500Y-122022100D01*
M02*
