%TF.GenerationSoftware,KiCad,Pcbnew,(7.0.0-0)*%
%TF.CreationDate,2023-06-26T00:58:40+02:00*%
%TF.ProjectId,door_bell,646f6f72-5f62-4656-9c6c-2e6b69636164,rev?*%
%TF.SameCoordinates,Original*%
%TF.FileFunction,Copper,L4,Bot*%
%TF.FilePolarity,Positive*%
%FSLAX46Y46*%
G04 Gerber Fmt 4.6, Leading zero omitted, Abs format (unit mm)*
G04 Created by KiCad (PCBNEW (7.0.0-0)) date 2023-06-26 00:58:40*
%MOMM*%
%LPD*%
G01*
G04 APERTURE LIST*
G04 Aperture macros list*
%AMRoundRect*
0 Rectangle with rounded corners*
0 $1 Rounding radius*
0 $2 $3 $4 $5 $6 $7 $8 $9 X,Y pos of 4 corners*
0 Add a 4 corners polygon primitive as box body*
4,1,4,$2,$3,$4,$5,$6,$7,$8,$9,$2,$3,0*
0 Add four circle primitives for the rounded corners*
1,1,$1+$1,$2,$3*
1,1,$1+$1,$4,$5*
1,1,$1+$1,$6,$7*
1,1,$1+$1,$8,$9*
0 Add four rect primitives between the rounded corners*
20,1,$1+$1,$2,$3,$4,$5,0*
20,1,$1+$1,$4,$5,$6,$7,0*
20,1,$1+$1,$6,$7,$8,$9,0*
20,1,$1+$1,$8,$9,$2,$3,0*%
G04 Aperture macros list end*
%TA.AperFunction,SMDPad,CuDef*%
%ADD10R,2.540000X3.510000*%
%TD*%
%TA.AperFunction,SMDPad,CuDef*%
%ADD11RoundRect,0.150000X0.200000X-0.150000X0.200000X0.150000X-0.200000X0.150000X-0.200000X-0.150000X0*%
%TD*%
%TA.AperFunction,ComponentPad*%
%ADD12C,1.905000*%
%TD*%
%TA.AperFunction,ComponentPad*%
%ADD13C,1.500000*%
%TD*%
%TA.AperFunction,ComponentPad*%
%ADD14R,2.400000X2.400000*%
%TD*%
%TA.AperFunction,ComponentPad*%
%ADD15C,2.400000*%
%TD*%
%TA.AperFunction,ComponentPad*%
%ADD16R,1.000000X1.000000*%
%TD*%
%TA.AperFunction,ComponentPad*%
%ADD17O,1.000000X1.000000*%
%TD*%
%TA.AperFunction,HeatsinkPad*%
%ADD18R,0.900000X0.900000*%
%TD*%
%TA.AperFunction,HeatsinkPad*%
%ADD19R,0.880000X0.900000*%
%TD*%
%TA.AperFunction,SMDPad,CuDef*%
%ADD20R,0.900000X1.500000*%
%TD*%
%TA.AperFunction,SMDPad,CuDef*%
%ADD21RoundRect,0.250000X0.350000X0.450000X-0.350000X0.450000X-0.350000X-0.450000X0.350000X-0.450000X0*%
%TD*%
%TA.AperFunction,SMDPad,CuDef*%
%ADD22RoundRect,0.250000X-1.500000X-0.900000X1.500000X-0.900000X1.500000X0.900000X-1.500000X0.900000X0*%
%TD*%
%TA.AperFunction,ViaPad*%
%ADD23C,0.500000*%
%TD*%
%TA.AperFunction,Conductor*%
%ADD24C,0.150000*%
%TD*%
%TA.AperFunction,Conductor*%
%ADD25C,0.300000*%
%TD*%
G04 APERTURE END LIST*
D10*
%TO.P,BT1,1,+*%
%TO.N,Net-(#FLG03-pwr)*%
X148816199Y-108661199D03*
%TO.P,BT1,2,-*%
%TO.N,GND*%
X119456199Y-108661199D03*
%TD*%
D11*
%TO.P,D9,1,A1*%
%TO.N,GND*%
X147828000Y-97725000D03*
%TO.P,D9,2,A2*%
%TO.N,/SPICLK*%
X147828000Y-99125000D03*
%TD*%
D12*
%TO.P,K1,1*%
%TO.N,Net-(D2-A)*%
X145791000Y-87107000D03*
%TO.P,K1,4*%
%TO.N,unconnected-(K1-Pad4)*%
X145791000Y-79487000D03*
%TO.P,K1,6*%
%TO.N,unconnected-(K1-Pad6)*%
X145791000Y-74407000D03*
%TO.P,K1,8*%
%TO.N,unconnected-(K1-Pad8)*%
X145791000Y-69327000D03*
%TO.P,K1,9*%
%TO.N,Net-(J3-Pin_3)*%
X138171000Y-69327000D03*
%TO.P,K1,11*%
%TO.N,Net-(J3-Pin_2)*%
X138171000Y-74407000D03*
%TO.P,K1,13*%
%TO.N,Net-(J3-Pin_1)*%
X138171000Y-79487000D03*
%TO.P,K1,16*%
%TO.N,+5V*%
X138171000Y-87107000D03*
%TD*%
D13*
%TO.P,F1,1*%
%TO.N,Net-(D1-Pad4)*%
X153670000Y-111760000D03*
%TO.P,F1,2*%
%TO.N,Net-(J1-Pin_2)*%
X158750000Y-111760000D03*
%TD*%
D14*
%TO.P,J1,1,Pin_1*%
%TO.N,Net-(J1-Pin_1)*%
X165869999Y-98959999D03*
D15*
%TO.P,J1,2,Pin_2*%
%TO.N,Net-(J1-Pin_2)*%
X165870000Y-95460000D03*
%TD*%
D14*
%TO.P,J6,1,Pin_1*%
%TO.N,+3V3*%
X165869999Y-91949999D03*
D15*
%TO.P,J6,2,Pin_2*%
%TO.N,/~{S1_INPUT}*%
X165870000Y-88450000D03*
%TO.P,J6,3,Pin_3*%
%TO.N,/~{S2_INPUT}*%
X165870000Y-84950000D03*
%TO.P,J6,4,Pin_4*%
%TO.N,/S1_RED*%
X165870000Y-81450000D03*
%TO.P,J6,5,Pin_5*%
%TO.N,/S1_GREEN*%
X165870000Y-77950000D03*
%TO.P,J6,6,Pin_6*%
%TO.N,/S2_RED*%
X165870000Y-74450000D03*
%TO.P,J6,7,Pin_7*%
%TO.N,/S2_GREEN*%
X165870000Y-70950000D03*
%TO.P,J6,8,Pin_8*%
%TO.N,GND*%
X165870000Y-67450000D03*
%TD*%
D16*
%TO.P,J4,1,Pin_1*%
%TO.N,GND*%
X147827999Y-94868999D03*
D17*
%TO.P,J4,2,Pin_2*%
%TO.N,unconnected-(J4-Pin_2-Pad2)*%
X147827999Y-93598999D03*
%TO.P,J4,3,Pin_3*%
%TO.N,Net-(J4-Pin_3)*%
X147827999Y-92328999D03*
%TO.P,J4,4,Pin_4*%
%TO.N,Net-(J4-Pin_4)*%
X147827999Y-91058999D03*
%TD*%
D14*
%TO.P,J2,1,Pin_1*%
%TO.N,Net-(J2-Pin_1)*%
X134879999Y-63439999D03*
D15*
%TO.P,J2,2,Pin_2*%
%TO.N,Net-(J2-Pin_2)*%
X131380000Y-63440000D03*
%TD*%
D14*
%TO.P,J3,1,Pin_1*%
%TO.N,Net-(J3-Pin_1)*%
X145429999Y-63439999D03*
D15*
%TO.P,J3,2,Pin_2*%
%TO.N,Net-(J3-Pin_2)*%
X141930000Y-63440000D03*
%TO.P,J3,3,Pin_3*%
%TO.N,Net-(J3-Pin_3)*%
X138430000Y-63440000D03*
%TD*%
D11*
%TO.P,D11,1,A1*%
%TO.N,GND*%
X150876000Y-97725000D03*
%TO.P,D11,2,A2*%
%TO.N,/SPICS*%
X150876000Y-99125000D03*
%TD*%
%TO.P,D10,1,A1*%
%TO.N,GND*%
X149352000Y-97725000D03*
%TO.P,D10,2,A2*%
%TO.N,/SPIMOSI*%
X149352000Y-99125000D03*
%TD*%
%TO.P,D12,1,A1*%
%TO.N,GND*%
X152400000Y-97725000D03*
%TO.P,D12,2,A2*%
%TO.N,Net-(D12-A2)*%
X152400000Y-99125000D03*
%TD*%
D18*
%TO.P,U6,*%
%TO.N,*%
X118809999Y-83889999D03*
X118809999Y-85289999D03*
X118809999Y-86689999D03*
X120209999Y-83889999D03*
X120209999Y-85289999D03*
X120209999Y-86689999D03*
D19*
X121589999Y-85299999D03*
D18*
X121609999Y-83899999D03*
X121609999Y-86699999D03*
D20*
%TO.P,U6,1,GND1*%
%TO.N,GND*%
X112419999Y-77879999D03*
%TO.P,U6,2,3V3*%
%TO.N,+3V3*%
X113689999Y-77879999D03*
%TO.P,U6,3,EN*%
%TO.N,Net-(U6-EN)*%
X114959999Y-77879999D03*
%TO.P,U6,4,IO36*%
%TO.N,Net-(U6-IO36)*%
X116229999Y-77879999D03*
%TO.P,U6,5,IO39*%
%TO.N,Net-(U6-IO39)*%
X117499999Y-77879999D03*
%TO.P,U6,6,IO34*%
%TO.N,unconnected-(U6-IO34-Pad6)*%
X118769999Y-77879999D03*
%TO.P,U6,7,IO35*%
%TO.N,Net-(D4-A2)*%
X120039999Y-77879999D03*
%TO.P,U6,8,IO32*%
%TO.N,/LRCLK*%
X121309999Y-77879999D03*
%TO.P,U6,9,IO33*%
%TO.N,/DOUT*%
X122579999Y-77879999D03*
%TO.P,U6,10,IO25*%
%TO.N,Net-(U6-IO25)*%
X123849999Y-77879999D03*
%TO.P,U6,11,IO26*%
%TO.N,/SPICS*%
X125119999Y-77879999D03*
%TO.P,U6,12,IO27*%
%TO.N,/~{SD_MODE}*%
X126389999Y-77879999D03*
%TO.P,U6,13,IO14*%
%TO.N,/SPIMOSI*%
X127659999Y-77879999D03*
%TO.P,U6,14,IO12*%
%TO.N,Net-(U6-IO12)*%
X128929999Y-77879999D03*
%TO.P,U6,15,GND2*%
%TO.N,GND*%
X130199999Y-77879999D03*
%TO.P,U6,16,IO13*%
%TO.N,/SPIMISO*%
X131469999Y-77879999D03*
%TO.P,U6,17,IO9*%
%TO.N,unconnected-(U6-IO9-Pad17)*%
X132739999Y-77879999D03*
%TO.P,U6,18,IO10*%
%TO.N,unconnected-(U6-IO10-Pad18)*%
X134009999Y-77879999D03*
%TO.P,U6,19,IO11*%
%TO.N,unconnected-(U6-IO11-Pad19)*%
X135279999Y-77879999D03*
%TO.P,U6,20,IO6*%
%TO.N,unconnected-(U6-IO6-Pad20)*%
X135279999Y-95659999D03*
%TO.P,U6,21,IO7*%
%TO.N,unconnected-(U6-IO7-Pad21)*%
X134009999Y-95659999D03*
%TO.P,U6,22,IO8*%
%TO.N,unconnected-(U6-IO8-Pad22)*%
X132739999Y-95659999D03*
%TO.P,U6,23,IO15*%
%TO.N,/SPICLK*%
X131469999Y-95659999D03*
%TO.P,U6,24,IO2*%
%TO.N,unconnected-(U6-IO2-Pad24)*%
X130199999Y-95659999D03*
%TO.P,U6,25,IO0*%
%TO.N,/BCLK*%
X128929999Y-95659999D03*
%TO.P,U6,26,IO4*%
%TO.N,/SCL*%
X127659999Y-95659999D03*
%TO.P,U6,27,NC1*%
%TO.N,unconnected-(U6-NC1-Pad27)*%
X126389999Y-95659999D03*
%TO.P,U6,28,NC2*%
%TO.N,unconnected-(U6-NC2-Pad28)*%
X125119999Y-95659999D03*
%TO.P,U6,29,IO5*%
%TO.N,/SDA*%
X123849999Y-95659999D03*
%TO.P,U6,30,IO18*%
%TO.N,Net-(U6-IO18)*%
X122579999Y-95659999D03*
%TO.P,U6,31,IO19*%
%TO.N,Net-(U6-IO19)*%
X121309999Y-95659999D03*
%TO.P,U6,32,NC3*%
%TO.N,unconnected-(U6-NC3-Pad32)*%
X120039999Y-95659999D03*
%TO.P,U6,33,IO21*%
%TO.N,Net-(U6-IO21)*%
X118769999Y-95659999D03*
%TO.P,U6,34,RXD0*%
%TO.N,Net-(U5-R1OUT)*%
X117499999Y-95659999D03*
%TO.P,U6,35,TXD0*%
%TO.N,Net-(U5-T1IN)*%
X116229999Y-95659999D03*
%TO.P,U6,36,IO22*%
%TO.N,Net-(U6-IO22)*%
X114959999Y-95659999D03*
%TO.P,U6,37,IO23*%
%TO.N,Net-(U6-IO23)*%
X113689999Y-95659999D03*
%TO.P,U6,38,GND3*%
%TO.N,GND*%
X112419999Y-95659999D03*
%TD*%
D11*
%TO.P,D5,1,A1*%
%TO.N,GND*%
X144780000Y-97725000D03*
%TO.P,D5,2,A2*%
%TO.N,Net-(D5-A2)*%
X144780000Y-99125000D03*
%TD*%
D21*
%TO.P,R5,1*%
%TO.N,+3V3*%
X125841000Y-97917000D03*
%TO.P,R5,2*%
%TO.N,/SDA*%
X123841000Y-97917000D03*
%TD*%
D11*
%TO.P,D6,1,A1*%
%TO.N,GND*%
X146304000Y-97725000D03*
%TO.P,D6,2,A2*%
%TO.N,/SPIMISO*%
X146304000Y-99125000D03*
%TD*%
D22*
%TO.P,D2,1,K*%
%TO.N,+5V*%
X139314000Y-83297000D03*
%TO.P,D2,2,A*%
%TO.N,Net-(D2-A)*%
X144714000Y-83297000D03*
%TD*%
D23*
%TO.N,Net-(#FLG03-pwr)*%
X160756600Y-62357000D03*
%TO.N,/SCL*%
X131191000Y-101041200D03*
%TO.N,+3V3*%
X137160000Y-96266000D03*
%TO.N,Net-(U5-T1IN)*%
X139522200Y-94310200D03*
X137972800Y-94310200D03*
X122250200Y-88620600D03*
%TO.N,Net-(U6-IO39)*%
X119938800Y-81991200D03*
%TO.N,Net-(U6-IO36)*%
X119938800Y-82931000D03*
%TO.N,Net-(U5-R1OUT)*%
X122250200Y-89408000D03*
X130708400Y-89408000D03*
%TO.N,Net-(U5-VS-)*%
X137160000Y-94294000D03*
%TO.N,Net-(U5-R1OUT)*%
X140106400Y-93649800D03*
%TO.N,Net-(U5-VS+)*%
X131800600Y-85394800D03*
X136855200Y-91694000D03*
%TO.N,/SPIMISO*%
X131470400Y-79349600D03*
X134721600Y-82118200D03*
X135153400Y-89204800D03*
%TO.N,+3V3*%
X138733100Y-96088200D03*
%TO.N,/SPICS*%
X130802595Y-103261500D03*
%TO.N,GND*%
X128143000Y-117856000D03*
X133553200Y-117449600D03*
%TO.N,+3V3*%
X127027039Y-97202307D03*
%TO.N,/SPICS*%
X123901200Y-93537700D03*
%TO.N,Net-(U6-IO25)*%
X122834400Y-93537700D03*
%TO.N,Net-(D2-A)*%
X143281400Y-80543400D03*
%TO.N,+3V3*%
X159394400Y-79264000D03*
%TO.N,/~{SD_MODE}*%
X123393200Y-67970400D03*
%TO.N,/DOUT*%
X121376100Y-64236600D03*
%TO.N,/LRCLK*%
X124333000Y-62687200D03*
%TO.N,/SPICLK*%
X137508600Y-100981400D03*
%TO.N,/SPICS*%
X142422500Y-100893500D03*
%TO.N,Net-(D12-A2)*%
X144290800Y-101422200D03*
%TO.N,/SPIMOSI*%
X142062200Y-100050600D03*
%TO.N,/SPICLK*%
X139674600Y-100076000D03*
%TO.N,/SPIMISO*%
X137261600Y-100050600D03*
%TO.N,Net-(D5-A2)*%
X134823200Y-100025200D03*
%TO.N,Net-(U5-VS-)*%
X145313400Y-95351600D03*
%TO.N,GND*%
X145313400Y-93726000D03*
X139877800Y-91694000D03*
%TO.N,Net-(U6-EN)*%
X115189000Y-80772000D03*
%TO.N,/SPIMOSI*%
X127660000Y-79349600D03*
%TO.N,+3V3*%
X140182600Y-96088200D03*
%TO.N,Net-(U6-IO12)*%
X128930400Y-68427600D03*
%TO.N,GND*%
X126161800Y-64490600D03*
%TO.N,/BCLK*%
X129006600Y-87045800D03*
%TO.N,Net-(D4-A2)*%
X122834400Y-92760800D03*
%TO.N,Net-(U6-IO18)*%
X122580400Y-107594400D03*
%TO.N,Net-(U6-IO19)*%
X120624600Y-104622600D03*
%TO.N,Net-(U6-IO22)*%
X122961400Y-113436400D03*
%TO.N,Net-(U6-IO23)*%
X119862600Y-112547400D03*
%TO.N,GND*%
X147777200Y-72872600D03*
%TO.N,Net-(U4-~{RST})*%
X153619200Y-66954400D03*
%TO.N,Net-(U6-IO21)*%
X146888200Y-110642400D03*
%TO.N,Net-(U4-~{RST})*%
X129590800Y-92964000D03*
%TO.N,/SCL*%
X160756600Y-59817000D03*
%TO.N,/SDA*%
X156946600Y-62128400D03*
%TO.N,/S2_GREEN*%
X122809000Y-111455200D03*
%TO.N,/S2_RED*%
X121539000Y-110921800D03*
%TO.N,+3V3*%
X158090000Y-82550000D03*
%TO.N,/S1_GREEN*%
X122961400Y-114554000D03*
%TO.N,+VDC*%
X159893000Y-101015800D03*
%TO.N,/S1_RED*%
X126644400Y-114554000D03*
%TO.N,+VDC*%
X163398200Y-101015800D03*
%TO.N,GND*%
X165481000Y-103149400D03*
%TO.N,+VDC*%
X167741600Y-104140000D03*
%TO.N,Net-(D1-Pad4)*%
X157988000Y-95707200D03*
%TO.N,Net-(J1-Pin_1)*%
X159639000Y-91694000D03*
%TO.N,+5V*%
X125399800Y-69596000D03*
X125399800Y-66929000D03*
%TO.N,+3V3*%
X138607800Y-101422200D03*
X129844800Y-107594400D03*
%TO.N,+5V*%
X153466800Y-87401400D03*
%TO.N,+3V3*%
X153898600Y-59029600D03*
X152120600Y-61087000D03*
%TO.N,+VDC*%
X155981400Y-99568000D03*
X157962600Y-99568000D03*
X153771600Y-91694000D03*
X155981400Y-78689200D03*
X153568400Y-77241400D03*
%TO.N,+5V*%
X156413200Y-74904600D03*
X153568400Y-74904600D03*
X149098000Y-76454000D03*
%TO.N,GND*%
X120751600Y-87960200D03*
X151790400Y-67437000D03*
X149854000Y-100787200D03*
X118160800Y-90728800D03*
X120751600Y-69596000D03*
X151790400Y-71247000D03*
X131318000Y-106807000D03*
X150393400Y-80010000D03*
X114833400Y-74930000D03*
X123317000Y-62661800D03*
X158064200Y-64897000D03*
X114833400Y-86614000D03*
X130200400Y-79349600D03*
X158064200Y-63627000D03*
X130200400Y-70739000D03*
X151790400Y-66167000D03*
X158064200Y-67437000D03*
X150393400Y-82804000D03*
X132842000Y-87757000D03*
X150876000Y-96901000D03*
X117983000Y-103886000D03*
X155473400Y-104140000D03*
X125450600Y-91998800D03*
X130200400Y-73736200D03*
X147828000Y-96901000D03*
X146304000Y-96901000D03*
X144780000Y-96901000D03*
X152400000Y-96901000D03*
X152984200Y-80010000D03*
X133273800Y-105170900D03*
X158064200Y-68707000D03*
X145821400Y-116230400D03*
X119380000Y-106502200D03*
X120751600Y-80899000D03*
X143484600Y-105181400D03*
X151790400Y-81483200D03*
X152400000Y-95250000D03*
X136398000Y-105181400D03*
X149885400Y-117373400D03*
X120751600Y-65024000D03*
X129286000Y-112649000D03*
X112420400Y-94183200D03*
X112420400Y-79781400D03*
X150876000Y-94234000D03*
X151790400Y-64897000D03*
X160731200Y-106959400D03*
X123875800Y-103886000D03*
X149352000Y-96901000D03*
X128524000Y-90500200D03*
X158064200Y-58089800D03*
X153873200Y-72136000D03*
X158064200Y-66167000D03*
%TO.N,+3V3*%
X145186400Y-89941400D03*
X134366000Y-84404200D03*
X113690400Y-79730600D03*
X119811800Y-74930000D03*
X153466800Y-85115400D03*
X141325600Y-89941400D03*
X125933200Y-80899000D03*
X115189000Y-79730600D03*
X118262400Y-87960200D03*
%TD*%
D24*
%TO.N,Net-(#FLG03-pwr)*%
X160756600Y-62357000D02*
X160756600Y-101676200D01*
X160756600Y-101676200D02*
X155467200Y-106965600D01*
X155467200Y-106965600D02*
X155467200Y-108184800D01*
X155467200Y-108184800D02*
X154990800Y-108661200D01*
X154990800Y-108661200D02*
X148816200Y-108661200D01*
%TO.N,/S1_RED*%
X126644400Y-114554000D02*
X155397200Y-114554000D01*
X155397200Y-114554000D02*
X156667200Y-113284000D01*
X156667200Y-107462656D02*
X161956600Y-102173256D01*
X161956600Y-85363400D02*
X165870000Y-81450000D01*
X161956600Y-102173256D02*
X161956600Y-85363400D01*
X156667200Y-113284000D02*
X156667200Y-107462656D01*
%TO.N,/S1_GREEN*%
X165870000Y-77995400D02*
X161656600Y-82208800D01*
X155272936Y-114254000D02*
X127182600Y-114254000D01*
X127182600Y-114254000D02*
X126517400Y-113588800D01*
X161656600Y-82208800D02*
X161656600Y-102048992D01*
X165870000Y-77950000D02*
X165870000Y-77995400D01*
X156367200Y-113159736D02*
X155272936Y-114254000D01*
X156367200Y-107338392D02*
X156367200Y-113159736D01*
X161656600Y-102048992D02*
X156367200Y-107338392D01*
X126517400Y-113588800D02*
X123901200Y-113588800D01*
X123901200Y-113588800D02*
X122961400Y-114528600D01*
X122961400Y-114528600D02*
X122961400Y-114554000D01*
%TO.N,/S2_RED*%
X165870000Y-74450000D02*
X161356600Y-78963400D01*
X161356600Y-78963400D02*
X161356600Y-101924728D01*
X161356600Y-101924728D02*
X156067200Y-107214128D01*
X156067200Y-107214128D02*
X156067200Y-113035472D01*
X155148672Y-113954000D02*
X127306864Y-113954000D01*
X156067200Y-113035472D02*
X155148672Y-113954000D01*
X127306864Y-113954000D02*
X126641664Y-113288800D01*
X126641664Y-113288800D02*
X123926600Y-113288800D01*
X123926600Y-113288800D02*
X121559600Y-110921800D01*
X121559600Y-110921800D02*
X121539000Y-110921800D01*
%TO.N,/S2_GREEN*%
X161056600Y-75763400D02*
X161056600Y-101800464D01*
X161056600Y-101800464D02*
X155767200Y-107089864D01*
X155767200Y-112911208D02*
X155024408Y-113654000D01*
X127431128Y-113654000D02*
X126765928Y-112988800D01*
X155767200Y-107089864D02*
X155767200Y-112911208D01*
X165870000Y-70950000D02*
X161056600Y-75763400D01*
X155024408Y-113654000D02*
X127431128Y-113654000D01*
X126765928Y-112988800D02*
X124317200Y-112988800D01*
X124317200Y-112988800D02*
X122809000Y-111480600D01*
X122809000Y-111480600D02*
X122809000Y-111455200D01*
%TO.N,/SCL*%
X160020000Y-59817000D02*
X153111200Y-66725800D01*
X127660000Y-87597464D02*
X127660000Y-95660000D01*
X153111200Y-68140664D02*
X149492064Y-71759800D01*
X160756600Y-59817000D02*
X160020000Y-59817000D01*
X153111200Y-66725800D02*
X153111200Y-68140664D01*
X149492064Y-71759800D02*
X145072464Y-71759800D01*
X145072464Y-71759800D02*
X139900464Y-76931800D01*
X139900464Y-76931800D02*
X138325664Y-76931800D01*
X138325664Y-76931800D02*
X127660000Y-87597464D01*
%TO.N,Net-(U5-T1IN)*%
X137972800Y-94310200D02*
X139522200Y-94310200D01*
%TO.N,Net-(U6-IO19)*%
X120624600Y-104622600D02*
X119070000Y-103068000D01*
X119070000Y-99314000D02*
X121310000Y-97074000D01*
X119070000Y-103068000D02*
X119070000Y-99314000D01*
X121310000Y-97074000D02*
X121310000Y-95660000D01*
%TO.N,Net-(U5-VS-)*%
X145313400Y-95351600D02*
X144780000Y-94818200D01*
X144780000Y-94818200D02*
X137684200Y-94818200D01*
X137684200Y-94818200D02*
X137160000Y-94294000D01*
%TO.N,Net-(U6-IO36)*%
X119938800Y-82931000D02*
X117906800Y-82931000D01*
X117906800Y-82931000D02*
X116230000Y-81254200D01*
X116230000Y-81254200D02*
X116230000Y-77880000D01*
%TO.N,Net-(U6-IO39)*%
X119938800Y-81991200D02*
X117500000Y-79552400D01*
X117500000Y-79552400D02*
X117500000Y-77880000D01*
%TO.N,Net-(U5-R1OUT)*%
X140106400Y-93649800D02*
X137083800Y-93649800D01*
X134094136Y-93980000D02*
X130708400Y-90594264D01*
X137083800Y-93649800D02*
X136753600Y-93980000D01*
X136753600Y-93980000D02*
X134094136Y-93980000D01*
X130708400Y-90594264D02*
X130708400Y-89408000D01*
%TO.N,Net-(U5-T1IN)*%
X116230000Y-95660000D02*
X116230000Y-94640800D01*
X116230000Y-94640800D02*
X122250200Y-88620600D01*
%TO.N,Net-(D4-A2)*%
X122834400Y-92760800D02*
X122834400Y-82880200D01*
X122834400Y-82880200D02*
X122351800Y-82397600D01*
X121132600Y-82397600D02*
X120026600Y-81291600D01*
X122351800Y-82397600D02*
X121132600Y-82397600D01*
X120026600Y-81291600D02*
X120026600Y-77893400D01*
X120026600Y-77893400D02*
X120040000Y-77880000D01*
%TO.N,Net-(U4-~{RST})*%
X129590800Y-86090928D02*
X138449928Y-77231800D01*
X145196728Y-72059800D02*
X149616328Y-72059800D01*
X129590800Y-92964000D02*
X129590800Y-86090928D01*
X140024728Y-77231800D02*
X145196728Y-72059800D01*
X138449928Y-77231800D02*
X140024728Y-77231800D01*
X153411200Y-67162400D02*
X153619200Y-66954400D01*
X149616328Y-72059800D02*
X153411200Y-68264928D01*
X153411200Y-68264928D02*
X153411200Y-67162400D01*
%TO.N,Net-(U5-R1OUT)*%
X117500000Y-94158200D02*
X122250200Y-89408000D01*
X117500000Y-95660000D02*
X117500000Y-94158200D01*
%TO.N,Net-(U5-VS+)*%
X136855200Y-91694000D02*
X132232400Y-91694000D01*
X131800600Y-91262200D02*
X131800600Y-85394800D01*
X132232400Y-91694000D02*
X131800600Y-91262200D01*
%TO.N,/SPIMISO*%
X135153400Y-89204800D02*
X135153400Y-82550000D01*
X135153400Y-82550000D02*
X134721600Y-82118200D01*
X131470400Y-79349600D02*
X131470400Y-77880400D01*
X131470400Y-77880400D02*
X131470000Y-77880000D01*
%TO.N,/SPICS*%
X142422500Y-100893500D02*
X142422500Y-100909500D01*
X142422500Y-100909500D02*
X138785600Y-104546400D01*
X138785600Y-104546400D02*
X131546600Y-104546400D01*
X131546600Y-104546400D02*
X130802595Y-103802395D01*
X130802595Y-103802395D02*
X130802595Y-103261500D01*
D25*
%TO.N,+3V3*%
X125841000Y-97917000D02*
X126822200Y-97917000D01*
X127027039Y-97712161D02*
X127027039Y-97202307D01*
X126822200Y-97917000D02*
X127027039Y-97712161D01*
D24*
%TO.N,/SPICS*%
X123901200Y-90474800D02*
X123901200Y-93537700D01*
X125120000Y-89256000D02*
X123901200Y-90474800D01*
X125120000Y-77880000D02*
X125120000Y-89256000D01*
%TO.N,/SDA*%
X156946600Y-62128400D02*
X156946600Y-62466136D01*
X156946600Y-62466136D02*
X152811200Y-66601536D01*
X149367800Y-71459800D02*
X144948200Y-71459800D01*
X152811200Y-68016400D02*
X149367800Y-71459800D01*
X152811200Y-66601536D02*
X152811200Y-68016400D01*
X144948200Y-71459800D02*
X139776200Y-76631800D01*
X139776200Y-76631800D02*
X138201400Y-76631800D01*
X138201400Y-76631800D02*
X124536200Y-90297000D01*
X123850000Y-94412200D02*
X123850000Y-95660000D01*
X124536200Y-90297000D02*
X124536200Y-93726000D01*
X124536200Y-93726000D02*
X123850000Y-94412200D01*
%TO.N,Net-(U6-IO25)*%
X122834400Y-93537700D02*
X122834400Y-93522800D01*
X122834400Y-93522800D02*
X123418600Y-92938600D01*
X123418600Y-92938600D02*
X123418600Y-83210400D01*
X123418600Y-83210400D02*
X123850000Y-82779000D01*
X123850000Y-82779000D02*
X123850000Y-77880000D01*
%TO.N,/LRCLK*%
X121310000Y-77880000D02*
X121310000Y-73659600D01*
X124002800Y-63728600D02*
X124333000Y-63398400D01*
X121310000Y-73659600D02*
X119608600Y-71958200D01*
X119608600Y-71958200D02*
X119608600Y-64396536D01*
X119608600Y-64396536D02*
X120276536Y-63728600D01*
X120276536Y-63728600D02*
X124002800Y-63728600D01*
X124333000Y-63398400D02*
X124333000Y-62687200D01*
%TO.N,Net-(D2-A)*%
X144714000Y-83297000D02*
X144714000Y-86030000D01*
X144714000Y-86030000D02*
X145791000Y-87107000D01*
%TO.N,/SPIMISO*%
X146304000Y-99125000D02*
X145664000Y-99765000D01*
X145664000Y-99765000D02*
X144055064Y-99765000D01*
X143532664Y-99242600D02*
X138069600Y-99242600D01*
X144055064Y-99765000D02*
X143532664Y-99242600D01*
X138069600Y-99242600D02*
X137261600Y-100050600D01*
%TO.N,/SPICLK*%
X147828000Y-99125000D02*
X146888000Y-100065000D01*
X146888000Y-100065000D02*
X143930800Y-100065000D01*
X143930800Y-100065000D02*
X143408400Y-99542600D01*
X140208000Y-99542600D02*
X139674600Y-100076000D01*
X143408400Y-99542600D02*
X140208000Y-99542600D01*
%TO.N,Net-(D12-A2)*%
X152400000Y-99125000D02*
X151423600Y-100101400D01*
X151423600Y-100101400D02*
X149235328Y-100101400D01*
X149235328Y-100101400D02*
X148371728Y-100965000D01*
X148371728Y-100965000D02*
X144748000Y-100965000D01*
X144748000Y-100965000D02*
X144290800Y-101422200D01*
%TO.N,/SPICS*%
X150876000Y-99125000D02*
X150204400Y-99796600D01*
X150204400Y-99796600D02*
X149115864Y-99796600D01*
X148247464Y-100665000D02*
X142651000Y-100665000D01*
X149115864Y-99796600D02*
X148247464Y-100665000D01*
X142651000Y-100665000D02*
X142422500Y-100893500D01*
%TO.N,/SPIMOSI*%
X149352000Y-99125000D02*
X149352000Y-99136200D01*
X149352000Y-99136200D02*
X148123200Y-100365000D01*
X148123200Y-100365000D02*
X142376600Y-100365000D01*
X142376600Y-100365000D02*
X142062200Y-100050600D01*
%TO.N,/BCLK*%
X128930000Y-95660000D02*
X128930000Y-91119505D01*
X129249000Y-90800505D02*
X129249000Y-90107600D01*
X129249000Y-90107600D02*
X128981200Y-89839800D01*
X128981200Y-89839800D02*
X128981200Y-87071200D01*
X128930000Y-91119505D02*
X129249000Y-90800505D01*
X128981200Y-87071200D02*
X129006600Y-87045800D01*
%TO.N,Net-(D2-A)*%
X143281400Y-80543400D02*
X144221200Y-80543400D01*
X144714000Y-81036200D02*
X144714000Y-83297000D01*
X144221200Y-80543400D02*
X144714000Y-81036200D01*
%TO.N,/~{SD_MODE}*%
X126390000Y-77880000D02*
X126390000Y-68681200D01*
X126390000Y-68681200D02*
X125679200Y-67970400D01*
X125679200Y-67970400D02*
X123393200Y-67970400D01*
%TO.N,/DOUT*%
X122580000Y-77880000D02*
X122580000Y-74505336D01*
X122580000Y-74505336D02*
X119908600Y-71833936D01*
X119908600Y-71833936D02*
X119908600Y-64520800D01*
X120192800Y-64236600D02*
X121376100Y-64236600D01*
X119908600Y-64520800D02*
X120192800Y-64236600D01*
%TO.N,/SPICLK*%
X131491000Y-95681000D02*
X131491000Y-99695000D01*
X131470000Y-95660000D02*
X131491000Y-95681000D01*
X131491000Y-99695000D02*
X132777400Y-100981400D01*
X132777400Y-100981400D02*
X137508600Y-100981400D01*
%TO.N,Net-(D5-A2)*%
X144780000Y-99125000D02*
X144768800Y-99136200D01*
X144768800Y-99136200D02*
X143850528Y-99136200D01*
X143850528Y-99136200D02*
X143656928Y-98942600D01*
X143656928Y-98942600D02*
X135905800Y-98942600D01*
X135905800Y-98942600D02*
X134823200Y-100025200D01*
%TO.N,Net-(U6-EN)*%
X114960000Y-77880000D02*
X114960000Y-78892800D01*
X114960000Y-78892800D02*
X114464000Y-79388800D01*
X114464000Y-79388800D02*
X114464000Y-80047000D01*
X114464000Y-80047000D02*
X115189000Y-80772000D01*
%TO.N,/SPIMOSI*%
X127660000Y-79349600D02*
X127660000Y-77880000D01*
%TO.N,Net-(U6-IO12)*%
X128930400Y-68427600D02*
X128930400Y-72212201D01*
X128930400Y-72212201D02*
X128930000Y-72212601D01*
X128930000Y-72212601D02*
X128930000Y-77880000D01*
%TO.N,/SDA*%
X123850000Y-95660000D02*
X123850000Y-97908000D01*
X123850000Y-97908000D02*
X123841000Y-97917000D01*
%TO.N,/SCL*%
X130556000Y-97129600D02*
X127939800Y-97129600D01*
X131191000Y-101041200D02*
X131191000Y-97764600D01*
X127939800Y-97129600D02*
X127660000Y-96849800D01*
X131191000Y-97764600D02*
X130556000Y-97129600D01*
X127660000Y-96849800D02*
X127660000Y-95660000D01*
%TO.N,Net-(U6-IO18)*%
X122580000Y-107594000D02*
X122580400Y-107594400D01*
X122580000Y-95660000D02*
X122580000Y-107594000D01*
%TO.N,Net-(U6-IO21)*%
X146888200Y-110642400D02*
X146888200Y-112801400D01*
X146335600Y-113354000D02*
X127555392Y-113354000D01*
X127555392Y-113354000D02*
X126890192Y-112688800D01*
X146888200Y-112801400D02*
X146335600Y-113354000D01*
X126890192Y-112688800D02*
X124779200Y-112688800D01*
X124779200Y-112688800D02*
X121564400Y-109474000D01*
X121564400Y-109474000D02*
X121564400Y-107086400D01*
X121564400Y-107086400D02*
X118770000Y-104292000D01*
X118770000Y-104292000D02*
X118770000Y-95660000D01*
%TO.N,Net-(U6-IO22)*%
X118508864Y-111937800D02*
X121462800Y-111937800D01*
X113990000Y-107418936D02*
X118508864Y-111937800D01*
X121462800Y-111937800D02*
X122961400Y-113436400D01*
X113990000Y-98044000D02*
X113990000Y-107418936D01*
X114960000Y-95660000D02*
X114960000Y-97074000D01*
X114960000Y-97074000D02*
X113990000Y-98044000D01*
%TO.N,Net-(U6-IO23)*%
X113690000Y-95660000D02*
X113690000Y-107543200D01*
X113690000Y-107543200D02*
X118694200Y-112547400D01*
X118694200Y-112547400D02*
X119862600Y-112547400D01*
D25*
%TO.N,+5V*%
X139314000Y-83297000D02*
X139314000Y-85964000D01*
X139314000Y-85964000D02*
X138171000Y-87107000D01*
%TO.N,GND*%
X147828000Y-97725000D02*
X147828000Y-96901000D01*
X130200000Y-79349200D02*
X130200400Y-79349600D01*
X152400000Y-97725000D02*
X152400000Y-96901000D01*
X149352000Y-97725000D02*
X149352000Y-96901000D01*
X112420000Y-77880000D02*
X112420000Y-79781000D01*
X130200000Y-77880000D02*
X130200000Y-79349200D01*
X144780000Y-97725000D02*
X144780000Y-96901000D01*
X119380000Y-108712000D02*
X119380000Y-106502200D01*
X146304000Y-97725000D02*
X146304000Y-96901000D01*
X112420000Y-79781000D02*
X112420400Y-79781400D01*
X112420000Y-94183600D02*
X112420400Y-94183200D01*
X112420000Y-95660000D02*
X112420000Y-94183600D01*
X150876000Y-97725000D02*
X150876000Y-96901000D01*
%TO.N,+3V3*%
X113690000Y-79730200D02*
X113690400Y-79730600D01*
X113690000Y-77880000D02*
X113690000Y-79730200D01*
%TD*%
M02*
