%TF.GenerationSoftware,KiCad,Pcbnew,(7.0.0-0)*%
%TF.CreationDate,2023-08-12T01:46:22+02:00*%
%TF.ProjectId,door_bell,646f6f72-5f62-4656-9c6c-2e6b69636164,rev?*%
%TF.SameCoordinates,Original*%
%TF.FileFunction,Soldermask,Top*%
%TF.FilePolarity,Negative*%
%FSLAX46Y46*%
G04 Gerber Fmt 4.6, Leading zero omitted, Abs format (unit mm)*
G04 Created by KiCad (PCBNEW (7.0.0-0)) date 2023-08-12 01:46:22*
%MOMM*%
%LPD*%
G01*
G04 APERTURE LIST*
G04 Aperture macros list*
%AMRoundRect*
0 Rectangle with rounded corners*
0 $1 Rounding radius*
0 $2 $3 $4 $5 $6 $7 $8 $9 X,Y pos of 4 corners*
0 Add a 4 corners polygon primitive as box body*
4,1,4,$2,$3,$4,$5,$6,$7,$8,$9,$2,$3,0*
0 Add four circle primitives for the rounded corners*
1,1,$1+$1,$2,$3*
1,1,$1+$1,$4,$5*
1,1,$1+$1,$6,$7*
1,1,$1+$1,$8,$9*
0 Add four rect primitives between the rounded corners*
20,1,$1+$1,$2,$3,$4,$5,0*
20,1,$1+$1,$4,$5,$6,$7,0*
20,1,$1+$1,$6,$7,$8,$9,0*
20,1,$1+$1,$8,$9,$2,$3,0*%
G04 Aperture macros list end*
%ADD10R,2.000000X1.500000*%
%ADD11R,0.800000X0.800000*%
%ADD12R,3.000000X1.500000*%
%ADD13R,3.048000X6.096000*%
%ADD14R,3.000000X3.800000*%
%ADD15RoundRect,0.250000X0.475000X-0.337500X0.475000X0.337500X-0.475000X0.337500X-0.475000X-0.337500X0*%
%ADD16RoundRect,0.250000X0.450000X-0.350000X0.450000X0.350000X-0.450000X0.350000X-0.450000X-0.350000X0*%
%ADD17R,0.700000X1.200000*%
%ADD18R,1.000000X0.800000*%
%ADD19R,1.000000X1.200000*%
%ADD20R,1.000000X2.800000*%
%ADD21R,1.300000X1.900000*%
%ADD22C,1.500000*%
%ADD23RoundRect,0.250000X-0.450000X0.350000X-0.450000X-0.350000X0.450000X-0.350000X0.450000X0.350000X0*%
%ADD24R,1.000000X1.000000*%
%ADD25O,1.000000X1.000000*%
%ADD26R,1.700000X1.200000*%
%ADD27RoundRect,0.250000X-0.475000X0.337500X-0.475000X-0.337500X0.475000X-0.337500X0.475000X0.337500X0*%
%ADD28R,2.400000X2.400000*%
%ADD29C,2.400000*%
%ADD30RoundRect,0.250000X1.500000X0.550000X-1.500000X0.550000X-1.500000X-0.550000X1.500000X-0.550000X0*%
%ADD31RoundRect,0.150000X-0.875000X-0.150000X0.875000X-0.150000X0.875000X0.150000X-0.875000X0.150000X0*%
%ADD32R,2.100000X1.400000*%
%ADD33RoundRect,0.250000X-0.337500X-0.475000X0.337500X-0.475000X0.337500X0.475000X-0.337500X0.475000X0*%
%ADD34RoundRect,0.250000X0.337500X0.475000X-0.337500X0.475000X-0.337500X-0.475000X0.337500X-0.475000X0*%
%ADD35RoundRect,0.150000X-0.150000X0.587500X-0.150000X-0.587500X0.150000X-0.587500X0.150000X0.587500X0*%
%ADD36R,2.300000X2.300000*%
%ADD37RoundRect,0.250000X-0.350000X-0.450000X0.350000X-0.450000X0.350000X0.450000X-0.350000X0.450000X0*%
%ADD38RoundRect,0.150000X-0.512500X-0.150000X0.512500X-0.150000X0.512500X0.150000X-0.512500X0.150000X0*%
%ADD39RoundRect,0.250000X0.450000X-0.325000X0.450000X0.325000X-0.450000X0.325000X-0.450000X-0.325000X0*%
%ADD40C,1.905000*%
%ADD41R,1.050000X0.450000*%
%ADD42R,1.230000X1.230000*%
%ADD43RoundRect,0.062500X-0.350000X-0.062500X0.350000X-0.062500X0.350000X0.062500X-0.350000X0.062500X0*%
%ADD44RoundRect,0.062500X-0.062500X-0.350000X0.062500X-0.350000X0.062500X0.350000X-0.062500X0.350000X0*%
%ADD45RoundRect,0.250000X0.350000X0.450000X-0.350000X0.450000X-0.350000X-0.450000X0.350000X-0.450000X0*%
%ADD46RoundRect,0.150000X-0.150000X-0.200000X0.150000X-0.200000X0.150000X0.200000X-0.150000X0.200000X0*%
G04 APERTURE END LIST*
D10*
%TO.C,U3*%
X151789999Y-82803999D03*
D11*
X151739999Y-85103999D03*
D12*
X152272999Y-85103999D03*
D11*
X152539999Y-85103999D03*
X153339999Y-85103999D03*
X154139999Y-82703999D03*
X154139999Y-83503999D03*
X154139999Y-84303999D03*
X154139999Y-85103999D03*
X154139999Y-85903999D03*
X154139999Y-86703999D03*
X154139999Y-87503999D03*
X154939999Y-82703999D03*
X154939999Y-83503999D03*
X154939999Y-84303999D03*
X154939999Y-85103999D03*
D13*
X154939999Y-85103999D03*
D11*
X154939999Y-85903999D03*
X154939999Y-86703999D03*
X154939999Y-87503999D03*
X155739999Y-82703999D03*
X155739999Y-83503999D03*
X155739999Y-84303999D03*
X155739999Y-85103999D03*
X155739999Y-85903999D03*
X155739999Y-86703999D03*
X155739999Y-87503999D03*
X156539999Y-84303999D03*
X156539999Y-85103999D03*
X156539999Y-85903999D03*
X157339999Y-84303999D03*
X157339999Y-85103999D03*
X157339999Y-85903999D03*
D14*
X157606999Y-85103999D03*
D11*
X158139999Y-84303999D03*
X158139999Y-85103999D03*
X158139999Y-85903999D03*
D10*
X151789999Y-87403999D03*
%TD*%
%TO.C,U1*%
X151789999Y-72629999D03*
D11*
X151739999Y-74929999D03*
D12*
X152272999Y-74929999D03*
D11*
X152539999Y-74929999D03*
X153339999Y-74929999D03*
X154139999Y-72529999D03*
X154139999Y-73329999D03*
X154139999Y-74129999D03*
X154139999Y-74929999D03*
X154139999Y-75729999D03*
X154139999Y-76529999D03*
X154139999Y-77329999D03*
X154939999Y-72529999D03*
X154939999Y-73329999D03*
X154939999Y-74129999D03*
X154939999Y-74929999D03*
D13*
X154939999Y-74929999D03*
D11*
X154939999Y-75729999D03*
X154939999Y-76529999D03*
X154939999Y-77329999D03*
X155739999Y-72529999D03*
X155739999Y-73329999D03*
X155739999Y-74129999D03*
X155739999Y-74929999D03*
X155739999Y-75729999D03*
X155739999Y-76529999D03*
X155739999Y-77329999D03*
X156539999Y-74129999D03*
X156539999Y-74929999D03*
X156539999Y-75729999D03*
X157339999Y-74129999D03*
X157339999Y-74929999D03*
X157339999Y-75729999D03*
D14*
X157606999Y-74929999D03*
D11*
X158139999Y-74129999D03*
X158139999Y-74929999D03*
X158139999Y-75729999D03*
D10*
X151789999Y-77229999D03*
%TD*%
D15*
%TO.C,C22*%
X150342600Y-108813600D03*
X150342600Y-106738600D03*
%TD*%
%TO.C,C21*%
X148107400Y-108813600D03*
X148107400Y-106738600D03*
%TD*%
D16*
%TO.C,R25*%
X160930000Y-85963000D03*
X160930000Y-83963000D03*
%TD*%
D17*
%TO.C,J5*%
X141908599Y-102799599D03*
X140808599Y-102799599D03*
X139708599Y-102799599D03*
X138608599Y-102799599D03*
X137508599Y-102799599D03*
X136408599Y-102799599D03*
X135308599Y-102799599D03*
X134208599Y-102799599D03*
X133258599Y-102799599D03*
D18*
X132308599Y-113299599D03*
D19*
X132308599Y-107099599D03*
D20*
X132308599Y-117449599D03*
D19*
X143458599Y-102799599D03*
D21*
X145808599Y-117899599D03*
%TD*%
D22*
%TO.C,F1*%
X153670000Y-111760000D03*
X158750000Y-111760000D03*
%TD*%
D23*
%TO.C,R21*%
X143256000Y-98060000D03*
X143256000Y-100060000D03*
%TD*%
%TO.C,R14*%
X125095000Y-112554000D03*
X125095000Y-114554000D03*
%TD*%
D24*
%TO.C,J4*%
X147827999Y-91058999D03*
D25*
X147827999Y-93598999D03*
X147827999Y-94868999D03*
%TD*%
D26*
%TO.C,D1*%
X152399999Y-91693999D03*
X157987999Y-91693999D03*
X152399999Y-94233999D03*
X157987999Y-94233999D03*
%TD*%
D23*
%TO.C,R13*%
X133604000Y-98044000D03*
X133604000Y-100044000D03*
%TD*%
D16*
%TO.C,R26*%
X160909000Y-81264000D03*
X160909000Y-79264000D03*
%TD*%
D23*
%TO.C,R12*%
X125095000Y-107585000D03*
X125095000Y-109585000D03*
%TD*%
D27*
%TO.C,C9*%
X130683000Y-84412000D03*
X130683000Y-86487000D03*
%TD*%
D28*
%TO.C,J1*%
X165869999Y-98959999D03*
D29*
X165870000Y-95460000D03*
%TD*%
D23*
%TO.C,R18*%
X136017000Y-98060000D03*
X136017000Y-100060000D03*
%TD*%
D30*
%TO.C,C2*%
X168916000Y-106959400D03*
X163316000Y-106959400D03*
%TD*%
D31*
%TO.C,U4*%
X150290000Y-59817000D03*
X150290000Y-61087000D03*
X150290000Y-62357000D03*
X150290000Y-63627000D03*
X150290000Y-64897000D03*
X150290000Y-66167000D03*
X150290000Y-67437000D03*
X150290000Y-68707000D03*
X159590000Y-68707000D03*
X159590000Y-67437000D03*
X159590000Y-66167000D03*
X159590000Y-64897000D03*
X159590000Y-63627000D03*
X159590000Y-62357000D03*
X159590000Y-61087000D03*
X159590000Y-59817000D03*
%TD*%
D32*
%TO.C,SW2*%
X125475999Y-104266999D03*
X116375999Y-104266999D03*
X125475999Y-99766999D03*
X116375999Y-99766999D03*
%TD*%
D33*
%TO.C,C5*%
X163406000Y-102235000D03*
X165481000Y-102235000D03*
%TD*%
D34*
%TO.C,C1*%
X155977500Y-80010000D03*
X153902500Y-80010000D03*
%TD*%
D27*
%TO.C,C12*%
X128524000Y-91821000D03*
X128524000Y-93896000D03*
%TD*%
D35*
%TO.C,Q1*%
X133985000Y-73738500D03*
X132085000Y-73738500D03*
X133035000Y-75613500D03*
%TD*%
D36*
%TO.C,D3*%
X159892999Y-104139999D03*
X159892999Y-99567999D03*
%TD*%
D37*
%TO.C,R2*%
X116221000Y-81788000D03*
X118221000Y-81788000D03*
%TD*%
D28*
%TO.C,J6*%
X165869999Y-91949999D03*
D29*
X165870000Y-88450000D03*
X165870000Y-84950000D03*
X165870000Y-81450000D03*
X165870000Y-77950000D03*
X165870000Y-74450000D03*
X165870000Y-70950000D03*
X165870000Y-67450000D03*
%TD*%
D23*
%TO.C,R22*%
X145669000Y-98044000D03*
X145669000Y-100044000D03*
%TD*%
D38*
%TO.C,U7*%
X122179500Y-79949000D03*
X122179500Y-80899000D03*
X122179500Y-81849000D03*
X124454500Y-81849000D03*
X124454500Y-80899000D03*
X124454500Y-79949000D03*
%TD*%
D23*
%TO.C,R4*%
X143764000Y-89932000D03*
X143764000Y-91932000D03*
%TD*%
D15*
%TO.C,C8*%
X149225000Y-85090000D03*
X149225000Y-83015000D03*
%TD*%
D23*
%TO.C,R16*%
X121539000Y-107585000D03*
X121539000Y-109585000D03*
%TD*%
D37*
%TO.C,R24*%
X122317000Y-76962000D03*
X124317000Y-76962000D03*
%TD*%
D34*
%TO.C,C15*%
X118258500Y-84582000D03*
X116183500Y-84582000D03*
%TD*%
D23*
%TO.C,R11*%
X148590000Y-110633000D03*
X148590000Y-112633000D03*
%TD*%
D37*
%TO.C,R23*%
X125111000Y-86487000D03*
X127111000Y-86487000D03*
%TD*%
D27*
%TO.C,C16*%
X132842000Y-91821000D03*
X132842000Y-93896000D03*
%TD*%
D37*
%TO.C,R8*%
X132035000Y-68453000D03*
X134035000Y-68453000D03*
%TD*%
D39*
%TO.C,D8*%
X129540000Y-117865000D03*
X129540000Y-115815000D03*
%TD*%
D23*
%TO.C,R10*%
X128524000Y-107585000D03*
X128524000Y-109585000D03*
%TD*%
D40*
%TO.C,K1*%
X145791000Y-87107000D03*
X145791000Y-79487000D03*
X145791000Y-74407000D03*
X145791000Y-69327000D03*
X138171000Y-69327000D03*
X138171000Y-74407000D03*
X138171000Y-79487000D03*
X138171000Y-87107000D03*
%TD*%
D27*
%TO.C,C6*%
X149098000Y-77935000D03*
X149098000Y-80010000D03*
%TD*%
D30*
%TO.C,C7*%
X154990800Y-100685600D03*
X149390800Y-100685600D03*
%TD*%
D39*
%TO.C,D7*%
X148590000Y-117865000D03*
X148590000Y-115815000D03*
%TD*%
D37*
%TO.C,R7*%
X116348000Y-71882000D03*
X118348000Y-71882000D03*
%TD*%
D41*
%TO.C,U5*%
X135781999Y-91043999D03*
X135781999Y-91693999D03*
X135781999Y-92343999D03*
X135781999Y-92993999D03*
X135781999Y-93643999D03*
X135781999Y-94293999D03*
X135781999Y-94943999D03*
X135781999Y-95593999D03*
X141331999Y-95593999D03*
X141331999Y-94943999D03*
X141331999Y-94293999D03*
X141331999Y-93643999D03*
X141331999Y-92993999D03*
X141331999Y-92343999D03*
X141331999Y-91693999D03*
X141331999Y-91043999D03*
%TD*%
D42*
%TO.C,U2*%
X123570999Y-65277999D03*
D43*
X122133500Y-64528000D03*
X122133500Y-65028000D03*
X122133500Y-65528000D03*
X122133500Y-66028000D03*
D44*
X122821000Y-66715500D03*
X123321000Y-66715500D03*
X123821000Y-66715500D03*
X124321000Y-66715500D03*
D43*
X125008500Y-66028000D03*
X125008500Y-65528000D03*
X125008500Y-65028000D03*
X125008500Y-64528000D03*
D44*
X124321000Y-63840500D03*
X123821000Y-63840500D03*
X123321000Y-63840500D03*
X122821000Y-63840500D03*
%TD*%
D23*
%TO.C,R17*%
X118110000Y-107585000D03*
X118110000Y-109585000D03*
%TD*%
D28*
%TO.C,J2*%
X134879999Y-63439999D03*
D29*
X131380000Y-63440000D03*
%TD*%
D45*
%TO.C,R9*%
X134051000Y-70739000D03*
X132051000Y-70739000D03*
%TD*%
D23*
%TO.C,R19*%
X138430000Y-98060000D03*
X138430000Y-100060000D03*
%TD*%
D34*
%TO.C,C19*%
X122830500Y-86487000D03*
X120755500Y-86487000D03*
%TD*%
D28*
%TO.C,J3*%
X145429999Y-63439999D03*
D29*
X141930000Y-63440000D03*
X138430000Y-63440000D03*
%TD*%
D27*
%TO.C,C13*%
X132842000Y-84412000D03*
X132842000Y-86487000D03*
%TD*%
D15*
%TO.C,C4*%
X149098000Y-74951500D03*
X149098000Y-72876500D03*
%TD*%
D23*
%TO.C,R15*%
X121539000Y-112554000D03*
X121539000Y-114554000D03*
%TD*%
D34*
%TO.C,C18*%
X118364000Y-74930000D03*
X116289000Y-74930000D03*
%TD*%
%TO.C,C3*%
X124469500Y-69596000D03*
X122394500Y-69596000D03*
%TD*%
%TO.C,C14*%
X155977500Y-57531000D03*
X153902500Y-57531000D03*
%TD*%
D16*
%TO.C,R1*%
X128778000Y-100060000D03*
X128778000Y-98060000D03*
%TD*%
D15*
%TO.C,C17*%
X143764000Y-95801000D03*
X143764000Y-93726000D03*
%TD*%
D32*
%TO.C,SW1*%
X116353999Y-90713999D03*
X125453999Y-90713999D03*
X116353999Y-95213999D03*
X125453999Y-95213999D03*
%TD*%
D23*
%TO.C,R6*%
X131191000Y-98060000D03*
X131191000Y-100060000D03*
%TD*%
D37*
%TO.C,R3*%
X116230400Y-79730600D03*
X118230400Y-79730600D03*
%TD*%
D46*
%TO.C,D4*%
X130683000Y-113309400D03*
X129283000Y-113309400D03*
%TD*%
D34*
%TO.C,C20*%
X118385500Y-76962000D03*
X116310500Y-76962000D03*
%TD*%
D27*
%TO.C,C11*%
X130683000Y-91821000D03*
X130683000Y-93896000D03*
%TD*%
D34*
%TO.C,C10*%
X118258500Y-86614000D03*
X116183500Y-86614000D03*
%TD*%
D23*
%TO.C,R20*%
X140843000Y-98060000D03*
X140843000Y-100060000D03*
%TD*%
M02*
