%TF.GenerationSoftware,KiCad,Pcbnew,(7.0.0-0)*%
%TF.CreationDate,2023-06-26T00:58:41+02:00*%
%TF.ProjectId,door_bell,646f6f72-5f62-4656-9c6c-2e6b69636164,rev?*%
%TF.SameCoordinates,Original*%
%TF.FileFunction,Legend,Bot*%
%TF.FilePolarity,Positive*%
%FSLAX46Y46*%
G04 Gerber Fmt 4.6, Leading zero omitted, Abs format (unit mm)*
G04 Created by KiCad (PCBNEW (7.0.0-0)) date 2023-06-26 00:58:41*
%MOMM*%
%LPD*%
G01*
G04 APERTURE LIST*
%ADD10C,0.153000*%
%ADD11C,0.000000*%
%ADD12C,0.120000*%
%ADD13C,0.100000*%
G04 APERTURE END LIST*
D10*
X131937142Y-74655314D02*
X131746666Y-75321980D01*
X131746666Y-75321980D02*
X131556190Y-74845790D01*
X131556190Y-74845790D02*
X131365714Y-75321980D01*
X131365714Y-75321980D02*
X131175238Y-74655314D01*
X130889523Y-74655314D02*
X130699047Y-75321980D01*
X130699047Y-75321980D02*
X130508571Y-74845790D01*
X130508571Y-74845790D02*
X130318095Y-75321980D01*
X130318095Y-75321980D02*
X130127619Y-74655314D01*
X129841904Y-74655314D02*
X129651428Y-75321980D01*
X129651428Y-75321980D02*
X129460952Y-74845790D01*
X129460952Y-74845790D02*
X129270476Y-75321980D01*
X129270476Y-75321980D02*
X129080000Y-74655314D01*
X128699047Y-75226742D02*
X128651428Y-75274361D01*
X128651428Y-75274361D02*
X128699047Y-75321980D01*
X128699047Y-75321980D02*
X128746666Y-75274361D01*
X128746666Y-75274361D02*
X128699047Y-75226742D01*
X128699047Y-75226742D02*
X128699047Y-75321980D01*
X127841905Y-75274361D02*
X127937143Y-75321980D01*
X127937143Y-75321980D02*
X128127619Y-75321980D01*
X128127619Y-75321980D02*
X128222857Y-75274361D01*
X128222857Y-75274361D02*
X128270476Y-75179123D01*
X128270476Y-75179123D02*
X128270476Y-74798171D01*
X128270476Y-74798171D02*
X128222857Y-74702933D01*
X128222857Y-74702933D02*
X128127619Y-74655314D01*
X128127619Y-74655314D02*
X127937143Y-74655314D01*
X127937143Y-74655314D02*
X127841905Y-74702933D01*
X127841905Y-74702933D02*
X127794286Y-74798171D01*
X127794286Y-74798171D02*
X127794286Y-74893409D01*
X127794286Y-74893409D02*
X128270476Y-74988647D01*
X127413333Y-75274361D02*
X127318095Y-75321980D01*
X127318095Y-75321980D02*
X127127619Y-75321980D01*
X127127619Y-75321980D02*
X127032381Y-75274361D01*
X127032381Y-75274361D02*
X126984762Y-75179123D01*
X126984762Y-75179123D02*
X126984762Y-75131504D01*
X126984762Y-75131504D02*
X127032381Y-75036266D01*
X127032381Y-75036266D02*
X127127619Y-74988647D01*
X127127619Y-74988647D02*
X127270476Y-74988647D01*
X127270476Y-74988647D02*
X127365714Y-74941028D01*
X127365714Y-74941028D02*
X127413333Y-74845790D01*
X127413333Y-74845790D02*
X127413333Y-74798171D01*
X127413333Y-74798171D02*
X127365714Y-74702933D01*
X127365714Y-74702933D02*
X127270476Y-74655314D01*
X127270476Y-74655314D02*
X127127619Y-74655314D01*
X127127619Y-74655314D02*
X127032381Y-74702933D01*
X126556190Y-74655314D02*
X126556190Y-75655314D01*
X126556190Y-74702933D02*
X126460952Y-74655314D01*
X126460952Y-74655314D02*
X126270476Y-74655314D01*
X126270476Y-74655314D02*
X126175238Y-74702933D01*
X126175238Y-74702933D02*
X126127619Y-74750552D01*
X126127619Y-74750552D02*
X126080000Y-74845790D01*
X126080000Y-74845790D02*
X126080000Y-75131504D01*
X126080000Y-75131504D02*
X126127619Y-75226742D01*
X126127619Y-75226742D02*
X126175238Y-75274361D01*
X126175238Y-75274361D02*
X126270476Y-75321980D01*
X126270476Y-75321980D02*
X126460952Y-75321980D01*
X126460952Y-75321980D02*
X126556190Y-75274361D01*
X125270476Y-75274361D02*
X125365714Y-75321980D01*
X125365714Y-75321980D02*
X125556190Y-75321980D01*
X125556190Y-75321980D02*
X125651428Y-75274361D01*
X125651428Y-75274361D02*
X125699047Y-75179123D01*
X125699047Y-75179123D02*
X125699047Y-74798171D01*
X125699047Y-74798171D02*
X125651428Y-74702933D01*
X125651428Y-74702933D02*
X125556190Y-74655314D01*
X125556190Y-74655314D02*
X125365714Y-74655314D01*
X125365714Y-74655314D02*
X125270476Y-74702933D01*
X125270476Y-74702933D02*
X125222857Y-74798171D01*
X125222857Y-74798171D02*
X125222857Y-74893409D01*
X125222857Y-74893409D02*
X125699047Y-74988647D01*
X124794285Y-74655314D02*
X124794285Y-75321980D01*
X124794285Y-74750552D02*
X124746666Y-74702933D01*
X124746666Y-74702933D02*
X124651428Y-74655314D01*
X124651428Y-74655314D02*
X124508571Y-74655314D01*
X124508571Y-74655314D02*
X124413333Y-74702933D01*
X124413333Y-74702933D02*
X124365714Y-74798171D01*
X124365714Y-74798171D02*
X124365714Y-75321980D01*
X123460952Y-75321980D02*
X123460952Y-74798171D01*
X123460952Y-74798171D02*
X123508571Y-74702933D01*
X123508571Y-74702933D02*
X123603809Y-74655314D01*
X123603809Y-74655314D02*
X123794285Y-74655314D01*
X123794285Y-74655314D02*
X123889523Y-74702933D01*
X123460952Y-75274361D02*
X123556190Y-75321980D01*
X123556190Y-75321980D02*
X123794285Y-75321980D01*
X123794285Y-75321980D02*
X123889523Y-75274361D01*
X123889523Y-75274361D02*
X123937142Y-75179123D01*
X123937142Y-75179123D02*
X123937142Y-75083885D01*
X123937142Y-75083885D02*
X123889523Y-74988647D01*
X123889523Y-74988647D02*
X123794285Y-74941028D01*
X123794285Y-74941028D02*
X123556190Y-74941028D01*
X123556190Y-74941028D02*
X123460952Y-74893409D01*
X122984761Y-74655314D02*
X122984761Y-75321980D01*
X122984761Y-74750552D02*
X122937142Y-74702933D01*
X122937142Y-74702933D02*
X122841904Y-74655314D01*
X122841904Y-74655314D02*
X122699047Y-74655314D01*
X122699047Y-74655314D02*
X122603809Y-74702933D01*
X122603809Y-74702933D02*
X122556190Y-74798171D01*
X122556190Y-74798171D02*
X122556190Y-75321980D01*
X121651428Y-75321980D02*
X121651428Y-74321980D01*
X121651428Y-75274361D02*
X121746666Y-75321980D01*
X121746666Y-75321980D02*
X121937142Y-75321980D01*
X121937142Y-75321980D02*
X122032380Y-75274361D01*
X122032380Y-75274361D02*
X122079999Y-75226742D01*
X122079999Y-75226742D02*
X122127618Y-75131504D01*
X122127618Y-75131504D02*
X122127618Y-74845790D01*
X122127618Y-74845790D02*
X122079999Y-74750552D01*
X122079999Y-74750552D02*
X122032380Y-74702933D01*
X122032380Y-74702933D02*
X121937142Y-74655314D01*
X121937142Y-74655314D02*
X121746666Y-74655314D01*
X121746666Y-74655314D02*
X121651428Y-74702933D01*
X120794285Y-75274361D02*
X120889523Y-75321980D01*
X120889523Y-75321980D02*
X121079999Y-75321980D01*
X121079999Y-75321980D02*
X121175237Y-75274361D01*
X121175237Y-75274361D02*
X121222856Y-75179123D01*
X121222856Y-75179123D02*
X121222856Y-74798171D01*
X121222856Y-74798171D02*
X121175237Y-74702933D01*
X121175237Y-74702933D02*
X121079999Y-74655314D01*
X121079999Y-74655314D02*
X120889523Y-74655314D01*
X120889523Y-74655314D02*
X120794285Y-74702933D01*
X120794285Y-74702933D02*
X120746666Y-74798171D01*
X120746666Y-74798171D02*
X120746666Y-74893409D01*
X120746666Y-74893409D02*
X121222856Y-74988647D01*
X120318094Y-75321980D02*
X120318094Y-74655314D01*
X120318094Y-74845790D02*
X120270475Y-74750552D01*
X120270475Y-74750552D02*
X120222856Y-74702933D01*
X120222856Y-74702933D02*
X120127618Y-74655314D01*
X120127618Y-74655314D02*
X120032380Y-74655314D01*
X119746665Y-75274361D02*
X119651427Y-75321980D01*
X119651427Y-75321980D02*
X119460951Y-75321980D01*
X119460951Y-75321980D02*
X119365713Y-75274361D01*
X119365713Y-75274361D02*
X119318094Y-75179123D01*
X119318094Y-75179123D02*
X119318094Y-75131504D01*
X119318094Y-75131504D02*
X119365713Y-75036266D01*
X119365713Y-75036266D02*
X119460951Y-74988647D01*
X119460951Y-74988647D02*
X119603808Y-74988647D01*
X119603808Y-74988647D02*
X119699046Y-74941028D01*
X119699046Y-74941028D02*
X119746665Y-74845790D01*
X119746665Y-74845790D02*
X119746665Y-74798171D01*
X119746665Y-74798171D02*
X119699046Y-74702933D01*
X119699046Y-74702933D02*
X119603808Y-74655314D01*
X119603808Y-74655314D02*
X119460951Y-74655314D01*
X119460951Y-74655314D02*
X119365713Y-74702933D01*
X118508570Y-75274361D02*
X118603808Y-75321980D01*
X118603808Y-75321980D02*
X118794284Y-75321980D01*
X118794284Y-75321980D02*
X118889522Y-75274361D01*
X118889522Y-75274361D02*
X118937141Y-75179123D01*
X118937141Y-75179123D02*
X118937141Y-74798171D01*
X118937141Y-74798171D02*
X118889522Y-74702933D01*
X118889522Y-74702933D02*
X118794284Y-74655314D01*
X118794284Y-74655314D02*
X118603808Y-74655314D01*
X118603808Y-74655314D02*
X118508570Y-74702933D01*
X118508570Y-74702933D02*
X118460951Y-74798171D01*
X118460951Y-74798171D02*
X118460951Y-74893409D01*
X118460951Y-74893409D02*
X118937141Y-74988647D01*
X118032379Y-74655314D02*
X118032379Y-75321980D01*
X118032379Y-74750552D02*
X117984760Y-74702933D01*
X117984760Y-74702933D02*
X117889522Y-74655314D01*
X117889522Y-74655314D02*
X117746665Y-74655314D01*
X117746665Y-74655314D02*
X117651427Y-74702933D01*
X117651427Y-74702933D02*
X117603808Y-74798171D01*
X117603808Y-74798171D02*
X117603808Y-75321980D01*
X117127617Y-75226742D02*
X117079998Y-75274361D01*
X117079998Y-75274361D02*
X117127617Y-75321980D01*
X117127617Y-75321980D02*
X117175236Y-75274361D01*
X117175236Y-75274361D02*
X117127617Y-75226742D01*
X117127617Y-75226742D02*
X117127617Y-75321980D01*
X116651427Y-74655314D02*
X116651427Y-75321980D01*
X116651427Y-74750552D02*
X116603808Y-74702933D01*
X116603808Y-74702933D02*
X116508570Y-74655314D01*
X116508570Y-74655314D02*
X116365713Y-74655314D01*
X116365713Y-74655314D02*
X116270475Y-74702933D01*
X116270475Y-74702933D02*
X116222856Y-74798171D01*
X116222856Y-74798171D02*
X116222856Y-75321980D01*
X115603808Y-75321980D02*
X115699046Y-75274361D01*
X115699046Y-75274361D02*
X115746665Y-75226742D01*
X115746665Y-75226742D02*
X115794284Y-75131504D01*
X115794284Y-75131504D02*
X115794284Y-74845790D01*
X115794284Y-74845790D02*
X115746665Y-74750552D01*
X115746665Y-74750552D02*
X115699046Y-74702933D01*
X115699046Y-74702933D02*
X115603808Y-74655314D01*
X115603808Y-74655314D02*
X115460951Y-74655314D01*
X115460951Y-74655314D02*
X115365713Y-74702933D01*
X115365713Y-74702933D02*
X115318094Y-74750552D01*
X115318094Y-74750552D02*
X115270475Y-74845790D01*
X115270475Y-74845790D02*
X115270475Y-75131504D01*
X115270475Y-75131504D02*
X115318094Y-75226742D01*
X115318094Y-75226742D02*
X115365713Y-75274361D01*
X115365713Y-75274361D02*
X115460951Y-75321980D01*
X115460951Y-75321980D02*
X115603808Y-75321980D01*
D11*
G36*
X118685773Y-68943151D02*
G01*
X118725129Y-68945076D01*
X118763735Y-68948284D01*
X118801590Y-68952774D01*
X118838694Y-68958547D01*
X118875049Y-68965601D01*
X118910653Y-68973936D01*
X118945507Y-68983553D01*
X118979610Y-68994450D01*
X119012963Y-69006627D01*
X119045566Y-69020084D01*
X119077418Y-69034820D01*
X119108520Y-69050835D01*
X119138872Y-69068129D01*
X119168473Y-69086701D01*
X119197324Y-69106551D01*
X119224907Y-69127297D01*
X119250705Y-69148558D01*
X119274718Y-69170333D01*
X119296948Y-69192623D01*
X119317395Y-69215428D01*
X119336060Y-69238747D01*
X119352943Y-69262581D01*
X119368046Y-69286930D01*
X119381370Y-69311794D01*
X119392914Y-69337172D01*
X119402680Y-69363065D01*
X119410669Y-69389473D01*
X119416881Y-69416395D01*
X119421318Y-69443832D01*
X119423979Y-69471784D01*
X119424866Y-69500251D01*
X119424587Y-69513466D01*
X119423749Y-69526420D01*
X119422352Y-69539115D01*
X119420397Y-69551551D01*
X119417881Y-69563728D01*
X119414806Y-69575646D01*
X119411170Y-69587307D01*
X119406973Y-69598709D01*
X119402216Y-69609854D01*
X119396896Y-69620742D01*
X119391015Y-69631374D01*
X119384571Y-69641749D01*
X119377564Y-69651869D01*
X119369994Y-69661733D01*
X119361861Y-69671342D01*
X119353164Y-69680697D01*
X119344051Y-69689636D01*
X119334671Y-69697998D01*
X119325023Y-69705784D01*
X119315105Y-69712992D01*
X119304918Y-69719625D01*
X119294461Y-69725680D01*
X119283732Y-69731159D01*
X119272731Y-69736061D01*
X119261457Y-69740386D01*
X119249910Y-69744135D01*
X119238088Y-69747306D01*
X119225991Y-69749902D01*
X119213618Y-69751920D01*
X119200968Y-69753362D01*
X119188041Y-69754227D01*
X119174835Y-69754515D01*
X119163692Y-69754308D01*
X119152784Y-69753684D01*
X119142113Y-69752646D01*
X119131679Y-69751191D01*
X119121482Y-69749322D01*
X119111523Y-69747037D01*
X119101801Y-69744336D01*
X119092318Y-69741220D01*
X119083074Y-69737689D01*
X119074069Y-69733741D01*
X119065303Y-69729379D01*
X119056777Y-69724601D01*
X119048492Y-69719408D01*
X119040447Y-69713799D01*
X119032643Y-69707774D01*
X119025081Y-69701334D01*
X119017872Y-69694572D01*
X119011128Y-69687581D01*
X119004850Y-69680361D01*
X118999036Y-69672912D01*
X118993687Y-69665236D01*
X118988804Y-69657332D01*
X118984386Y-69649202D01*
X118980432Y-69640844D01*
X118976944Y-69632260D01*
X118973921Y-69623450D01*
X118971363Y-69614415D01*
X118969270Y-69605154D01*
X118967642Y-69595669D01*
X118966480Y-69585959D01*
X118965782Y-69576025D01*
X118965549Y-69565868D01*
X118965773Y-69553788D01*
X118966443Y-69542155D01*
X118967560Y-69530969D01*
X118969125Y-69520231D01*
X118971139Y-69509941D01*
X118973600Y-69500100D01*
X118976510Y-69490707D01*
X118979870Y-69481763D01*
X118983679Y-69473269D01*
X118987938Y-69465225D01*
X118992648Y-69457632D01*
X118997808Y-69450489D01*
X119003419Y-69443797D01*
X119009482Y-69437557D01*
X119015997Y-69431768D01*
X119022964Y-69426432D01*
X119027432Y-69423388D01*
X119031609Y-69420405D01*
X119035496Y-69417486D01*
X119039092Y-69414629D01*
X119042398Y-69411837D01*
X119045414Y-69409108D01*
X119048142Y-69406443D01*
X119050581Y-69403844D01*
X119052731Y-69401309D01*
X119054593Y-69398840D01*
X119056168Y-69396436D01*
X119057456Y-69394099D01*
X119058457Y-69391829D01*
X119059171Y-69389626D01*
X119059599Y-69387490D01*
X119059742Y-69385422D01*
X119059682Y-69382599D01*
X119059503Y-69379785D01*
X119059204Y-69376980D01*
X119058786Y-69374185D01*
X119058248Y-69371398D01*
X119057590Y-69368621D01*
X119056812Y-69365853D01*
X119055914Y-69363093D01*
X119053757Y-69357601D01*
X119051119Y-69352145D01*
X119047999Y-69346723D01*
X119044396Y-69341336D01*
X119040309Y-69335982D01*
X119035738Y-69330663D01*
X119030682Y-69325377D01*
X119025140Y-69320123D01*
X119019110Y-69314903D01*
X119012594Y-69309714D01*
X119005588Y-69304558D01*
X118998094Y-69299432D01*
X118978005Y-69287030D01*
X118957725Y-69275422D01*
X118937251Y-69264610D01*
X118916586Y-69254594D01*
X118895728Y-69245374D01*
X118874679Y-69236952D01*
X118853436Y-69229329D01*
X118832002Y-69222505D01*
X118810376Y-69216480D01*
X118788557Y-69211257D01*
X118766546Y-69206835D01*
X118744342Y-69203215D01*
X118721947Y-69200398D01*
X118699359Y-69198385D01*
X118676579Y-69197177D01*
X118653607Y-69196774D01*
X118627823Y-69197152D01*
X118602758Y-69198286D01*
X118578414Y-69200175D01*
X118554790Y-69202818D01*
X118531887Y-69206214D01*
X118509705Y-69210364D01*
X118488244Y-69215265D01*
X118467506Y-69220917D01*
X118447490Y-69227320D01*
X118428197Y-69234472D01*
X118409628Y-69242373D01*
X118391781Y-69251022D01*
X118374659Y-69260418D01*
X118358261Y-69270560D01*
X118342588Y-69281449D01*
X118327640Y-69293082D01*
X118313464Y-69305416D01*
X118300206Y-69318309D01*
X118287864Y-69331760D01*
X118276439Y-69345771D01*
X118265930Y-69360342D01*
X118256337Y-69375472D01*
X118247660Y-69391163D01*
X118239898Y-69407415D01*
X118233050Y-69424228D01*
X118227116Y-69441602D01*
X118222097Y-69459539D01*
X118217991Y-69478038D01*
X118214798Y-69497100D01*
X118212518Y-69516725D01*
X118211150Y-69536913D01*
X118210694Y-69557665D01*
X118211103Y-69579261D01*
X118212331Y-69599994D01*
X118214376Y-69619865D01*
X118217238Y-69638872D01*
X118220918Y-69657016D01*
X118225414Y-69674296D01*
X118230727Y-69690711D01*
X118236855Y-69706262D01*
X118243798Y-69720948D01*
X118251557Y-69734768D01*
X118260131Y-69747723D01*
X118269518Y-69759811D01*
X118279720Y-69771033D01*
X118290735Y-69781388D01*
X118302564Y-69790875D01*
X118315205Y-69799494D01*
X118329235Y-69807571D01*
X118345133Y-69815430D01*
X118362899Y-69823071D01*
X118382533Y-69830492D01*
X118404037Y-69837693D01*
X118427412Y-69844673D01*
X118452658Y-69851431D01*
X118479776Y-69857967D01*
X118508766Y-69864280D01*
X118539631Y-69870369D01*
X118572369Y-69876233D01*
X118606982Y-69881871D01*
X118643472Y-69887283D01*
X118681838Y-69892468D01*
X118722081Y-69897425D01*
X118764203Y-69902153D01*
X118875088Y-69915837D01*
X118965683Y-69928281D01*
X119036038Y-69939435D01*
X119063640Y-69944512D01*
X119086201Y-69949249D01*
X119096297Y-69951701D01*
X119106640Y-69954495D01*
X119117229Y-69957628D01*
X119128064Y-69961101D01*
X119139143Y-69964914D01*
X119150467Y-69969066D01*
X119173845Y-69978386D01*
X119198189Y-69989058D01*
X119223495Y-70001078D01*
X119249756Y-70014444D01*
X119276965Y-70029153D01*
X119294887Y-70039325D01*
X119312238Y-70049849D01*
X119329018Y-70060726D01*
X119345229Y-70071954D01*
X119360869Y-70083534D01*
X119375939Y-70095467D01*
X119390440Y-70107752D01*
X119404370Y-70120389D01*
X119417731Y-70133378D01*
X119430522Y-70146720D01*
X119442744Y-70160414D01*
X119454396Y-70174460D01*
X119465479Y-70188859D01*
X119475993Y-70203611D01*
X119485937Y-70218715D01*
X119495313Y-70234172D01*
X119504119Y-70249982D01*
X119512357Y-70266144D01*
X119520025Y-70282659D01*
X119527126Y-70299527D01*
X119533657Y-70316747D01*
X119539620Y-70334321D01*
X119545015Y-70352248D01*
X119549842Y-70370528D01*
X119554100Y-70389160D01*
X119557790Y-70408146D01*
X119560912Y-70427485D01*
X119563467Y-70447178D01*
X119565453Y-70467223D01*
X119566872Y-70487622D01*
X119568007Y-70529480D01*
X119567232Y-70563379D01*
X119564905Y-70596415D01*
X119561027Y-70628589D01*
X119555596Y-70659899D01*
X119548612Y-70690346D01*
X119540074Y-70719929D01*
X119529981Y-70748648D01*
X119518332Y-70776502D01*
X119505126Y-70803491D01*
X119490363Y-70829614D01*
X119474043Y-70854872D01*
X119456163Y-70879263D01*
X119436724Y-70902788D01*
X119415724Y-70925446D01*
X119393163Y-70947236D01*
X119369041Y-70968159D01*
X119343665Y-70988009D01*
X119317248Y-71006581D01*
X119289790Y-71023875D01*
X119261289Y-71039890D01*
X119231747Y-71054626D01*
X119201162Y-71068083D01*
X119169537Y-71080260D01*
X119136869Y-71091157D01*
X119103159Y-71100774D01*
X119068408Y-71109109D01*
X119032615Y-71116163D01*
X118995780Y-71121936D01*
X118957903Y-71126426D01*
X118918984Y-71129634D01*
X118879024Y-71131559D01*
X118838022Y-71132201D01*
X118783089Y-71130998D01*
X118730010Y-71127389D01*
X118678787Y-71121375D01*
X118629418Y-71112957D01*
X118581906Y-71102133D01*
X118536249Y-71088906D01*
X118492450Y-71073275D01*
X118450506Y-71055240D01*
X118410421Y-71034803D01*
X118372192Y-71011963D01*
X118335822Y-70986721D01*
X118301311Y-70959077D01*
X118268658Y-70929031D01*
X118237864Y-70896585D01*
X118208930Y-70861738D01*
X118181856Y-70824491D01*
X118176741Y-70842412D01*
X118171121Y-70859763D01*
X118164996Y-70876544D01*
X118158366Y-70892754D01*
X118151230Y-70908394D01*
X118143588Y-70923465D01*
X118135441Y-70937965D01*
X118126789Y-70951896D01*
X118117632Y-70965256D01*
X118107969Y-70978048D01*
X118097800Y-70990269D01*
X118087126Y-71001921D01*
X118075947Y-71013004D01*
X118064263Y-71023518D01*
X118052073Y-71033462D01*
X118039377Y-71042838D01*
X118026177Y-71051644D01*
X118012470Y-71059882D01*
X117998259Y-71067551D01*
X117983542Y-71074651D01*
X117968320Y-71081182D01*
X117952592Y-71087146D01*
X117936359Y-71092540D01*
X117919620Y-71097367D01*
X117902376Y-71101625D01*
X117884627Y-71105315D01*
X117866372Y-71108438D01*
X117847612Y-71110992D01*
X117828347Y-71112978D01*
X117808576Y-71114397D01*
X117767518Y-71115532D01*
X117717840Y-71113994D01*
X117694178Y-71112072D01*
X117671301Y-71109381D01*
X117649207Y-71105920D01*
X117627899Y-71101691D01*
X117607374Y-71096693D01*
X117587634Y-71090926D01*
X117568679Y-71084390D01*
X117550508Y-71077085D01*
X117533122Y-71069011D01*
X117516519Y-71060168D01*
X117500702Y-71050556D01*
X117485669Y-71040176D01*
X117471420Y-71029026D01*
X117457956Y-71017107D01*
X117445276Y-71004420D01*
X117433380Y-70990963D01*
X117422269Y-70976737D01*
X117411943Y-70961743D01*
X117402401Y-70945980D01*
X117393643Y-70929447D01*
X117385670Y-70912146D01*
X117378481Y-70894076D01*
X117372077Y-70875237D01*
X117366457Y-70855628D01*
X117361622Y-70835251D01*
X117357571Y-70814105D01*
X117354304Y-70792190D01*
X117351822Y-70769506D01*
X117349212Y-70721832D01*
X117349738Y-70722627D01*
X117349738Y-70468362D01*
X117350259Y-70444525D01*
X117351822Y-70422225D01*
X117354426Y-70401464D01*
X117358073Y-70382240D01*
X117362761Y-70364554D01*
X117368491Y-70348406D01*
X117371746Y-70340909D01*
X117375262Y-70333796D01*
X117379039Y-70327068D01*
X117383076Y-70320724D01*
X117387373Y-70314765D01*
X117391931Y-70309190D01*
X117396749Y-70304000D01*
X117401828Y-70299194D01*
X117407167Y-70294772D01*
X117412767Y-70290735D01*
X117418627Y-70287083D01*
X117424748Y-70283815D01*
X117431129Y-70280931D01*
X117437770Y-70278432D01*
X117444672Y-70276318D01*
X117451834Y-70274587D01*
X117459257Y-70273242D01*
X117466941Y-70272281D01*
X117474884Y-70271704D01*
X117483089Y-70271512D01*
X117490780Y-70271639D01*
X117498229Y-70272020D01*
X117505434Y-70272656D01*
X117512395Y-70273546D01*
X117519112Y-70274691D01*
X117525587Y-70276090D01*
X117531817Y-70277744D01*
X117537804Y-70279652D01*
X117543546Y-70281815D01*
X117549045Y-70284232D01*
X117554301Y-70286904D01*
X117559312Y-70289832D01*
X117564079Y-70293013D01*
X117568602Y-70296450D01*
X117572881Y-70300142D01*
X117576916Y-70304089D01*
X117580707Y-70308290D01*
X117584254Y-70312747D01*
X117587556Y-70317459D01*
X117590614Y-70322426D01*
X117593428Y-70327648D01*
X117595997Y-70333126D01*
X117598322Y-70338859D01*
X117600402Y-70344847D01*
X117602238Y-70351090D01*
X117603829Y-70357589D01*
X117605176Y-70364344D01*
X117606278Y-70371354D01*
X117607135Y-70378620D01*
X117607747Y-70386141D01*
X117608114Y-70393918D01*
X117608237Y-70401951D01*
X117608237Y-70601447D01*
X117608798Y-70633020D01*
X117610481Y-70662554D01*
X117613286Y-70690048D01*
X117617212Y-70715503D01*
X117622259Y-70738920D01*
X117628426Y-70760298D01*
X117635714Y-70779638D01*
X117644121Y-70796941D01*
X117653647Y-70812207D01*
X117658830Y-70819076D01*
X117664293Y-70825436D01*
X117670035Y-70831287D01*
X117676057Y-70836629D01*
X117682358Y-70841462D01*
X117688939Y-70845786D01*
X117695799Y-70849601D01*
X117702939Y-70852907D01*
X117710358Y-70855704D01*
X117718056Y-70857993D01*
X117726033Y-70859773D01*
X117734290Y-70861044D01*
X117742826Y-70861807D01*
X117751641Y-70862062D01*
X117758722Y-70861922D01*
X117765628Y-70861503D01*
X117772358Y-70860806D01*
X117778913Y-70859829D01*
X117785293Y-70858572D01*
X117791497Y-70857037D01*
X117797526Y-70855222D01*
X117803380Y-70853128D01*
X117809057Y-70850754D01*
X117814559Y-70848101D01*
X117819886Y-70845168D01*
X117825037Y-70841956D01*
X117830012Y-70838464D01*
X117834811Y-70834692D01*
X117839434Y-70830641D01*
X117843881Y-70826310D01*
X117848153Y-70821699D01*
X117852248Y-70816808D01*
X117856168Y-70811637D01*
X117859911Y-70806186D01*
X117863478Y-70800456D01*
X117866869Y-70794445D01*
X117870084Y-70788154D01*
X117873122Y-70781583D01*
X117875984Y-70774731D01*
X117878670Y-70767600D01*
X117881179Y-70760188D01*
X117883512Y-70752496D01*
X117887647Y-70736270D01*
X117891077Y-70718922D01*
X117892084Y-70713685D01*
X117893024Y-70707202D01*
X117894702Y-70690496D01*
X117896113Y-70668804D01*
X117897261Y-70642127D01*
X117898148Y-70610464D01*
X117898778Y-70573815D01*
X117899154Y-70532180D01*
X117899278Y-70485559D01*
X117899278Y-70009045D01*
X118223127Y-70009045D01*
X118223127Y-70300087D01*
X118224227Y-70332441D01*
X118226536Y-70363921D01*
X118230052Y-70394524D01*
X118234773Y-70424251D01*
X118240699Y-70453100D01*
X118247828Y-70481071D01*
X118256159Y-70508163D01*
X118265692Y-70534375D01*
X118276424Y-70559707D01*
X118288356Y-70584157D01*
X118301484Y-70607726D01*
X118315810Y-70630411D01*
X118331330Y-70652213D01*
X118348045Y-70673130D01*
X118365952Y-70693162D01*
X118385052Y-70712308D01*
X118385317Y-70712308D01*
X118405517Y-70730428D01*
X118426629Y-70747381D01*
X118448653Y-70763168D01*
X118471588Y-70777788D01*
X118495434Y-70791241D01*
X118520192Y-70803526D01*
X118545862Y-70814642D01*
X118572444Y-70824590D01*
X118599936Y-70833370D01*
X118628341Y-70840980D01*
X118657657Y-70847420D01*
X118687885Y-70852690D01*
X118719024Y-70856790D01*
X118751074Y-70859719D01*
X118784037Y-70861476D01*
X118817911Y-70862062D01*
X118841708Y-70861709D01*
X118864878Y-70860649D01*
X118887423Y-70858883D01*
X118909341Y-70856411D01*
X118930632Y-70853234D01*
X118951298Y-70849351D01*
X118971337Y-70844764D01*
X118990750Y-70839473D01*
X119009536Y-70833478D01*
X119027696Y-70826780D01*
X119045230Y-70819379D01*
X119062137Y-70811275D01*
X119078418Y-70802468D01*
X119094073Y-70792960D01*
X119109102Y-70782750D01*
X119123504Y-70771839D01*
X119137153Y-70760321D01*
X119149921Y-70748287D01*
X119161809Y-70735739D01*
X119172816Y-70722676D01*
X119182942Y-70709099D01*
X119192188Y-70695007D01*
X119200554Y-70680400D01*
X119208038Y-70665278D01*
X119214643Y-70649642D01*
X119220366Y-70633491D01*
X119225210Y-70616825D01*
X119229172Y-70599645D01*
X119232254Y-70581950D01*
X119234456Y-70563740D01*
X119235776Y-70545016D01*
X119236217Y-70525777D01*
X119235762Y-70507322D01*
X119234397Y-70489363D01*
X119232122Y-70471901D01*
X119228937Y-70454934D01*
X119224842Y-70438464D01*
X119219838Y-70422490D01*
X119213924Y-70407012D01*
X119207100Y-70392030D01*
X119199367Y-70377544D01*
X119190724Y-70363554D01*
X119181171Y-70350060D01*
X119170709Y-70337062D01*
X119159338Y-70324561D01*
X119147057Y-70312555D01*
X119133867Y-70301046D01*
X119119767Y-70290033D01*
X119104758Y-70279515D01*
X119088840Y-70269494D01*
X119072013Y-70259969D01*
X119054277Y-70250940D01*
X119035632Y-70242408D01*
X119016078Y-70234371D01*
X118995614Y-70226830D01*
X118974242Y-70219786D01*
X118951961Y-70213237D01*
X118928772Y-70207185D01*
X118904673Y-70201629D01*
X118879666Y-70196568D01*
X118853750Y-70192004D01*
X118826925Y-70187936D01*
X118770550Y-70181289D01*
X118708712Y-70175013D01*
X118651781Y-70168486D01*
X118599756Y-70161704D01*
X118552633Y-70154665D01*
X118510408Y-70147366D01*
X118473080Y-70139803D01*
X118440644Y-70131974D01*
X118413098Y-70123875D01*
X118400637Y-70119568D01*
X118388256Y-70114882D01*
X118375954Y-70109816D01*
X118363733Y-70104370D01*
X118351590Y-70098542D01*
X118339526Y-70092332D01*
X118327540Y-70085739D01*
X118315632Y-70078763D01*
X118303802Y-70071402D01*
X118292048Y-70063656D01*
X118280372Y-70055523D01*
X118268772Y-70047004D01*
X118257247Y-70038098D01*
X118245799Y-70028803D01*
X118234425Y-70019119D01*
X118223127Y-70009045D01*
X117899278Y-70009045D01*
X117899278Y-69658736D01*
X117900007Y-69614687D01*
X117902193Y-69572035D01*
X117905836Y-69530779D01*
X117910937Y-69490921D01*
X117917495Y-69452460D01*
X117925511Y-69415396D01*
X117934984Y-69379730D01*
X117945915Y-69345461D01*
X117958304Y-69312590D01*
X117972150Y-69281117D01*
X117987454Y-69251041D01*
X118004216Y-69222363D01*
X118022436Y-69195083D01*
X118042113Y-69169201D01*
X118063249Y-69144718D01*
X118085842Y-69121632D01*
X118109894Y-69099945D01*
X118135404Y-69079657D01*
X118162372Y-69060767D01*
X118190798Y-69043275D01*
X118220682Y-69027183D01*
X118252025Y-69012489D01*
X118284826Y-68999194D01*
X118319085Y-68987298D01*
X118354803Y-68976802D01*
X118391979Y-68967704D01*
X118430614Y-68960006D01*
X118470707Y-68953708D01*
X118512259Y-68948808D01*
X118555270Y-68945309D01*
X118599739Y-68943209D01*
X118645667Y-68942509D01*
X118685773Y-68943151D01*
G37*
G36*
X121754059Y-68944523D02*
G01*
X121803389Y-68948178D01*
X121851440Y-68954270D01*
X121898213Y-68962797D01*
X121943707Y-68973760D01*
X121987922Y-68987158D01*
X122030857Y-69002990D01*
X122072512Y-69021257D01*
X122112886Y-69041958D01*
X122151979Y-69065093D01*
X122189791Y-69090661D01*
X122226321Y-69118661D01*
X122261569Y-69149094D01*
X122295535Y-69181959D01*
X122328217Y-69217256D01*
X122359617Y-69254984D01*
X122359617Y-69138038D01*
X122360082Y-69122898D01*
X122360663Y-69115693D01*
X122361477Y-69108732D01*
X122362524Y-69102014D01*
X122363803Y-69095540D01*
X122365314Y-69089309D01*
X122367058Y-69083323D01*
X122369035Y-69077580D01*
X122371244Y-69072081D01*
X122373686Y-69066826D01*
X122376360Y-69061815D01*
X122379267Y-69057047D01*
X122382406Y-69052524D01*
X122385778Y-69048245D01*
X122389383Y-69044210D01*
X122393220Y-69040419D01*
X122397289Y-69036873D01*
X122401591Y-69033570D01*
X122406126Y-69030512D01*
X122410893Y-69027699D01*
X122415893Y-69025129D01*
X122421125Y-69022805D01*
X122426590Y-69020724D01*
X122432287Y-69018888D01*
X122438217Y-69017297D01*
X122444379Y-69015951D01*
X122450774Y-69014849D01*
X122457402Y-69013992D01*
X122464262Y-69013380D01*
X122471355Y-69013013D01*
X122478680Y-69012890D01*
X122479215Y-69012624D01*
X122487641Y-69013269D01*
X122508915Y-69015204D01*
X122589811Y-69022943D01*
X122602374Y-69025361D01*
X122615455Y-69027457D01*
X122629050Y-69029231D01*
X122643158Y-69030682D01*
X122657773Y-69031811D01*
X122672895Y-69032617D01*
X122688518Y-69033100D01*
X122704641Y-69033262D01*
X122856512Y-69016858D01*
X122860715Y-69015928D01*
X122865189Y-69015121D01*
X122869929Y-69014439D01*
X122874933Y-69013881D01*
X122880197Y-69013447D01*
X122885719Y-69013137D01*
X122891494Y-69012951D01*
X122897521Y-69012889D01*
X122919867Y-69013419D01*
X122940769Y-69015010D01*
X122960227Y-69017659D01*
X122978241Y-69021368D01*
X122994811Y-69026136D01*
X123002555Y-69028917D01*
X123009938Y-69031963D01*
X123016961Y-69035273D01*
X123023623Y-69038847D01*
X123029925Y-69042686D01*
X123035866Y-69046789D01*
X123041447Y-69051157D01*
X123046667Y-69055788D01*
X123051527Y-69060684D01*
X123056026Y-69065845D01*
X123060166Y-69071269D01*
X123063945Y-69076958D01*
X123067364Y-69082910D01*
X123070423Y-69089126D01*
X123073121Y-69095607D01*
X123075460Y-69102351D01*
X123077439Y-69109359D01*
X123079058Y-69116631D01*
X123080317Y-69124167D01*
X123081216Y-69131966D01*
X123081756Y-69140029D01*
X123081936Y-69148356D01*
X123081789Y-69156670D01*
X123081350Y-69164698D01*
X123080617Y-69172440D01*
X123079591Y-69179898D01*
X123078272Y-69187074D01*
X123076660Y-69193970D01*
X123074754Y-69200586D01*
X123072556Y-69206924D01*
X123070063Y-69212985D01*
X123067278Y-69218772D01*
X123064198Y-69224286D01*
X123060826Y-69229527D01*
X123057159Y-69234499D01*
X123053199Y-69239201D01*
X123048945Y-69243637D01*
X123044398Y-69247806D01*
X123039557Y-69251711D01*
X123034422Y-69255353D01*
X123028993Y-69258734D01*
X123023270Y-69261855D01*
X123017253Y-69264718D01*
X123010942Y-69267324D01*
X123004338Y-69269675D01*
X122997439Y-69271772D01*
X122990245Y-69273616D01*
X122982758Y-69275210D01*
X122974976Y-69276554D01*
X122966900Y-69277651D01*
X122958530Y-69278501D01*
X122949865Y-69279107D01*
X122931652Y-69279589D01*
X122923899Y-69279428D01*
X122915318Y-69278944D01*
X122905900Y-69278138D01*
X122895636Y-69277010D01*
X122884516Y-69275558D01*
X122872531Y-69273785D01*
X122859671Y-69271689D01*
X122845928Y-69269271D01*
X122832261Y-69266852D01*
X122819437Y-69264756D01*
X122807456Y-69262983D01*
X122796319Y-69261532D01*
X122786024Y-69260403D01*
X122776574Y-69259597D01*
X122767966Y-69259113D01*
X122760203Y-69258952D01*
X122752021Y-69259153D01*
X122744143Y-69259757D01*
X122736571Y-69260764D01*
X122729305Y-69262172D01*
X122722346Y-69263982D01*
X122715694Y-69266193D01*
X122709351Y-69268805D01*
X122703318Y-69271817D01*
X122697594Y-69275229D01*
X122692181Y-69279041D01*
X122687080Y-69283252D01*
X122682291Y-69287862D01*
X122677816Y-69292870D01*
X122673654Y-69298276D01*
X122669807Y-69304080D01*
X122666276Y-69310281D01*
X122662974Y-69317028D01*
X122659815Y-69324468D01*
X122656799Y-69332602D01*
X122653927Y-69341427D01*
X122651199Y-69350944D01*
X122648616Y-69361152D01*
X122646178Y-69372050D01*
X122643885Y-69383637D01*
X122641738Y-69395912D01*
X122639737Y-69408874D01*
X122637883Y-69422524D01*
X122636175Y-69436859D01*
X122634615Y-69451880D01*
X122633203Y-69467585D01*
X122631938Y-69483974D01*
X122630822Y-69501046D01*
X122630822Y-70596156D01*
X122631839Y-70624945D01*
X122633798Y-70651879D01*
X122636700Y-70676959D01*
X122640545Y-70700183D01*
X122645332Y-70721551D01*
X122651062Y-70741064D01*
X122657735Y-70758720D01*
X122665350Y-70774519D01*
X122673907Y-70788460D01*
X122683408Y-70800544D01*
X122688511Y-70805890D01*
X122693850Y-70810770D01*
X122699425Y-70815187D01*
X122705236Y-70819138D01*
X122711282Y-70822625D01*
X122717564Y-70825647D01*
X122724081Y-70828204D01*
X122730834Y-70830296D01*
X122737823Y-70831924D01*
X122745047Y-70833087D01*
X122752507Y-70833784D01*
X122760203Y-70834017D01*
X122773821Y-70833819D01*
X122787492Y-70833231D01*
X122801219Y-70832259D01*
X122815005Y-70830908D01*
X122828853Y-70829185D01*
X122842765Y-70827096D01*
X122856746Y-70824647D01*
X122870798Y-70821845D01*
X122884341Y-70818956D01*
X122896785Y-70816442D01*
X122908126Y-70814307D01*
X122918357Y-70812552D01*
X122927472Y-70811182D01*
X122935465Y-70810200D01*
X122942328Y-70809608D01*
X122948057Y-70809410D01*
X122964251Y-70809922D01*
X122971956Y-70810562D01*
X122979398Y-70811457D01*
X122986579Y-70812609D01*
X122993498Y-70814016D01*
X123000155Y-70815680D01*
X123006550Y-70817600D01*
X123012684Y-70819776D01*
X123018556Y-70822208D01*
X123024167Y-70824897D01*
X123029517Y-70827842D01*
X123034605Y-70831043D01*
X123039431Y-70834501D01*
X123043996Y-70838215D01*
X123048300Y-70842186D01*
X123052343Y-70846413D01*
X123056125Y-70850897D01*
X123059645Y-70855637D01*
X123062904Y-70860635D01*
X123065903Y-70865889D01*
X123068640Y-70871399D01*
X123071116Y-70877167D01*
X123073332Y-70883192D01*
X123075287Y-70889473D01*
X123076981Y-70896012D01*
X123078414Y-70902808D01*
X123079586Y-70909860D01*
X123080498Y-70917170D01*
X123081149Y-70924737D01*
X123081540Y-70932562D01*
X123081670Y-70940644D01*
X123081502Y-70949214D01*
X123080998Y-70957514D01*
X123080156Y-70965542D01*
X123078979Y-70973298D01*
X123077465Y-70980784D01*
X123075615Y-70987997D01*
X123073428Y-70994939D01*
X123070905Y-71001609D01*
X123068046Y-71008008D01*
X123064850Y-71014135D01*
X123061317Y-71019990D01*
X123057449Y-71025573D01*
X123053243Y-71030885D01*
X123048702Y-71035924D01*
X123043824Y-71040692D01*
X123038609Y-71045187D01*
X123033059Y-71049411D01*
X123027171Y-71053362D01*
X123020948Y-71057041D01*
X123014388Y-71060448D01*
X123007491Y-71063582D01*
X123000258Y-71066445D01*
X122992689Y-71069034D01*
X122984783Y-71071352D01*
X122976541Y-71073397D01*
X122967962Y-71075170D01*
X122959047Y-71076669D01*
X122949796Y-71077897D01*
X122940208Y-71078851D01*
X122930284Y-71079533D01*
X122920023Y-71079943D01*
X122909426Y-71080079D01*
X122900843Y-71079757D01*
X122887396Y-71078789D01*
X122869080Y-71077177D01*
X122845894Y-71074920D01*
X122784895Y-71068470D01*
X122704375Y-71059442D01*
X122636158Y-71052302D01*
X122604758Y-71049484D01*
X122575159Y-71047172D01*
X122547359Y-71045368D01*
X122521354Y-71044075D01*
X122497141Y-71043298D01*
X122474717Y-71043038D01*
X122447357Y-71043236D01*
X122420642Y-71043827D01*
X122394573Y-71044809D01*
X122369148Y-71046179D01*
X122344368Y-71047934D01*
X122320233Y-71050069D01*
X122296743Y-71052583D01*
X122273898Y-71055473D01*
X122192877Y-71066238D01*
X122130361Y-71073927D01*
X122086300Y-71078541D01*
X122071174Y-71079695D01*
X122060644Y-71080079D01*
X122040794Y-71079558D01*
X122022221Y-71077995D01*
X122004927Y-71075391D01*
X121988912Y-71071745D01*
X121981384Y-71069531D01*
X121974176Y-71067057D01*
X121967287Y-71064322D01*
X121960719Y-71061327D01*
X121954470Y-71058071D01*
X121948542Y-71054555D01*
X121942933Y-71050778D01*
X121937645Y-71046741D01*
X121932676Y-71042444D01*
X121928028Y-71037886D01*
X121923700Y-71033068D01*
X121919693Y-71027989D01*
X121916005Y-71022650D01*
X121912638Y-71017050D01*
X121909592Y-71011190D01*
X121906866Y-71005069D01*
X121904461Y-70998688D01*
X121902376Y-70992047D01*
X121900611Y-70985145D01*
X121899168Y-70977983D01*
X121898045Y-70970560D01*
X121897243Y-70962877D01*
X121896762Y-70954933D01*
X121896601Y-70946729D01*
X121897097Y-70930536D01*
X121898586Y-70915304D01*
X121899703Y-70908052D01*
X121901068Y-70901044D01*
X121902681Y-70894282D01*
X121904543Y-70887768D01*
X121906653Y-70881502D01*
X121909011Y-70875487D01*
X121911618Y-70869723D01*
X121914474Y-70864212D01*
X121917578Y-70858957D01*
X121920932Y-70853957D01*
X121924533Y-70849215D01*
X121928384Y-70844731D01*
X121932483Y-70840509D01*
X121936831Y-70836548D01*
X121941428Y-70832850D01*
X121946275Y-70829418D01*
X121951370Y-70826251D01*
X121956714Y-70823352D01*
X121962307Y-70820723D01*
X121968150Y-70818364D01*
X121974241Y-70816277D01*
X121980582Y-70814464D01*
X121987173Y-70812926D01*
X121994012Y-70811664D01*
X122001101Y-70810680D01*
X122008440Y-70809975D01*
X122016028Y-70809551D01*
X122023865Y-70809410D01*
X122033415Y-70809633D01*
X122043606Y-70810302D01*
X122054436Y-70811419D01*
X122065901Y-70812981D01*
X122077999Y-70814991D01*
X122090726Y-70817446D01*
X122104080Y-70820348D01*
X122118056Y-70823697D01*
X122132048Y-70827046D01*
X122145251Y-70829948D01*
X122157673Y-70832404D01*
X122169320Y-70834413D01*
X122180198Y-70835976D01*
X122190313Y-70837092D01*
X122199672Y-70837761D01*
X122208280Y-70837985D01*
X122216308Y-70837727D01*
X122224018Y-70836956D01*
X122231412Y-70835670D01*
X122238488Y-70833871D01*
X122245247Y-70831559D01*
X122248506Y-70830211D01*
X122251687Y-70828734D01*
X122254787Y-70827129D01*
X122257808Y-70825397D01*
X122260749Y-70823536D01*
X122263611Y-70821547D01*
X122266392Y-70819431D01*
X122269094Y-70817187D01*
X122271716Y-70814814D01*
X122274257Y-70812314D01*
X122279101Y-70806931D01*
X122283624Y-70801038D01*
X122287826Y-70794635D01*
X122291706Y-70787722D01*
X122295265Y-70780299D01*
X122298502Y-70772368D01*
X122301482Y-70763733D01*
X122304269Y-70754199D01*
X122306864Y-70743765D01*
X122309267Y-70732433D01*
X122311477Y-70720201D01*
X122313496Y-70707070D01*
X122315322Y-70693039D01*
X122316956Y-70678110D01*
X122318398Y-70662282D01*
X122319647Y-70645554D01*
X122321569Y-70609401D01*
X122322723Y-70569651D01*
X122323107Y-70526305D01*
X122323107Y-69980734D01*
X122321570Y-69887915D01*
X122316960Y-69802137D01*
X122313503Y-69761887D01*
X122309280Y-69723397D01*
X122304290Y-69686665D01*
X122298534Y-69651692D01*
X122292012Y-69618477D01*
X122284725Y-69587020D01*
X122276672Y-69557319D01*
X122267855Y-69529376D01*
X122258274Y-69503189D01*
X122247928Y-69478759D01*
X122236819Y-69456084D01*
X122224947Y-69435164D01*
X122215838Y-69420783D01*
X122206369Y-69406859D01*
X122196540Y-69393392D01*
X122186351Y-69380382D01*
X122175803Y-69367830D01*
X122164895Y-69355735D01*
X122153628Y-69344096D01*
X122142000Y-69332915D01*
X122130013Y-69322191D01*
X122117667Y-69311923D01*
X122104961Y-69302113D01*
X122091895Y-69292759D01*
X122078469Y-69283862D01*
X122064684Y-69275421D01*
X122050539Y-69267438D01*
X122036034Y-69259911D01*
X122021170Y-69252840D01*
X122005946Y-69246226D01*
X121990363Y-69240069D01*
X121974419Y-69234367D01*
X121958116Y-69229123D01*
X121941454Y-69224334D01*
X121924432Y-69220002D01*
X121907050Y-69216126D01*
X121889308Y-69212706D01*
X121871207Y-69209743D01*
X121833926Y-69205184D01*
X121795205Y-69202448D01*
X121755047Y-69201537D01*
X121733758Y-69201906D01*
X121712755Y-69203012D01*
X121692036Y-69204856D01*
X121671604Y-69207436D01*
X121651456Y-69210753D01*
X121631594Y-69214806D01*
X121612016Y-69219594D01*
X121592725Y-69225118D01*
X121573718Y-69231376D01*
X121554997Y-69238369D01*
X121536560Y-69246096D01*
X121518409Y-69254557D01*
X121500544Y-69263751D01*
X121482963Y-69273678D01*
X121465668Y-69284337D01*
X121448658Y-69295729D01*
X121433666Y-69306767D01*
X121419350Y-69318350D01*
X121405708Y-69330480D01*
X121392740Y-69343155D01*
X121380444Y-69356376D01*
X121368821Y-69370143D01*
X121357869Y-69384455D01*
X121347587Y-69399313D01*
X121337975Y-69414717D01*
X121329032Y-69430666D01*
X121320758Y-69447161D01*
X121313150Y-69464202D01*
X121306209Y-69481788D01*
X121299934Y-69499921D01*
X121294325Y-69518599D01*
X121289379Y-69537822D01*
X121286926Y-69548618D01*
X121284629Y-69560469D01*
X121282488Y-69573373D01*
X121280503Y-69587332D01*
X121277002Y-69618412D01*
X121274132Y-69653709D01*
X121271894Y-69693223D01*
X121270291Y-69736954D01*
X121269327Y-69784901D01*
X121269006Y-69837066D01*
X121269006Y-70608061D01*
X121270407Y-70635362D01*
X121272528Y-70660907D01*
X121275368Y-70684695D01*
X121278928Y-70706726D01*
X121283207Y-70726999D01*
X121288205Y-70745513D01*
X121293922Y-70762268D01*
X121300359Y-70777262D01*
X121307515Y-70790496D01*
X121315391Y-70801967D01*
X121323985Y-70811676D01*
X121328552Y-70815869D01*
X121333299Y-70819621D01*
X121338226Y-70822932D01*
X121343333Y-70825802D01*
X121348619Y-70828230D01*
X121354085Y-70830217D01*
X121359732Y-70831763D01*
X121365557Y-70832868D01*
X121371563Y-70833530D01*
X121377749Y-70833751D01*
X121380605Y-70833686D01*
X121383914Y-70833491D01*
X121391892Y-70832713D01*
X121401687Y-70831421D01*
X121413303Y-70829617D01*
X121426741Y-70827304D01*
X121442005Y-70824487D01*
X121459099Y-70821166D01*
X121478025Y-70817347D01*
X121488319Y-70815399D01*
X121498361Y-70813721D01*
X121508149Y-70812310D01*
X121517680Y-70811162D01*
X121526950Y-70810275D01*
X121535957Y-70809645D01*
X121544697Y-70809269D01*
X121553167Y-70809145D01*
X121570372Y-70809641D01*
X121586468Y-70811130D01*
X121594099Y-70812246D01*
X121601453Y-70813611D01*
X121608529Y-70815225D01*
X121615328Y-70817087D01*
X121621849Y-70819197D01*
X121628093Y-70821555D01*
X121634060Y-70824163D01*
X121639748Y-70827018D01*
X121645160Y-70830123D01*
X121650294Y-70833476D01*
X121655150Y-70837078D01*
X121659729Y-70840928D01*
X121664030Y-70845027D01*
X121668054Y-70849376D01*
X121671800Y-70853973D01*
X121675269Y-70858819D01*
X121678460Y-70863914D01*
X121681374Y-70869258D01*
X121684010Y-70874852D01*
X121686369Y-70880694D01*
X121688450Y-70886786D01*
X121690254Y-70893127D01*
X121691780Y-70899717D01*
X121693029Y-70906557D01*
X121694000Y-70913645D01*
X121694694Y-70920984D01*
X121695110Y-70928572D01*
X121695249Y-70936409D01*
X121695089Y-70945247D01*
X121694607Y-70953804D01*
X121693805Y-70962078D01*
X121692682Y-70970070D01*
X121691239Y-70977781D01*
X121689474Y-70985210D01*
X121687389Y-70992357D01*
X121684984Y-70999223D01*
X121682258Y-71005808D01*
X121679211Y-71012111D01*
X121675844Y-71018133D01*
X121672157Y-71023874D01*
X121668150Y-71029334D01*
X121663822Y-71034513D01*
X121659173Y-71039411D01*
X121654205Y-71044029D01*
X121648917Y-71048366D01*
X121643308Y-71052422D01*
X121637379Y-71056198D01*
X121631131Y-71059694D01*
X121624562Y-71062909D01*
X121617674Y-71065845D01*
X121610466Y-71068500D01*
X121602938Y-71070876D01*
X121595090Y-71072971D01*
X121586922Y-71074787D01*
X121578435Y-71076323D01*
X121569628Y-71077580D01*
X121560502Y-71078557D01*
X121551056Y-71079255D01*
X121541291Y-71079674D01*
X121531206Y-71079814D01*
X121525118Y-71079429D01*
X121513004Y-71078276D01*
X121470716Y-71073662D01*
X121404368Y-71065973D01*
X121313984Y-71055208D01*
X121295950Y-71053260D01*
X121276773Y-71051582D01*
X121256448Y-71050171D01*
X121234973Y-71049023D01*
X121212344Y-71048136D01*
X121188559Y-71047506D01*
X121163614Y-71047130D01*
X121137507Y-71047006D01*
X121108572Y-71047266D01*
X121079116Y-71048043D01*
X121049140Y-71049336D01*
X121018643Y-71051140D01*
X120987625Y-71053452D01*
X120956086Y-71056270D01*
X120924026Y-71059590D01*
X120891445Y-71063410D01*
X120830417Y-71070549D01*
X120778666Y-71075680D01*
X120756254Y-71077484D01*
X120736142Y-71078776D01*
X120718325Y-71079554D01*
X120702796Y-71079814D01*
X120694148Y-71079652D01*
X120685667Y-71079169D01*
X120677351Y-71078364D01*
X120669198Y-71077238D01*
X120661209Y-71075791D01*
X120653381Y-71074024D01*
X120645713Y-71071936D01*
X120638205Y-71069528D01*
X120630855Y-71066802D01*
X120623661Y-71063756D01*
X120616624Y-71060391D01*
X120609741Y-71056709D01*
X120603012Y-71052708D01*
X120596435Y-71048391D01*
X120590009Y-71043756D01*
X120583733Y-71038804D01*
X120577774Y-71033611D01*
X120572199Y-71028251D01*
X120567009Y-71022725D01*
X120562203Y-71017034D01*
X120557782Y-71011178D01*
X120553745Y-71005160D01*
X120550093Y-70998978D01*
X120546825Y-70992634D01*
X120543941Y-70986129D01*
X120541442Y-70979464D01*
X120539328Y-70972639D01*
X120537598Y-70965655D01*
X120536252Y-70958513D01*
X120535291Y-70951213D01*
X120534714Y-70943757D01*
X120534522Y-70936145D01*
X120534674Y-70929560D01*
X120535130Y-70923099D01*
X120535889Y-70916762D01*
X120536953Y-70910551D01*
X120538320Y-70904465D01*
X120539991Y-70898506D01*
X120541966Y-70892673D01*
X120544245Y-70886966D01*
X120546828Y-70881387D01*
X120549715Y-70875935D01*
X120552905Y-70870611D01*
X120556399Y-70865415D01*
X120560198Y-70860348D01*
X120564300Y-70855410D01*
X120568706Y-70850601D01*
X120573415Y-70845922D01*
X120578336Y-70841451D01*
X120583373Y-70837266D01*
X120588527Y-70833367D01*
X120593796Y-70829754D01*
X120599180Y-70826428D01*
X120604678Y-70823389D01*
X120610289Y-70820638D01*
X120616013Y-70818174D01*
X120621848Y-70815999D01*
X120627794Y-70814113D01*
X120633850Y-70812516D01*
X120640016Y-70811208D01*
X120646289Y-70810191D01*
X120652671Y-70809463D01*
X120659159Y-70809027D01*
X120665754Y-70808881D01*
X120672451Y-70809042D01*
X120680240Y-70809526D01*
X120689120Y-70810332D01*
X120699092Y-70811461D01*
X120710154Y-70812912D01*
X120722309Y-70814685D01*
X120735554Y-70816781D01*
X120749891Y-70819200D01*
X120764415Y-70821618D01*
X120778222Y-70823714D01*
X120791317Y-70825488D01*
X120803701Y-70826939D01*
X120815378Y-70828067D01*
X120826352Y-70828873D01*
X120836625Y-70829357D01*
X120846200Y-70829518D01*
X120851763Y-70829382D01*
X120857191Y-70828973D01*
X120862485Y-70828291D01*
X120867643Y-70827336D01*
X120872667Y-70826109D01*
X120877555Y-70824609D01*
X120882308Y-70822836D01*
X120886925Y-70820791D01*
X120891408Y-70818474D01*
X120895755Y-70815884D01*
X120899967Y-70813022D01*
X120904043Y-70809887D01*
X120907984Y-70806480D01*
X120911790Y-70802801D01*
X120915460Y-70798850D01*
X120918994Y-70794626D01*
X120922393Y-70790131D01*
X120925655Y-70785363D01*
X120928783Y-70780324D01*
X120931774Y-70775013D01*
X120934630Y-70769429D01*
X120937349Y-70763574D01*
X120939933Y-70757447D01*
X120942381Y-70751049D01*
X120944692Y-70744378D01*
X120946868Y-70737436D01*
X120948907Y-70730223D01*
X120950811Y-70722738D01*
X120954208Y-70706953D01*
X120957061Y-70690083D01*
X120957991Y-70679615D01*
X120958797Y-70664679D01*
X120959479Y-70645272D01*
X120960037Y-70621390D01*
X120960782Y-70560193D01*
X120961030Y-70481062D01*
X120961030Y-69701864D01*
X120961923Y-69646848D01*
X120964606Y-69594514D01*
X120969080Y-69544865D01*
X120975350Y-69497904D01*
X120979159Y-69475432D01*
X120983418Y-69453634D01*
X120988128Y-69432510D01*
X120993288Y-69412059D01*
X120998899Y-69392283D01*
X121004962Y-69373181D01*
X121011477Y-69354755D01*
X121018444Y-69337004D01*
X121027671Y-69316190D01*
X121037891Y-69295814D01*
X121049103Y-69275877D01*
X121061306Y-69256376D01*
X121074503Y-69237312D01*
X121088691Y-69218681D01*
X121103871Y-69200484D01*
X121120044Y-69182719D01*
X121137209Y-69165385D01*
X121155366Y-69148481D01*
X121174515Y-69132005D01*
X121194657Y-69115957D01*
X121215790Y-69100336D01*
X121237916Y-69085139D01*
X121261034Y-69070366D01*
X121285145Y-69056017D01*
X121309847Y-69042368D01*
X121334742Y-69029600D01*
X121359828Y-69017712D01*
X121385107Y-69006705D01*
X121410579Y-68996579D01*
X121436242Y-68987333D01*
X121462098Y-68978967D01*
X121488146Y-68971483D01*
X121514386Y-68964878D01*
X121540819Y-68959155D01*
X121567443Y-68954312D01*
X121594260Y-68950349D01*
X121621270Y-68947267D01*
X121648471Y-68945066D01*
X121675865Y-68943745D01*
X121703451Y-68943305D01*
X121754059Y-68944523D01*
G37*
G36*
X123197969Y-69750547D02*
G01*
X123525378Y-69750547D01*
X123525461Y-69754087D01*
X123525713Y-69757514D01*
X123526131Y-69760828D01*
X123526718Y-69764029D01*
X123527472Y-69767117D01*
X123528393Y-69770092D01*
X123529482Y-69772954D01*
X123530740Y-69775703D01*
X123532164Y-69778340D01*
X123533757Y-69780863D01*
X123535518Y-69783275D01*
X123537447Y-69785573D01*
X123539543Y-69787759D01*
X123541808Y-69789832D01*
X123544241Y-69791793D01*
X123546842Y-69793641D01*
X123549611Y-69795377D01*
X123552549Y-69797001D01*
X123555654Y-69798512D01*
X123558929Y-69799911D01*
X123562371Y-69801198D01*
X123565982Y-69802373D01*
X123569762Y-69803435D01*
X123573710Y-69804386D01*
X123577826Y-69805224D01*
X123582111Y-69805951D01*
X123586565Y-69806566D01*
X123591188Y-69807068D01*
X123595979Y-69807459D01*
X123600940Y-69807739D01*
X123606069Y-69807906D01*
X123611367Y-69807962D01*
X124591648Y-69807962D01*
X124602559Y-69807739D01*
X124612769Y-69807068D01*
X124622277Y-69805951D01*
X124631084Y-69804386D01*
X124639188Y-69802373D01*
X124646589Y-69799911D01*
X124653287Y-69797001D01*
X124656373Y-69795377D01*
X124659282Y-69793641D01*
X124662016Y-69791793D01*
X124664573Y-69789832D01*
X124666955Y-69787759D01*
X124669160Y-69785573D01*
X124671189Y-69783275D01*
X124673042Y-69780863D01*
X124674719Y-69778340D01*
X124676219Y-69775703D01*
X124677543Y-69772954D01*
X124678691Y-69770092D01*
X124679662Y-69767117D01*
X124680457Y-69764029D01*
X124681075Y-69760828D01*
X124681517Y-69757514D01*
X124681782Y-69754087D01*
X124681870Y-69750547D01*
X124681135Y-69725054D01*
X124678930Y-69699870D01*
X124675253Y-69674995D01*
X124670105Y-69650427D01*
X124663483Y-69626167D01*
X124655388Y-69602212D01*
X124645819Y-69578563D01*
X124634775Y-69555219D01*
X124622254Y-69532178D01*
X124608257Y-69509440D01*
X124592783Y-69487005D01*
X124575830Y-69464872D01*
X124557399Y-69443039D01*
X124537488Y-69421506D01*
X124516096Y-69400272D01*
X124493223Y-69379337D01*
X124493224Y-69379602D01*
X124469499Y-69359467D01*
X124445450Y-69340633D01*
X124421080Y-69323101D01*
X124396386Y-69306870D01*
X124371371Y-69291940D01*
X124346033Y-69278310D01*
X124320372Y-69265980D01*
X124294389Y-69254950D01*
X124268084Y-69245219D01*
X124241456Y-69236786D01*
X124214506Y-69229652D01*
X124187233Y-69223816D01*
X124159638Y-69219277D01*
X124131721Y-69216036D01*
X124103481Y-69214092D01*
X124074918Y-69213444D01*
X124046544Y-69214067D01*
X124018853Y-69215937D01*
X123991820Y-69219054D01*
X123965422Y-69223419D01*
X123939635Y-69229032D01*
X123914435Y-69235893D01*
X123889798Y-69244003D01*
X123865699Y-69253362D01*
X123842115Y-69263971D01*
X123819022Y-69275830D01*
X123796395Y-69288939D01*
X123774211Y-69303298D01*
X123752445Y-69318909D01*
X123731075Y-69335771D01*
X123710074Y-69353885D01*
X123689420Y-69373252D01*
X123669570Y-69393467D01*
X123650998Y-69414130D01*
X123633704Y-69435240D01*
X123617689Y-69456798D01*
X123602952Y-69478803D01*
X123589495Y-69501258D01*
X123577318Y-69524160D01*
X123566421Y-69547513D01*
X123556805Y-69571314D01*
X123548469Y-69595566D01*
X123541415Y-69620268D01*
X123535643Y-69645421D01*
X123531152Y-69671025D01*
X123527944Y-69697080D01*
X123526019Y-69723588D01*
X123525378Y-69750547D01*
X123197969Y-69750547D01*
X123201851Y-69713199D01*
X123208691Y-69667291D01*
X123217485Y-69622470D01*
X123228234Y-69578736D01*
X123240939Y-69536089D01*
X123255600Y-69494530D01*
X123272218Y-69454060D01*
X123290792Y-69414678D01*
X123311324Y-69376386D01*
X123333814Y-69339183D01*
X123358261Y-69303069D01*
X123384667Y-69268046D01*
X123413032Y-69234114D01*
X123443356Y-69201273D01*
X123443357Y-69201272D01*
X123475141Y-69169987D01*
X123507986Y-69140724D01*
X123541890Y-69113481D01*
X123576856Y-69088258D01*
X123612881Y-69065056D01*
X123649968Y-69043873D01*
X123688114Y-69024709D01*
X123727321Y-69007564D01*
X123767589Y-68992438D01*
X123808916Y-68979330D01*
X123851305Y-68968240D01*
X123894753Y-68959166D01*
X123939262Y-68952110D01*
X123984831Y-68947070D01*
X124031461Y-68944047D01*
X124079151Y-68943039D01*
X124132835Y-68944258D01*
X124185241Y-68947913D01*
X124236368Y-68954004D01*
X124286217Y-68962531D01*
X124334787Y-68973494D01*
X124382078Y-68986892D01*
X124428088Y-69002725D01*
X124472819Y-69020992D01*
X124516269Y-69041693D01*
X124558438Y-69064827D01*
X124599325Y-69090395D01*
X124638931Y-69118396D01*
X124677255Y-69148829D01*
X124714296Y-69181694D01*
X124750055Y-69216990D01*
X124784530Y-69254718D01*
X124817306Y-69294400D01*
X124847968Y-69335557D01*
X124876515Y-69378190D01*
X124902947Y-69422299D01*
X124927265Y-69467884D01*
X124949468Y-69514944D01*
X124969557Y-69563481D01*
X124987531Y-69613493D01*
X125003390Y-69664982D01*
X125017135Y-69717946D01*
X125028766Y-69772386D01*
X125038281Y-69828302D01*
X125045682Y-69885694D01*
X125050969Y-69944562D01*
X125054141Y-70004905D01*
X125055198Y-70066725D01*
X125054206Y-70128318D01*
X125051229Y-70188006D01*
X125046266Y-70245825D01*
X125039319Y-70301811D01*
X125030385Y-70356000D01*
X125019465Y-70408429D01*
X125006559Y-70459133D01*
X124991665Y-70508149D01*
X124974784Y-70555511D01*
X124955915Y-70601258D01*
X124935058Y-70645423D01*
X124912212Y-70688045D01*
X124887377Y-70729158D01*
X124860553Y-70768798D01*
X124831739Y-70807002D01*
X124800935Y-70843806D01*
X124768447Y-70878839D01*
X124734583Y-70911610D01*
X124699343Y-70942118D01*
X124662728Y-70970364D01*
X124624737Y-70996347D01*
X124585372Y-71020070D01*
X124544632Y-71041531D01*
X124502518Y-71060731D01*
X124459031Y-71077671D01*
X124414170Y-71092352D01*
X124367937Y-71104772D01*
X124320331Y-71114934D01*
X124271354Y-71122837D01*
X124221004Y-71128481D01*
X124169283Y-71131867D01*
X124116192Y-71132996D01*
X124073419Y-71132187D01*
X124031224Y-71129759D01*
X123989605Y-71125713D01*
X123948563Y-71120048D01*
X123908097Y-71112765D01*
X123868208Y-71103863D01*
X123828896Y-71093343D01*
X123790160Y-71081204D01*
X123752001Y-71067446D01*
X123714419Y-71052071D01*
X123677414Y-71035076D01*
X123640985Y-71016464D01*
X123605133Y-70996232D01*
X123569857Y-70974382D01*
X123535159Y-70950914D01*
X123501037Y-70925827D01*
X123468260Y-70899702D01*
X123437599Y-70873116D01*
X123409052Y-70846070D01*
X123382619Y-70818563D01*
X123358301Y-70790595D01*
X123336098Y-70762163D01*
X123316010Y-70733268D01*
X123298036Y-70703908D01*
X123282176Y-70674083D01*
X123268431Y-70643793D01*
X123256801Y-70613036D01*
X123247285Y-70581811D01*
X123239884Y-70550118D01*
X123234598Y-70517957D01*
X123231426Y-70485325D01*
X123230369Y-70452223D01*
X123230961Y-70433337D01*
X123231701Y-70424352D01*
X123232738Y-70415673D01*
X123234070Y-70407298D01*
X123235699Y-70399229D01*
X123237623Y-70391465D01*
X123239844Y-70384006D01*
X123242361Y-70376852D01*
X123245174Y-70370003D01*
X123248283Y-70363459D01*
X123251688Y-70357220D01*
X123255389Y-70351285D01*
X123259387Y-70345656D01*
X123263680Y-70340331D01*
X123268270Y-70335310D01*
X123273155Y-70330595D01*
X123278337Y-70326184D01*
X123283815Y-70322077D01*
X123289589Y-70318275D01*
X123295659Y-70314778D01*
X123302025Y-70311584D01*
X123308688Y-70308696D01*
X123315646Y-70306111D01*
X123322901Y-70303831D01*
X123330452Y-70301855D01*
X123338298Y-70300183D01*
X123346441Y-70298815D01*
X123354880Y-70297751D01*
X123363615Y-70296991D01*
X123372647Y-70296535D01*
X123381974Y-70296384D01*
X123395012Y-70296768D01*
X123407437Y-70297921D01*
X123419250Y-70299844D01*
X123430451Y-70302535D01*
X123441041Y-70305995D01*
X123446107Y-70308014D01*
X123451021Y-70310225D01*
X123455783Y-70312628D01*
X123460392Y-70315223D01*
X123464849Y-70318010D01*
X123469155Y-70320990D01*
X123473308Y-70324162D01*
X123477309Y-70327526D01*
X123481159Y-70331082D01*
X123484857Y-70334831D01*
X123488403Y-70338772D01*
X123491798Y-70342905D01*
X123495042Y-70347230D01*
X123498134Y-70351748D01*
X123503866Y-70361359D01*
X123508993Y-70371740D01*
X123513518Y-70382890D01*
X123517440Y-70394808D01*
X123554218Y-70513871D01*
X123560280Y-70532614D01*
X123567154Y-70550942D01*
X123574842Y-70568854D01*
X123583343Y-70586351D01*
X123592658Y-70603432D01*
X123602787Y-70620097D01*
X123613731Y-70636348D01*
X123625490Y-70652182D01*
X123638065Y-70667602D01*
X123651455Y-70682605D01*
X123665662Y-70697193D01*
X123680685Y-70711366D01*
X123696525Y-70725124D01*
X123713182Y-70738465D01*
X123730658Y-70751392D01*
X123748951Y-70763903D01*
X123767775Y-70775821D01*
X123786840Y-70786971D01*
X123806148Y-70797352D01*
X123825697Y-70806963D01*
X123845488Y-70815806D01*
X123865521Y-70823880D01*
X123885795Y-70831185D01*
X123906312Y-70837721D01*
X123927070Y-70843488D01*
X123948070Y-70848486D01*
X123969312Y-70852715D01*
X123990796Y-70856176D01*
X124012522Y-70858867D01*
X124034489Y-70860789D01*
X124056698Y-70861943D01*
X124079150Y-70862327D01*
X124113129Y-70861527D01*
X124146407Y-70859127D01*
X124178984Y-70855126D01*
X124210859Y-70849524D01*
X124242031Y-70842320D01*
X124272501Y-70833515D01*
X124302268Y-70823107D01*
X124331331Y-70811097D01*
X124359691Y-70797484D01*
X124387346Y-70782267D01*
X124414297Y-70765447D01*
X124440542Y-70747022D01*
X124466082Y-70726993D01*
X124490917Y-70705359D01*
X124515045Y-70682120D01*
X124538467Y-70657275D01*
X124560816Y-70631227D01*
X124581726Y-70604379D01*
X124601196Y-70576731D01*
X124619227Y-70548283D01*
X124635817Y-70519035D01*
X124650967Y-70488988D01*
X124664675Y-70458140D01*
X124676943Y-70426492D01*
X124687768Y-70394045D01*
X124697152Y-70360797D01*
X124705093Y-70326750D01*
X124711591Y-70291902D01*
X124716645Y-70256255D01*
X124720256Y-70219807D01*
X124722423Y-70182560D01*
X124723145Y-70144513D01*
X124723080Y-70140469D01*
X124722885Y-70136575D01*
X124722561Y-70132828D01*
X124722107Y-70129229D01*
X124721525Y-70125777D01*
X124720815Y-70122472D01*
X124719977Y-70119314D01*
X124719011Y-70116301D01*
X124717918Y-70113435D01*
X124716698Y-70110714D01*
X124715352Y-70108137D01*
X124713880Y-70105706D01*
X124712283Y-70103418D01*
X124710560Y-70101275D01*
X124708712Y-70099274D01*
X124706741Y-70097417D01*
X124704561Y-70095687D01*
X124702090Y-70094068D01*
X124699328Y-70092561D01*
X124696274Y-70091166D01*
X124692929Y-70089882D01*
X124689292Y-70088710D01*
X124685363Y-70087650D01*
X124681144Y-70086701D01*
X124676632Y-70085864D01*
X124671829Y-70085138D01*
X124666735Y-70084525D01*
X124661349Y-70084022D01*
X124655672Y-70083632D01*
X124649703Y-70083353D01*
X124643442Y-70083185D01*
X124636890Y-70083129D01*
X123332760Y-70083129D01*
X123320761Y-70082993D01*
X123309369Y-70082584D01*
X123298585Y-70081902D01*
X123288409Y-70080947D01*
X123278841Y-70079719D01*
X123269880Y-70078218D01*
X123261527Y-70076444D01*
X123253782Y-70074398D01*
X123246644Y-70072079D01*
X123240115Y-70069487D01*
X123234192Y-70066622D01*
X123228878Y-70063484D01*
X123224171Y-70060073D01*
X123220072Y-70056390D01*
X123216581Y-70052433D01*
X123213697Y-70048204D01*
X123211198Y-70043367D01*
X123208860Y-70037587D01*
X123206683Y-70030864D01*
X123204668Y-70023197D01*
X123202814Y-70014586D01*
X123201121Y-70005030D01*
X123199589Y-69994530D01*
X123198219Y-69983084D01*
X123197009Y-69970692D01*
X123195962Y-69957355D01*
X123195075Y-69943070D01*
X123194349Y-69927840D01*
X123193785Y-69911661D01*
X123193382Y-69894536D01*
X123193059Y-69857440D01*
X123194036Y-69808274D01*
X123196967Y-69760193D01*
X123197969Y-69750547D01*
G37*
G36*
X125322291Y-70033916D02*
G01*
X125653951Y-70033916D01*
X125654584Y-70082914D01*
X125656481Y-70130492D01*
X125659644Y-70176648D01*
X125664071Y-70221381D01*
X125669764Y-70264692D01*
X125676721Y-70306578D01*
X125684944Y-70347040D01*
X125694432Y-70386076D01*
X125705185Y-70423686D01*
X125717202Y-70459869D01*
X125730485Y-70494624D01*
X125745033Y-70527951D01*
X125760846Y-70559848D01*
X125777924Y-70590315D01*
X125796268Y-70619351D01*
X125815876Y-70646955D01*
X125836637Y-70673006D01*
X125858441Y-70697382D01*
X125881286Y-70720082D01*
X125905173Y-70741106D01*
X125930101Y-70760452D01*
X125956072Y-70778120D01*
X125983084Y-70794108D01*
X126011138Y-70808417D01*
X126040234Y-70821046D01*
X126070372Y-70831993D01*
X126101552Y-70841258D01*
X126133773Y-70848841D01*
X126167036Y-70854740D01*
X126201341Y-70858954D01*
X126236688Y-70861483D01*
X126273077Y-70862326D01*
X126297435Y-70861942D01*
X126321297Y-70860788D01*
X126344663Y-70858866D01*
X126367533Y-70856175D01*
X126389906Y-70852714D01*
X126411784Y-70848485D01*
X126433166Y-70843487D01*
X126454051Y-70837720D01*
X126474441Y-70831184D01*
X126494334Y-70823879D01*
X126513731Y-70815805D01*
X126532632Y-70806962D01*
X126551037Y-70797350D01*
X126568946Y-70786969D01*
X126586359Y-70775820D01*
X126603275Y-70763901D01*
X126619600Y-70751495D01*
X126635236Y-70738884D01*
X126650183Y-70726067D01*
X126664440Y-70713043D01*
X126678007Y-70699811D01*
X126690884Y-70686371D01*
X126703071Y-70672721D01*
X126714566Y-70658862D01*
X126725370Y-70644791D01*
X126735482Y-70630509D01*
X126744902Y-70616014D01*
X126753629Y-70601307D01*
X126761663Y-70586385D01*
X126769004Y-70571248D01*
X126775652Y-70555897D01*
X126781605Y-70540328D01*
X126787084Y-70524116D01*
X126792209Y-70506731D01*
X126796981Y-70488175D01*
X126801399Y-70468449D01*
X126805464Y-70447551D01*
X126809176Y-70425484D01*
X126812534Y-70402247D01*
X126815538Y-70377841D01*
X126818189Y-70352266D01*
X126820486Y-70325522D01*
X126824021Y-70268531D01*
X126826142Y-70206870D01*
X126826849Y-70140543D01*
X126826849Y-70083128D01*
X126825072Y-70062334D01*
X126823741Y-70045160D01*
X126822905Y-70031559D01*
X126822689Y-70026083D01*
X126822616Y-70021480D01*
X126821104Y-69965135D01*
X126818553Y-69910988D01*
X126814966Y-69859030D01*
X126810347Y-69809252D01*
X126804698Y-69761644D01*
X126798023Y-69716197D01*
X126790325Y-69672902D01*
X126781606Y-69631749D01*
X126776053Y-69609419D01*
X126769614Y-69587572D01*
X126762290Y-69566209D01*
X126754081Y-69545330D01*
X126744989Y-69524934D01*
X126735014Y-69505022D01*
X126724157Y-69485594D01*
X126712418Y-69466649D01*
X126699799Y-69448188D01*
X126686300Y-69430211D01*
X126671922Y-69412718D01*
X126656666Y-69395708D01*
X126640532Y-69379182D01*
X126623522Y-69363139D01*
X126605635Y-69347581D01*
X126586874Y-69332506D01*
X126586872Y-69332506D01*
X126567503Y-69318091D01*
X126547793Y-69304612D01*
X126527742Y-69292067D01*
X126507352Y-69280457D01*
X126486623Y-69269780D01*
X126465554Y-69260036D01*
X126444146Y-69251223D01*
X126422400Y-69243341D01*
X126400317Y-69236389D01*
X126377895Y-69230367D01*
X126355136Y-69225273D01*
X126332041Y-69221108D01*
X126308609Y-69217869D01*
X126284841Y-69215557D01*
X126260737Y-69214170D01*
X126236298Y-69213708D01*
X126200478Y-69214508D01*
X126165794Y-69216911D01*
X126132247Y-69220914D01*
X126099836Y-69226520D01*
X126068562Y-69233727D01*
X126038424Y-69242535D01*
X126009423Y-69252946D01*
X125981559Y-69264958D01*
X125954831Y-69278572D01*
X125929241Y-69293788D01*
X125904787Y-69310606D01*
X125881470Y-69329026D01*
X125859290Y-69349048D01*
X125838246Y-69370672D01*
X125818340Y-69393898D01*
X125799571Y-69418727D01*
X125781940Y-69445157D01*
X125765445Y-69473190D01*
X125750087Y-69502825D01*
X125735867Y-69534063D01*
X125722784Y-69566903D01*
X125710839Y-69601345D01*
X125700031Y-69637390D01*
X125690360Y-69675038D01*
X125681827Y-69714288D01*
X125674432Y-69755141D01*
X125668174Y-69797596D01*
X125663054Y-69841654D01*
X125659072Y-69887315D01*
X125656227Y-69934579D01*
X125654520Y-69983446D01*
X125653951Y-70033916D01*
X125322291Y-70033916D01*
X125321636Y-69991847D01*
X125322582Y-69932158D01*
X125325418Y-69874038D01*
X125330145Y-69817486D01*
X125336763Y-69762503D01*
X125345270Y-69709090D01*
X125355667Y-69657245D01*
X125367952Y-69606969D01*
X125382126Y-69558262D01*
X125398189Y-69511123D01*
X125416139Y-69465554D01*
X125435977Y-69421554D01*
X125457702Y-69379122D01*
X125481314Y-69338260D01*
X125506812Y-69298966D01*
X125534196Y-69261241D01*
X125563465Y-69225085D01*
X125594381Y-69190821D01*
X125626606Y-69158769D01*
X125660142Y-69128931D01*
X125694988Y-69101306D01*
X125731145Y-69075892D01*
X125768615Y-69052691D01*
X125807398Y-69031701D01*
X125847495Y-69012922D01*
X125888907Y-68996354D01*
X125931634Y-68981997D01*
X125975677Y-68969849D01*
X126021038Y-68959911D01*
X126067716Y-68952182D01*
X126115712Y-68946661D01*
X126165028Y-68943350D01*
X126215664Y-68942246D01*
X126266113Y-68943495D01*
X126314894Y-68947244D01*
X126362042Y-68953492D01*
X126407594Y-68962238D01*
X126451587Y-68973484D01*
X126494056Y-68987229D01*
X126535039Y-69003473D01*
X126574571Y-69022216D01*
X126612689Y-69043458D01*
X126649430Y-69067199D01*
X126684830Y-69093439D01*
X126718926Y-69122179D01*
X126751753Y-69153417D01*
X126783349Y-69187155D01*
X126813749Y-69223391D01*
X126842991Y-69262127D01*
X126842991Y-69130893D01*
X126843391Y-69117003D01*
X126844591Y-69104005D01*
X126845492Y-69097842D01*
X126846592Y-69091902D01*
X126847893Y-69086186D01*
X126849395Y-69080693D01*
X126851096Y-69075423D01*
X126852998Y-69070378D01*
X126855101Y-69065556D01*
X126857404Y-69060958D01*
X126859908Y-69056584D01*
X126862612Y-69052433D01*
X126865517Y-69048507D01*
X126868622Y-69044804D01*
X126871929Y-69041326D01*
X126875436Y-69038071D01*
X126879144Y-69035041D01*
X126883053Y-69032235D01*
X126887163Y-69029653D01*
X126891474Y-69027296D01*
X126895986Y-69025162D01*
X126900699Y-69023253D01*
X126905614Y-69021569D01*
X126910729Y-69020108D01*
X126916046Y-69018873D01*
X126921564Y-69017862D01*
X126927283Y-69017075D01*
X126933204Y-69016513D01*
X126939327Y-69016176D01*
X126945650Y-69016064D01*
X126945647Y-69016593D01*
X126954453Y-69016692D01*
X126964400Y-69016986D01*
X126975487Y-69017472D01*
X126987716Y-69018147D01*
X127015596Y-69020053D01*
X127048040Y-69022678D01*
X127080886Y-69025303D01*
X127109589Y-69027209D01*
X127134175Y-69028371D01*
X127144932Y-69028665D01*
X127154668Y-69028763D01*
X127167803Y-69028639D01*
X127182602Y-69028263D01*
X127199070Y-69027633D01*
X127217209Y-69026746D01*
X127258513Y-69024187D01*
X127306539Y-69020561D01*
X127332634Y-69018784D01*
X127357736Y-69017453D01*
X127381846Y-69016618D01*
X127393529Y-69016402D01*
X127404963Y-69016328D01*
X127426828Y-69016840D01*
X127447280Y-69018375D01*
X127466319Y-69020934D01*
X127483945Y-69024518D01*
X127500159Y-69029126D01*
X127507736Y-69031815D01*
X127514961Y-69034760D01*
X127521833Y-69037961D01*
X127528351Y-69041418D01*
X127534517Y-69045133D01*
X127540330Y-69049103D01*
X127545791Y-69053331D01*
X127550899Y-69057814D01*
X127555654Y-69062555D01*
X127560057Y-69067552D01*
X127564107Y-69072806D01*
X127567805Y-69078317D01*
X127571150Y-69084085D01*
X127574143Y-69090110D01*
X127576784Y-69096391D01*
X127579073Y-69102930D01*
X127581009Y-69109725D01*
X127582593Y-69116778D01*
X127583825Y-69124088D01*
X127584705Y-69131655D01*
X127585233Y-69139480D01*
X127585409Y-69147561D01*
X127585262Y-69155655D01*
X127584823Y-69163512D01*
X127584090Y-69171133D01*
X127583064Y-69178515D01*
X127581745Y-69185658D01*
X127580133Y-69192559D01*
X127578227Y-69199218D01*
X127576028Y-69205634D01*
X127573536Y-69211803D01*
X127570750Y-69217726D01*
X127567671Y-69223401D01*
X127564298Y-69228827D01*
X127560632Y-69234001D01*
X127556672Y-69238923D01*
X127552419Y-69243591D01*
X127547871Y-69248004D01*
X127543030Y-69252161D01*
X127537895Y-69256059D01*
X127532466Y-69259698D01*
X127526743Y-69263077D01*
X127520727Y-69266193D01*
X127514416Y-69269045D01*
X127507811Y-69271633D01*
X127500912Y-69273954D01*
X127493719Y-69276007D01*
X127486232Y-69277792D01*
X127478450Y-69279305D01*
X127470374Y-69280546D01*
X127462004Y-69281514D01*
X127453339Y-69282208D01*
X127444380Y-69282625D01*
X127435126Y-69282764D01*
X127430956Y-69282708D01*
X127426581Y-69282541D01*
X127417217Y-69281871D01*
X127407035Y-69280755D01*
X127396034Y-69279192D01*
X127384215Y-69277183D01*
X127371576Y-69274727D01*
X127358119Y-69271825D01*
X127343844Y-69268476D01*
X127329544Y-69265128D01*
X127316211Y-69262226D01*
X127303846Y-69259770D01*
X127292449Y-69257761D01*
X127282018Y-69256198D01*
X127272555Y-69255082D01*
X127264060Y-69254412D01*
X127256531Y-69254189D01*
X127250277Y-69254374D01*
X127244213Y-69254927D01*
X127238340Y-69255849D01*
X127232657Y-69257140D01*
X127227165Y-69258800D01*
X127221864Y-69260829D01*
X127216754Y-69263226D01*
X127211834Y-69265992D01*
X127207105Y-69269127D01*
X127202566Y-69272630D01*
X127198219Y-69276501D01*
X127194062Y-69280741D01*
X127190095Y-69285349D01*
X127186320Y-69290326D01*
X127182734Y-69295671D01*
X127179340Y-69301384D01*
X127176136Y-69307466D01*
X127173123Y-69313915D01*
X127170301Y-69320733D01*
X127167670Y-69327918D01*
X127165229Y-69335472D01*
X127162978Y-69343394D01*
X127160919Y-69351683D01*
X127159050Y-69360341D01*
X127157372Y-69369366D01*
X127155884Y-69378759D01*
X127154587Y-69388520D01*
X127153481Y-69398648D01*
X127152566Y-69409144D01*
X127151841Y-69420007D01*
X127150964Y-69442837D01*
X127150964Y-71025839D01*
X127153841Y-71190550D01*
X127158504Y-71319593D01*
X127161506Y-71370753D01*
X127164954Y-71413015D01*
X127168848Y-71446385D01*
X127173189Y-71470868D01*
X127175701Y-71480530D01*
X127178672Y-71489570D01*
X127180330Y-71493858D01*
X127182103Y-71497990D01*
X127183990Y-71501967D01*
X127185993Y-71505789D01*
X127188111Y-71509455D01*
X127190344Y-71512966D01*
X127192692Y-71516321D01*
X127195156Y-71519521D01*
X127197734Y-71522565D01*
X127200429Y-71525454D01*
X127203238Y-71528186D01*
X127206163Y-71530763D01*
X127209203Y-71533184D01*
X127212359Y-71535450D01*
X127215631Y-71537559D01*
X127219018Y-71539513D01*
X127222521Y-71541310D01*
X127226140Y-71542951D01*
X127229874Y-71544437D01*
X127233725Y-71545766D01*
X127237691Y-71546939D01*
X127241773Y-71547956D01*
X127245971Y-71548816D01*
X127250285Y-71549520D01*
X127254716Y-71550068D01*
X127259262Y-71550459D01*
X127263925Y-71550694D01*
X127268703Y-71550772D01*
X127277410Y-71550550D01*
X127287258Y-71549883D01*
X127298246Y-71548777D01*
X127310375Y-71547233D01*
X127323646Y-71545255D01*
X127338057Y-71542847D01*
X127353610Y-71540010D01*
X127370304Y-71536749D01*
X127383054Y-71534243D01*
X127394914Y-71532082D01*
X127405888Y-71530261D01*
X127415978Y-71528779D01*
X127425187Y-71527631D01*
X127433519Y-71526815D01*
X127440976Y-71526328D01*
X127447562Y-71526166D01*
X127464287Y-71526671D01*
X127472244Y-71527303D01*
X127479932Y-71528188D01*
X127487350Y-71529325D01*
X127494499Y-71530715D01*
X127501377Y-71532357D01*
X127507986Y-71534252D01*
X127514325Y-71536400D01*
X127520395Y-71538801D01*
X127526194Y-71541454D01*
X127531724Y-71544360D01*
X127536984Y-71547519D01*
X127541975Y-71550931D01*
X127546695Y-71554595D01*
X127551146Y-71558511D01*
X127555327Y-71562681D01*
X127559239Y-71567103D01*
X127562880Y-71571778D01*
X127566252Y-71576706D01*
X127569354Y-71581886D01*
X127572187Y-71587319D01*
X127574749Y-71593005D01*
X127577042Y-71598943D01*
X127579065Y-71605134D01*
X127580819Y-71611578D01*
X127582302Y-71618275D01*
X127583516Y-71625224D01*
X127584460Y-71632426D01*
X127585135Y-71639880D01*
X127585539Y-71647588D01*
X127585674Y-71655548D01*
X127585482Y-71662539D01*
X127584906Y-71669425D01*
X127583946Y-71676205D01*
X127582603Y-71682878D01*
X127580876Y-71689445D01*
X127578768Y-71695903D01*
X127576277Y-71702255D01*
X127573404Y-71708498D01*
X127570150Y-71714632D01*
X127566515Y-71720658D01*
X127562500Y-71726574D01*
X127558104Y-71732380D01*
X127553328Y-71738077D01*
X127548174Y-71743663D01*
X127542640Y-71749138D01*
X127536727Y-71754502D01*
X127530498Y-71759642D01*
X127524113Y-71764449D01*
X127517573Y-71768921D01*
X127510877Y-71773060D01*
X127504023Y-71776865D01*
X127497013Y-71780337D01*
X127489846Y-71783477D01*
X127482520Y-71786285D01*
X127475037Y-71788760D01*
X127467395Y-71790905D01*
X127459594Y-71792718D01*
X127451634Y-71794201D01*
X127443515Y-71795354D01*
X127435235Y-71796177D01*
X127426795Y-71796670D01*
X127418194Y-71796835D01*
X127403174Y-71796512D01*
X127384707Y-71795545D01*
X127362792Y-71793933D01*
X127337429Y-71791675D01*
X127308618Y-71788773D01*
X127276360Y-71785226D01*
X127240653Y-71781034D01*
X127201499Y-71776197D01*
X127184620Y-71774250D01*
X127166723Y-71772572D01*
X127147810Y-71771161D01*
X127127879Y-71770013D01*
X127106932Y-71769126D01*
X127084967Y-71768496D01*
X127061986Y-71768120D01*
X127037987Y-71767996D01*
X126953705Y-71768781D01*
X126915776Y-71769754D01*
X126880660Y-71771105D01*
X126848358Y-71772827D01*
X126818875Y-71774916D01*
X126792214Y-71777364D01*
X126768377Y-71780166D01*
X126710884Y-71787306D01*
X126685010Y-71790124D01*
X126661056Y-71792436D01*
X126639024Y-71794240D01*
X126618917Y-71795532D01*
X126600739Y-71796310D01*
X126584492Y-71796570D01*
X126563683Y-71796040D01*
X126544220Y-71794450D01*
X126526102Y-71791800D01*
X126509329Y-71788091D01*
X126501446Y-71785839D01*
X126493899Y-71783323D01*
X126486689Y-71780542D01*
X126479814Y-71777497D01*
X126473275Y-71774187D01*
X126467071Y-71770612D01*
X126461204Y-71766773D01*
X126455672Y-71762670D01*
X126450476Y-71758303D01*
X126445615Y-71753671D01*
X126441090Y-71748775D01*
X126436901Y-71743615D01*
X126433047Y-71738190D01*
X126429528Y-71732502D01*
X126426345Y-71726549D01*
X126423496Y-71720333D01*
X126420984Y-71713852D01*
X126418806Y-71707108D01*
X126416964Y-71700100D01*
X126415456Y-71692828D01*
X126414284Y-71685292D01*
X126413447Y-71677493D01*
X126412944Y-71669430D01*
X126412777Y-71661103D01*
X126413289Y-71644714D01*
X126413928Y-71636914D01*
X126414824Y-71629379D01*
X126415975Y-71622107D01*
X126417383Y-71615099D01*
X126419047Y-71608354D01*
X126420967Y-71601874D01*
X126423143Y-71595657D01*
X126425575Y-71589705D01*
X126428264Y-71584017D01*
X126431209Y-71578592D01*
X126434410Y-71573432D01*
X126437868Y-71568536D01*
X126441582Y-71563904D01*
X126445553Y-71559537D01*
X126449780Y-71555433D01*
X126454264Y-71551595D01*
X126459004Y-71548020D01*
X126464002Y-71544710D01*
X126469256Y-71541665D01*
X126474767Y-71538884D01*
X126480535Y-71536368D01*
X126486559Y-71534116D01*
X126492841Y-71532129D01*
X126499380Y-71530407D01*
X126506175Y-71528950D01*
X126513228Y-71527758D01*
X126520538Y-71526830D01*
X126528105Y-71526167D01*
X126535930Y-71525770D01*
X126544012Y-71525637D01*
X126551613Y-71525835D01*
X126560126Y-71526427D01*
X126569544Y-71527409D01*
X126579862Y-71528779D01*
X126591072Y-71530534D01*
X126603170Y-71532669D01*
X126616148Y-71535183D01*
X126630001Y-71538072D01*
X126643930Y-71540950D01*
X126656943Y-71543434D01*
X126669046Y-71545528D01*
X126680239Y-71547234D01*
X126690527Y-71548555D01*
X126699913Y-71549495D01*
X126708400Y-71550056D01*
X126715990Y-71550243D01*
X126721826Y-71550119D01*
X126727524Y-71549747D01*
X126733087Y-71549126D01*
X126738513Y-71548258D01*
X126743802Y-71547141D01*
X126748955Y-71545776D01*
X126753972Y-71544163D01*
X126758853Y-71542301D01*
X126763596Y-71540191D01*
X126768204Y-71537832D01*
X126772675Y-71535225D01*
X126777010Y-71532370D01*
X126781208Y-71529265D01*
X126785269Y-71525912D01*
X126789195Y-71522310D01*
X126792984Y-71518460D01*
X126796636Y-71514360D01*
X126800152Y-71510012D01*
X126803532Y-71505415D01*
X126806775Y-71500569D01*
X126809882Y-71495474D01*
X126812853Y-71490130D01*
X126815686Y-71484536D01*
X126818384Y-71478694D01*
X126820945Y-71472602D01*
X126823370Y-71466261D01*
X126825658Y-71459671D01*
X126827810Y-71452831D01*
X126831704Y-71438404D01*
X126835053Y-71422978D01*
X126836061Y-71416892D01*
X126837001Y-71409943D01*
X126838679Y-71393461D01*
X126840090Y-71373530D01*
X126841237Y-71350152D01*
X126842125Y-71323325D01*
X126842755Y-71293051D01*
X126843130Y-71259329D01*
X126843255Y-71222160D01*
X126843255Y-70881642D01*
X126815043Y-70911922D01*
X126785770Y-70940254D01*
X126755439Y-70966637D01*
X126724048Y-70991071D01*
X126691598Y-71013555D01*
X126658089Y-71034088D01*
X126623523Y-71052669D01*
X126587899Y-71069297D01*
X126551218Y-71083972D01*
X126513479Y-71096693D01*
X126474685Y-71107458D01*
X126434834Y-71116269D01*
X126393927Y-71123122D01*
X126351965Y-71128019D01*
X126308948Y-71130957D01*
X126264877Y-71131937D01*
X126211732Y-71130728D01*
X126159952Y-71127100D01*
X126109535Y-71121054D01*
X126060482Y-71112589D01*
X126012791Y-71101706D01*
X125966462Y-71088405D01*
X125921495Y-71072685D01*
X125877890Y-71054546D01*
X125835646Y-71033989D01*
X125794763Y-71011014D01*
X125755240Y-70985620D01*
X125717077Y-70957808D01*
X125680274Y-70927577D01*
X125644830Y-70894928D01*
X125610744Y-70859860D01*
X125578017Y-70822374D01*
X125546971Y-70782854D01*
X125517928Y-70741684D01*
X125490888Y-70698864D01*
X125465850Y-70654393D01*
X125442816Y-70608271D01*
X125421785Y-70560498D01*
X125402757Y-70511072D01*
X125385731Y-70459995D01*
X125370709Y-70407265D01*
X125357690Y-70352881D01*
X125346673Y-70296845D01*
X125337660Y-70239154D01*
X125330650Y-70179810D01*
X125325642Y-70118811D01*
X125322638Y-70056157D01*
X125322291Y-70033916D01*
G37*
G36*
X127946679Y-68918317D02*
G01*
X127954706Y-68918761D01*
X127962449Y-68919501D01*
X127969907Y-68920537D01*
X127977083Y-68921870D01*
X127983978Y-68923498D01*
X127990594Y-68925423D01*
X127996932Y-68927644D01*
X128002994Y-68930161D01*
X128008781Y-68932974D01*
X128014294Y-68936083D01*
X128019536Y-68939488D01*
X128024507Y-68943189D01*
X128029210Y-68947187D01*
X128033645Y-68951480D01*
X128037814Y-68956070D01*
X128041719Y-68960956D01*
X128045362Y-68966138D01*
X128048743Y-68971615D01*
X128051864Y-68977390D01*
X128054726Y-68983460D01*
X128057332Y-68989826D01*
X128059683Y-68996488D01*
X128061780Y-69003447D01*
X128063624Y-69010701D01*
X128065218Y-69018252D01*
X128066563Y-69026099D01*
X128067659Y-69034242D01*
X128068509Y-69042681D01*
X128069115Y-69051416D01*
X128069598Y-69069774D01*
X128069598Y-69086178D01*
X128092964Y-69068784D01*
X128117026Y-69052517D01*
X128141783Y-69037378D01*
X128167238Y-69023365D01*
X128193390Y-69010477D01*
X128220240Y-68998714D01*
X128247790Y-68988075D01*
X128276039Y-68978559D01*
X128304990Y-68970166D01*
X128334641Y-68962894D01*
X128364995Y-68956743D01*
X128396052Y-68951712D01*
X128427813Y-68947801D01*
X128460279Y-68945008D01*
X128493449Y-68943333D01*
X128527326Y-68942774D01*
X128570226Y-68943472D01*
X128612108Y-68945564D01*
X128652973Y-68949051D01*
X128692819Y-68953932D01*
X128731647Y-68960207D01*
X128769456Y-68967875D01*
X128806245Y-68976936D01*
X128842015Y-68987390D01*
X128876765Y-68999236D01*
X128910494Y-69012473D01*
X128943202Y-69027102D01*
X128974889Y-69043122D01*
X129005555Y-69060533D01*
X129035198Y-69079333D01*
X129063819Y-69099524D01*
X129091418Y-69121104D01*
X129091416Y-69121104D01*
X129117657Y-69143850D01*
X129142204Y-69167440D01*
X129165059Y-69191873D01*
X129186220Y-69217152D01*
X129205689Y-69243275D01*
X129223465Y-69270244D01*
X129239548Y-69298058D01*
X129253937Y-69326718D01*
X129266634Y-69356225D01*
X129277638Y-69386578D01*
X129286949Y-69417779D01*
X129294567Y-69449828D01*
X129300493Y-69482724D01*
X129304725Y-69516469D01*
X129307264Y-69551063D01*
X129308111Y-69586506D01*
X129307246Y-69623744D01*
X129304650Y-69659555D01*
X129300325Y-69693939D01*
X129294270Y-69726896D01*
X129286484Y-69758425D01*
X129276968Y-69788526D01*
X129265723Y-69817198D01*
X129252747Y-69844441D01*
X129238040Y-69870255D01*
X129221604Y-69894639D01*
X129203438Y-69917593D01*
X129183541Y-69939117D01*
X129161915Y-69959209D01*
X129138558Y-69977871D01*
X129113471Y-69995100D01*
X129086654Y-70010898D01*
X129058187Y-70025731D01*
X129028152Y-70039969D01*
X128996548Y-70053613D01*
X128963374Y-70066663D01*
X128928632Y-70079119D01*
X128892321Y-70090981D01*
X128854441Y-70102251D01*
X128814993Y-70112928D01*
X128773975Y-70123012D01*
X128731388Y-70132505D01*
X128687233Y-70141407D01*
X128641509Y-70149717D01*
X128594215Y-70157437D01*
X128545353Y-70164566D01*
X128494922Y-70171106D01*
X128442922Y-70177056D01*
X128389288Y-70183623D01*
X128339115Y-70192014D01*
X128292401Y-70202228D01*
X128249148Y-70214267D01*
X128209355Y-70228131D01*
X128173023Y-70243819D01*
X128140150Y-70261333D01*
X128110738Y-70280673D01*
X128097330Y-70291028D01*
X128084786Y-70301840D01*
X128073108Y-70313108D01*
X128062295Y-70324832D01*
X128052346Y-70337014D01*
X128043263Y-70349652D01*
X128035045Y-70362747D01*
X128027692Y-70376300D01*
X128021204Y-70390309D01*
X128015581Y-70404775D01*
X128010823Y-70419698D01*
X128006930Y-70435078D01*
X128003903Y-70450915D01*
X128001740Y-70467210D01*
X128000442Y-70483962D01*
X128000010Y-70501171D01*
X128000522Y-70520456D01*
X128002057Y-70539321D01*
X128004616Y-70557766D01*
X128008200Y-70575791D01*
X128012808Y-70593398D01*
X128018442Y-70610587D01*
X128025101Y-70627359D01*
X128032786Y-70643715D01*
X128041497Y-70659655D01*
X128051235Y-70675180D01*
X128062000Y-70690292D01*
X128073792Y-70704990D01*
X128086613Y-70719276D01*
X128100461Y-70733151D01*
X128115338Y-70746615D01*
X128131245Y-70759668D01*
X128147935Y-70772070D01*
X128165165Y-70783678D01*
X128182936Y-70794491D01*
X128201247Y-70804507D01*
X128220099Y-70813726D01*
X128239493Y-70822148D01*
X128259429Y-70829772D01*
X128279907Y-70836596D01*
X128300927Y-70842620D01*
X128322490Y-70847844D01*
X128344597Y-70852266D01*
X128367248Y-70855886D01*
X128390443Y-70858703D01*
X128414182Y-70860716D01*
X128438466Y-70861924D01*
X128463296Y-70862327D01*
X128497784Y-70861893D01*
X128531498Y-70860591D01*
X128564438Y-70858422D01*
X128596605Y-70855386D01*
X128628000Y-70851483D01*
X128658624Y-70846714D01*
X128688477Y-70841079D01*
X128717561Y-70834579D01*
X128745875Y-70827214D01*
X128773422Y-70818984D01*
X128800201Y-70809889D01*
X128826213Y-70799931D01*
X128851460Y-70789109D01*
X128875942Y-70777424D01*
X128899659Y-70764877D01*
X128922613Y-70751467D01*
X128944493Y-70737368D01*
X128964992Y-70722756D01*
X128984108Y-70707629D01*
X129001842Y-70691989D01*
X129018196Y-70675836D01*
X129033168Y-70659170D01*
X129046760Y-70641991D01*
X129058972Y-70624301D01*
X129069804Y-70606099D01*
X129074702Y-70596806D01*
X129079256Y-70587386D01*
X129083465Y-70577838D01*
X129087330Y-70568162D01*
X129090850Y-70558358D01*
X129094025Y-70548427D01*
X129096855Y-70538369D01*
X129099341Y-70528183D01*
X129103280Y-70507429D01*
X129105842Y-70486166D01*
X129107026Y-70464393D01*
X129108315Y-70422449D01*
X129110197Y-70384721D01*
X129112668Y-70351210D01*
X129115725Y-70321915D01*
X129119364Y-70296838D01*
X129123584Y-70275977D01*
X129125910Y-70267128D01*
X129128380Y-70259333D01*
X129130994Y-70252592D01*
X129133750Y-70246906D01*
X129135226Y-70244390D01*
X129136826Y-70241954D01*
X129138550Y-70239597D01*
X129140397Y-70237319D01*
X129142369Y-70235121D01*
X129144465Y-70233001D01*
X129146685Y-70230962D01*
X129149029Y-70229001D01*
X129151497Y-70227120D01*
X129154089Y-70225318D01*
X129156806Y-70223596D01*
X129159646Y-70221954D01*
X129162610Y-70220391D01*
X129165698Y-70218908D01*
X129168910Y-70217505D01*
X129172247Y-70216181D01*
X129175707Y-70214937D01*
X129179291Y-70213774D01*
X129182999Y-70212690D01*
X129186832Y-70211686D01*
X129190788Y-70210762D01*
X129194868Y-70209918D01*
X129203401Y-70208471D01*
X129212430Y-70207345D01*
X129221955Y-70206540D01*
X129231976Y-70206057D01*
X129242493Y-70205895D01*
X129250575Y-70206036D01*
X129258399Y-70206457D01*
X129265966Y-70207158D01*
X129273276Y-70208140D01*
X129280329Y-70209402D01*
X129287125Y-70210945D01*
X129293663Y-70212767D01*
X129299945Y-70214871D01*
X129305969Y-70217254D01*
X129311737Y-70219917D01*
X129317248Y-70222861D01*
X129322502Y-70226085D01*
X129327499Y-70229589D01*
X129332240Y-70233372D01*
X129336724Y-70237436D01*
X129340951Y-70241779D01*
X129344922Y-70246403D01*
X129348636Y-70251306D01*
X129352094Y-70256489D01*
X129355295Y-70261951D01*
X129358240Y-70267693D01*
X129360928Y-70273715D01*
X129363361Y-70280017D01*
X129365537Y-70286597D01*
X129367457Y-70293458D01*
X129369120Y-70300597D01*
X129370528Y-70308016D01*
X129371680Y-70315714D01*
X129372575Y-70323692D01*
X129373215Y-70331949D01*
X129373599Y-70340484D01*
X129373727Y-70349299D01*
X129373467Y-70362185D01*
X129372689Y-70376233D01*
X129371396Y-70391441D01*
X129369592Y-70407805D01*
X129367279Y-70425323D01*
X129364461Y-70443991D01*
X129361141Y-70463807D01*
X129357322Y-70484766D01*
X129353503Y-70506494D01*
X129350183Y-70528617D01*
X129347366Y-70551130D01*
X129345053Y-70574030D01*
X129343249Y-70597315D01*
X129341956Y-70620981D01*
X129341179Y-70645026D01*
X129340919Y-70669445D01*
X129341043Y-70683821D01*
X129341419Y-70698177D01*
X129342048Y-70712521D01*
X129342936Y-70726860D01*
X129344083Y-70741198D01*
X129345494Y-70755542D01*
X129347172Y-70769898D01*
X129349120Y-70784274D01*
X129359886Y-70888363D01*
X129367575Y-70958568D01*
X129372189Y-70994940D01*
X129373342Y-71000454D01*
X129373630Y-71000046D01*
X129373727Y-70997528D01*
X129373134Y-71017905D01*
X129371357Y-71036968D01*
X129370024Y-71046006D01*
X129368395Y-71054715D01*
X129366469Y-71063096D01*
X129364247Y-71071148D01*
X129361729Y-71078872D01*
X129358914Y-71086267D01*
X129355802Y-71093333D01*
X129352393Y-71100070D01*
X129348688Y-71106479D01*
X129344687Y-71112560D01*
X129340388Y-71118311D01*
X129335792Y-71123734D01*
X129330900Y-71128828D01*
X129325711Y-71133594D01*
X129320225Y-71138031D01*
X129314441Y-71142139D01*
X129308361Y-71145919D01*
X129301984Y-71149370D01*
X129295309Y-71152492D01*
X129288337Y-71155286D01*
X129281068Y-71157751D01*
X129273501Y-71159887D01*
X129265638Y-71161695D01*
X129257476Y-71163174D01*
X129249018Y-71164324D01*
X129240261Y-71165146D01*
X129231207Y-71165639D01*
X129221856Y-71165803D01*
X129213285Y-71165659D01*
X129204986Y-71165226D01*
X129196958Y-71164505D01*
X129189201Y-71163496D01*
X129181716Y-71162199D01*
X129174503Y-71160613D01*
X129167561Y-71158738D01*
X129160890Y-71156576D01*
X129154492Y-71154125D01*
X129148365Y-71151385D01*
X129142510Y-71148358D01*
X129136926Y-71145041D01*
X129131615Y-71141437D01*
X129126575Y-71137544D01*
X129121808Y-71133363D01*
X129117312Y-71128894D01*
X129113089Y-71124136D01*
X129109137Y-71119090D01*
X129105458Y-71113755D01*
X129102051Y-71108132D01*
X129098917Y-71102221D01*
X129096054Y-71096021D01*
X129093464Y-71089533D01*
X129091147Y-71082757D01*
X129089102Y-71075692D01*
X129087329Y-71068339D01*
X129085829Y-71060698D01*
X129084602Y-71052768D01*
X129083647Y-71044550D01*
X129082965Y-71036044D01*
X129082556Y-71027249D01*
X129082420Y-71018166D01*
X129082420Y-70940113D01*
X129050868Y-70963470D01*
X129018621Y-70985320D01*
X128985678Y-71005663D01*
X128952039Y-71024499D01*
X128917701Y-71041828D01*
X128882665Y-71057650D01*
X128846930Y-71071966D01*
X128810495Y-71084774D01*
X128773359Y-71096076D01*
X128735521Y-71105871D01*
X128696982Y-71114159D01*
X128657739Y-71120940D01*
X128617792Y-71126214D01*
X128577141Y-71129981D01*
X128535784Y-71132242D01*
X128493722Y-71132995D01*
X128448773Y-71132282D01*
X128404909Y-71130143D01*
X128362132Y-71126577D01*
X128320441Y-71121585D01*
X128279836Y-71115167D01*
X128240319Y-71107322D01*
X128201889Y-71098051D01*
X128164547Y-71087354D01*
X128128294Y-71075231D01*
X128093129Y-71061681D01*
X128059053Y-71046706D01*
X128026067Y-71030303D01*
X127994170Y-71012475D01*
X127963364Y-70993220D01*
X127933648Y-70972539D01*
X127905024Y-70950432D01*
X127877776Y-70927172D01*
X127852289Y-70903030D01*
X127828562Y-70878009D01*
X127806595Y-70852107D01*
X127786388Y-70825324D01*
X127767940Y-70797660D01*
X127751251Y-70769116D01*
X127736320Y-70739692D01*
X127723147Y-70709387D01*
X127711732Y-70678201D01*
X127702074Y-70646135D01*
X127694173Y-70613188D01*
X127688028Y-70579361D01*
X127683640Y-70544653D01*
X127681007Y-70509064D01*
X127680129Y-70472595D01*
X127680810Y-70442738D01*
X127682852Y-70413641D01*
X127686255Y-70385303D01*
X127691019Y-70357726D01*
X127697145Y-70330908D01*
X127704632Y-70304851D01*
X127713480Y-70279553D01*
X127723690Y-70255017D01*
X127735262Y-70231240D01*
X127748195Y-70208224D01*
X127762490Y-70185969D01*
X127778146Y-70164474D01*
X127795165Y-70143740D01*
X127813545Y-70123768D01*
X127833287Y-70104556D01*
X127854390Y-70086105D01*
X127876856Y-70068415D01*
X127900684Y-70051487D01*
X127925873Y-70035320D01*
X127952425Y-70019915D01*
X127980339Y-70005271D01*
X128009615Y-69991389D01*
X128040253Y-69978268D01*
X128072254Y-69965910D01*
X128105616Y-69954313D01*
X128140342Y-69943479D01*
X128176429Y-69933406D01*
X128213879Y-69924096D01*
X128292867Y-69907763D01*
X128377305Y-69894480D01*
X128615165Y-69861672D01*
X128658852Y-69854686D01*
X128699724Y-69846033D01*
X128737779Y-69835712D01*
X128773018Y-69823725D01*
X128805440Y-69810071D01*
X128835045Y-69794750D01*
X128848791Y-69786465D01*
X128861832Y-69777764D01*
X128874169Y-69768647D01*
X128885801Y-69759113D01*
X128896729Y-69749163D01*
X128906952Y-69738796D01*
X128916470Y-69728014D01*
X128925283Y-69716815D01*
X128933392Y-69705200D01*
X128940796Y-69693170D01*
X128947495Y-69680723D01*
X128953489Y-69667860D01*
X128958778Y-69654582D01*
X128963362Y-69640888D01*
X128967240Y-69626778D01*
X128970414Y-69612252D01*
X128972883Y-69597310D01*
X128974646Y-69581953D01*
X128975704Y-69566181D01*
X128976057Y-69549993D01*
X128975561Y-69532220D01*
X128974072Y-69514819D01*
X128971592Y-69497789D01*
X128968119Y-69481131D01*
X128963654Y-69464843D01*
X128958198Y-69448924D01*
X128951748Y-69433376D01*
X128944307Y-69418197D01*
X128935874Y-69403387D01*
X128926448Y-69388946D01*
X128916030Y-69374872D01*
X128904620Y-69361167D01*
X128892218Y-69347829D01*
X128878823Y-69334858D01*
X128864437Y-69322254D01*
X128849058Y-69310016D01*
X128832941Y-69298339D01*
X128816340Y-69287418D01*
X128799256Y-69277253D01*
X128781688Y-69267844D01*
X128763636Y-69259189D01*
X128745101Y-69251289D01*
X128726082Y-69244143D01*
X128706579Y-69237752D01*
X128686593Y-69232113D01*
X128666123Y-69227228D01*
X128645169Y-69223095D01*
X128623732Y-69219714D01*
X128601810Y-69217086D01*
X128579405Y-69215209D01*
X128556517Y-69214083D01*
X128533144Y-69213708D01*
X128509782Y-69214052D01*
X128486915Y-69215084D01*
X128464530Y-69216805D01*
X128442612Y-69219214D01*
X128421148Y-69222312D01*
X128400125Y-69226097D01*
X128379529Y-69230572D01*
X128359347Y-69235734D01*
X128339564Y-69241585D01*
X128320168Y-69248124D01*
X128301145Y-69255351D01*
X128282481Y-69263267D01*
X128264163Y-69271871D01*
X128246177Y-69281164D01*
X128228510Y-69291145D01*
X128211147Y-69301814D01*
X128194503Y-69312963D01*
X128178900Y-69324386D01*
X128164339Y-69336081D01*
X128150818Y-69348050D01*
X128138337Y-69360291D01*
X128126896Y-69372805D01*
X128116495Y-69385592D01*
X128107133Y-69398651D01*
X128098809Y-69411984D01*
X128091524Y-69425589D01*
X128085277Y-69439467D01*
X128080067Y-69453618D01*
X128075895Y-69468042D01*
X128072759Y-69482739D01*
X128070660Y-69497709D01*
X128069596Y-69512951D01*
X128069596Y-69648153D01*
X128068610Y-69664059D01*
X128067750Y-69671626D01*
X128066644Y-69678936D01*
X128065294Y-69685989D01*
X128063699Y-69692785D01*
X128061858Y-69699323D01*
X128059773Y-69705605D01*
X128057443Y-69711630D01*
X128054868Y-69717397D01*
X128052048Y-69722908D01*
X128048983Y-69728162D01*
X128045673Y-69733160D01*
X128042119Y-69737900D01*
X128038319Y-69742384D01*
X128034274Y-69746611D01*
X128029984Y-69750582D01*
X128025450Y-69754296D01*
X128020670Y-69757754D01*
X128015646Y-69760955D01*
X128010376Y-69763900D01*
X128004862Y-69766589D01*
X127999103Y-69769021D01*
X127993098Y-69771197D01*
X127986849Y-69773117D01*
X127980355Y-69774781D01*
X127973616Y-69776188D01*
X127966632Y-69777340D01*
X127959403Y-69778235D01*
X127951929Y-69778875D01*
X127944210Y-69779259D01*
X127936246Y-69779387D01*
X127928275Y-69779235D01*
X127920535Y-69778779D01*
X127913027Y-69778019D01*
X127905752Y-69776955D01*
X127898713Y-69775587D01*
X127891911Y-69773916D01*
X127885347Y-69771939D01*
X127879022Y-69769659D01*
X127872939Y-69767075D01*
X127867098Y-69764186D01*
X127861501Y-69760993D01*
X127856149Y-69757495D01*
X127851045Y-69753693D01*
X127846188Y-69749586D01*
X127841582Y-69745175D01*
X127837227Y-69740460D01*
X127833124Y-69735440D01*
X127829276Y-69730115D01*
X127825683Y-69724485D01*
X127822347Y-69718551D01*
X127819270Y-69712311D01*
X127816452Y-69705767D01*
X127813896Y-69698918D01*
X127811603Y-69691764D01*
X127809575Y-69684305D01*
X127807812Y-69676541D01*
X127806316Y-69668472D01*
X127805089Y-69660097D01*
X127804132Y-69651418D01*
X127803447Y-69642433D01*
X127803035Y-69633143D01*
X127802897Y-69623547D01*
X127803058Y-69610537D01*
X127803542Y-69596113D01*
X127804348Y-69580275D01*
X127805477Y-69563024D01*
X127806928Y-69544358D01*
X127808702Y-69524279D01*
X127810798Y-69502786D01*
X127813216Y-69479878D01*
X127817731Y-69435482D01*
X127820956Y-69396766D01*
X127822085Y-69379546D01*
X127822891Y-69363755D01*
X127823375Y-69349397D01*
X127823536Y-69336474D01*
X127823325Y-69315948D01*
X127822688Y-69295439D01*
X127821624Y-69274943D01*
X127820129Y-69254454D01*
X127818200Y-69233964D01*
X127815834Y-69213468D01*
X127813027Y-69192960D01*
X127809777Y-69172433D01*
X127806804Y-69127834D01*
X127804650Y-69092463D01*
X127803339Y-69066319D01*
X127802897Y-69049402D01*
X127803029Y-69041320D01*
X127803427Y-69033496D01*
X127804090Y-69025929D01*
X127805017Y-69018619D01*
X127806210Y-69011566D01*
X127807667Y-69004770D01*
X127809389Y-68998232D01*
X127811376Y-68991950D01*
X127813628Y-68985925D01*
X127816144Y-68980158D01*
X127818925Y-68974647D01*
X127821971Y-68969393D01*
X127825281Y-68964396D01*
X127828855Y-68959655D01*
X127832694Y-68955171D01*
X127836797Y-68950944D01*
X127841165Y-68946973D01*
X127845797Y-68943259D01*
X127850693Y-68939801D01*
X127855853Y-68936600D01*
X127861278Y-68933655D01*
X127866966Y-68930967D01*
X127872919Y-68928534D01*
X127879135Y-68926358D01*
X127885616Y-68924438D01*
X127892360Y-68922775D01*
X127899368Y-68921367D01*
X127906640Y-68920215D01*
X127914176Y-68919320D01*
X127921975Y-68918680D01*
X127930038Y-68918296D01*
X127938364Y-68918168D01*
X127946679Y-68918317D01*
G37*
G36*
X129653272Y-69750547D02*
G01*
X129980682Y-69750547D01*
X129980765Y-69754087D01*
X129981016Y-69757514D01*
X129981435Y-69760828D01*
X129982022Y-69764029D01*
X129982775Y-69767117D01*
X129983697Y-69770092D01*
X129984786Y-69772954D01*
X129986044Y-69775703D01*
X129987468Y-69778340D01*
X129989061Y-69780863D01*
X129990822Y-69783275D01*
X129992751Y-69785573D01*
X129994847Y-69787759D01*
X129997112Y-69789832D01*
X129999545Y-69791793D01*
X130002146Y-69793641D01*
X130004915Y-69795377D01*
X130007853Y-69797001D01*
X130010958Y-69798512D01*
X130014232Y-69799911D01*
X130017675Y-69801198D01*
X130021286Y-69802373D01*
X130025065Y-69803435D01*
X130029013Y-69804386D01*
X130033130Y-69805224D01*
X130037415Y-69805951D01*
X130041869Y-69806566D01*
X130046492Y-69807068D01*
X130051283Y-69807459D01*
X130056244Y-69807739D01*
X130061373Y-69807906D01*
X130066671Y-69807962D01*
X131046952Y-69807962D01*
X131057863Y-69807739D01*
X131068073Y-69807068D01*
X131077581Y-69805951D01*
X131086387Y-69804386D01*
X131094491Y-69802373D01*
X131101892Y-69799911D01*
X131108591Y-69797001D01*
X131111676Y-69795377D01*
X131114586Y-69793641D01*
X131117319Y-69791793D01*
X131119877Y-69789832D01*
X131122258Y-69787759D01*
X131124463Y-69785573D01*
X131126493Y-69783275D01*
X131128346Y-69780863D01*
X131130022Y-69778340D01*
X131131523Y-69775703D01*
X131132847Y-69772954D01*
X131133995Y-69770092D01*
X131134966Y-69767117D01*
X131135761Y-69764029D01*
X131136379Y-69760828D01*
X131136821Y-69757514D01*
X131137086Y-69754087D01*
X131137174Y-69750547D01*
X131136439Y-69725054D01*
X131134234Y-69699870D01*
X131130557Y-69674995D01*
X131125408Y-69650427D01*
X131118787Y-69626167D01*
X131110692Y-69602212D01*
X131101122Y-69578563D01*
X131090078Y-69555219D01*
X131077557Y-69532178D01*
X131063560Y-69509440D01*
X131048086Y-69487005D01*
X131031133Y-69464872D01*
X131012702Y-69443039D01*
X130992790Y-69421506D01*
X130971398Y-69400272D01*
X130948525Y-69379337D01*
X130948527Y-69379602D01*
X130924801Y-69359467D01*
X130900753Y-69340633D01*
X130876383Y-69323101D01*
X130851690Y-69306870D01*
X130826674Y-69291940D01*
X130801336Y-69278310D01*
X130775676Y-69265980D01*
X130749693Y-69254950D01*
X130723387Y-69245219D01*
X130696760Y-69236786D01*
X130669809Y-69229652D01*
X130642536Y-69223816D01*
X130614941Y-69219277D01*
X130587023Y-69216036D01*
X130558783Y-69214092D01*
X130530221Y-69213444D01*
X130501846Y-69214067D01*
X130474155Y-69215937D01*
X130447122Y-69219054D01*
X130420725Y-69223419D01*
X130394938Y-69229032D01*
X130369737Y-69235893D01*
X130345100Y-69244003D01*
X130321001Y-69253362D01*
X130297417Y-69263971D01*
X130274324Y-69275830D01*
X130251697Y-69288939D01*
X130229513Y-69303298D01*
X130207748Y-69318909D01*
X130186377Y-69335771D01*
X130165377Y-69353885D01*
X130144723Y-69373252D01*
X130124873Y-69393467D01*
X130106301Y-69414130D01*
X130089007Y-69435240D01*
X130072992Y-69456798D01*
X130058256Y-69478803D01*
X130044799Y-69501258D01*
X130032622Y-69524160D01*
X130021725Y-69547513D01*
X130012108Y-69571314D01*
X130003773Y-69595566D01*
X129996719Y-69620268D01*
X129990947Y-69645421D01*
X129986456Y-69671025D01*
X129983248Y-69697080D01*
X129981323Y-69723588D01*
X129980682Y-69750547D01*
X129653272Y-69750547D01*
X129657154Y-69713199D01*
X129663993Y-69667291D01*
X129672787Y-69622470D01*
X129683537Y-69578736D01*
X129696242Y-69536089D01*
X129710904Y-69494530D01*
X129727521Y-69454060D01*
X129746096Y-69414678D01*
X129766628Y-69376386D01*
X129789117Y-69339183D01*
X129813565Y-69303069D01*
X129839971Y-69268046D01*
X129868336Y-69234114D01*
X129898659Y-69201273D01*
X129898661Y-69201272D01*
X129930445Y-69169987D01*
X129963289Y-69140724D01*
X129997194Y-69113481D01*
X130032159Y-69088258D01*
X130068185Y-69065056D01*
X130105271Y-69043873D01*
X130143418Y-69024709D01*
X130182625Y-69007564D01*
X130222892Y-68992438D01*
X130264220Y-68979330D01*
X130306608Y-68968240D01*
X130350056Y-68959166D01*
X130394565Y-68952110D01*
X130440135Y-68947070D01*
X130486765Y-68944047D01*
X130534455Y-68943039D01*
X130588139Y-68944258D01*
X130640544Y-68947913D01*
X130691672Y-68954004D01*
X130741521Y-68962531D01*
X130790090Y-68973494D01*
X130837381Y-68986892D01*
X130883392Y-69002725D01*
X130928122Y-69020992D01*
X130971572Y-69041693D01*
X131013741Y-69064827D01*
X131054629Y-69090395D01*
X131094235Y-69118396D01*
X131132559Y-69148829D01*
X131169600Y-69181694D01*
X131205359Y-69216990D01*
X131239834Y-69254718D01*
X131272610Y-69294400D01*
X131303272Y-69335557D01*
X131331819Y-69378190D01*
X131358251Y-69422299D01*
X131382569Y-69467884D01*
X131404772Y-69514944D01*
X131424861Y-69563481D01*
X131442835Y-69613493D01*
X131458694Y-69664982D01*
X131472439Y-69717946D01*
X131484069Y-69772386D01*
X131493585Y-69828302D01*
X131500986Y-69885694D01*
X131506273Y-69944562D01*
X131509445Y-70004905D01*
X131510502Y-70066725D01*
X131509510Y-70128318D01*
X131506533Y-70188006D01*
X131501570Y-70245825D01*
X131494623Y-70301811D01*
X131485689Y-70356000D01*
X131474769Y-70408429D01*
X131461863Y-70459133D01*
X131446969Y-70508149D01*
X131430088Y-70555511D01*
X131411219Y-70601258D01*
X131390361Y-70645423D01*
X131367515Y-70688045D01*
X131342680Y-70729158D01*
X131315856Y-70768798D01*
X131287041Y-70807002D01*
X131256237Y-70843806D01*
X131223749Y-70878839D01*
X131189885Y-70911610D01*
X131154645Y-70942118D01*
X131118030Y-70970364D01*
X131080039Y-70996347D01*
X131040674Y-71020070D01*
X130999934Y-71041531D01*
X130957821Y-71060731D01*
X130914334Y-71077671D01*
X130869473Y-71092352D01*
X130823240Y-71104772D01*
X130775634Y-71114934D01*
X130726657Y-71122837D01*
X130676308Y-71128481D01*
X130624587Y-71131867D01*
X130571496Y-71132996D01*
X130528723Y-71132187D01*
X130486527Y-71129759D01*
X130444908Y-71125713D01*
X130403866Y-71120048D01*
X130363400Y-71112765D01*
X130323511Y-71103863D01*
X130284198Y-71093343D01*
X130245463Y-71081204D01*
X130207304Y-71067446D01*
X130169722Y-71052071D01*
X130132716Y-71035076D01*
X130096287Y-71016464D01*
X130060435Y-70996232D01*
X130025160Y-70974382D01*
X129990461Y-70950914D01*
X129956339Y-70925827D01*
X129923563Y-70899702D01*
X129892901Y-70873116D01*
X129864354Y-70846070D01*
X129837922Y-70818563D01*
X129813604Y-70790595D01*
X129791401Y-70762163D01*
X129771312Y-70733268D01*
X129753338Y-70703908D01*
X129737479Y-70674083D01*
X129723734Y-70643793D01*
X129712104Y-70613036D01*
X129702588Y-70581811D01*
X129695187Y-70550118D01*
X129689900Y-70517957D01*
X129686728Y-70485325D01*
X129685671Y-70452223D01*
X129686263Y-70433337D01*
X129687004Y-70424352D01*
X129688040Y-70415673D01*
X129689373Y-70407298D01*
X129691001Y-70399229D01*
X129692926Y-70391465D01*
X129695147Y-70384006D01*
X129697663Y-70376852D01*
X129700476Y-70370003D01*
X129703586Y-70363459D01*
X129706991Y-70357220D01*
X129710692Y-70351285D01*
X129714690Y-70345656D01*
X129718983Y-70340331D01*
X129723573Y-70335310D01*
X129728458Y-70330595D01*
X129733640Y-70326184D01*
X129739118Y-70322077D01*
X129744892Y-70318275D01*
X129750962Y-70314778D01*
X129757329Y-70311584D01*
X129763991Y-70308696D01*
X129770949Y-70306111D01*
X129778204Y-70303831D01*
X129785755Y-70301855D01*
X129793601Y-70300183D01*
X129801744Y-70298815D01*
X129810183Y-70297751D01*
X129818918Y-70296991D01*
X129827949Y-70296535D01*
X129837276Y-70296384D01*
X129850315Y-70296768D01*
X129862740Y-70297921D01*
X129874552Y-70299844D01*
X129885753Y-70302535D01*
X129896344Y-70305995D01*
X129901410Y-70308014D01*
X129906324Y-70310225D01*
X129911085Y-70312628D01*
X129915695Y-70315223D01*
X129920152Y-70318010D01*
X129924457Y-70320990D01*
X129928610Y-70324162D01*
X129932612Y-70327526D01*
X129936462Y-70331082D01*
X129940160Y-70334831D01*
X129943706Y-70338772D01*
X129947101Y-70342905D01*
X129950345Y-70347230D01*
X129953438Y-70351748D01*
X129959169Y-70361359D01*
X129964297Y-70371740D01*
X129968822Y-70382890D01*
X129972744Y-70394808D01*
X130009521Y-70513871D01*
X130015583Y-70532614D01*
X130022457Y-70550942D01*
X130030145Y-70568854D01*
X130038646Y-70586351D01*
X130047961Y-70603432D01*
X130058090Y-70620097D01*
X130069034Y-70636348D01*
X130080793Y-70652182D01*
X130093368Y-70667602D01*
X130106758Y-70682605D01*
X130120964Y-70697193D01*
X130135987Y-70711366D01*
X130151827Y-70725124D01*
X130168485Y-70738465D01*
X130185960Y-70751392D01*
X130204253Y-70763903D01*
X130223077Y-70775821D01*
X130242143Y-70786971D01*
X130261451Y-70797352D01*
X130281000Y-70806963D01*
X130300791Y-70815806D01*
X130320824Y-70823880D01*
X130341098Y-70831185D01*
X130361615Y-70837721D01*
X130382373Y-70843488D01*
X130403373Y-70848486D01*
X130424615Y-70852715D01*
X130446099Y-70856176D01*
X130467825Y-70858867D01*
X130489793Y-70860789D01*
X130512002Y-70861943D01*
X130534454Y-70862327D01*
X130568433Y-70861527D01*
X130601711Y-70859127D01*
X130634288Y-70855126D01*
X130666162Y-70849524D01*
X130697335Y-70842320D01*
X130727805Y-70833515D01*
X130757571Y-70823107D01*
X130786635Y-70811097D01*
X130814994Y-70797484D01*
X130842649Y-70782267D01*
X130869600Y-70765447D01*
X130895846Y-70747022D01*
X130921386Y-70726993D01*
X130946220Y-70705359D01*
X130970349Y-70682120D01*
X130993771Y-70657275D01*
X131016120Y-70631227D01*
X131037029Y-70604379D01*
X131056500Y-70576731D01*
X131074531Y-70548283D01*
X131091121Y-70519035D01*
X131106271Y-70488988D01*
X131119979Y-70458140D01*
X131132247Y-70426492D01*
X131143072Y-70394045D01*
X131152456Y-70360797D01*
X131160397Y-70326750D01*
X131166894Y-70291902D01*
X131171949Y-70256255D01*
X131175560Y-70219807D01*
X131177727Y-70182560D01*
X131178449Y-70144513D01*
X131178384Y-70140469D01*
X131178189Y-70136575D01*
X131177865Y-70132828D01*
X131177411Y-70129229D01*
X131176829Y-70125777D01*
X131176119Y-70122472D01*
X131175280Y-70119314D01*
X131174315Y-70116301D01*
X131173222Y-70113435D01*
X131172002Y-70110714D01*
X131170656Y-70108137D01*
X131169184Y-70105706D01*
X131167586Y-70103418D01*
X131165864Y-70101275D01*
X131164016Y-70099274D01*
X131162044Y-70097417D01*
X131159865Y-70095687D01*
X131157394Y-70094068D01*
X131154631Y-70092561D01*
X131151577Y-70091166D01*
X131148232Y-70089882D01*
X131144595Y-70088710D01*
X131140666Y-70087650D01*
X131136446Y-70086701D01*
X131131935Y-70085864D01*
X131127132Y-70085138D01*
X131122038Y-70084525D01*
X131116652Y-70084022D01*
X131110975Y-70083632D01*
X131105006Y-70083353D01*
X131098746Y-70083185D01*
X131092194Y-70083129D01*
X129788064Y-70083129D01*
X129776065Y-70082993D01*
X129764673Y-70082584D01*
X129753889Y-70081902D01*
X129743713Y-70080947D01*
X129734145Y-70079719D01*
X129725184Y-70078218D01*
X129716831Y-70076444D01*
X129709086Y-70074398D01*
X129701948Y-70072079D01*
X129695418Y-70069487D01*
X129689496Y-70066622D01*
X129684182Y-70063484D01*
X129679475Y-70060073D01*
X129675376Y-70056390D01*
X129671885Y-70052433D01*
X129669001Y-70048204D01*
X129666502Y-70043367D01*
X129664164Y-70037587D01*
X129661987Y-70030864D01*
X129659972Y-70023197D01*
X129658117Y-70014586D01*
X129656424Y-70005030D01*
X129654892Y-69994530D01*
X129653522Y-69983084D01*
X129652313Y-69970692D01*
X129651264Y-69957355D01*
X129650378Y-69943070D01*
X129649652Y-69927840D01*
X129649088Y-69911661D01*
X129648684Y-69894536D01*
X129648362Y-69857440D01*
X129649339Y-69808274D01*
X129652269Y-69760193D01*
X129653272Y-69750547D01*
G37*
G36*
X132226715Y-69176964D02*
G01*
X132239670Y-69177857D01*
X132252365Y-69179344D01*
X132264800Y-69181425D01*
X132276977Y-69184100D01*
X132288896Y-69187368D01*
X132300556Y-69191229D01*
X132311958Y-69195683D01*
X132323103Y-69200730D01*
X132333992Y-69206367D01*
X132344623Y-69212597D01*
X132354998Y-69219417D01*
X132365118Y-69226828D01*
X132374982Y-69234830D01*
X132384591Y-69243421D01*
X132393946Y-69252601D01*
X132402885Y-69262198D01*
X132411247Y-69272036D01*
X132419033Y-69282116D01*
X132426242Y-69292438D01*
X132432874Y-69303002D01*
X132438929Y-69313807D01*
X132444408Y-69324855D01*
X132449310Y-69336144D01*
X132453636Y-69347675D01*
X132457384Y-69359448D01*
X132460556Y-69371463D01*
X132463151Y-69383719D01*
X132465170Y-69396218D01*
X132466612Y-69408958D01*
X132467477Y-69421940D01*
X132467765Y-69435164D01*
X132467477Y-69448388D01*
X132466612Y-69461370D01*
X132465170Y-69474110D01*
X132463151Y-69486609D01*
X132460556Y-69498865D01*
X132457384Y-69510880D01*
X132453636Y-69522653D01*
X132449310Y-69534184D01*
X132444408Y-69545473D01*
X132438929Y-69556521D01*
X132432874Y-69567326D01*
X132426242Y-69577890D01*
X132419033Y-69588212D01*
X132411247Y-69598292D01*
X132402885Y-69608130D01*
X132393946Y-69617726D01*
X132384591Y-69626907D01*
X132374982Y-69635498D01*
X132365118Y-69643500D01*
X132354998Y-69650911D01*
X132344623Y-69657731D01*
X132333992Y-69663961D01*
X132323103Y-69669599D01*
X132311958Y-69674645D01*
X132300556Y-69679099D01*
X132288896Y-69682960D01*
X132276977Y-69686228D01*
X132264800Y-69688903D01*
X132252365Y-69690985D01*
X132239670Y-69692472D01*
X132226715Y-69693364D01*
X132213500Y-69693662D01*
X132200285Y-69693367D01*
X132187331Y-69692482D01*
X132174635Y-69691007D01*
X132162200Y-69688941D01*
X132150023Y-69686282D01*
X132138104Y-69683030D01*
X132126444Y-69679184D01*
X132115041Y-69674744D01*
X132103896Y-69669709D01*
X132093008Y-69664077D01*
X132082377Y-69657849D01*
X132072001Y-69651022D01*
X132061882Y-69643598D01*
X132052018Y-69635574D01*
X132042409Y-69626951D01*
X132033054Y-69617726D01*
X132024115Y-69608130D01*
X132015753Y-69598292D01*
X132007967Y-69588212D01*
X132000759Y-69577890D01*
X131994126Y-69567326D01*
X131988071Y-69556521D01*
X131982592Y-69545473D01*
X131977690Y-69534184D01*
X131973365Y-69522653D01*
X131969616Y-69510880D01*
X131966444Y-69498865D01*
X131963849Y-69486609D01*
X131961831Y-69474110D01*
X131960389Y-69461370D01*
X131959524Y-69448388D01*
X131959235Y-69435164D01*
X131959524Y-69421943D01*
X131960389Y-69408969D01*
X131961831Y-69396240D01*
X131963849Y-69383756D01*
X131966444Y-69371516D01*
X131969616Y-69359518D01*
X131973365Y-69347760D01*
X131977690Y-69336243D01*
X131982592Y-69324964D01*
X131988071Y-69313923D01*
X131994126Y-69303119D01*
X132000759Y-69292549D01*
X132007967Y-69282214D01*
X132015753Y-69272112D01*
X132024115Y-69262241D01*
X132033054Y-69252601D01*
X132042409Y-69243421D01*
X132052018Y-69234829D01*
X132061882Y-69226828D01*
X132072001Y-69219417D01*
X132082377Y-69212597D01*
X132093008Y-69206367D01*
X132103896Y-69200729D01*
X132115041Y-69195683D01*
X132126444Y-69191229D01*
X132138104Y-69187368D01*
X132150023Y-69184100D01*
X132162200Y-69181425D01*
X132174635Y-69179344D01*
X132187331Y-69177857D01*
X132200285Y-69176964D01*
X132213500Y-69176666D01*
X132226715Y-69176964D01*
G37*
G36*
X132226715Y-70351449D02*
G01*
X132239670Y-70352342D01*
X132252365Y-70353829D01*
X132264800Y-70355910D01*
X132276977Y-70358585D01*
X132288896Y-70361854D01*
X132300556Y-70365715D01*
X132311958Y-70370169D01*
X132323103Y-70375215D01*
X132333992Y-70380853D01*
X132344623Y-70387082D01*
X132354998Y-70393903D01*
X132365118Y-70401314D01*
X132374982Y-70409315D01*
X132384591Y-70417906D01*
X132393946Y-70427087D01*
X132402885Y-70436683D01*
X132411247Y-70446521D01*
X132419033Y-70456601D01*
X132426242Y-70466923D01*
X132432874Y-70477487D01*
X132438929Y-70488293D01*
X132444408Y-70499340D01*
X132449310Y-70510629D01*
X132453636Y-70522160D01*
X132457384Y-70533933D01*
X132460556Y-70545948D01*
X132463151Y-70558204D01*
X132465170Y-70570703D01*
X132466612Y-70583443D01*
X132467477Y-70596425D01*
X132467765Y-70609649D01*
X132467477Y-70622873D01*
X132466612Y-70635855D01*
X132465170Y-70648596D01*
X132463151Y-70661094D01*
X132460556Y-70673351D01*
X132457384Y-70685366D01*
X132453636Y-70697139D01*
X132449310Y-70708670D01*
X132444408Y-70719959D01*
X132438929Y-70731006D01*
X132432874Y-70741812D01*
X132426242Y-70752375D01*
X132419033Y-70762697D01*
X132411247Y-70772777D01*
X132402885Y-70782615D01*
X132393946Y-70792211D01*
X132384591Y-70801392D01*
X132374982Y-70809983D01*
X132365118Y-70817985D01*
X132354998Y-70825396D01*
X132344623Y-70832216D01*
X132333992Y-70838446D01*
X132323103Y-70844084D01*
X132311958Y-70849130D01*
X132300556Y-70853584D01*
X132288896Y-70857445D01*
X132276977Y-70860713D01*
X132264800Y-70863388D01*
X132252365Y-70865470D01*
X132239670Y-70866957D01*
X132226715Y-70867849D01*
X132213500Y-70868147D01*
X132200285Y-70867849D01*
X132187331Y-70866957D01*
X132174635Y-70865470D01*
X132162200Y-70863388D01*
X132150023Y-70860713D01*
X132138104Y-70857445D01*
X132126444Y-70853584D01*
X132115041Y-70849130D01*
X132103896Y-70844084D01*
X132093008Y-70838446D01*
X132082377Y-70832216D01*
X132072001Y-70825396D01*
X132061882Y-70817985D01*
X132052018Y-70809983D01*
X132042409Y-70801392D01*
X132033054Y-70792211D01*
X132024115Y-70782615D01*
X132015753Y-70772777D01*
X132007967Y-70762697D01*
X132000759Y-70752375D01*
X131994126Y-70741811D01*
X131988071Y-70731006D01*
X131982592Y-70719959D01*
X131977690Y-70708669D01*
X131973365Y-70697138D01*
X131969616Y-70685365D01*
X131966444Y-70673351D01*
X131963849Y-70661094D01*
X131961831Y-70648596D01*
X131960389Y-70635855D01*
X131959524Y-70622873D01*
X131959235Y-70609649D01*
X131959524Y-70596428D01*
X131960389Y-70583454D01*
X131961831Y-70570726D01*
X131963849Y-70558242D01*
X131966444Y-70546001D01*
X131969616Y-70534003D01*
X131973365Y-70522246D01*
X131977690Y-70510728D01*
X131982592Y-70499450D01*
X131988071Y-70488409D01*
X131994126Y-70477604D01*
X132000759Y-70467035D01*
X132007967Y-70456700D01*
X132015753Y-70446597D01*
X132024115Y-70436727D01*
X132033054Y-70427087D01*
X132042409Y-70417906D01*
X132052018Y-70409315D01*
X132061882Y-70401314D01*
X132072001Y-70393902D01*
X132082377Y-70387082D01*
X132093008Y-70380853D01*
X132103896Y-70375215D01*
X132115041Y-70370169D01*
X132126444Y-70365715D01*
X132138104Y-70361853D01*
X132150023Y-70358585D01*
X132162200Y-70355910D01*
X132174635Y-70353829D01*
X132187331Y-70352342D01*
X132200285Y-70351449D01*
X132213500Y-70351152D01*
X132226715Y-70351449D01*
G37*
G36*
X117094943Y-71569824D02*
G01*
X114963724Y-71569824D01*
X114963724Y-71144109D01*
X117094943Y-71144109D01*
X117094943Y-71569824D01*
G37*
D10*
X132680104Y-73696380D02*
X132680104Y-72696380D01*
X132680104Y-72696380D02*
X132442009Y-72696380D01*
X132442009Y-72696380D02*
X132299152Y-72744000D01*
X132299152Y-72744000D02*
X132203914Y-72839238D01*
X132203914Y-72839238D02*
X132156295Y-72934476D01*
X132156295Y-72934476D02*
X132108676Y-73124952D01*
X132108676Y-73124952D02*
X132108676Y-73267809D01*
X132108676Y-73267809D02*
X132156295Y-73458285D01*
X132156295Y-73458285D02*
X132203914Y-73553523D01*
X132203914Y-73553523D02*
X132299152Y-73648761D01*
X132299152Y-73648761D02*
X132442009Y-73696380D01*
X132442009Y-73696380D02*
X132680104Y-73696380D01*
X131680104Y-72696380D02*
X131680104Y-73505904D01*
X131680104Y-73505904D02*
X131632485Y-73601142D01*
X131632485Y-73601142D02*
X131584866Y-73648761D01*
X131584866Y-73648761D02*
X131489628Y-73696380D01*
X131489628Y-73696380D02*
X131299152Y-73696380D01*
X131299152Y-73696380D02*
X131203914Y-73648761D01*
X131203914Y-73648761D02*
X131156295Y-73601142D01*
X131156295Y-73601142D02*
X131108676Y-73505904D01*
X131108676Y-73505904D02*
X131108676Y-72696380D01*
X130680104Y-73410666D02*
X130203914Y-73410666D01*
X130775342Y-73696380D02*
X130442009Y-72696380D01*
X130442009Y-72696380D02*
X130108676Y-73696380D01*
X129299152Y-73696380D02*
X129775342Y-73696380D01*
X129775342Y-73696380D02*
X129775342Y-72696380D01*
X128032485Y-73172571D02*
X127889628Y-73220190D01*
X127889628Y-73220190D02*
X127842009Y-73267809D01*
X127842009Y-73267809D02*
X127794390Y-73363047D01*
X127794390Y-73363047D02*
X127794390Y-73505904D01*
X127794390Y-73505904D02*
X127842009Y-73601142D01*
X127842009Y-73601142D02*
X127889628Y-73648761D01*
X127889628Y-73648761D02*
X127984866Y-73696380D01*
X127984866Y-73696380D02*
X128365818Y-73696380D01*
X128365818Y-73696380D02*
X128365818Y-72696380D01*
X128365818Y-72696380D02*
X128032485Y-72696380D01*
X128032485Y-72696380D02*
X127937247Y-72744000D01*
X127937247Y-72744000D02*
X127889628Y-72791619D01*
X127889628Y-72791619D02*
X127842009Y-72886857D01*
X127842009Y-72886857D02*
X127842009Y-72982095D01*
X127842009Y-72982095D02*
X127889628Y-73077333D01*
X127889628Y-73077333D02*
X127937247Y-73124952D01*
X127937247Y-73124952D02*
X128032485Y-73172571D01*
X128032485Y-73172571D02*
X128365818Y-73172571D01*
X127365818Y-72696380D02*
X127365818Y-73505904D01*
X127365818Y-73505904D02*
X127318199Y-73601142D01*
X127318199Y-73601142D02*
X127270580Y-73648761D01*
X127270580Y-73648761D02*
X127175342Y-73696380D01*
X127175342Y-73696380D02*
X126984866Y-73696380D01*
X126984866Y-73696380D02*
X126889628Y-73648761D01*
X126889628Y-73648761D02*
X126842009Y-73601142D01*
X126842009Y-73601142D02*
X126794390Y-73505904D01*
X126794390Y-73505904D02*
X126794390Y-72696380D01*
X126461056Y-72696380D02*
X125889628Y-72696380D01*
X126175342Y-73696380D02*
X126175342Y-72696380D01*
X125699151Y-72696380D02*
X125127723Y-72696380D01*
X125413437Y-73696380D02*
X125413437Y-72696380D01*
X124603913Y-72696380D02*
X124413437Y-72696380D01*
X124413437Y-72696380D02*
X124318199Y-72744000D01*
X124318199Y-72744000D02*
X124222961Y-72839238D01*
X124222961Y-72839238D02*
X124175342Y-73029714D01*
X124175342Y-73029714D02*
X124175342Y-73363047D01*
X124175342Y-73363047D02*
X124222961Y-73553523D01*
X124222961Y-73553523D02*
X124318199Y-73648761D01*
X124318199Y-73648761D02*
X124413437Y-73696380D01*
X124413437Y-73696380D02*
X124603913Y-73696380D01*
X124603913Y-73696380D02*
X124699151Y-73648761D01*
X124699151Y-73648761D02*
X124794389Y-73553523D01*
X124794389Y-73553523D02*
X124842008Y-73363047D01*
X124842008Y-73363047D02*
X124842008Y-73029714D01*
X124842008Y-73029714D02*
X124794389Y-72839238D01*
X124794389Y-72839238D02*
X124699151Y-72744000D01*
X124699151Y-72744000D02*
X124603913Y-72696380D01*
X123746770Y-73696380D02*
X123746770Y-72696380D01*
X123746770Y-72696380D02*
X123175342Y-73696380D01*
X123175342Y-73696380D02*
X123175342Y-72696380D01*
X121937246Y-73696380D02*
X121937246Y-72696380D01*
X121937246Y-72696380D02*
X121699151Y-72696380D01*
X121699151Y-72696380D02*
X121556294Y-72744000D01*
X121556294Y-72744000D02*
X121461056Y-72839238D01*
X121461056Y-72839238D02*
X121413437Y-72934476D01*
X121413437Y-72934476D02*
X121365818Y-73124952D01*
X121365818Y-73124952D02*
X121365818Y-73267809D01*
X121365818Y-73267809D02*
X121413437Y-73458285D01*
X121413437Y-73458285D02*
X121461056Y-73553523D01*
X121461056Y-73553523D02*
X121556294Y-73648761D01*
X121556294Y-73648761D02*
X121699151Y-73696380D01*
X121699151Y-73696380D02*
X121937246Y-73696380D01*
X120746770Y-72696380D02*
X120556294Y-72696380D01*
X120556294Y-72696380D02*
X120461056Y-72744000D01*
X120461056Y-72744000D02*
X120365818Y-72839238D01*
X120365818Y-72839238D02*
X120318199Y-73029714D01*
X120318199Y-73029714D02*
X120318199Y-73363047D01*
X120318199Y-73363047D02*
X120365818Y-73553523D01*
X120365818Y-73553523D02*
X120461056Y-73648761D01*
X120461056Y-73648761D02*
X120556294Y-73696380D01*
X120556294Y-73696380D02*
X120746770Y-73696380D01*
X120746770Y-73696380D02*
X120842008Y-73648761D01*
X120842008Y-73648761D02*
X120937246Y-73553523D01*
X120937246Y-73553523D02*
X120984865Y-73363047D01*
X120984865Y-73363047D02*
X120984865Y-73029714D01*
X120984865Y-73029714D02*
X120937246Y-72839238D01*
X120937246Y-72839238D02*
X120842008Y-72744000D01*
X120842008Y-72744000D02*
X120746770Y-72696380D01*
X119699151Y-72696380D02*
X119508675Y-72696380D01*
X119508675Y-72696380D02*
X119413437Y-72744000D01*
X119413437Y-72744000D02*
X119318199Y-72839238D01*
X119318199Y-72839238D02*
X119270580Y-73029714D01*
X119270580Y-73029714D02*
X119270580Y-73363047D01*
X119270580Y-73363047D02*
X119318199Y-73553523D01*
X119318199Y-73553523D02*
X119413437Y-73648761D01*
X119413437Y-73648761D02*
X119508675Y-73696380D01*
X119508675Y-73696380D02*
X119699151Y-73696380D01*
X119699151Y-73696380D02*
X119794389Y-73648761D01*
X119794389Y-73648761D02*
X119889627Y-73553523D01*
X119889627Y-73553523D02*
X119937246Y-73363047D01*
X119937246Y-73363047D02*
X119937246Y-73029714D01*
X119937246Y-73029714D02*
X119889627Y-72839238D01*
X119889627Y-72839238D02*
X119794389Y-72744000D01*
X119794389Y-72744000D02*
X119699151Y-72696380D01*
X118270580Y-73696380D02*
X118603913Y-73220190D01*
X118842008Y-73696380D02*
X118842008Y-72696380D01*
X118842008Y-72696380D02*
X118461056Y-72696380D01*
X118461056Y-72696380D02*
X118365818Y-72744000D01*
X118365818Y-72744000D02*
X118318199Y-72791619D01*
X118318199Y-72791619D02*
X118270580Y-72886857D01*
X118270580Y-72886857D02*
X118270580Y-73029714D01*
X118270580Y-73029714D02*
X118318199Y-73124952D01*
X118318199Y-73124952D02*
X118365818Y-73172571D01*
X118365818Y-73172571D02*
X118461056Y-73220190D01*
X118461056Y-73220190D02*
X118842008Y-73220190D01*
X117508675Y-73172571D02*
X117365818Y-73220190D01*
X117365818Y-73220190D02*
X117318199Y-73267809D01*
X117318199Y-73267809D02*
X117270580Y-73363047D01*
X117270580Y-73363047D02*
X117270580Y-73505904D01*
X117270580Y-73505904D02*
X117318199Y-73601142D01*
X117318199Y-73601142D02*
X117365818Y-73648761D01*
X117365818Y-73648761D02*
X117461056Y-73696380D01*
X117461056Y-73696380D02*
X117842008Y-73696380D01*
X117842008Y-73696380D02*
X117842008Y-72696380D01*
X117842008Y-72696380D02*
X117508675Y-72696380D01*
X117508675Y-72696380D02*
X117413437Y-72744000D01*
X117413437Y-72744000D02*
X117365818Y-72791619D01*
X117365818Y-72791619D02*
X117318199Y-72886857D01*
X117318199Y-72886857D02*
X117318199Y-72982095D01*
X117318199Y-72982095D02*
X117365818Y-73077333D01*
X117365818Y-73077333D02*
X117413437Y-73124952D01*
X117413437Y-73124952D02*
X117508675Y-73172571D01*
X117508675Y-73172571D02*
X117842008Y-73172571D01*
X116842008Y-73172571D02*
X116508675Y-73172571D01*
X116365818Y-73696380D02*
X116842008Y-73696380D01*
X116842008Y-73696380D02*
X116842008Y-72696380D01*
X116842008Y-72696380D02*
X116365818Y-72696380D01*
X115461056Y-73696380D02*
X115937246Y-73696380D01*
X115937246Y-73696380D02*
X115937246Y-72696380D01*
X114651532Y-73696380D02*
X115127722Y-73696380D01*
X115127722Y-73696380D02*
X115127722Y-72696380D01*
%TO.C,BT1*%
X134921914Y-116124771D02*
X134779057Y-116172390D01*
X134779057Y-116172390D02*
X134731438Y-116220009D01*
X134731438Y-116220009D02*
X134683819Y-116315247D01*
X134683819Y-116315247D02*
X134683819Y-116458104D01*
X134683819Y-116458104D02*
X134731438Y-116553342D01*
X134731438Y-116553342D02*
X134779057Y-116600961D01*
X134779057Y-116600961D02*
X134874295Y-116648580D01*
X134874295Y-116648580D02*
X135255247Y-116648580D01*
X135255247Y-116648580D02*
X135255247Y-115648580D01*
X135255247Y-115648580D02*
X134921914Y-115648580D01*
X134921914Y-115648580D02*
X134826676Y-115696200D01*
X134826676Y-115696200D02*
X134779057Y-115743819D01*
X134779057Y-115743819D02*
X134731438Y-115839057D01*
X134731438Y-115839057D02*
X134731438Y-115934295D01*
X134731438Y-115934295D02*
X134779057Y-116029533D01*
X134779057Y-116029533D02*
X134826676Y-116077152D01*
X134826676Y-116077152D02*
X134921914Y-116124771D01*
X134921914Y-116124771D02*
X135255247Y-116124771D01*
X134398104Y-115648580D02*
X133826676Y-115648580D01*
X134112390Y-116648580D02*
X134112390Y-115648580D01*
X132969533Y-116648580D02*
X133540961Y-116648580D01*
X133255247Y-116648580D02*
X133255247Y-115648580D01*
X133255247Y-115648580D02*
X133350485Y-115791438D01*
X133350485Y-115791438D02*
X133445723Y-115886676D01*
X133445723Y-115886676D02*
X133540961Y-115934295D01*
%TO.C,D9*%
X148195380Y-99845905D02*
X147195380Y-99845905D01*
X147195380Y-99845905D02*
X147195380Y-100084000D01*
X147195380Y-100084000D02*
X147243000Y-100226857D01*
X147243000Y-100226857D02*
X147338238Y-100322095D01*
X147338238Y-100322095D02*
X147433476Y-100369714D01*
X147433476Y-100369714D02*
X147623952Y-100417333D01*
X147623952Y-100417333D02*
X147766809Y-100417333D01*
X147766809Y-100417333D02*
X147957285Y-100369714D01*
X147957285Y-100369714D02*
X148052523Y-100322095D01*
X148052523Y-100322095D02*
X148147761Y-100226857D01*
X148147761Y-100226857D02*
X148195380Y-100084000D01*
X148195380Y-100084000D02*
X148195380Y-99845905D01*
X148195380Y-100893524D02*
X148195380Y-101084000D01*
X148195380Y-101084000D02*
X148147761Y-101179238D01*
X148147761Y-101179238D02*
X148100142Y-101226857D01*
X148100142Y-101226857D02*
X147957285Y-101322095D01*
X147957285Y-101322095D02*
X147766809Y-101369714D01*
X147766809Y-101369714D02*
X147385857Y-101369714D01*
X147385857Y-101369714D02*
X147290619Y-101322095D01*
X147290619Y-101322095D02*
X147243000Y-101274476D01*
X147243000Y-101274476D02*
X147195380Y-101179238D01*
X147195380Y-101179238D02*
X147195380Y-100988762D01*
X147195380Y-100988762D02*
X147243000Y-100893524D01*
X147243000Y-100893524D02*
X147290619Y-100845905D01*
X147290619Y-100845905D02*
X147385857Y-100798286D01*
X147385857Y-100798286D02*
X147623952Y-100798286D01*
X147623952Y-100798286D02*
X147719190Y-100845905D01*
X147719190Y-100845905D02*
X147766809Y-100893524D01*
X147766809Y-100893524D02*
X147814428Y-100988762D01*
X147814428Y-100988762D02*
X147814428Y-101179238D01*
X147814428Y-101179238D02*
X147766809Y-101274476D01*
X147766809Y-101274476D02*
X147719190Y-101322095D01*
X147719190Y-101322095D02*
X147623952Y-101369714D01*
%TO.C,D11*%
X151243380Y-94289714D02*
X150243380Y-94289714D01*
X150243380Y-94289714D02*
X150243380Y-94527809D01*
X150243380Y-94527809D02*
X150291000Y-94670666D01*
X150291000Y-94670666D02*
X150386238Y-94765904D01*
X150386238Y-94765904D02*
X150481476Y-94813523D01*
X150481476Y-94813523D02*
X150671952Y-94861142D01*
X150671952Y-94861142D02*
X150814809Y-94861142D01*
X150814809Y-94861142D02*
X151005285Y-94813523D01*
X151005285Y-94813523D02*
X151100523Y-94765904D01*
X151100523Y-94765904D02*
X151195761Y-94670666D01*
X151195761Y-94670666D02*
X151243380Y-94527809D01*
X151243380Y-94527809D02*
X151243380Y-94289714D01*
X151243380Y-95813523D02*
X151243380Y-95242095D01*
X151243380Y-95527809D02*
X150243380Y-95527809D01*
X150243380Y-95527809D02*
X150386238Y-95432571D01*
X150386238Y-95432571D02*
X150481476Y-95337333D01*
X150481476Y-95337333D02*
X150529095Y-95242095D01*
X151243380Y-96765904D02*
X151243380Y-96194476D01*
X151243380Y-96480190D02*
X150243380Y-96480190D01*
X150243380Y-96480190D02*
X150386238Y-96384952D01*
X150386238Y-96384952D02*
X150481476Y-96289714D01*
X150481476Y-96289714D02*
X150529095Y-96194476D01*
%TO.C,D10*%
X149719380Y-99750714D02*
X148719380Y-99750714D01*
X148719380Y-99750714D02*
X148719380Y-99988809D01*
X148719380Y-99988809D02*
X148767000Y-100131666D01*
X148767000Y-100131666D02*
X148862238Y-100226904D01*
X148862238Y-100226904D02*
X148957476Y-100274523D01*
X148957476Y-100274523D02*
X149147952Y-100322142D01*
X149147952Y-100322142D02*
X149290809Y-100322142D01*
X149290809Y-100322142D02*
X149481285Y-100274523D01*
X149481285Y-100274523D02*
X149576523Y-100226904D01*
X149576523Y-100226904D02*
X149671761Y-100131666D01*
X149671761Y-100131666D02*
X149719380Y-99988809D01*
X149719380Y-99988809D02*
X149719380Y-99750714D01*
X149719380Y-101274523D02*
X149719380Y-100703095D01*
X149719380Y-100988809D02*
X148719380Y-100988809D01*
X148719380Y-100988809D02*
X148862238Y-100893571D01*
X148862238Y-100893571D02*
X148957476Y-100798333D01*
X148957476Y-100798333D02*
X149005095Y-100703095D01*
X148719380Y-101893571D02*
X148719380Y-101988809D01*
X148719380Y-101988809D02*
X148767000Y-102084047D01*
X148767000Y-102084047D02*
X148814619Y-102131666D01*
X148814619Y-102131666D02*
X148909857Y-102179285D01*
X148909857Y-102179285D02*
X149100333Y-102226904D01*
X149100333Y-102226904D02*
X149338428Y-102226904D01*
X149338428Y-102226904D02*
X149528904Y-102179285D01*
X149528904Y-102179285D02*
X149624142Y-102131666D01*
X149624142Y-102131666D02*
X149671761Y-102084047D01*
X149671761Y-102084047D02*
X149719380Y-101988809D01*
X149719380Y-101988809D02*
X149719380Y-101893571D01*
X149719380Y-101893571D02*
X149671761Y-101798333D01*
X149671761Y-101798333D02*
X149624142Y-101750714D01*
X149624142Y-101750714D02*
X149528904Y-101703095D01*
X149528904Y-101703095D02*
X149338428Y-101655476D01*
X149338428Y-101655476D02*
X149100333Y-101655476D01*
X149100333Y-101655476D02*
X148909857Y-101703095D01*
X148909857Y-101703095D02*
X148814619Y-101750714D01*
X148814619Y-101750714D02*
X148767000Y-101798333D01*
X148767000Y-101798333D02*
X148719380Y-101893571D01*
%TO.C,D12*%
X152767380Y-94289714D02*
X151767380Y-94289714D01*
X151767380Y-94289714D02*
X151767380Y-94527809D01*
X151767380Y-94527809D02*
X151815000Y-94670666D01*
X151815000Y-94670666D02*
X151910238Y-94765904D01*
X151910238Y-94765904D02*
X152005476Y-94813523D01*
X152005476Y-94813523D02*
X152195952Y-94861142D01*
X152195952Y-94861142D02*
X152338809Y-94861142D01*
X152338809Y-94861142D02*
X152529285Y-94813523D01*
X152529285Y-94813523D02*
X152624523Y-94765904D01*
X152624523Y-94765904D02*
X152719761Y-94670666D01*
X152719761Y-94670666D02*
X152767380Y-94527809D01*
X152767380Y-94527809D02*
X152767380Y-94289714D01*
X152767380Y-95813523D02*
X152767380Y-95242095D01*
X152767380Y-95527809D02*
X151767380Y-95527809D01*
X151767380Y-95527809D02*
X151910238Y-95432571D01*
X151910238Y-95432571D02*
X152005476Y-95337333D01*
X152005476Y-95337333D02*
X152053095Y-95242095D01*
X151862619Y-96194476D02*
X151815000Y-96242095D01*
X151815000Y-96242095D02*
X151767380Y-96337333D01*
X151767380Y-96337333D02*
X151767380Y-96575428D01*
X151767380Y-96575428D02*
X151815000Y-96670666D01*
X151815000Y-96670666D02*
X151862619Y-96718285D01*
X151862619Y-96718285D02*
X151957857Y-96765904D01*
X151957857Y-96765904D02*
X152053095Y-96765904D01*
X152053095Y-96765904D02*
X152195952Y-96718285D01*
X152195952Y-96718285D02*
X152767380Y-96146857D01*
X152767380Y-96146857D02*
X152767380Y-96765904D01*
%TO.C,U6*%
X135635904Y-75567380D02*
X135635904Y-76376904D01*
X135635904Y-76376904D02*
X135588285Y-76472142D01*
X135588285Y-76472142D02*
X135540666Y-76519761D01*
X135540666Y-76519761D02*
X135445428Y-76567380D01*
X135445428Y-76567380D02*
X135254952Y-76567380D01*
X135254952Y-76567380D02*
X135159714Y-76519761D01*
X135159714Y-76519761D02*
X135112095Y-76472142D01*
X135112095Y-76472142D02*
X135064476Y-76376904D01*
X135064476Y-76376904D02*
X135064476Y-75567380D01*
X134159714Y-75567380D02*
X134350190Y-75567380D01*
X134350190Y-75567380D02*
X134445428Y-75615000D01*
X134445428Y-75615000D02*
X134493047Y-75662619D01*
X134493047Y-75662619D02*
X134588285Y-75805476D01*
X134588285Y-75805476D02*
X134635904Y-75995952D01*
X134635904Y-75995952D02*
X134635904Y-76376904D01*
X134635904Y-76376904D02*
X134588285Y-76472142D01*
X134588285Y-76472142D02*
X134540666Y-76519761D01*
X134540666Y-76519761D02*
X134445428Y-76567380D01*
X134445428Y-76567380D02*
X134254952Y-76567380D01*
X134254952Y-76567380D02*
X134159714Y-76519761D01*
X134159714Y-76519761D02*
X134112095Y-76472142D01*
X134112095Y-76472142D02*
X134064476Y-76376904D01*
X134064476Y-76376904D02*
X134064476Y-76138809D01*
X134064476Y-76138809D02*
X134112095Y-76043571D01*
X134112095Y-76043571D02*
X134159714Y-75995952D01*
X134159714Y-75995952D02*
X134254952Y-75948333D01*
X134254952Y-75948333D02*
X134445428Y-75948333D01*
X134445428Y-75948333D02*
X134540666Y-75995952D01*
X134540666Y-75995952D02*
X134588285Y-76043571D01*
X134588285Y-76043571D02*
X134635904Y-76138809D01*
%TO.C,D5*%
X145147380Y-95146905D02*
X144147380Y-95146905D01*
X144147380Y-95146905D02*
X144147380Y-95385000D01*
X144147380Y-95385000D02*
X144195000Y-95527857D01*
X144195000Y-95527857D02*
X144290238Y-95623095D01*
X144290238Y-95623095D02*
X144385476Y-95670714D01*
X144385476Y-95670714D02*
X144575952Y-95718333D01*
X144575952Y-95718333D02*
X144718809Y-95718333D01*
X144718809Y-95718333D02*
X144909285Y-95670714D01*
X144909285Y-95670714D02*
X145004523Y-95623095D01*
X145004523Y-95623095D02*
X145099761Y-95527857D01*
X145099761Y-95527857D02*
X145147380Y-95385000D01*
X145147380Y-95385000D02*
X145147380Y-95146905D01*
X144147380Y-96623095D02*
X144147380Y-96146905D01*
X144147380Y-96146905D02*
X144623571Y-96099286D01*
X144623571Y-96099286D02*
X144575952Y-96146905D01*
X144575952Y-96146905D02*
X144528333Y-96242143D01*
X144528333Y-96242143D02*
X144528333Y-96480238D01*
X144528333Y-96480238D02*
X144575952Y-96575476D01*
X144575952Y-96575476D02*
X144623571Y-96623095D01*
X144623571Y-96623095D02*
X144718809Y-96670714D01*
X144718809Y-96670714D02*
X144956904Y-96670714D01*
X144956904Y-96670714D02*
X145052142Y-96623095D01*
X145052142Y-96623095D02*
X145099761Y-96575476D01*
X145099761Y-96575476D02*
X145147380Y-96480238D01*
X145147380Y-96480238D02*
X145147380Y-96242143D01*
X145147380Y-96242143D02*
X145099761Y-96146905D01*
X145099761Y-96146905D02*
X145052142Y-96099286D01*
%TO.C,R5*%
X121832666Y-98284380D02*
X122165999Y-97808190D01*
X122404094Y-98284380D02*
X122404094Y-97284380D01*
X122404094Y-97284380D02*
X122023142Y-97284380D01*
X122023142Y-97284380D02*
X121927904Y-97332000D01*
X121927904Y-97332000D02*
X121880285Y-97379619D01*
X121880285Y-97379619D02*
X121832666Y-97474857D01*
X121832666Y-97474857D02*
X121832666Y-97617714D01*
X121832666Y-97617714D02*
X121880285Y-97712952D01*
X121880285Y-97712952D02*
X121927904Y-97760571D01*
X121927904Y-97760571D02*
X122023142Y-97808190D01*
X122023142Y-97808190D02*
X122404094Y-97808190D01*
X120927904Y-97284380D02*
X121404094Y-97284380D01*
X121404094Y-97284380D02*
X121451713Y-97760571D01*
X121451713Y-97760571D02*
X121404094Y-97712952D01*
X121404094Y-97712952D02*
X121308856Y-97665333D01*
X121308856Y-97665333D02*
X121070761Y-97665333D01*
X121070761Y-97665333D02*
X120975523Y-97712952D01*
X120975523Y-97712952D02*
X120927904Y-97760571D01*
X120927904Y-97760571D02*
X120880285Y-97855809D01*
X120880285Y-97855809D02*
X120880285Y-98093904D01*
X120880285Y-98093904D02*
X120927904Y-98189142D01*
X120927904Y-98189142D02*
X120975523Y-98236761D01*
X120975523Y-98236761D02*
X121070761Y-98284380D01*
X121070761Y-98284380D02*
X121308856Y-98284380D01*
X121308856Y-98284380D02*
X121404094Y-98236761D01*
X121404094Y-98236761D02*
X121451713Y-98189142D01*
%TO.C,D6*%
X146671380Y-95146905D02*
X145671380Y-95146905D01*
X145671380Y-95146905D02*
X145671380Y-95385000D01*
X145671380Y-95385000D02*
X145719000Y-95527857D01*
X145719000Y-95527857D02*
X145814238Y-95623095D01*
X145814238Y-95623095D02*
X145909476Y-95670714D01*
X145909476Y-95670714D02*
X146099952Y-95718333D01*
X146099952Y-95718333D02*
X146242809Y-95718333D01*
X146242809Y-95718333D02*
X146433285Y-95670714D01*
X146433285Y-95670714D02*
X146528523Y-95623095D01*
X146528523Y-95623095D02*
X146623761Y-95527857D01*
X146623761Y-95527857D02*
X146671380Y-95385000D01*
X146671380Y-95385000D02*
X146671380Y-95146905D01*
X145671380Y-96575476D02*
X145671380Y-96385000D01*
X145671380Y-96385000D02*
X145719000Y-96289762D01*
X145719000Y-96289762D02*
X145766619Y-96242143D01*
X145766619Y-96242143D02*
X145909476Y-96146905D01*
X145909476Y-96146905D02*
X146099952Y-96099286D01*
X146099952Y-96099286D02*
X146480904Y-96099286D01*
X146480904Y-96099286D02*
X146576142Y-96146905D01*
X146576142Y-96146905D02*
X146623761Y-96194524D01*
X146623761Y-96194524D02*
X146671380Y-96289762D01*
X146671380Y-96289762D02*
X146671380Y-96480238D01*
X146671380Y-96480238D02*
X146623761Y-96575476D01*
X146623761Y-96575476D02*
X146576142Y-96623095D01*
X146576142Y-96623095D02*
X146480904Y-96670714D01*
X146480904Y-96670714D02*
X146242809Y-96670714D01*
X146242809Y-96670714D02*
X146147571Y-96623095D01*
X146147571Y-96623095D02*
X146099952Y-96575476D01*
X146099952Y-96575476D02*
X146052333Y-96480238D01*
X146052333Y-96480238D02*
X146052333Y-96289762D01*
X146052333Y-96289762D02*
X146099952Y-96194524D01*
X146099952Y-96194524D02*
X146147571Y-96146905D01*
X146147571Y-96146905D02*
X146242809Y-96099286D01*
%TO.C,D2*%
X142371094Y-80489380D02*
X142371094Y-79489380D01*
X142371094Y-79489380D02*
X142132999Y-79489380D01*
X142132999Y-79489380D02*
X141990142Y-79537000D01*
X141990142Y-79537000D02*
X141894904Y-79632238D01*
X141894904Y-79632238D02*
X141847285Y-79727476D01*
X141847285Y-79727476D02*
X141799666Y-79917952D01*
X141799666Y-79917952D02*
X141799666Y-80060809D01*
X141799666Y-80060809D02*
X141847285Y-80251285D01*
X141847285Y-80251285D02*
X141894904Y-80346523D01*
X141894904Y-80346523D02*
X141990142Y-80441761D01*
X141990142Y-80441761D02*
X142132999Y-80489380D01*
X142132999Y-80489380D02*
X142371094Y-80489380D01*
X141418713Y-79584619D02*
X141371094Y-79537000D01*
X141371094Y-79537000D02*
X141275856Y-79489380D01*
X141275856Y-79489380D02*
X141037761Y-79489380D01*
X141037761Y-79489380D02*
X140942523Y-79537000D01*
X140942523Y-79537000D02*
X140894904Y-79584619D01*
X140894904Y-79584619D02*
X140847285Y-79679857D01*
X140847285Y-79679857D02*
X140847285Y-79775095D01*
X140847285Y-79775095D02*
X140894904Y-79917952D01*
X140894904Y-79917952D02*
X141466332Y-80489380D01*
X141466332Y-80489380D02*
X140847285Y-80489380D01*
D12*
%TO.C,BT1*%
X135796200Y-114571200D02*
X137996200Y-116771200D01*
X119826200Y-106761200D02*
X119826200Y-105051200D01*
X148446200Y-110561200D02*
X148446200Y-112271200D01*
X132476200Y-114571200D02*
X135796200Y-114571200D01*
X141983500Y-100551200D02*
X126288900Y-100551200D01*
X119826200Y-112271200D02*
X123444200Y-112271200D01*
X123444200Y-105051200D02*
X119826200Y-105051200D01*
X144828200Y-112271200D02*
X148446200Y-112271200D01*
X126288900Y-116771200D02*
X130276200Y-116771200D01*
X132476200Y-114571200D02*
X130276200Y-116771200D01*
X148446200Y-105051200D02*
X144828200Y-105051200D01*
X148446200Y-106761200D02*
X148446200Y-105051200D01*
X137996200Y-116771200D02*
X141983500Y-116771200D01*
X119826200Y-110561200D02*
X119826200Y-112271200D01*
X123444200Y-112271200D02*
G75*
G03*
X126290829Y-116772989I10692020J3610012D01*
G01*
X126290829Y-100549411D02*
G75*
G03*
X123444200Y-105051200I7845371J-8111789D01*
G01*
X144828198Y-105051201D02*
G75*
G03*
X141981571Y-100549411I-10692018J-3610009D01*
G01*
X141981571Y-116772989D02*
G75*
G03*
X144828200Y-112271200I-7845366J8111785D01*
G01*
%TO.C,D9*%
X147228000Y-97165000D02*
X148428000Y-97165000D01*
X148428000Y-99125000D02*
X148428000Y-97165000D01*
X147228000Y-99125000D02*
X147228000Y-97165000D01*
%TO.C,D11*%
X150276000Y-97165000D02*
X151476000Y-97165000D01*
X151476000Y-99125000D02*
X151476000Y-97165000D01*
X150276000Y-99125000D02*
X150276000Y-97165000D01*
%TO.C,D10*%
X148752000Y-97165000D02*
X149952000Y-97165000D01*
X149952000Y-99125000D02*
X149952000Y-97165000D01*
X148752000Y-99125000D02*
X148752000Y-97165000D01*
%TO.C,D12*%
X151800000Y-97165000D02*
X153000000Y-97165000D01*
X153000000Y-99125000D02*
X153000000Y-97165000D01*
X151800000Y-99125000D02*
X151800000Y-97165000D01*
D13*
%TO.C,U6*%
X136010000Y-77780000D02*
X136380000Y-77780000D01*
X136380000Y-77780000D02*
X136380000Y-95700000D01*
X136380000Y-95700000D02*
X136010000Y-95700000D01*
D12*
%TO.C,D5*%
X144180000Y-97165000D02*
X145380000Y-97165000D01*
X145380000Y-99125000D02*
X145380000Y-97165000D01*
X144180000Y-99125000D02*
X144180000Y-97165000D01*
%TO.C,R5*%
X125068064Y-98652000D02*
X124613936Y-98652000D01*
X125068064Y-97182000D02*
X124613936Y-97182000D01*
%TO.C,D6*%
X145704000Y-97165000D02*
X146904000Y-97165000D01*
X146904000Y-99125000D02*
X146904000Y-97165000D01*
X145704000Y-99125000D02*
X145704000Y-97165000D01*
%TO.C,D2*%
X137304000Y-81147000D02*
X144714000Y-81147000D01*
X137304000Y-85447000D02*
X137304000Y-81147000D01*
X137304000Y-85447000D02*
X144714000Y-85447000D01*
%TD*%
M02*
