M48
; DRILL file {KiCad (7.0.0-0)} date Wednesday, 31 May 2023 at 16:33:02
; FORMAT={-:-/ absolute / inch / decimal}
; #@! TF.CreationDate,2023-05-31T16:33:02+02:00
; #@! TF.GenerationSoftware,Kicad,Pcbnew,(7.0.0-0)
; #@! TF.FileFunction,Plated,1,4,PTH
FMAT,2
INCH
; #@! TA.AperFunction,Plated,PTH,ViaDrill
T1C0.0157
; #@! TA.AperFunction,Plated,PTH,ViaDrill
T2C0.0236
; #@! TA.AperFunction,Plated,PTH,ComponentDrill
T3C0.0236
; #@! TA.AperFunction,Plated,PTH,ComponentDrill
T4C0.0256
; #@! TA.AperFunction,Plated,PTH,ComponentDrill
T5C0.0300
; #@! TA.AperFunction,Plated,PTH,ComponentDrill
T6C0.0354
; #@! TA.AperFunction,Plated,PTH,ComponentDrill
T7C0.0472
%
G90
G05
T1
X4.476Y-4.172
X4.526Y-4.2106
X4.555Y-3.1191
X4.576Y-3.0114
X4.5902Y-4.374
X4.6608Y-3.4949
X4.661Y-2.9929
X4.6705Y-4.4031
X4.6969Y-4.1189
X4.6973Y-2.6902
X4.715Y-3.1776
X4.7268Y-4.322
X4.7386Y-2.6157
X4.7496Y-4.5846
X4.7754Y-2.9
X4.776Y-3.8252
X4.7949Y-3.4701
X4.8264Y-3.1262
X4.8303Y-3.8283
X4.8406Y-2.9422
X4.8441Y-4.3445
X4.8555Y-2.5366
X4.8854Y-3.8248
X4.8858Y-3.4736
X4.8945Y-4.2496
X4.9177Y-3.1441
X4.9177Y-3.3004
X4.9693Y-2.2701
X5.0218Y-3.3292
X5.0303Y-3.1232
X5.0335Y-3.3685
X5.0475Y-3.8248
X5.0634Y-3.4518
X5.0784Y-3.3593
X5.126Y-3.5201
X5.1996Y-3.6917
X5.2545Y-3.1291
X5.2811Y-3.8138
X5.3192Y-3.3392
X5.3252Y-3.8138
X5.326Y-3.1236
X5.3295Y-3.4689
X5.376Y-3.2598
X5.5016Y-4.1177
X5.563Y-4.0157
X5.5953Y-3.2878
X5.5969Y-3.0657
X5.6335Y-2.6835
X5.8291Y-3.7713
X5.8594Y-3.8484
X5.9Y-4.4846
X6.1898Y-2.4201
X6.2028Y-2.3197
X6.2098Y-3.4556
X6.3244Y-4.415
X6.3252Y-4.3724
X6.335Y-2.9492
X6.3591Y-2.3701
X6.6898Y-4.6075
X6.7425Y-4.2496
T2
X4.426Y-3.1217
X4.426Y-3.6854
X4.476Y-3.0028
X4.476Y-3.3602
X4.52Y-2.69
X4.5224Y-4.2705
X4.5252Y-2.8606
X4.5256Y-3.2091
X4.5783Y-3.6854
X4.5791Y-3.2992
X4.63Y-2.42
X4.69Y-3.87
X4.6935Y-3.1323
X4.712Y-3.6302
X4.7307Y-2.7894
X4.7307Y-2.9
X4.75Y-2.47
X4.7543Y-3.511
X4.79Y-4.0
X4.8449Y-3.5811
X4.8453Y-3.215
X4.8638Y-2.9055
X4.8898Y-2.6551
X4.8902Y-2.4988
X4.9Y-4.0
X4.9Y-4.39
X4.9547Y-2.6551
X4.974Y-3.215
X5.0012Y-2.6551
X5.0195Y-2.9159
X5.0741Y-3.6959
X5.0799Y-3.2146
X5.0803Y-2.8138
X5.0941Y-4.0055
X5.0996Y-4.7024
X5.126Y-3.2146
X5.1465Y-2.9159
X5.1921Y-3.2146
X5.1921Y-3.3398
X5.1921Y-3.5803
X5.1929Y-2.6548
X5.2406Y-3.9819
X5.2657Y-4.1732
X5.2898Y-3.2146
X5.2947Y-2.9159
X5.2953Y-3.5803
X5.31Y-2.7
X5.3453Y-3.5803
X5.3496Y-4.7028
X5.3906Y-4.1728
X5.45Y-3.0026
X5.4531Y-4.115
X5.5094Y-3.9823
X5.6677Y-4.1051
X5.69Y-2.6154
X5.7496Y-3.876
X5.7638Y-3.6209
X5.8118Y-3.6862
X5.8457Y-3.637
X5.8634Y-4.7028
X5.88Y-3.01
X5.8996Y-4.0059
X5.9083Y-3.4358
X5.97Y-3.81
X5.977Y-2.52
X5.977Y-2.67
X5.9772Y-2.3697
X6.065Y-2.52
X6.065Y-2.835
X6.065Y-3.188
X6.065Y-3.255
X6.065Y-3.61
X6.065Y-4.007
X6.0657Y-4.6409
X6.1024Y-2.925
X6.1465Y-2.3591
X6.1465Y-3.3449
X6.1835Y-3.8098
X6.197Y-2.52
X6.197Y-2.67
X6.205Y-4.155
X6.2724Y-3.0445
X6.2724Y-3.1382
X6.3358Y-3.3457
X6.3358Y-3.6177
X6.366Y-3.91
X6.4177Y-4.0736
X6.6Y-3.0
X6.6217Y-4.0728
T3
X5.97Y-4.33
X6.17Y-4.33
T4
X4.5644Y-3.93
X4.59Y-2.305
X4.6144Y-3.93
X4.64Y-2.305
X4.69Y-2.305
X4.74Y-2.305
X4.79Y-2.305
X4.84Y-2.305
X4.89Y-2.305
X5.9945Y-3.5862
X5.9945Y-3.6362
X5.9945Y-3.6862
T5
X5.44Y-2.71
X5.44Y-2.91
X5.44Y-3.11
X5.44Y-3.41
X5.74Y-2.71
X5.74Y-2.91
X5.74Y-3.11
X5.74Y-3.41
T6
X4.37Y-2.36
T7
X5.1724Y-2.4976
X5.3102Y-2.4976
X5.45Y-2.4976
X5.5878Y-2.4976
X5.7256Y-2.4976
X6.5303Y-2.6555
X6.5303Y-2.7933
X6.5303Y-2.9311
X6.5303Y-3.0689
X6.5303Y-3.2067
X6.5303Y-3.3445
X6.5303Y-3.4823
X6.5303Y-3.6201
X6.5303Y-3.7583
X6.5303Y-3.8961
T0
M30
