M48
; DRILL file {KiCad (7.0.0-0)} date Monday, 26 June 2023 at 00:58:59
; FORMAT={-:-/ absolute / inch / decimal}
; #@! TF.CreationDate,2023-06-26T00:58:59+02:00
; #@! TF.GenerationSoftware,Kicad,Pcbnew,(7.0.0-0)
; #@! TF.FileFunction,Plated,1,4,PTH
FMAT,2
INCH
; #@! TA.AperFunction,Plated,PTH,ViaDrill
T1C0.0079
; #@! TA.AperFunction,Plated,PTH,ComponentDrill
T2C0.0236
; #@! TA.AperFunction,Plated,PTH,ComponentDrill
T3C0.0256
; #@! TA.AperFunction,Plated,PTH,ComponentDrill
T4C0.0300
; #@! TA.AperFunction,Plated,PTH,ComponentDrill
T5C0.0472
%
G90
G05
T1
X4.426Y-3.141
X4.426Y-3.708
X4.476Y-3.139
X4.521Y-2.95
X4.521Y-3.41
X4.535Y-3.139
X4.535Y-3.18
X4.645Y-4.09
X4.652Y-3.572
X4.656Y-3.463
X4.7Y-4.193
X4.717Y-2.95
X4.719Y-4.431
X4.722Y-3.228
X4.722Y-3.265
X4.749Y-4.119
X4.754Y-2.56
X4.754Y-2.74
X4.754Y-3.185
X4.754Y-3.463
X4.7786Y-2.529
X4.785Y-4.367
X4.813Y-3.489
X4.813Y-3.52
X4.826Y-4.236
X4.835Y-4.388
X4.836Y-3.652
X4.836Y-3.6826
X4.841Y-4.466
X4.841Y-4.51
X4.855Y-2.467
X4.858Y-2.676
X4.877Y-4.09
X4.878Y-3.6826
X4.895Y-2.468
X4.937Y-2.635
X4.937Y-2.74
X4.939Y-3.622
X4.958Y-3.185
X4.967Y-2.539
X4.986Y-4.51
X5.0011Y-3.8269
X5.026Y-3.124
X5.045Y-4.64
X5.06Y-3.563
X5.076Y-2.694
X5.079Y-3.427
X5.09Y-4.435
X5.102Y-3.66
X5.112Y-4.236
X5.126Y-2.785
X5.126Y-2.903
X5.126Y-3.124
X5.146Y-3.52
X5.1497Y-4.0654
X5.165Y-3.978
X5.17Y-4.205
X5.176Y-3.124
X5.189Y-3.362
X5.23Y-3.455
X5.247Y-4.1406
X5.258Y-4.624
X5.29Y-3.323
X5.304Y-3.233
X5.308Y-3.938
X5.321Y-3.512
X5.37Y-4.141
X5.388Y-3.61
X5.4Y-3.7124
X5.4Y-3.79
X5.404Y-3.939
X5.4137Y-3.9756
X5.432Y-3.713
X5.457Y-3.993
X5.4619Y-3.783
X5.493Y-3.713
X5.499Y-3.94
X5.507Y-3.61
X5.516Y-3.687
X5.519Y-3.783
X5.564Y-3.541
X5.593Y-3.939
X5.6072Y-3.9722
X5.641Y-3.171
X5.649Y-4.141
X5.6807Y-3.993
X5.7Y-3.815
X5.716Y-3.541
X5.721Y-3.69
X5.721Y-3.754
X5.741Y-4.576
X5.76Y-3.815
X5.783Y-4.356
X5.818Y-2.869
X5.82Y-3.815
X5.87Y-3.01
X5.88Y-3.815
X5.8998Y-3.968
X5.901Y-4.621
X5.921Y-3.15
X5.921Y-3.26
X5.94Y-3.71
X5.94Y-3.815
X5.976Y-2.555
X5.976Y-2.605
X5.976Y-2.655
X5.976Y-2.805
X5.976Y-3.208
X5.989Y-2.405
X6.0Y-3.75
X6.0Y-3.815
X6.023Y-3.15
X6.042Y-3.351
X6.042Y-3.441
X6.046Y-2.949
X6.046Y-3.041
X6.048Y-2.636
X6.054Y-3.61
X6.058Y-2.84
X6.059Y-2.324
X6.121Y-4.1
X6.141Y-3.098
X6.141Y-3.92
X6.158Y-2.949
X6.179Y-2.446
X6.219Y-3.92
X6.22Y-3.768
X6.223Y-2.287
X6.223Y-2.505
X6.223Y-2.555
X6.223Y-2.605
X6.223Y-2.655
X6.223Y-2.705
X6.224Y-3.25
X6.2754Y-3.1206
X6.285Y-3.61
X6.295Y-3.977
X6.328Y-4.211
X6.329Y-2.355
X6.329Y-2.455
X6.433Y-3.977
X6.515Y-4.061
X6.604Y-4.1
T2
X6.05Y-4.4
X6.25Y-4.4
T3
X5.82Y-3.585
X5.82Y-3.635
X5.82Y-3.685
X5.82Y-3.735
T4
X5.4398Y-2.7294
X5.4398Y-2.9294
X5.4398Y-3.1294
X5.4398Y-3.4294
X5.7398Y-2.7294
X5.7398Y-2.9294
X5.7398Y-3.1294
X5.7398Y-3.4294
T5
X5.1724Y-2.4976
X5.3102Y-2.4976
X5.45Y-2.4976
X5.5878Y-2.4976
X5.7256Y-2.4976
X6.5303Y-2.6555
X6.5303Y-2.7933
X6.5303Y-2.9311
X6.5303Y-3.0689
X6.5303Y-3.2067
X6.5303Y-3.3445
X6.5303Y-3.4823
X6.5303Y-3.6201
X6.5303Y-3.7583
X6.5303Y-3.8961
T0
M30
