<?xml version="1.0" encoding="UTF-8"?><svg id="b" xmlns="http://www.w3.org/2000/svg" width="1736.66" height="584.54" viewBox="0 0 1736.66 584.54"><rect x="309.47" y="264.85" width="80.55" height="16.09" transform="translate(699.49 545.78) rotate(-180)" style="fill:#238b44;"/><g><path d="M954.61,207.15c-1.86-1.91-2.79-4.21-2.79-6.9s.93-4.98,2.79-6.9c1.86-1.91,4.13-2.87,6.82-2.87s4.96,.96,6.82,2.87c1.86,1.91,2.79,4.21,2.79,6.9s-.93,4.99-2.79,6.9c-1.86,1.91-4.13,2.87-6.82,2.87s-4.96-.95-6.82-2.87Zm0,44.39c-1.86-1.91-2.79-4.21-2.79-6.9s.93-4.98,2.79-6.9c1.86-1.91,4.13-2.87,6.82-2.87s4.96,.96,6.82,2.87c1.86,1.91,2.79,4.21,2.79,6.9s-.93,4.99-2.79,6.9c-1.86,1.91-4.13,2.87-6.82,2.87s-4.96-.96-6.82-2.87Z" style="fill:#231f20;"/><path d="M873.94,191.41c6.3-6.51,14.31-9.76,24.03-9.76,10.95,0,19.84,3.93,26.66,11.78,6.82,7.85,10.23,18.08,10.23,30.69s-3.2,22.09-9.61,29.37c-6.41,7.29-15.04,10.93-25.88,10.93-8.68,0-16.43-2.61-23.25-7.83s-10.23-11.18-10.23-17.9c0-3.93,1.91-5.89,5.73-5.89,2.69,0,4.39,1.24,5.12,3.72l1.39,4.5c1.14,3.82,3.59,6.97,7.36,9.45,3.77,2.48,7.93,3.72,12.48,3.72,6.92,0,12.71-2.58,17.36-7.75,4.65-5.17,6.98-11.63,6.98-19.38,0-.83-.21-1.42-.62-1.78-.41-.36-1.29-.54-2.64-.54h-49.29c-2.48,0-3.98-.44-4.5-1.32-.52-.88-.78-3.28-.78-7.21,0-10.02,3.15-18.29,9.46-24.8Zm39.68,6.74c-4.75-4.19-10.02-6.28-15.81-6.28s-10.44,2.01-14.57,6.04c-4.13,4.03-6.2,8.78-6.2,14.26,0,1.45,1.08,2.17,3.25,2.17h37.05c2.27,0,3.41-.72,3.41-2.17,0-5.17-2.37-9.84-7.13-14.03Z" style="fill:#231f20;"/><path d="M843.43,188.38c5.46,4.5,8.19,10.36,8.19,17.59,0,7.65-2.79,13-8.37,16.04-5.58,3.05-13.69,5.14-24.33,6.28-11.16,1.14-16.74,5.22-16.74,12.25,0,3.93,1.65,7.18,4.96,9.77,3.31,2.58,7.49,3.88,12.55,3.88,7.03,0,12.81-1.4,17.36-4.19,4.55-2.79,6.87-6.41,6.97-10.85,.1-4.44,.44-7.18,1.01-8.22,.57-1.03,1.94-1.55,4.11-1.55,3.31,0,4.96,1.81,4.96,5.42,0,1.24-.21,2.95-.62,5.12-.41,2.17-.62,4.5-.62,6.98,0,1.45,.1,2.89,.31,4.34,.62,6.1,.93,8.78,.93,8.06,0,4.24-1.91,6.36-5.74,6.36-3.51,0-5.27-1.86-5.27-5.58v-2.95c-6.29,4.86-13.7,7.29-22.25,7.29-9.17,0-16.59-2.3-22.25-6.9-5.67-4.6-8.5-10.62-8.5-18.06,0-12.19,8.78-19.48,26.35-21.85l8.99-1.24c9.09-1.24,13.64-5.17,13.64-11.78,0-3.62-1.6-6.64-4.8-9.07-3.2-2.43-7.18-3.64-11.94-3.64s-8.7,1.11-12.17,3.33c-3.46,2.22-5.24,4.88-5.35,7.98v5.11c-.1,3.31-1.78,4.96-5.04,4.96s-5.04-1.96-5.04-5.89c0-1.24,.13-3.05,.39-5.43,.26-2.38,.39-4.19,.39-5.42,0-2.07-.17-4.13-.52-6.2-.17-2.48-.26-4.03-.26-4.65,0-3.31,1.71-4.96,5.12-4.96s4.96,1.91,4.96,5.73v.62c4.64-3.62,10.4-5.42,17.3-5.42,8.75,0,15.86,2.25,21.32,6.74Z" style="fill:#231f20;"/><path d="M762.33,184.43c.83,0,2.12,.08,3.87,.23,1.76,.15,3.1,.23,4.03,.23,1.24,0,3.15-.1,5.74-.31,1.34-.1,2.58-.16,3.72-.16,4.55,0,6.82,1.65,6.82,4.96s-1.89,5.11-5.68,5.11c-.82,0-1.97-.18-3.45-.54-1.49-.36-2.59-.54-3.3-.54-2.56,0-3.89,2.38-3.99,7.13v59.83c.1,9.2,.38,14.8,.84,16.82,.46,2.01,1.66,3.02,3.61,3.02,.82,0,2.1-.18,3.84-.53,1.33-.27,2.3-.4,2.92-.4,3.48,0,5.22,1.63,5.22,4.89,0,1.42-.62,2.67-1.85,3.74-1.24,1.07-2.73,1.6-4.48,1.6-1.34,0-4.07-.26-8.19-.78-1.65-.21-3.71-.31-6.18-.31-4.53,0-7.93,.16-10.19,.46-3.09,.41-5.41,.62-6.95,.62-4.33,0-6.49-1.71-6.49-5.12s1.65-5.12,4.96-5.12c.72,0,1.81,.16,3.25,.47,1.45,.31,2.53,.46,3.25,.46,2.38,0,3.88-1.6,4.5-4.81,.21-1.14,.31-3.67,.31-7.59v-12.87c-5.58,6.3-12.87,9.46-21.86,9.46-10.85,0-19.5-3.9-25.96-11.7-6.46-7.8-9.69-18.26-9.69-31.39,0-12.19,3.05-21.85,9.14-28.98,6.1-7.13,14.31-10.69,24.65-10.69s17.93,4.03,23.71,12.09v-4.96c0-2.89,1.29-4.34,3.88-4.34Zm-13.56,11.94c-3.87-3-8.29-4.49-13.25-4.49-14.67,0-22.01,10.33-22.01,31,0,10.02,2.04,17.75,6.12,23.17,4.08,5.42,9.84,8.14,17.28,8.14,4.96,0,9.12-1.24,12.48-3.72,3.36-2.48,5.61-5.29,6.74-8.45,1.14-3.15,1.71-8.19,1.71-15.11v-2.17c-.1-1.14-.16-1.91-.16-2.33-.1-5.79-.62-10.69-1.55-14.73-1.03-4.55-3.49-8.32-7.36-11.31Z" style="fill:#231f20;"/><path d="M629.96,191.41c6.3-6.51,14.31-9.76,24.03-9.76,10.95,0,19.84,3.93,26.66,11.78,6.82,7.85,10.23,18.08,10.23,30.69s-3.2,22.09-9.61,29.37c-6.41,7.29-15.04,10.93-25.88,10.93-8.68,0-16.43-2.61-23.25-7.83s-10.23-11.18-10.23-17.9c0-3.93,1.91-5.89,5.73-5.89,2.69,0,4.39,1.24,5.12,3.72l1.39,4.5c1.14,3.82,3.59,6.97,7.36,9.45,3.77,2.48,7.93,3.72,12.48,3.72,6.92,0,12.71-2.58,17.36-7.75,4.65-5.17,6.98-11.63,6.98-19.38,0-.83-.21-1.42-.62-1.78-.41-.36-1.29-.54-2.64-.54h-49.29c-2.48,0-3.98-.44-4.5-1.32-.52-.88-.78-3.28-.78-7.21,0-10.02,3.15-18.29,9.46-24.8Zm39.68,6.74c-4.75-4.19-10.02-6.28-15.81-6.28s-10.44,2.01-14.57,6.04c-4.13,4.03-6.2,8.78-6.2,14.26,0,1.45,1.08,2.17,3.25,2.17h37.05c2.27,0,3.41-.72,3.41-2.17,0-5.17-2.37-9.84-7.13-14.03Z" style="fill:#231f20;"/><path d="M593.52,184.28c.1,0,1.5,.13,4.18,.39,1.24,.26,2.69,.39,4.34,.39l5.74-.62c.41-.1,.93-.15,1.55-.15,4.65,0,6.97,1.71,6.97,5.12s-1.89,4.96-5.68,4.96c-.74,0-1.81-.13-3.24-.39-1.42-.26-2.5-.39-3.24-.39-1.68,0-2.87,.65-3.55,1.94-.68,1.29-1.13,3.7-1.34,7.21v41.39c.11,5.99,1.74,8.99,4.89,8.99,1.37,0,2.76-.16,4.18-.46,1.42-.31,2.4-.47,2.92-.47,3.37,0,5.05,1.65,5.05,4.96,0,3.51-2.17,5.27-6.51,5.27-.62,0-3.2-.26-7.75-.78-3.62-.41-6.51-.62-8.68-.62-2.79,0-5.32,.16-7.59,.47-4.55,.62-7.23,.93-8.06,.93-4.13,0-6.2-1.68-6.2-5.04s1.6-5.19,4.81-5.19c.93,0,2.12,.18,3.56,.54,1.45,.36,2.58,.54,3.41,.54,1.65,0,2.79-.83,3.41-2.48,.62-1.65,.93-4.75,.93-9.3v-20.62c0-9.71-1.24-16.58-3.71-20.62-3.6-5.89-9.52-8.83-17.76-8.83-4.32,0-8.18,1.19-11.58,3.56-3.09,2.17-5.09,5.22-6.02,9.15-.51,2.07-.77,5.84-.77,11.31v29.14c.21,5.68,1.58,8.53,4.11,8.53,.53,0,1.79-.21,3.79-.62,1.05-.21,2-.31,2.84-.31,3.58,0,5.37,1.6,5.37,4.81,0,3.62-2.07,5.42-6.2,5.42-.31,0-3.05-.31-8.21-.93-1.76-.21-3.98-.31-6.67-.31-2.89,0-5.99,.21-9.3,.62-3.31,.41-5.68,.62-7.13,.62-1.76,0-3.25-.52-4.5-1.55-1.24-1.03-1.86-2.33-1.86-3.88,0-1.34,.49-2.48,1.47-3.41,.98-.93,2.15-1.4,3.49-1.4,.62,0,1.68,.13,3.18,.39,1.5,.26,2.71,.39,3.64,.39,2.27,0,3.67-1.76,4.19-5.27,.1-.83,.15-3.46,.15-7.9v-29.45c0-5.68,.72-10.28,2.17-13.79,1.76-4.24,5.12-7.77,10.08-10.62,4.96-2.84,10.23-4.26,15.81-4.26,10.33,0,18.6,3.93,24.8,11.78v-4.42c0-3.15,1.5-4.73,4.5-4.73Z" style="fill:#231f20;"/><path d="M399.65,248.91v-9.61c0-4.96,1.68-7.44,5.04-7.44,3.15,0,4.73,1.64,4.73,4.93v7.54c0,6.57,1.81,9.85,5.42,9.85,2.89,0,4.65-1.8,5.27-5.41,.21-.93,.31-3.87,.31-8.82v-31.25c0-18.04,9.4-27.07,28.21-27.07,8.16,0,15.11,2.07,20.85,6.2,5.74,4.13,8.6,9.09,8.6,14.88,0,2.69-.9,4.96-2.71,6.82-1.81,1.86-4.05,2.79-6.74,2.79-2.27,0-4.16-.67-5.66-2.01-1.5-1.34-2.25-3.05-2.25-5.12,0-2.48,.72-4.24,2.17-5.27,.93-.62,1.39-1.14,1.39-1.55,0-1.14-.77-2.22-2.33-3.25-4.03-2.58-8.37-3.88-13.02-3.88-5.27,0-9.38,1.22-12.32,3.64-2.95,2.43-4.42,5.76-4.42,10,0,4.44,1.32,7.49,3.95,9.14,2.64,1.65,8.29,2.95,16.97,3.88,6.1,.72,10.15,1.32,12.17,1.78,2.01,.46,4.42,1.47,7.21,3.02,7.34,4.03,11,10.33,11,18.91,0,6.92-2.5,12.45-7.52,16.58-5.01,4.13-11.7,6.2-20.07,6.2-11.26,0-19.53-3.88-24.8-11.63-1.96,7.34-7.18,11-15.66,11-10.33,0-15.6-4.96-15.81-14.88Zm39.14-.39c3.98,3.77,9.43,5.66,16.35,5.66,4.86,0,8.71-1.14,11.55-3.41,2.84-2.27,4.26-5.37,4.26-9.3,0-7.54-5.87-11.88-17.6-13.02-6.48-.62-10.98-1.34-13.51-2.17-2.52-.83-4.91-2.27-7.18-4.34v11c.1,6.61,2.15,11.81,6.12,15.58Z" style="fill:#231f20;"/></g></svg>